ISO-10303-21;
HEADER;
/* Generated by software containing ST-Developer
 * from STEP Tools, Inc. (www.steptools.com) 
 */

FILE_DESCRIPTION(
/* description */ (''),
/* implementation_level */ '2;1');

FILE_NAME(
/* name */ 'Bottom Limit Housing.step',
/* time_stamp */ '2026-09-16T01:27:46-04:00',
/* author */ (''),
/* organization */ (''),
/* preprocessor_version */ 'ST-DEVELOPER v20.2',
/* originating_system */ 'Autodesk Translation Framework v15.15.0.0',
/* authorisation */ '');

FILE_SCHEMA (('AUTOMOTIVE_DESIGN { 1 0 10303 214 3 1 1 }'));
ENDSEC;

DATA;
#10=MECHANICAL_DESIGN_GEOMETRIC_PRESENTATION_REPRESENTATION('',(#13),#387);
#11=SHAPE_REPRESENTATION_RELATIONSHIP('SRR','None',#394,#12);
#12=ADVANCED_BREP_SHAPE_REPRESENTATION('',(#14),#386);
#13=STYLED_ITEM('',(#404),#14);
#14=MANIFOLD_SOLID_BREP('Bottom Limit Housing',#227);
#15=CYLINDRICAL_SURFACE('',#245,9.5);
#16=CYLINDRICAL_SURFACE('',#248,6.5);
#17=CYLINDRICAL_SURFACE('',#255,6.5);
#18=FACE_OUTER_BOUND('',#30,.T.);
#19=FACE_OUTER_BOUND('',#31,.T.);
#20=FACE_OUTER_BOUND('',#32,.T.);
#21=FACE_OUTER_BOUND('',#33,.T.);
#22=FACE_OUTER_BOUND('',#34,.T.);
#23=FACE_OUTER_BOUND('',#35,.T.);
#24=FACE_OUTER_BOUND('',#36,.T.);
#25=FACE_OUTER_BOUND('',#37,.T.);
#26=FACE_OUTER_BOUND('',#38,.T.);
#27=FACE_OUTER_BOUND('',#39,.T.);
#28=FACE_OUTER_BOUND('',#40,.T.);
#29=FACE_OUTER_BOUND('',#41,.T.);
#30=EDGE_LOOP('',(#146,#147,#148,#149,#150,#151,#152,#153,#154,#155));
#31=EDGE_LOOP('',(#156,#157,#158,#159));
#32=EDGE_LOOP('',(#160,#161,#162,#163));
#33=EDGE_LOOP('',(#164,#165,#166,#167));
#34=EDGE_LOOP('',(#168,#169,#170,#171));
#35=EDGE_LOOP('',(#172,#173,#174,#175));
#36=EDGE_LOOP('',(#176,#177,#178,#179));
#37=EDGE_LOOP('',(#180,#181,#182,#183,#184,#185,#186,#187,#188,#189));
#38=EDGE_LOOP('',(#190,#191,#192,#193));
#39=EDGE_LOOP('',(#194,#195,#196,#197));
#40=EDGE_LOOP('',(#198,#199,#200,#201));
#41=EDGE_LOOP('',(#202,#203,#204,#205));
#42=CIRCLE('',#242,6.5);
#43=CIRCLE('',#243,9.5);
#44=CIRCLE('',#244,6.5);
#45=CIRCLE('',#246,9.5);
#46=CIRCLE('',#249,6.5);
#47=CIRCLE('',#254,6.5);
#48=LINE('',#325,#72);
#49=LINE('',#327,#73);
#50=LINE('',#331,#74);
#51=LINE('',#335,#75);
#52=LINE('',#339,#76);
#53=LINE('',#341,#77);
#54=LINE('',#342,#78);
#55=LINE('',#345,#79);
#56=LINE('',#348,#80);
#57=LINE('',#351,#81);
#58=LINE('',#352,#82);
#59=LINE('',#355,#83);
#60=LINE('',#359,#84);
#61=LINE('',#360,#85);
#62=LINE('',#363,#86);
#63=LINE('',#364,#87);
#64=LINE('',#367,#88);
#65=LINE('',#368,#89);
#66=LINE('',#371,#90);
#67=LINE('',#373,#91);
#68=LINE('',#375,#92);
#69=LINE('',#378,#93);
#70=LINE('',#380,#94);
#71=LINE('',#382,#95);
#72=VECTOR('',#263,10.);
#73=VECTOR('',#264,10.);
#74=VECTOR('',#267,10.);
#75=VECTOR('',#270,10.);
#76=VECTOR('',#273,10.);
#77=VECTOR('',#274,10.);
#78=VECTOR('',#275,10.);
#79=VECTOR('',#278,10.);
#80=VECTOR('',#281,10.);
#81=VECTOR('',#284,10.);
#82=VECTOR('',#285,10.);
#83=VECTOR('',#288,10.);
#84=VECTOR('',#293,10.);
#85=VECTOR('',#294,10.);
#86=VECTOR('',#297,10.);
#87=VECTOR('',#298,10.);
#88=VECTOR('',#301,10.);
#89=VECTOR('',#302,10.);
#90=VECTOR('',#305,10.);
#91=VECTOR('',#306,10.);
#92=VECTOR('',#307,10.);
#93=VECTOR('',#312,10.);
#94=VECTOR('',#315,10.);
#95=VECTOR('',#318,10.);
#96=VERTEX_POINT('',#323);
#97=VERTEX_POINT('',#324);
#98=VERTEX_POINT('',#326);
#99=VERTEX_POINT('',#328);
#100=VERTEX_POINT('',#330);
#101=VERTEX_POINT('',#332);
#102=VERTEX_POINT('',#334);
#103=VERTEX_POINT('',#336);
#104=VERTEX_POINT('',#338);
#105=VERTEX_POINT('',#340);
#106=VERTEX_POINT('',#344);
#107=VERTEX_POINT('',#346);
#108=VERTEX_POINT('',#350);
#109=VERTEX_POINT('',#354);
#110=VERTEX_POINT('',#358);
#111=VERTEX_POINT('',#362);
#112=VERTEX_POINT('',#366);
#113=VERTEX_POINT('',#370);
#114=VERTEX_POINT('',#372);
#115=VERTEX_POINT('',#374);
#116=EDGE_CURVE('',#96,#97,#48,.T.);
#117=EDGE_CURVE('',#98,#96,#49,.T.);
#118=EDGE_CURVE('',#99,#98,#42,.T.);
#119=EDGE_CURVE('',#100,#99,#50,.T.);
#120=EDGE_CURVE('',#101,#100,#43,.T.);
#121=EDGE_CURVE('',#102,#101,#51,.T.);
#122=EDGE_CURVE('',#103,#102,#44,.T.);
#123=EDGE_CURVE('',#104,#103,#52,.T.);
#124=EDGE_CURVE('',#105,#104,#53,.T.);
#125=EDGE_CURVE('',#97,#105,#54,.T.);
#126=EDGE_CURVE('',#100,#106,#55,.F.);
#127=EDGE_CURVE('',#107,#106,#45,.F.);
#128=EDGE_CURVE('',#107,#101,#56,.F.);
#129=EDGE_CURVE('',#108,#99,#57,.F.);
#130=EDGE_CURVE('',#106,#108,#58,.T.);
#131=EDGE_CURVE('',#98,#109,#59,.F.);
#132=EDGE_CURVE('',#108,#109,#46,.F.);
#133=EDGE_CURVE('',#96,#110,#60,.T.);
#134=EDGE_CURVE('',#109,#110,#61,.T.);
#135=EDGE_CURVE('',#111,#97,#62,.T.);
#136=EDGE_CURVE('',#110,#111,#63,.T.);
#137=EDGE_CURVE('',#112,#107,#64,.T.);
#138=EDGE_CURVE('',#102,#112,#65,.F.);
#139=EDGE_CURVE('',#111,#113,#66,.T.);
#140=EDGE_CURVE('',#113,#114,#67,.T.);
#141=EDGE_CURVE('',#114,#115,#68,.T.);
#142=EDGE_CURVE('',#115,#112,#47,.F.);
#143=EDGE_CURVE('',#115,#103,#69,.F.);
#144=EDGE_CURVE('',#104,#114,#70,.T.);
#145=EDGE_CURVE('',#105,#113,#71,.T.);
#146=ORIENTED_EDGE('',*,*,#116,.F.);
#147=ORIENTED_EDGE('',*,*,#117,.F.);
#148=ORIENTED_EDGE('',*,*,#118,.F.);
#149=ORIENTED_EDGE('',*,*,#119,.F.);
#150=ORIENTED_EDGE('',*,*,#120,.F.);
#151=ORIENTED_EDGE('',*,*,#121,.F.);
#152=ORIENTED_EDGE('',*,*,#122,.F.);
#153=ORIENTED_EDGE('',*,*,#123,.F.);
#154=ORIENTED_EDGE('',*,*,#124,.F.);
#155=ORIENTED_EDGE('',*,*,#125,.F.);
#156=ORIENTED_EDGE('',*,*,#120,.T.);
#157=ORIENTED_EDGE('',*,*,#126,.T.);
#158=ORIENTED_EDGE('',*,*,#127,.F.);
#159=ORIENTED_EDGE('',*,*,#128,.T.);
#160=ORIENTED_EDGE('',*,*,#119,.T.);
#161=ORIENTED_EDGE('',*,*,#129,.F.);
#162=ORIENTED_EDGE('',*,*,#130,.F.);
#163=ORIENTED_EDGE('',*,*,#126,.F.);
#164=ORIENTED_EDGE('',*,*,#118,.T.);
#165=ORIENTED_EDGE('',*,*,#131,.T.);
#166=ORIENTED_EDGE('',*,*,#132,.F.);
#167=ORIENTED_EDGE('',*,*,#129,.T.);
#168=ORIENTED_EDGE('',*,*,#117,.T.);
#169=ORIENTED_EDGE('',*,*,#133,.T.);
#170=ORIENTED_EDGE('',*,*,#134,.F.);
#171=ORIENTED_EDGE('',*,*,#131,.F.);
#172=ORIENTED_EDGE('',*,*,#116,.T.);
#173=ORIENTED_EDGE('',*,*,#135,.F.);
#174=ORIENTED_EDGE('',*,*,#136,.F.);
#175=ORIENTED_EDGE('',*,*,#133,.F.);
#176=ORIENTED_EDGE('',*,*,#121,.T.);
#177=ORIENTED_EDGE('',*,*,#128,.F.);
#178=ORIENTED_EDGE('',*,*,#137,.F.);
#179=ORIENTED_EDGE('',*,*,#138,.F.);
#180=ORIENTED_EDGE('',*,*,#136,.T.);
#181=ORIENTED_EDGE('',*,*,#139,.T.);
#182=ORIENTED_EDGE('',*,*,#140,.T.);
#183=ORIENTED_EDGE('',*,*,#141,.T.);
#184=ORIENTED_EDGE('',*,*,#142,.T.);
#185=ORIENTED_EDGE('',*,*,#137,.T.);
#186=ORIENTED_EDGE('',*,*,#127,.T.);
#187=ORIENTED_EDGE('',*,*,#130,.T.);
#188=ORIENTED_EDGE('',*,*,#132,.T.);
#189=ORIENTED_EDGE('',*,*,#134,.T.);
#190=ORIENTED_EDGE('',*,*,#122,.T.);
#191=ORIENTED_EDGE('',*,*,#138,.T.);
#192=ORIENTED_EDGE('',*,*,#142,.F.);
#193=ORIENTED_EDGE('',*,*,#143,.T.);
#194=ORIENTED_EDGE('',*,*,#123,.T.);
#195=ORIENTED_EDGE('',*,*,#143,.F.);
#196=ORIENTED_EDGE('',*,*,#141,.F.);
#197=ORIENTED_EDGE('',*,*,#144,.F.);
#198=ORIENTED_EDGE('',*,*,#124,.T.);
#199=ORIENTED_EDGE('',*,*,#144,.T.);
#200=ORIENTED_EDGE('',*,*,#140,.F.);
#201=ORIENTED_EDGE('',*,*,#145,.F.);
#202=ORIENTED_EDGE('',*,*,#125,.T.);
#203=ORIENTED_EDGE('',*,*,#145,.T.);
#204=ORIENTED_EDGE('',*,*,#139,.F.);
#205=ORIENTED_EDGE('',*,*,#135,.T.);
#206=PLANE('',#241);
#207=PLANE('',#247);
#208=PLANE('',#250);
#209=PLANE('',#251);
#210=PLANE('',#252);
#211=PLANE('',#253);
#212=PLANE('',#256);
#213=PLANE('',#257);
#214=PLANE('',#258);
#215=ADVANCED_FACE('',(#18),#206,.F.);
#216=ADVANCED_FACE('',(#19),#15,.F.);
#217=ADVANCED_FACE('',(#20),#207,.F.);
#218=ADVANCED_FACE('',(#21),#16,.F.);
#219=ADVANCED_FACE('',(#22),#208,.F.);
#220=ADVANCED_FACE('',(#23),#209,.F.);
#221=ADVANCED_FACE('',(#24),#210,.F.);
#222=ADVANCED_FACE('',(#25),#211,.T.);
#223=ADVANCED_FACE('',(#26),#17,.F.);
#224=ADVANCED_FACE('',(#27),#212,.F.);
#225=ADVANCED_FACE('',(#28),#213,.T.);
#226=ADVANCED_FACE('',(#29),#214,.T.);
#227=CLOSED_SHELL('',(#215,#216,#217,#218,#219,#220,#221,#222,#223,#224,
#225,#226));
#228=DERIVED_UNIT_ELEMENT(#230,1.);
#229=DERIVED_UNIT_ELEMENT(#389,-3.);
#230=(
MASS_UNIT()
NAMED_UNIT(*)
SI_UNIT(.KILO.,.GRAM.)
);
#231=DERIVED_UNIT((#228,#229));
#232=MEASURE_REPRESENTATION_ITEM('density measure',
POSITIVE_RATIO_MEASURE(7850.),#231);
#233=PROPERTY_DEFINITION_REPRESENTATION(#238,#235);
#234=PROPERTY_DEFINITION_REPRESENTATION(#239,#236);
#235=REPRESENTATION('material name',(#237),#386);
#236=REPRESENTATION('density',(#232),#386);
#237=DESCRIPTIVE_REPRESENTATION_ITEM('Steel','Steel');
#238=PROPERTY_DEFINITION('material property','material name',#396);
#239=PROPERTY_DEFINITION('material property','density of part',#396);
#240=AXIS2_PLACEMENT_3D('',#321,#259,#260);
#241=AXIS2_PLACEMENT_3D('',#322,#261,#262);
#242=AXIS2_PLACEMENT_3D('',#329,#265,#266);
#243=AXIS2_PLACEMENT_3D('',#333,#268,#269);
#244=AXIS2_PLACEMENT_3D('',#337,#271,#272);
#245=AXIS2_PLACEMENT_3D('',#343,#276,#277);
#246=AXIS2_PLACEMENT_3D('',#347,#279,#280);
#247=AXIS2_PLACEMENT_3D('',#349,#282,#283);
#248=AXIS2_PLACEMENT_3D('',#353,#286,#287);
#249=AXIS2_PLACEMENT_3D('',#356,#289,#290);
#250=AXIS2_PLACEMENT_3D('',#357,#291,#292);
#251=AXIS2_PLACEMENT_3D('',#361,#295,#296);
#252=AXIS2_PLACEMENT_3D('',#365,#299,#300);
#253=AXIS2_PLACEMENT_3D('',#369,#303,#304);
#254=AXIS2_PLACEMENT_3D('',#376,#308,#309);
#255=AXIS2_PLACEMENT_3D('',#377,#310,#311);
#256=AXIS2_PLACEMENT_3D('',#379,#313,#314);
#257=AXIS2_PLACEMENT_3D('',#381,#316,#317);
#258=AXIS2_PLACEMENT_3D('',#383,#319,#320);
#259=DIRECTION('axis',(0.,0.,1.));
#260=DIRECTION('refdir',(1.,0.,0.));
#261=DIRECTION('center_axis',(-1.23259516440783E-32,-1.,-1.07286913674869E-45));
#262=DIRECTION('ref_axis',(1.,-1.23259516440783E-32,4.37905770101505E-47));
#263=DIRECTION('',(4.37905770101505E-47,-1.07286913674869E-45,1.));
#264=DIRECTION('',(1.,-1.23259516440783E-32,0.));
#265=DIRECTION('center_axis',(1.23259516440783E-32,1.,1.07286913674869E-45));
#266=DIRECTION('ref_axis',(4.37905770101505E-47,0.,-1.));
#267=DIRECTION('',(1.,-1.23259516440783E-32,0.));
#268=DIRECTION('center_axis',(1.23259516440783E-32,1.,1.07286913674869E-45));
#269=DIRECTION('ref_axis',(4.37905770101505E-47,0.,-1.));
#270=DIRECTION('',(1.,-1.23259516440783E-32,0.));
#271=DIRECTION('center_axis',(1.23259516440783E-32,1.,1.07286913674869E-45));
#272=DIRECTION('ref_axis',(4.37905770101505E-47,0.,-1.));
#273=DIRECTION('',(1.,-1.23259516440783E-32,0.));
#274=DIRECTION('',(4.37905770101505E-47,1.07286913674869E-45,-1.));
#275=DIRECTION('',(-1.,1.23259516440783E-32,-4.37905770101505E-47));
#276=DIRECTION('center_axis',(0.,-1.,0.));
#277=DIRECTION('ref_axis',(1.22464679914735E-16,0.,1.));
#278=DIRECTION('',(0.,1.,0.));
#279=DIRECTION('center_axis',(-1.23259516440783E-32,-1.,-1.07286913674869E-45));
#280=DIRECTION('ref_axis',(4.37905770101505E-47,0.,-1.));
#281=DIRECTION('',(0.,-1.,0.));
#282=DIRECTION('center_axis',(0.,0.,1.));
#283=DIRECTION('ref_axis',(1.,0.,0.));
#284=DIRECTION('',(0.,-1.,0.));
#285=DIRECTION('',(1.,-1.23259516440783E-32,0.));
#286=DIRECTION('center_axis',(0.,-1.,0.));
#287=DIRECTION('ref_axis',(1.22464679914735E-16,0.,1.));
#288=DIRECTION('',(0.,1.,0.));
#289=DIRECTION('center_axis',(-1.23259516440783E-32,-1.,-1.07286913674869E-45));
#290=DIRECTION('ref_axis',(4.37905770101505E-47,0.,-1.));
#291=DIRECTION('center_axis',(0.,0.,1.));
#292=DIRECTION('ref_axis',(1.,0.,0.));
#293=DIRECTION('',(0.,-1.,0.));
#294=DIRECTION('',(1.,-1.23259516440783E-32,0.));
#295=DIRECTION('center_axis',(-1.,4.37905770101505E-47,4.37905770101505E-47));
#296=DIRECTION('ref_axis',(-4.37905770101505E-47,5.55111512312578E-17,-1.));
#297=DIRECTION('',(0.,1.,0.));
#298=DIRECTION('',(4.37905770101505E-47,-1.07286913674869E-45,1.));
#299=DIRECTION('center_axis',(0.,0.,1.));
#300=DIRECTION('ref_axis',(1.,0.,0.));
#301=DIRECTION('',(1.,-1.23259516440783E-32,0.));
#302=DIRECTION('',(0.,1.,0.));
#303=DIRECTION('center_axis',(-1.23259516440783E-32,-1.,-1.07286913674869E-45));
#304=DIRECTION('ref_axis',(1.,-1.23259516440783E-32,4.37905770101505E-47));
#305=DIRECTION('',(-1.,1.23259516440783E-32,-4.37905770101505E-47));
#306=DIRECTION('',(4.37905770101505E-47,1.07286913674869E-45,-1.));
#307=DIRECTION('',(1.,-1.23259516440783E-32,0.));
#308=DIRECTION('center_axis',(-1.23259516440783E-32,-1.,-1.07286913674869E-45));
#309=DIRECTION('ref_axis',(4.37905770101505E-47,0.,-1.));
#310=DIRECTION('center_axis',(0.,-1.,0.));
#311=DIRECTION('ref_axis',(1.22464679914735E-16,0.,1.));
#312=DIRECTION('',(0.,-1.,0.));
#313=DIRECTION('center_axis',(0.,0.,1.));
#314=DIRECTION('ref_axis',(1.,0.,0.));
#315=DIRECTION('',(0.,-1.,0.));
#316=DIRECTION('center_axis',(-1.,0.,-4.37905770101505E-47));
#317=DIRECTION('ref_axis',(4.37905770101505E-47,1.07286913674869E-45,-1.));
#318=DIRECTION('',(0.,-1.,0.));
#319=DIRECTION('center_axis',(-4.37905770101505E-47,0.,1.));
#320=DIRECTION('ref_axis',(-1.,1.23259516440783E-32,-4.37905770101505E-47));
#321=CARTESIAN_POINT('',(0.,0.,0.));
#322=CARTESIAN_POINT('Origin',(46.2684010363226,-106.35,-62.5723968322788));
#323=CARTESIAN_POINT('',(122.768401036323,-106.35,-22.5723968322788));
#324=CARTESIAN_POINT('',(122.768401036323,-106.35,-6.5723968322788));
#325=CARTESIAN_POINT('',(122.768401036323,-106.35,-38.5723968322788));
#326=CARTESIAN_POINT('',(121.768401036323,-106.35,-22.5723968322788));
#327=CARTESIAN_POINT('',(83.7684010363226,-106.35,-22.5723968322788));
#328=CARTESIAN_POINT('',(108.768401036323,-106.35,-22.5723968322788));
#329=CARTESIAN_POINT('Origin',(115.268401036323,-106.35,-22.5723968322788));
#330=CARTESIAN_POINT('',(95.7684010363226,-106.35,-22.5723968322788));
#331=CARTESIAN_POINT('',(69.5184010363226,-106.35,-22.5723968322788));
#332=CARTESIAN_POINT('',(76.7684010363226,-106.35,-22.5723968322788));
#333=CARTESIAN_POINT('Origin',(86.2684010363226,-106.35,-22.5723968322788));
#334=CARTESIAN_POINT('',(63.7684010363226,-106.35,-22.5723968322788));
#335=CARTESIAN_POINT('',(54.7684010363226,-106.35,-22.5723968322788));
#336=CARTESIAN_POINT('',(50.7684010363226,-106.35,-22.5723968322788));
#337=CARTESIAN_POINT('Origin',(57.2684010363226,-106.35,-22.5723968322788));
#338=CARTESIAN_POINT('',(46.2684010363226,-106.35,-22.5723968322788));
#339=CARTESIAN_POINT('',(46.2684010363226,-106.35,-22.5723968322788));
#340=CARTESIAN_POINT('',(46.2684010363226,-106.35,-6.5723968322788));
#341=CARTESIAN_POINT('',(46.2684010363226,-106.35,-34.5723968322788));
#342=CARTESIAN_POINT('',(86.2684010363226,-106.35,-6.5723968322788));
#343=CARTESIAN_POINT('Origin',(86.2684010363226,-95.35,-22.5723968322788));
#344=CARTESIAN_POINT('',(95.7684010363226,-124.35,-22.5723968322788));
#345=CARTESIAN_POINT('',(95.7684010363226,-95.35,-22.5723968322788));
#346=CARTESIAN_POINT('',(76.7684010363226,-124.35,-22.5723968322788));
#347=CARTESIAN_POINT('Origin',(86.2684010363226,-124.35,-22.5723968322788));
#348=CARTESIAN_POINT('',(76.7684010363226,-95.35,-22.5723968322788));
#349=CARTESIAN_POINT('Origin',(92.7684010363226,-124.35,-22.5723968322788));
#350=CARTESIAN_POINT('',(108.768401036323,-124.35,-22.5723968322788));
#351=CARTESIAN_POINT('',(108.768401036323,-95.35,-22.5723968322788));
#352=CARTESIAN_POINT('',(69.5184010363226,-124.35,-22.5723968322788));
#353=CARTESIAN_POINT('Origin',(115.268401036323,-95.35,-22.5723968322788));
#354=CARTESIAN_POINT('',(121.768401036323,-124.35,-22.5723968322788));
#355=CARTESIAN_POINT('',(121.768401036323,-95.35,-22.5723968322788));
#356=CARTESIAN_POINT('Origin',(115.268401036323,-124.35,-22.5723968322788));
#357=CARTESIAN_POINT('Origin',(121.268401036323,-124.35,-22.5723968322788));
#358=CARTESIAN_POINT('',(122.768401036323,-124.35,-22.5723968322788));
#359=CARTESIAN_POINT('',(122.768401036323,-120.,-22.5723968322788));
#360=CARTESIAN_POINT('',(83.7684010363226,-124.35,-22.5723968322788));
#361=CARTESIAN_POINT('Origin',(122.768401036323,-115.65,-14.5723968322788));
#362=CARTESIAN_POINT('',(122.768401036323,-124.35,-6.5723968322788));
#363=CARTESIAN_POINT('',(122.768401036323,-105.5,-6.5723968322788));
#364=CARTESIAN_POINT('',(122.768401036323,-124.35,-38.5723968322788));
#365=CARTESIAN_POINT('Origin',(63.2684010363226,-124.35,-22.5723968322788));
#366=CARTESIAN_POINT('',(63.7684010363226,-124.35,-22.5723968322788));
#367=CARTESIAN_POINT('',(54.7684010363226,-124.35,-22.5723968322788));
#368=CARTESIAN_POINT('',(63.7684010363226,-95.35,-22.5723968322788));
#369=CARTESIAN_POINT('Origin',(46.2684010363226,-124.35,-62.5723968322788));
#370=CARTESIAN_POINT('',(46.2684010363226,-124.35,-6.5723968322788));
#371=CARTESIAN_POINT('',(46.2684010363226,-124.35,-6.5723968322788));
#372=CARTESIAN_POINT('',(46.2684010363226,-124.35,-22.5723968322788));
#373=CARTESIAN_POINT('',(46.2684010363226,-124.35,-62.5723968322788));
#374=CARTESIAN_POINT('',(50.7684010363226,-124.35,-22.5723968322788));
#375=CARTESIAN_POINT('',(46.2684010363226,-124.35,-22.5723968322788));
#376=CARTESIAN_POINT('Origin',(57.2684010363226,-124.35,-22.5723968322788));
#377=CARTESIAN_POINT('Origin',(57.2684010363226,-95.35,-22.5723968322788));
#378=CARTESIAN_POINT('',(50.7684010363226,-95.35,-22.5723968322788));
#379=CARTESIAN_POINT('Origin',(46.2684010363226,-124.35,-22.5723968322788));
#380=CARTESIAN_POINT('',(46.2684010363226,-109.85,-22.5723968322788));
#381=CARTESIAN_POINT('Origin',(46.2684010363226,-95.35,-6.5723968322788));
#382=CARTESIAN_POINT('',(46.2684010363226,-95.35,-6.5723968322788));
#383=CARTESIAN_POINT('Origin',(126.268401036323,-95.35,-6.5723968322788));
#384=UNCERTAINTY_MEASURE_WITH_UNIT(LENGTH_MEASURE(0.01),#388,
'DISTANCE_ACCURACY_VALUE',
'Maximum model space distance between geometric entities at asserted c
onnectivities');
#385=UNCERTAINTY_MEASURE_WITH_UNIT(LENGTH_MEASURE(0.01),#388,
'DISTANCE_ACCURACY_VALUE',
'Maximum model space distance between geometric entities at asserted c
onnectivities');
#386=(
GEOMETRIC_REPRESENTATION_CONTEXT(3)
GLOBAL_UNCERTAINTY_ASSIGNED_CONTEXT((#384))
GLOBAL_UNIT_ASSIGNED_CONTEXT((#388,#390,#391))
REPRESENTATION_CONTEXT('','3D')
);
#387=(
GEOMETRIC_REPRESENTATION_CONTEXT(3)
GLOBAL_UNCERTAINTY_ASSIGNED_CONTEXT((#385))
GLOBAL_UNIT_ASSIGNED_CONTEXT((#388,#390,#391))
REPRESENTATION_CONTEXT('','3D')
);
#388=(
LENGTH_UNIT()
NAMED_UNIT(*)
SI_UNIT(.MILLI.,.METRE.)
);
#389=(
LENGTH_UNIT()
NAMED_UNIT(*)
SI_UNIT($,.METRE.)
);
#390=(
NAMED_UNIT(*)
PLANE_ANGLE_UNIT()
SI_UNIT($,.RADIAN.)
);
#391=(
NAMED_UNIT(*)
SI_UNIT($,.STERADIAN.)
SOLID_ANGLE_UNIT()
);
#392=SHAPE_DEFINITION_REPRESENTATION(#393,#394);
#393=PRODUCT_DEFINITION_SHAPE('',$,#396);
#394=SHAPE_REPRESENTATION('',(#240),#386);
#395=PRODUCT_DEFINITION_CONTEXT('part definition',#400,'design');
#396=PRODUCT_DEFINITION('2026-09-16-01-27-46-932',
'Bottom Limit Housing',#397,#395);
#397=PRODUCT_DEFINITION_FORMATION('',$,#402);
#398=PRODUCT_RELATED_PRODUCT_CATEGORY('Bottom Limit Housing',
'Bottom Limit Housing',(#402));
#399=APPLICATION_PROTOCOL_DEFINITION('international standard',
'automotive_design',2009,#400);
#400=APPLICATION_CONTEXT(
'Core Data for Automotive Mechanical Design Process');
#401=PRODUCT_CONTEXT('part definition',#400,'mechanical');
#402=PRODUCT('2026-09-16-01-27-46-932','Bottom Limit Housing',$,(#401));
#403=PRESENTATION_STYLE_ASSIGNMENT((#405));
#404=PRESENTATION_STYLE_ASSIGNMENT((#406));
#405=SURFACE_STYLE_USAGE(.BOTH.,#407);
#406=SURFACE_STYLE_USAGE(.BOTH.,#408);
#407=SURFACE_SIDE_STYLE('',(#409));
#408=SURFACE_SIDE_STYLE('',(#410));
#409=SURFACE_STYLE_FILL_AREA(#411);
#410=SURFACE_STYLE_FILL_AREA(#412);
#411=FILL_AREA_STYLE('Steel - Satin',(#413));
#412=FILL_AREA_STYLE(
'PA 12 - PA 2200 - 120\X\B5m - Balance (with EOS 3D printers)',(#414));
#413=FILL_AREA_STYLE_COLOUR('Steel - Satin',#415);
#414=FILL_AREA_STYLE_COLOUR(
'PA 12 - PA 2200 - 120\X\B5m - Balance (with EOS 3D printers)',#416);
#415=COLOUR_RGB('Steel - Satin',0.627450980392157,0.627450980392157,0.627450980392157);
#416=COLOUR_RGB(
'PA 12 - PA 2200 - 120\X\B5m - Balance (with EOS 3D printers)',0.964705882352941,
0.964705882352941,0.952941176470588);
ENDSEC;
END-ISO-10303-21;
