ISO-10303-21;
HEADER;
/* Generated by software containing ST-Developer
 * from STEP Tools, Inc. (www.steptools.com) 
 */

FILE_DESCRIPTION(
/* description */ (''),
/* implementation_level */ '2;1');

FILE_NAME(
/* name */ 'Bottom Clamp.step',
/* time_stamp */ '2026-09-16T01:27:47-04:00',
/* author */ (''),
/* organization */ (''),
/* preprocessor_version */ 'ST-DEVELOPER v20.2',
/* originating_system */ 'Autodesk Translation Framework v15.15.0.0',
/* authorisation */ '');

FILE_SCHEMA (('AUTOMOTIVE_DESIGN { 1 0 10303 214 3 1 1 }'));
ENDSEC;

DATA;
#10=MECHANICAL_DESIGN_GEOMETRIC_PRESENTATION_REPRESENTATION('',(#13),#1097);
#11=SHAPE_REPRESENTATION_RELATIONSHIP('SRR','None',#1104,#12);
#12=ADVANCED_BREP_SHAPE_REPRESENTATION('',(#14),#1096);
#13=STYLED_ITEM('',(#1114),#14);
#14=MANIFOLD_SOLID_BREP('Bottom Clamp',#354);
#15=(
BOUNDED_SURFACE()
B_SPLINE_SURFACE(1,2,((#1075,#1076,#1077,#1078,#1079,#1080,#1081,#1082,
#1083),(#1084,#1085,#1086,#1087,#1088,#1089,#1090,#1091,#1092)),
 .UNSPECIFIED.,.F.,.T.,.F.)
B_SPLINE_SURFACE_WITH_KNOTS((2,2),(3,2,2,2,3),(11.1560813452306,12.5253512255293),
(-3.14159265358979,-1.5707963267949,0.,1.5707963267949,3.14159265358979),
 .UNSPECIFIED.)
GEOMETRIC_REPRESENTATION_ITEM()
RATIONAL_B_SPLINE_SURFACE(((1.,0.707106781186548,1.,0.707106781186548,1.,
0.707106781186548,1.,0.707106781186548,1.),(1.,0.707106781186548,1.,0.707106781186548,
1.,0.707106781186548,1.,0.707106781186548,1.)))
REPRESENTATION_ITEM('')
SURFACE()
);
#16=FACE_BOUND('',#114,.T.);
#17=FACE_BOUND('',#116,.T.);
#18=ELLIPSE('',#395,1.5887299,1.587493931687);
#19=ELLIPSE('',#397,1.5887299,1.587493931687);
#20=PLANE('',#383);
#21=PLANE('',#384);
#22=PLANE('',#388);
#23=PLANE('',#389);
#24=PLANE('',#390);
#25=PLANE('',#391);
#26=PLANE('',#392);
#27=PLANE('',#393);
#28=PLANE('',#394);
#29=PLANE('',#396);
#30=CYLINDRICAL_SURFACE('',#371,28.4);
#31=CYLINDRICAL_SURFACE('',#385,5.49944908779019);
#32=LINE('',#752,#53);
#33=LINE('',#902,#54);
#34=LINE('',#906,#55);
#35=LINE('',#910,#56);
#36=LINE('',#915,#57);
#37=LINE('',#919,#58);
#38=LINE('',#923,#59);
#39=LINE('',#927,#60);
#40=LINE('',#931,#61);
#41=LINE('',#958,#62);
#42=LINE('',#959,#63);
#43=LINE('',#962,#64);
#44=LINE('',#964,#65);
#45=LINE('',#965,#66);
#46=LINE('',#969,#67);
#47=LINE('',#973,#68);
#48=LINE('',#1003,#69);
#49=LINE('',#1005,#70);
#50=LINE('',#1007,#71);
#51=LINE('',#1009,#72);
#52=LINE('',#1093,#73);
#53=VECTOR('',#406,10.);
#54=VECTOR('',#409,10.);
#55=VECTOR('',#412,10.);
#56=VECTOR('',#415,28.4);
#57=VECTOR('',#420,10.);
#58=VECTOR('',#423,10.);
#59=VECTOR('',#426,10.);
#60=VECTOR('',#429,10.);
#61=VECTOR('',#432,10.);
#62=VECTOR('',#441,10.);
#63=VECTOR('',#442,10.);
#64=VECTOR('',#445,10.);
#65=VECTOR('',#446,10.);
#66=VECTOR('',#447,10.);
#67=VECTOR('',#450,10.);
#68=VECTOR('',#455,10.);
#69=VECTOR('',#458,10.);
#70=VECTOR('',#461,10.);
#71=VECTOR('',#464,10.);
#72=VECTOR('',#467,10.);
#73=VECTOR('',#480,1.5887299);
#74=B_SPLINE_SURFACE_WITH_KNOTS('',3,1,((#534,#535),(#536,#537),(#538,#539),
(#540,#541),(#542,#543),(#544,#545),(#546,#547),(#548,#549),(#550,#551),
(#552,#553),(#554,#555),(#556,#557),(#558,#559),(#560,#561),(#562,#563),
(#564,#565),(#566,#567),(#568,#569),(#570,#571),(#572,#573),(#574,#575),
(#576,#577),(#578,#579),(#580,#581),(#582,#583),(#584,#585),(#586,#587),
(#588,#589),(#590,#591),(#592,#593),(#594,#595),(#596,#597),(#598,#599),
(#600,#601),(#602,#603),(#604,#605),(#606,#607),(#608,#609),(#610,#611),
(#612,#613),(#614,#615),(#616,#617),(#618,#619),(#620,#621),(#622,#623),
(#624,#625),(#626,#627),(#628,#629),(#630,#631),(#632,#633),(#634,#635),
(#636,#637),(#638,#639),(#640,#641),(#642,#643),(#644,#645),(#646,#647),
(#648,#649),(#650,#651),(#652,#653),(#654,#655),(#656,#657),(#658,#659),
(#660,#661),(#662,#663),(#664,#665),(#666,#667),(#668,#669),(#670,#671),
(#672,#673),(#674,#675),(#676,#677),(#678,#679),(#680,#681),(#682,#683),
(#684,#685),(#686,#687),(#688,#689),(#690,#691)),.UNSPECIFIED.,.F.,.F.,
 .F.,(4,3,3,3,3,3,3,3,3,3,3,3,3,3,3,3,3,3,3,3,3,3,3,3,3,3,4),(2,2),(0.23996709560089,
0.865289565072906,1.17795079980891,1.25611610849292,1.30007749056968,1.32345633197495,
1.40703418325994,1.44882310890243,1.46417246971376,1.47184908853087,1.4812305615379,
1.48592129804141,1.48826666629317,1.48943935041904,1.49002569248198,1.49031886351345,
1.49046544902919,1.49053874178705,1.49057538816599,1.49059371135546,1.49060287295019,
1.49060745374756,1.49060974414624,1.49061088934558,1.49061147157633,1.49061188010934,
1.49061203454492),(0.,0.00999999999999979),.UNSPECIFIED.);
#75=B_SPLINE_SURFACE_WITH_KNOTS('',3,1,((#811,#812),(#813,#814),(#815,#816),
(#817,#818),(#819,#820),(#821,#822),(#823,#824),(#825,#826),(#827,#828),
(#829,#830),(#831,#832),(#833,#834),(#835,#836),(#837,#838),(#839,#840),
(#841,#842),(#843,#844),(#845,#846),(#847,#848),(#849,#850),(#851,#852),
(#853,#854),(#855,#856),(#857,#858),(#859,#860)),.UNSPECIFIED.,.F.,.F.,
 .F.,(4,3,3,3,3,3,3,3,4),(2,2),(11.1208745712062,11.5591659918489,11.7783117021703,
11.887884557331,11.9426709849113,11.9700641987015,11.9837608055966,11.9906091090441,
11.9974574124917),(2.00000000044265E-5,0.2362),.UNSPECIFIED.);
#76=B_SPLINE_SURFACE_WITH_KNOTS('',3,1,((#974,#975),(#976,#977),(#978,#979),
(#980,#981),(#982,#983),(#984,#985),(#986,#987)),.UNSPECIFIED.,.F.,.F.,
 .F.,(4,3,4),(2,2),(12.,13.,14.),(2.00000000043805E-5,0.2362),
 .UNSPECIFIED.);
#77=B_SPLINE_SURFACE_WITH_KNOTS('',3,1,((#1030,#1031),(#1032,#1033),(#1034,
#1035),(#1036,#1037),(#1038,#1039),(#1040,#1041),(#1042,#1043),(#1044,#1045),
(#1046,#1047),(#1048,#1049),(#1050,#1051),(#1052,#1053),(#1054,#1055),(#1056,
#1057),(#1058,#1059),(#1060,#1061),(#1062,#1063),(#1064,#1065),(#1066,#1067)),
 .UNSPECIFIED.,.F.,.F.,.F.,(4,3,3,3,3,3,4),(2,2),(0.,0.228819690591179,
0.339960317644798,4.25854105759337,6.45572619888947,7.91199852872838,8.17712179754194),
(0.,0.00999999999999979),.UNSPECIFIED.);
#78=FACE_OUTER_BOUND('',#97,.T.);
#79=FACE_OUTER_BOUND('',#98,.T.);
#80=FACE_OUTER_BOUND('',#99,.T.);
#81=FACE_OUTER_BOUND('',#100,.T.);
#82=FACE_OUTER_BOUND('',#101,.T.);
#83=FACE_OUTER_BOUND('',#102,.T.);
#84=FACE_OUTER_BOUND('',#103,.T.);
#85=FACE_OUTER_BOUND('',#104,.T.);
#86=FACE_OUTER_BOUND('',#105,.T.);
#87=FACE_OUTER_BOUND('',#106,.T.);
#88=FACE_OUTER_BOUND('',#107,.T.);
#89=FACE_OUTER_BOUND('',#108,.T.);
#90=FACE_OUTER_BOUND('',#109,.T.);
#91=FACE_OUTER_BOUND('',#110,.T.);
#92=FACE_OUTER_BOUND('',#111,.T.);
#93=FACE_OUTER_BOUND('',#112,.T.);
#94=FACE_OUTER_BOUND('',#113,.T.);
#95=FACE_OUTER_BOUND('',#115,.T.);
#96=FACE_OUTER_BOUND('',#117,.T.);
#97=EDGE_LOOP('',(#231,#232,#233,#234,#235));
#98=EDGE_LOOP('',(#236,#237,#238,#239));
#99=EDGE_LOOP('',(#240,#241,#242,#243,#244,#245));
#100=EDGE_LOOP('',(#246,#247,#248,#249,#250,#251,#252,#253,#254,#255,#256,
#257,#258,#259,#260,#261,#262,#263,#264,#265));
#101=EDGE_LOOP('',(#266,#267,#268,#269));
#102=EDGE_LOOP('',(#270,#271,#272,#273,#274,#275));
#103=EDGE_LOOP('',(#276,#277,#278,#279,#280));
#104=EDGE_LOOP('',(#281,#282,#283,#284,#285));
#105=EDGE_LOOP('',(#286,#287,#288,#289));
#106=EDGE_LOOP('',(#290,#291,#292,#293,#294,#295,#296));
#107=EDGE_LOOP('',(#297,#298,#299,#300));
#108=EDGE_LOOP('',(#301,#302,#303,#304));
#109=EDGE_LOOP('',(#305,#306,#307,#308));
#110=EDGE_LOOP('',(#309,#310,#311,#312,#313));
#111=EDGE_LOOP('',(#314,#315,#316,#317,#318));
#112=EDGE_LOOP('',(#319,#320));
#113=EDGE_LOOP('',(#321));
#114=EDGE_LOOP('',(#322));
#115=EDGE_LOOP('',(#323,#324,#325,#326,#327));
#116=EDGE_LOOP('',(#328));
#117=EDGE_LOOP('',(#329,#330,#331,#332));
#118=CIRCLE('',#369,26.4);
#119=CIRCLE('',#370,28.4);
#120=CIRCLE('',#372,28.4);
#121=CIRCLE('',#373,28.4);
#122=CIRCLE('',#374,28.4);
#123=CIRCLE('',#375,28.4);
#124=CIRCLE('',#376,28.4);
#125=CIRCLE('',#377,28.4);
#126=CIRCLE('',#378,28.4);
#127=CIRCLE('',#379,28.4);
#128=CIRCLE('',#380,28.4);
#129=CIRCLE('',#382,26.4);
#130=CIRCLE('',#386,5.49944908779019);
#131=CIRCLE('',#387,5.49944908779019);
#132=B_SPLINE_CURVE_WITH_KNOTS('',3,(#485,#486,#487,#488,#489,#490,#491,
#492,#493,#494,#495,#496,#497,#498,#499,#500,#501,#502,#503,#504,#505,#506),
 .UNSPECIFIED.,.F.,.F.,(4,3,3,3,3,3,3,4),(-0.177366012538716,-0.135244216916602,
-0.120423926110928,-0.102863939265223,-0.0954718733008937,-0.0920355265929212,
-0.090643640135857,-0.0896910803218118),.UNSPECIFIED.);
#133=B_SPLINE_CURVE_WITH_KNOTS('',3,(#510,#511,#512,#513,#514,#515,#516,
#517,#518,#519),.UNSPECIFIED.,.F.,.F.,(4,2,2,2,4),(-0.351991459787184,-0.238792431748493,
-0.144942356043775,-0.0671739129588536,0.),.UNSPECIFIED.);
#134=B_SPLINE_CURVE_WITH_KNOTS('',3,(#522,#523,#524,#525,#526,#527,#528,
#529,#530,#531,#532,#533),.UNSPECIFIED.,.F.,.F.,(4,2,2,2,2,4),(-0.288038551815478,
-0.266039724438221,-0.201169734544583,-0.123652257629287,-0.0352229259105669,
0.),.UNSPECIFIED.);
#135=B_SPLINE_CURVE_WITH_KNOTS('',3,(#693,#694,#695,#696,#697,#698,#699,
#700,#701,#702,#703,#704,#705,#706,#707,#708,#709,#710,#711,#712,#713,#714,
#715,#716,#717,#718,#719,#720,#721,#722,#723,#724,#725,#726,#727,#728,#729,
#730,#731,#732,#733,#734,#735,#736,#737,#738,#739,#740,#741,#742,#743,#744,
#745,#746,#747,#748,#749,#750),.UNSPECIFIED.,.F.,.F.,(4,3,3,3,3,3,3,3,3,
3,3,3,3,3,3,3,3,3,3,4),(11.1640391777659,11.5064618286323,11.743198950338,
11.8023832307644,11.835669388122,11.8533711016964,11.91665358687,11.9482948294568,
11.9599168762435,11.9657293673403,11.9728327196919,11.9763843958678,11.9781602339557,
11.9790481529997,11.9794921125216,11.9797140922826,11.9798250821631,11.9798805771034,
11.9799083245735,11.9799220960158),.UNSPECIFIED.);
#136=B_SPLINE_CURVE_WITH_KNOTS('',3,(#753,#754,#755,#756,#757,#758,#759,
#760,#761,#762,#763,#764,#765,#766,#767,#768,#769,#770,#771,#772,#773,#774,
#775,#776,#777,#778,#779,#780,#781,#782,#783,#784,#785,#786,#787,#788,#789,
#790,#791,#792,#793,#794,#795,#796,#797,#798,#799,#800,#801,#802,#803,#804,
#805,#806,#807,#808,#809,#810),.UNSPECIFIED.,.F.,.F.,(4,3,3,3,3,3,3,3,3,
3,3,3,3,3,3,3,3,3,3,4),(0.476055820458698,0.86528956507284,1.17795079980877,
1.25611610849275,1.3000774905695,1.32345633197477,1.40703418325974,1.44882310890222,
1.46417246971355,1.47184908853066,1.48123056153768,1.48592129804119,1.48826666629295,
1.48943935041883,1.49002569248176,1.49031886351323,1.49046544902897,1.49053874178684,
1.49057538816577,1.49059357635755),.UNSPECIFIED.);
#137=B_SPLINE_CURVE_WITH_KNOTS('',3,(#862,#863,#864,#865),.UNSPECIFIED.,
 .F.,.F.,(4,4),(0.,0.0461799999999958),.UNSPECIFIED.);
#138=B_SPLINE_CURVE_WITH_KNOTS('',3,(#867,#868,#869,#870,#871,#872,#873,
#874,#875,#876,#877,#878,#879,#880,#881,#882,#883,#884,#885,#886,#887,#888),
 .UNSPECIFIED.,.F.,.F.,(4,3,3,3,3,3,3,4),(-11.984896210908,-11.9837608055966,
-11.9700641987015,-11.9426709849113,-11.887884557331,-11.7783117021703,
-11.5591659918489,-11.1285645502027),.UNSPECIFIED.);
#139=B_SPLINE_CURVE_WITH_KNOTS('',3,(#890,#891,#892,#893,#894,#895),
 .UNSPECIFIED.,.F.,.F.,(4,2,4),(0.,0.118089999999997,0.236179999999996),
 .UNSPECIFIED.);
#140=B_SPLINE_CURVE_WITH_KNOTS('',3,(#896,#897,#898,#899),.UNSPECIFIED.,
 .F.,.F.,(4,4),(0.,1.59772606316336E-5),.UNSPECIFIED.);
#141=B_SPLINE_CURVE_WITH_KNOTS('',3,(#935,#936,#937,#938,#939,#940,#941,
#942,#943,#944),.UNSPECIFIED.,.F.,.F.,(4,2,2,2,4),(0.,0.0727400600761217,
0.1474857677756,0.224925093583797,0.305047380251794),.UNSPECIFIED.);
#142=B_SPLINE_CURVE_WITH_KNOTS('',3,(#947,#948,#949,#950,#951,#952,#953,
#954,#955,#956),.UNSPECIFIED.,.F.,.F.,(4,2,2,2,4),(-0.305047380251795,-0.224925093583797,
-0.1474857677756,-0.0727400600761219,0.),.UNSPECIFIED.);
#143=B_SPLINE_CURVE_WITH_KNOTS('',3,(#988,#989,#990,#991,#992,#993,#994),
 .UNSPECIFIED.,.F.,.F.,(4,3,4),(12.0001053380157,13.,13.9933495195334),
 .UNSPECIFIED.);
#144=B_SPLINE_CURVE_WITH_KNOTS('',3,(#995,#996,#997,#998,#999,#1000,#1001),
 .UNSPECIFIED.,.F.,.F.,(4,3,4),(-13.9933495195334,-13.,-12.0001053380358),
 .UNSPECIFIED.);
#145=B_SPLINE_CURVE_WITH_KNOTS('',3,(#1011,#1012,#1013,#1014,#1015,#1016,
#1017,#1018,#1019,#1020,#1021,#1022,#1023,#1024,#1025,#1026,#1027,#1028,
#1029),.UNSPECIFIED.,.F.,.F.,(4,3,3,3,3,3,4),(0.,0.228819690591179,0.339960317644798,
4.25854105759337,6.45572619888947,7.91199852872838,8.17712179754194),
 .UNSPECIFIED.);
#146=VERTEX_POINT('',#483);
#147=VERTEX_POINT('',#484);
#148=VERTEX_POINT('',#507);
#149=VERTEX_POINT('',#509);
#150=VERTEX_POINT('',#520);
#151=VERTEX_POINT('',#692);
#152=VERTEX_POINT('',#751);
#153=VERTEX_POINT('',#861);
#154=VERTEX_POINT('',#866);
#155=VERTEX_POINT('',#889);
#156=VERTEX_POINT('',#901);
#157=VERTEX_POINT('',#903);
#158=VERTEX_POINT('',#905);
#159=VERTEX_POINT('',#907);
#160=VERTEX_POINT('',#909);
#161=VERTEX_POINT('',#912);
#162=VERTEX_POINT('',#914);
#163=VERTEX_POINT('',#916);
#164=VERTEX_POINT('',#918);
#165=VERTEX_POINT('',#920);
#166=VERTEX_POINT('',#922);
#167=VERTEX_POINT('',#924);
#168=VERTEX_POINT('',#926);
#169=VERTEX_POINT('',#928);
#170=VERTEX_POINT('',#930);
#171=VERTEX_POINT('',#934);
#172=VERTEX_POINT('',#945);
#173=VERTEX_POINT('',#961);
#174=VERTEX_POINT('',#963);
#175=VERTEX_POINT('',#967);
#176=VERTEX_POINT('',#968);
#177=VERTEX_POINT('',#971);
#178=VERTEX_POINT('',#1070);
#179=VERTEX_POINT('',#1073);
#180=EDGE_CURVE('',#146,#147,#132,.T.);
#181=EDGE_CURVE('',#147,#148,#118,.T.);
#182=EDGE_CURVE('',#148,#149,#133,.T.);
#183=EDGE_CURVE('',#149,#150,#119,.T.);
#184=EDGE_CURVE('',#150,#146,#134,.T.);
#185=EDGE_CURVE('',#146,#151,#135,.T.);
#186=EDGE_CURVE('',#151,#152,#32,.T.);
#187=EDGE_CURVE('',#147,#152,#136,.T.);
#188=EDGE_CURVE('',#153,#150,#137,.T.);
#189=EDGE_CURVE('',#153,#154,#138,.F.);
#190=EDGE_CURVE('',#155,#154,#139,.T.);
#191=EDGE_CURVE('',#151,#155,#140,.T.);
#192=EDGE_CURVE('',#149,#156,#33,.T.);
#193=EDGE_CURVE('',#157,#156,#120,.T.);
#194=EDGE_CURVE('',#157,#158,#34,.T.);
#195=EDGE_CURVE('',#158,#159,#121,.T.);
#196=EDGE_CURVE('',#159,#160,#35,.T.);
#197=EDGE_CURVE('',#160,#160,#122,.T.);
#198=EDGE_CURVE('',#159,#161,#123,.T.);
#199=EDGE_CURVE('',#161,#162,#36,.T.);
#200=EDGE_CURVE('',#163,#162,#124,.T.);
#201=EDGE_CURVE('',#163,#164,#37,.T.);
#202=EDGE_CURVE('',#165,#164,#125,.T.);
#203=EDGE_CURVE('',#165,#166,#38,.T.);
#204=EDGE_CURVE('',#167,#166,#126,.T.);
#205=EDGE_CURVE('',#167,#168,#39,.T.);
#206=EDGE_CURVE('',#168,#169,#127,.T.);
#207=EDGE_CURVE('',#169,#170,#40,.T.);
#208=EDGE_CURVE('',#153,#170,#128,.T.);
#209=EDGE_CURVE('',#164,#171,#141,.T.);
#210=EDGE_CURVE('',#171,#172,#129,.T.);
#211=EDGE_CURVE('',#172,#165,#142,.T.);
#212=EDGE_CURVE('',#166,#163,#41,.T.);
#213=EDGE_CURVE('',#171,#172,#42,.T.);
#214=EDGE_CURVE('',#173,#148,#43,.F.);
#215=EDGE_CURVE('',#173,#174,#44,.T.);
#216=EDGE_CURVE('',#174,#156,#45,.F.);
#217=EDGE_CURVE('',#175,#176,#46,.T.);
#218=EDGE_CURVE('',#176,#174,#130,.F.);
#219=EDGE_CURVE('',#177,#173,#131,.F.);
#220=EDGE_CURVE('',#175,#177,#47,.T.);
#221=EDGE_CURVE('',#155,#175,#143,.T.);
#222=EDGE_CURVE('',#154,#176,#144,.F.);
#223=EDGE_CURVE('',#170,#157,#48,.T.);
#224=EDGE_CURVE('',#162,#167,#49,.T.);
#225=EDGE_CURVE('',#161,#168,#50,.T.);
#226=EDGE_CURVE('',#169,#158,#51,.T.);
#227=EDGE_CURVE('',#152,#177,#145,.T.);
#228=EDGE_CURVE('',#178,#178,#18,.T.);
#229=EDGE_CURVE('',#179,#179,#19,.T.);
#230=EDGE_CURVE('',#178,#179,#52,.T.);
#231=ORIENTED_EDGE('',*,*,#180,.T.);
#232=ORIENTED_EDGE('',*,*,#181,.T.);
#233=ORIENTED_EDGE('',*,*,#182,.T.);
#234=ORIENTED_EDGE('',*,*,#183,.T.);
#235=ORIENTED_EDGE('',*,*,#184,.T.);
#236=ORIENTED_EDGE('',*,*,#180,.F.);
#237=ORIENTED_EDGE('',*,*,#185,.T.);
#238=ORIENTED_EDGE('',*,*,#186,.T.);
#239=ORIENTED_EDGE('',*,*,#187,.F.);
#240=ORIENTED_EDGE('',*,*,#184,.F.);
#241=ORIENTED_EDGE('',*,*,#188,.F.);
#242=ORIENTED_EDGE('',*,*,#189,.T.);
#243=ORIENTED_EDGE('',*,*,#190,.F.);
#244=ORIENTED_EDGE('',*,*,#191,.F.);
#245=ORIENTED_EDGE('',*,*,#185,.F.);
#246=ORIENTED_EDGE('',*,*,#183,.F.);
#247=ORIENTED_EDGE('',*,*,#192,.T.);
#248=ORIENTED_EDGE('',*,*,#193,.F.);
#249=ORIENTED_EDGE('',*,*,#194,.T.);
#250=ORIENTED_EDGE('',*,*,#195,.T.);
#251=ORIENTED_EDGE('',*,*,#196,.T.);
#252=ORIENTED_EDGE('',*,*,#197,.F.);
#253=ORIENTED_EDGE('',*,*,#196,.F.);
#254=ORIENTED_EDGE('',*,*,#198,.T.);
#255=ORIENTED_EDGE('',*,*,#199,.T.);
#256=ORIENTED_EDGE('',*,*,#200,.F.);
#257=ORIENTED_EDGE('',*,*,#201,.T.);
#258=ORIENTED_EDGE('',*,*,#202,.F.);
#259=ORIENTED_EDGE('',*,*,#203,.T.);
#260=ORIENTED_EDGE('',*,*,#204,.F.);
#261=ORIENTED_EDGE('',*,*,#205,.T.);
#262=ORIENTED_EDGE('',*,*,#206,.T.);
#263=ORIENTED_EDGE('',*,*,#207,.T.);
#264=ORIENTED_EDGE('',*,*,#208,.F.);
#265=ORIENTED_EDGE('',*,*,#188,.T.);
#266=ORIENTED_EDGE('',*,*,#209,.T.);
#267=ORIENTED_EDGE('',*,*,#210,.T.);
#268=ORIENTED_EDGE('',*,*,#211,.T.);
#269=ORIENTED_EDGE('',*,*,#202,.T.);
#270=ORIENTED_EDGE('',*,*,#209,.F.);
#271=ORIENTED_EDGE('',*,*,#201,.F.);
#272=ORIENTED_EDGE('',*,*,#212,.F.);
#273=ORIENTED_EDGE('',*,*,#203,.F.);
#274=ORIENTED_EDGE('',*,*,#211,.F.);
#275=ORIENTED_EDGE('',*,*,#213,.F.);
#276=ORIENTED_EDGE('',*,*,#182,.F.);
#277=ORIENTED_EDGE('',*,*,#214,.F.);
#278=ORIENTED_EDGE('',*,*,#215,.T.);
#279=ORIENTED_EDGE('',*,*,#216,.T.);
#280=ORIENTED_EDGE('',*,*,#192,.F.);
#281=ORIENTED_EDGE('',*,*,#217,.T.);
#282=ORIENTED_EDGE('',*,*,#218,.T.);
#283=ORIENTED_EDGE('',*,*,#215,.F.);
#284=ORIENTED_EDGE('',*,*,#219,.F.);
#285=ORIENTED_EDGE('',*,*,#220,.F.);
#286=ORIENTED_EDGE('',*,*,#221,.F.);
#287=ORIENTED_EDGE('',*,*,#190,.T.);
#288=ORIENTED_EDGE('',*,*,#222,.T.);
#289=ORIENTED_EDGE('',*,*,#217,.F.);
#290=ORIENTED_EDGE('',*,*,#223,.T.);
#291=ORIENTED_EDGE('',*,*,#193,.T.);
#292=ORIENTED_EDGE('',*,*,#216,.F.);
#293=ORIENTED_EDGE('',*,*,#218,.F.);
#294=ORIENTED_EDGE('',*,*,#222,.F.);
#295=ORIENTED_EDGE('',*,*,#189,.F.);
#296=ORIENTED_EDGE('',*,*,#208,.T.);
#297=ORIENTED_EDGE('',*,*,#224,.T.);
#298=ORIENTED_EDGE('',*,*,#204,.T.);
#299=ORIENTED_EDGE('',*,*,#212,.T.);
#300=ORIENTED_EDGE('',*,*,#200,.T.);
#301=ORIENTED_EDGE('',*,*,#205,.F.);
#302=ORIENTED_EDGE('',*,*,#224,.F.);
#303=ORIENTED_EDGE('',*,*,#199,.F.);
#304=ORIENTED_EDGE('',*,*,#225,.T.);
#305=ORIENTED_EDGE('',*,*,#207,.F.);
#306=ORIENTED_EDGE('',*,*,#226,.T.);
#307=ORIENTED_EDGE('',*,*,#194,.F.);
#308=ORIENTED_EDGE('',*,*,#223,.F.);
#309=ORIENTED_EDGE('',*,*,#181,.F.);
#310=ORIENTED_EDGE('',*,*,#187,.T.);
#311=ORIENTED_EDGE('',*,*,#227,.T.);
#312=ORIENTED_EDGE('',*,*,#219,.T.);
#313=ORIENTED_EDGE('',*,*,#214,.T.);
#314=ORIENTED_EDGE('',*,*,#220,.T.);
#315=ORIENTED_EDGE('',*,*,#227,.F.);
#316=ORIENTED_EDGE('',*,*,#186,.F.);
#317=ORIENTED_EDGE('',*,*,#191,.T.);
#318=ORIENTED_EDGE('',*,*,#221,.T.);
#319=ORIENTED_EDGE('',*,*,#210,.F.);
#320=ORIENTED_EDGE('',*,*,#213,.T.);
#321=ORIENTED_EDGE('',*,*,#197,.T.);
#322=ORIENTED_EDGE('',*,*,#228,.F.);
#323=ORIENTED_EDGE('',*,*,#206,.F.);
#324=ORIENTED_EDGE('',*,*,#225,.F.);
#325=ORIENTED_EDGE('',*,*,#198,.F.);
#326=ORIENTED_EDGE('',*,*,#195,.F.);
#327=ORIENTED_EDGE('',*,*,#226,.F.);
#328=ORIENTED_EDGE('',*,*,#229,.F.);
#329=ORIENTED_EDGE('',*,*,#228,.T.);
#330=ORIENTED_EDGE('',*,*,#230,.T.);
#331=ORIENTED_EDGE('',*,*,#229,.T.);
#332=ORIENTED_EDGE('',*,*,#230,.F.);
#333=TOROIDAL_SURFACE('',#368,26.4,2.);
#334=TOROIDAL_SURFACE('',#381,26.4,2.);
#335=ADVANCED_FACE('',(#78),#333,.T.);
#336=ADVANCED_FACE('',(#79),#74,.T.);
#337=ADVANCED_FACE('',(#80),#75,.F.);
#338=ADVANCED_FACE('',(#81),#30,.T.);
#339=ADVANCED_FACE('',(#82),#334,.T.);
#340=ADVANCED_FACE('',(#83),#20,.F.);
#341=ADVANCED_FACE('',(#84),#21,.F.);
#342=ADVANCED_FACE('',(#85),#31,.F.);
#343=ADVANCED_FACE('',(#86),#76,.F.);
#344=ADVANCED_FACE('',(#87),#22,.F.);
#345=ADVANCED_FACE('',(#88),#23,.F.);
#346=ADVANCED_FACE('',(#89),#24,.F.);
#347=ADVANCED_FACE('',(#90),#25,.F.);
#348=ADVANCED_FACE('',(#91),#26,.F.);
#349=ADVANCED_FACE('',(#92),#77,.T.);
#350=ADVANCED_FACE('',(#93),#27,.F.);
#351=ADVANCED_FACE('',(#94,#16),#28,.T.);
#352=ADVANCED_FACE('',(#95,#17),#29,.T.);
#353=ADVANCED_FACE('',(#96),#15,.T.);
#354=CLOSED_SHELL('',(#335,#336,#337,#338,#339,#340,#341,#342,#343,#344,
#345,#346,#347,#348,#349,#350,#351,#352,#353));
#355=DERIVED_UNIT_ELEMENT(#357,1.);
#356=DERIVED_UNIT_ELEMENT(#1099,-3.);
#357=(
MASS_UNIT()
NAMED_UNIT(*)
SI_UNIT(.KILO.,.GRAM.)
);
#358=DERIVED_UNIT((#355,#356));
#359=MEASURE_REPRESENTATION_ITEM('density measure',
POSITIVE_RATIO_MEASURE(7850.),#358);
#360=PROPERTY_DEFINITION_REPRESENTATION(#365,#362);
#361=PROPERTY_DEFINITION_REPRESENTATION(#366,#363);
#362=REPRESENTATION('material name',(#364),#1096);
#363=REPRESENTATION('density',(#359),#1096);
#364=DESCRIPTIVE_REPRESENTATION_ITEM('Steel','Steel');
#365=PROPERTY_DEFINITION('material property','material name',#1106);
#366=PROPERTY_DEFINITION('material property','density of part',#1106);
#367=AXIS2_PLACEMENT_3D('',#481,#398,#399);
#368=AXIS2_PLACEMENT_3D('',#482,#400,#401);
#369=AXIS2_PLACEMENT_3D('',#508,#402,#403);
#370=AXIS2_PLACEMENT_3D('',#521,#404,#405);
#371=AXIS2_PLACEMENT_3D('',#900,#407,#408);
#372=AXIS2_PLACEMENT_3D('',#904,#410,#411);
#373=AXIS2_PLACEMENT_3D('',#908,#413,#414);
#374=AXIS2_PLACEMENT_3D('',#911,#416,#417);
#375=AXIS2_PLACEMENT_3D('',#913,#418,#419);
#376=AXIS2_PLACEMENT_3D('',#917,#421,#422);
#377=AXIS2_PLACEMENT_3D('',#921,#424,#425);
#378=AXIS2_PLACEMENT_3D('',#925,#427,#428);
#379=AXIS2_PLACEMENT_3D('',#929,#430,#431);
#380=AXIS2_PLACEMENT_3D('',#932,#433,#434);
#381=AXIS2_PLACEMENT_3D('',#933,#435,#436);
#382=AXIS2_PLACEMENT_3D('',#946,#437,#438);
#383=AXIS2_PLACEMENT_3D('',#957,#439,#440);
#384=AXIS2_PLACEMENT_3D('',#960,#443,#444);
#385=AXIS2_PLACEMENT_3D('',#966,#448,#449);
#386=AXIS2_PLACEMENT_3D('',#970,#451,#452);
#387=AXIS2_PLACEMENT_3D('',#972,#453,#454);
#388=AXIS2_PLACEMENT_3D('',#1002,#456,#457);
#389=AXIS2_PLACEMENT_3D('',#1004,#459,#460);
#390=AXIS2_PLACEMENT_3D('',#1006,#462,#463);
#391=AXIS2_PLACEMENT_3D('',#1008,#465,#466);
#392=AXIS2_PLACEMENT_3D('',#1010,#468,#469);
#393=AXIS2_PLACEMENT_3D('',#1068,#470,#471);
#394=AXIS2_PLACEMENT_3D('',#1069,#472,#473);
#395=AXIS2_PLACEMENT_3D('',#1071,#474,#475);
#396=AXIS2_PLACEMENT_3D('',#1072,#476,#477);
#397=AXIS2_PLACEMENT_3D('',#1074,#478,#479);
#398=DIRECTION('axis',(0.,0.,1.));
#399=DIRECTION('refdir',(1.,0.,0.));
#400=DIRECTION('center_axis',(5.55111512312575E-17,-1.,1.11022302462517E-16));
#401=DIRECTION('ref_axis',(0.,0.,-1.));
#402=DIRECTION('center_axis',(-5.55111512312575E-17,1.,-1.11022302462517E-16));
#403=DIRECTION('ref_axis',(0.999999138986013,5.56567936011599E-17,0.00131226035263739));
#404=DIRECTION('center_axis',(5.55111512312575E-17,-1.,1.11022302462517E-16));
#405=DIRECTION('ref_axis',(0.999999138986013,5.86385400330188E-17,0.00131226035263739));
#406=DIRECTION('',(0.,-1.,0.));
#407=DIRECTION('center_axis',(0.,-1.,0.));
#408=DIRECTION('ref_axis',(-3.03107893082966E-15,0.,1.));
#409=DIRECTION('',(0.,1.,0.));
#410=DIRECTION('center_axis',(5.55111512312574E-17,-1.,1.11022302462517E-16));
#411=DIRECTION('ref_axis',(-3.03107893082966E-15,0.,1.));
#412=DIRECTION('',(0.,1.,0.));
#413=DIRECTION('center_axis',(-5.55111512312592E-17,1.,1.33907057366956E-16));
#414=DIRECTION('ref_axis',(-3.03107893082966E-15,0.,1.));
#415=DIRECTION('',(0.,1.,0.));
#416=DIRECTION('center_axis',(-5.55111512312575E-17,1.,-1.11022302462517E-16));
#417=DIRECTION('ref_axis',(-3.03107893082966E-15,1.11022302462517E-16,1.));
#418=DIRECTION('center_axis',(-5.55111512312592E-17,1.,1.33907057366956E-16));
#419=DIRECTION('ref_axis',(-3.03107893082966E-15,0.,1.));
#420=DIRECTION('',(0.,-1.,0.));
#421=DIRECTION('center_axis',(5.55111512312574E-17,-1.,1.11022302462517E-16));
#422=DIRECTION('ref_axis',(-3.03107893082966E-15,0.,1.));
#423=DIRECTION('',(0.,-1.,0.));
#424=DIRECTION('center_axis',(5.55111512312575E-17,-1.,1.11022302462517E-16));
#425=DIRECTION('ref_axis',(-0.999998400745099,-5.86385400330188E-17,-0.00178843709518498));
#426=DIRECTION('',(0.,1.,0.));
#427=DIRECTION('center_axis',(5.55111512312574E-17,-1.,1.11022302462517E-16));
#428=DIRECTION('ref_axis',(-3.03107893082966E-15,0.,1.));
#429=DIRECTION('',(0.,1.,0.));
#430=DIRECTION('center_axis',(-5.55111512312592E-17,1.,1.33907057366956E-16));
#431=DIRECTION('ref_axis',(-3.03107893082966E-15,0.,1.));
#432=DIRECTION('',(0.,-1.,0.));
#433=DIRECTION('center_axis',(5.55111512312574E-17,-1.,1.11022302462517E-16));
#434=DIRECTION('ref_axis',(-3.03107893082966E-15,0.,1.));
#435=DIRECTION('center_axis',(5.55111512312575E-17,-1.,1.11022302462517E-16));
#436=DIRECTION('ref_axis',(0.,0.,-1.));
#437=DIRECTION('center_axis',(-5.55111512312575E-17,1.,-1.11022302462517E-16));
#438=DIRECTION('ref_axis',(-0.999998400745099,-5.57096188588936E-17,-0.00178843709518498));
#439=DIRECTION('center_axis',(-0.999998400745099,0.,-0.00178843709518457));
#440=DIRECTION('ref_axis',(-0.00178843709518457,1.10922846707497E-16,0.999998400745099));
#441=DIRECTION('',(0.00178843709518457,-1.10922846707497E-16,-0.999998400745099));
#442=DIRECTION('',(-0.00178843709518457,1.10922846707497E-16,0.999998400745099));
#443=DIRECTION('center_axis',(0.956134907901103,0.,-0.292926676649548));
#444=DIRECTION('ref_axis',(-0.292926676649548,-1.22412995987129E-16,-0.956134907901103));
#445=DIRECTION('',(0.292926676649548,1.2241299598713E-16,0.956134907901103));
#446=DIRECTION('',(0.,1.,0.));
#447=DIRECTION('',(0.292926676649548,1.22412995987129E-16,0.956134907901103));
#448=DIRECTION('center_axis',(0.,1.,0.));
#449=DIRECTION('ref_axis',(0.999999999917294,0.,1.28612609734426E-5));
#450=DIRECTION('',(0.,1.,0.));
#451=DIRECTION('center_axis',(5.55111512312574E-17,-1.,1.11022302462517E-16));
#452=DIRECTION('ref_axis',(0.999999999917294,0.,1.28612609734426E-5));
#453=DIRECTION('center_axis',(5.55111512312575E-17,-1.,1.11022302462517E-16));
#454=DIRECTION('ref_axis',(0.999999999917294,0.,1.28612609734426E-5));
#455=DIRECTION('',(0.,-1.,0.));
#456=DIRECTION('center_axis',(-5.55111512312574E-17,1.,-1.11022302462517E-16));
#457=DIRECTION('ref_axis',(3.41965698944847E-15,-1.11022302462516E-16,-1.));
#458=DIRECTION('',(-7.43333491242988E-33,-1.11022302462517E-16,-1.));
#459=DIRECTION('center_axis',(-5.55111512312574E-17,1.,-1.11022302462517E-16));
#460=DIRECTION('ref_axis',(3.41965698944847E-15,-1.11022302462516E-16,-1.));
#461=DIRECTION('',(7.43333491242988E-33,1.11022302462517E-16,1.));
#462=DIRECTION('center_axis',(-1.,-1.86248241244181E-48,7.43333491242988E-33));
#463=DIRECTION('ref_axis',(7.43333491242988E-33,-1.33907057366956E-16,1.));
#464=DIRECTION('',(7.43333491242988E-33,-1.33907057366956E-16,1.));
#465=DIRECTION('center_axis',(1.,1.86248241244181E-48,-7.43333491242988E-33));
#466=DIRECTION('ref_axis',(-7.43333491242988E-33,1.33907057366956E-16,-1.));
#467=DIRECTION('',(-7.43333491242988E-33,1.33907057366956E-16,-1.));
#468=DIRECTION('center_axis',(-5.55111512312575E-17,1.,-1.11022302462517E-16));
#469=DIRECTION('ref_axis',(-3.03107893082967E-15,1.11022302462517E-16,1.));
#470=DIRECTION('center_axis',(-5.55111512312575E-17,1.,-1.11022302462517E-16));
#471=DIRECTION('ref_axis',(-3.03107893082967E-15,1.11022302462517E-16,1.));
#472=DIRECTION('center_axis',(-5.55111512312575E-17,1.,-1.11022302462517E-16));
#473=DIRECTION('ref_axis',(-3.03107893082967E-15,1.11022302462517E-16,1.));
#474=DIRECTION('center_axis',(-5.55111512312575E-17,1.,-1.11022302462517E-16));
#475=DIRECTION('ref_axis',(-3.41965698944847E-15,1.11022302462516E-16,1.));
#476=DIRECTION('center_axis',(5.55111512312592E-17,-1.,-1.33907057366956E-16));
#477=DIRECTION('ref_axis',(1.,5.55111512312592E-17,1.22139361629038E-46));
#478=DIRECTION('center_axis',(5.55111512312592E-17,-1.,-1.33907057366956E-16));
#479=DIRECTION('ref_axis',(-3.41965698944847E-15,1.11022302462516E-16,1.));
#480=DIRECTION('',(5.55111512312574E-17,-1.,1.11022302462517E-16));
#481=CARTESIAN_POINT('',(0.,0.,0.));
#482=CARTESIAN_POINT('Origin',(206.268401036322,-133.987,4.92760316772129));
#483=CARTESIAN_POINT('',(218.15503181033,-135.887000000957,29.1975763432812));
#484=CARTESIAN_POINT('',(218.414264348094,-135.987,28.3676971193925));
#485=CARTESIAN_POINT('Ctrl Pts',(218.155031803826,-135.887,29.1975763563239));
#486=CARTESIAN_POINT('Ctrl Pts',(218.195743234678,-135.919585189321,29.0672471972857));
#487=CARTESIAN_POINT('Ctrl Pts',(218.237102877149,-135.943935184757,28.9348429024705));
#488=CARTESIAN_POINT('Ctrl Pts',(218.278714452318,-135.960444360415,28.8016320741219));
#489=CARTESIAN_POINT('Ctrl Pts',(218.293355225242,-135.966253010797,28.7547626758583));
#490=CARTESIAN_POINT('Ctrl Pts',(218.308027038633,-135.971091014507,28.7077939051122));
#491=CARTESIAN_POINT('Ctrl Pts',(218.322712192471,-135.974975548966,28.6607824247642));
#492=CARTESIAN_POINT('Ctrl Pts',(218.340112060774,-135.979578182942,28.6050803479743));
#493=CARTESIAN_POINT('Ctrl Pts',(218.357547074741,-135.982846497649,28.5492657555088));
#494=CARTESIAN_POINT('Ctrl Pts',(218.374991303382,-135.984802818988,28.4934216599685));
#495=CARTESIAN_POINT('Ctrl Pts',(218.382334639681,-135.985626353568,28.4699134852996));
#496=CARTESIAN_POINT('Ctrl Pts',(218.389680581135,-135.986217501545,28.4463969700211));
#497=CARTESIAN_POINT('Ctrl Pts',(218.39702723767,-135.986577749556,28.4228781648089));
#498=CARTESIAN_POINT('Ctrl Pts',(218.400442474915,-135.986745217902,28.4119449873648));
#499=CARTESIAN_POINT('Ctrl Pts',(218.403857958936,-135.986862792428,28.4010110197561));
#500=CARTESIAN_POINT('Ctrl Pts',(218.407273501296,-135.986930614471,28.3900768652269));
#501=CARTESIAN_POINT('Ctrl Pts',(218.408656960987,-135.986958085676,28.3856480043167));
#502=CARTESIAN_POINT('Ctrl Pts',(218.410040437038,-135.986977394417,28.3812190910032));
#503=CARTESIAN_POINT('Ctrl Pts',(218.411423916965,-135.986988549848,28.3767901652583));
#504=CARTESIAN_POINT('Ctrl Pts',(218.412370723635,-135.986996184247,28.3737591589125));
#505=CARTESIAN_POINT('Ctrl Pts',(218.413317533689,-135.986999999998,28.3707281417219));
#506=CARTESIAN_POINT('Ctrl Pts',(218.414264343123,-135.987,28.3676971265039));
#507=CARTESIAN_POINT('',(218.466046236411,-135.987,-18.4855865246881));
#508=CARTESIAN_POINT('Origin',(206.268401036322,-135.987,4.92760316772129));
#509=CARTESIAN_POINT('',(217.670251249525,-133.987,-21.0831217686523));
#510=CARTESIAN_POINT('Ctrl Pts',(218.466046236411,-135.987,-18.4855865246881));
#511=CARTESIAN_POINT('Ctrl Pts',(218.355516186133,-135.987,-18.846364998849));
#512=CARTESIAN_POINT('Ctrl Pts',(218.224391224719,-135.918845767529,-19.2743668262667));
#513=CARTESIAN_POINT('Ctrl Pts',(218.033378257006,-135.692766998331,-19.89784765219));
#514=CARTESIAN_POINT('Ctrl Pts',(217.936372515887,-135.515967341376,-20.2144817546602));
#515=CARTESIAN_POINT('Ctrl Pts',(217.808240043642,-135.147298226561,-20.6327158702772));
#516=CARTESIAN_POINT('Ctrl Pts',(217.750367793628,-134.907017755486,-20.8216152872587));
#517=CARTESIAN_POINT('Ctrl Pts',(217.688738519218,-134.472091514263,-21.0227779170533));
#518=CARTESIAN_POINT('Ctrl Pts',(217.670251249525,-134.210913043196,-21.0831217686523));
#519=CARTESIAN_POINT('Ctrl Pts',(217.670251249525,-133.987,-21.0831217686523));
#520=CARTESIAN_POINT('',(217.601946353555,-133.987,30.9681628879391));
#521=CARTESIAN_POINT('Origin',(206.268401036322,-133.987,4.92760316772129));
#522=CARTESIAN_POINT('Ctrl Pts',(217.601946353555,-133.987,30.9681628879391));
#523=CARTESIAN_POINT('Ctrl Pts',(217.601946353555,-134.059509871251,30.9681628879391));
#524=CARTESIAN_POINT('Ctrl Pts',(217.603501111862,-134.131931578295,30.9631856601499));
#525=CARTESIAN_POINT('Ctrl Pts',(217.615735226091,-134.416230706177,30.9240207468675));
#526=CARTESIAN_POINT('Ctrl Pts',(217.637961429978,-134.617799916523,30.8528682852168));
#527=CARTESIAN_POINT('Ctrl Pts',(217.709707339492,-135.023356738558,30.6231889897786));
#528=CARTESIAN_POINT('Ctrl Pts',(217.762476366905,-135.213661741145,30.4542601357034));
#529=CARTESIAN_POINT('Ctrl Pts',(217.892343476105,-135.551755835692,30.0385180107214));
#530=CARTESIAN_POINT('Ctrl Pts',(217.971472538293,-135.689153598447,29.7852029703905));
#531=CARTESIAN_POINT('Ctrl Pts',(218.087311099716,-135.826669638019,29.4143700642492));
#532=CARTESIAN_POINT('Ctrl Pts',(218.120980533027,-135.859745560774,29.306584407849));
#533=CARTESIAN_POINT('Ctrl Pts',(218.155031807543,-135.887,29.1975763514766));
#534=CARTESIAN_POINT('Ctrl Pts',(217.475930297717,-135.887,31.3715764133451));
#535=CARTESIAN_POINT('Ctrl Pts',(217.475930297717,-135.987,31.3715764133451));
#536=CARTESIAN_POINT('Ctrl Pts',(218.256015801534,-135.887,28.8742994016034));
#537=CARTESIAN_POINT('Ctrl Pts',(218.256015801534,-135.987,28.8742994016034));
#538=CARTESIAN_POINT('Ctrl Pts',(219.195302350956,-135.887,25.8673678450317));
#539=CARTESIAN_POINT('Ctrl Pts',(219.195302350956,-135.987,25.8673678450317));
#540=CARTESIAN_POINT('Ctrl Pts',(220.046623023482,-135.887,23.1420218336682));
#541=CARTESIAN_POINT('Ctrl Pts',(220.046623023482,-135.987,23.1420218336682));
#542=CARTESIAN_POINT('Ctrl Pts',(220.472283359745,-135.887,21.7793488279865));
#543=CARTESIAN_POINT('Ctrl Pts',(220.472283359745,-135.987,21.7793488279865));
#544=CARTESIAN_POINT('Ctrl Pts',(220.8759522309,-135.887,20.4870722225035));
#545=CARTESIAN_POINT('Ctrl Pts',(220.8759522309,-135.987,20.4870722225035));
#546=CARTESIAN_POINT('Ctrl Pts',(221.226733877634,-135.887,19.3640968345819));
#547=CARTESIAN_POINT('Ctrl Pts',(221.226733877634,-135.987,19.3640968345819));
#548=CARTESIAN_POINT('Ctrl Pts',(221.314429289318,-135.887,19.0833529876015));
#549=CARTESIAN_POINT('Ctrl Pts',(221.314429289318,-135.987,19.0833529876015));
#550=CARTESIAN_POINT('Ctrl Pts',(221.398819250053,-135.887,18.8131904645151));
#551=CARTESIAN_POINT('Ctrl Pts',(221.398819250053,-135.987,18.8131904645151));
#552=CARTESIAN_POINT('Ctrl Pts',(221.479421014505,-135.887,18.5551546439266));
#553=CARTESIAN_POINT('Ctrl Pts',(221.479421014505,-135.987,18.5551546439266));
#554=CARTESIAN_POINT('Ctrl Pts',(221.524752697099,-135.887,18.4100312958665));
#555=CARTESIAN_POINT('Ctrl Pts',(221.524752697099,-135.987,18.4100312958665));
#556=CARTESIAN_POINT('Ctrl Pts',(221.568886130756,-135.887,18.2687437596102));
#557=CARTESIAN_POINT('Ctrl Pts',(221.568886130756,-135.987,18.2687437596102));
#558=CARTESIAN_POINT('Ctrl Pts',(221.611735435852,-135.887,18.1315669537907));
#559=CARTESIAN_POINT('Ctrl Pts',(221.611735435852,-135.987,18.1315669537907));
#560=CARTESIAN_POINT('Ctrl Pts',(221.634522870206,-135.887,18.0586157717251));
#561=CARTESIAN_POINT('Ctrl Pts',(221.634522870206,-135.987,18.0586157717251));
#562=CARTESIAN_POINT('Ctrl Pts',(221.659829994106,-135.887,17.9775980424459));
#563=CARTESIAN_POINT('Ctrl Pts',(221.659829994106,-135.987,17.9775980424459));
#564=CARTESIAN_POINT('Ctrl Pts',(221.687212128681,-135.887,17.8899372877211));
#565=CARTESIAN_POINT('Ctrl Pts',(221.687212128681,-135.987,17.8899372877211));
#566=CARTESIAN_POINT('Ctrl Pts',(221.785101495038,-135.887,17.576555739213));
#567=CARTESIAN_POINT('Ctrl Pts',(221.785101495038,-135.987,17.576555739213));
#568=CARTESIAN_POINT('Ctrl Pts',(221.908101703545,-135.887,17.1827831997149));
#569=CARTESIAN_POINT('Ctrl Pts',(221.908101703545,-135.987,17.1827831997149));
#570=CARTESIAN_POINT('Ctrl Pts',(222.020652773632,-135.887,16.8224575033619));
#571=CARTESIAN_POINT('Ctrl Pts',(222.020652773632,-135.987,16.8224575033619));
#572=CARTESIAN_POINT('Ctrl Pts',(222.076928308676,-135.887,16.6422946551854));
#573=CARTESIAN_POINT('Ctrl Pts',(222.076928308676,-135.987,16.6422946551854));
#574=CARTESIAN_POINT('Ctrl Pts',(222.130591552998,-135.887,16.4704935425464));
#575=CARTESIAN_POINT('Ctrl Pts',(222.130591552998,-135.987,16.4704935425464));
#576=CARTESIAN_POINT('Ctrl Pts',(222.177197654365,-135.887,16.3212834731189));
#577=CARTESIAN_POINT('Ctrl Pts',(222.177197654365,-135.987,16.3212834731189));
#578=CARTESIAN_POINT('Ctrl Pts',(222.194316397067,-135.887,16.2664775847857));
#579=CARTESIAN_POINT('Ctrl Pts',(222.194316397067,-135.987,16.2664775847857));
#580=CARTESIAN_POINT('Ctrl Pts',(222.210483031716,-135.887,16.2147195471678));
#581=CARTESIAN_POINT('Ctrl Pts',(222.210483031716,-135.987,16.2147195471678));
#582=CARTESIAN_POINT('Ctrl Pts',(222.225477314408,-135.887,16.1667144204965));
#583=CARTESIAN_POINT('Ctrl Pts',(222.225477314408,-135.987,16.1667144204965));
#584=CARTESIAN_POINT('Ctrl Pts',(222.232976349325,-135.887,16.1427057947789));
#585=CARTESIAN_POINT('Ctrl Pts',(222.232976349325,-135.987,16.1427057947789));
#586=CARTESIAN_POINT('Ctrl Pts',(222.240683251296,-135.887,16.1180315928529));
#587=CARTESIAN_POINT('Ctrl Pts',(222.240683251296,-135.987,16.1180315928529));
#588=CARTESIAN_POINT('Ctrl Pts',(222.250395852303,-135.887,16.0869357053249));
#589=CARTESIAN_POINT('Ctrl Pts',(222.250395852303,-135.987,16.0869357053249));
#590=CARTESIAN_POINT('Ctrl Pts',(222.262265466563,-135.887,16.0489339188062));
#591=CARTESIAN_POINT('Ctrl Pts',(222.262265466563,-135.987,16.0489339188062));
#592=CARTESIAN_POINT('Ctrl Pts',(222.275739724114,-135.887,16.0057942768855));
#593=CARTESIAN_POINT('Ctrl Pts',(222.275739724114,-135.987,16.0057942768855));
#594=CARTESIAN_POINT('Ctrl Pts',(222.287789455517,-135.887,15.9672143604719));
#595=CARTESIAN_POINT('Ctrl Pts',(222.287789455517,-135.987,15.9672143604719));
#596=CARTESIAN_POINT('Ctrl Pts',(222.293814321219,-135.887,15.947924402265));
#597=CARTESIAN_POINT('Ctrl Pts',(222.293814321219,-135.987,15.947924402265));
#598=CARTESIAN_POINT('Ctrl Pts',(222.299483043028,-135.887,15.9297744170371));
#599=CARTESIAN_POINT('Ctrl Pts',(222.299483043028,-135.987,15.9297744170371));
#600=CARTESIAN_POINT('Ctrl Pts',(222.304417221791,-135.887,15.9139758171339));
#601=CARTESIAN_POINT('Ctrl Pts',(222.304417221791,-135.987,15.9139758171339));
#602=CARTESIAN_POINT('Ctrl Pts',(222.306884311172,-135.887,15.9060765171823));
#603=CARTESIAN_POINT('Ctrl Pts',(222.306884311172,-135.987,15.9060765171823));
#604=CARTESIAN_POINT('Ctrl Pts',(222.308751268725,-135.887,15.9000987297249));
#605=CARTESIAN_POINT('Ctrl Pts',(222.308751268725,-135.987,15.9000987297249));
#606=CARTESIAN_POINT('Ctrl Pts',(222.311691190688,-135.887,15.8906850220041));
#607=CARTESIAN_POINT('Ctrl Pts',(222.311691190688,-135.987,15.8906850220041));
#608=CARTESIAN_POINT('Ctrl Pts',(222.31316115167,-135.887,15.8859781681437));
#609=CARTESIAN_POINT('Ctrl Pts',(222.31316115167,-135.987,15.8859781681437));
#610=CARTESIAN_POINT('Ctrl Pts',(222.31480873623,-135.887,15.8807024515743));
#611=CARTESIAN_POINT('Ctrl Pts',(222.31480873623,-135.987,15.8807024515743));
#612=CARTESIAN_POINT('Ctrl Pts',(222.31627870696,-135.887,15.875995205027));
#613=CARTESIAN_POINT('Ctrl Pts',(222.31627870696,-135.987,15.875995205027));
#614=CARTESIAN_POINT('Ctrl Pts',(222.317013692325,-135.887,15.8736415817533));
#615=CARTESIAN_POINT('Ctrl Pts',(222.317013692325,-135.987,15.8736415817533));
#616=CARTESIAN_POINT('Ctrl Pts',(222.317704249195,-135.887,15.8714301567266));
#617=CARTESIAN_POINT('Ctrl Pts',(222.317704249195,-135.987,15.8714301567266));
#618=CARTESIAN_POINT('Ctrl Pts',(222.318306457652,-135.887,15.8695015449549));
#619=CARTESIAN_POINT('Ctrl Pts',(222.318306457652,-135.987,15.8695015449549));
#620=CARTESIAN_POINT('Ctrl Pts',(222.318607561881,-135.887,15.868537239069));
#621=CARTESIAN_POINT('Ctrl Pts',(222.318607561881,-135.987,15.868537239069));
#622=CARTESIAN_POINT('Ctrl Pts',(222.318839225294,-135.887,15.867795314878));
#623=CARTESIAN_POINT('Ctrl Pts',(222.318839225294,-135.987,15.867795314878));
#624=CARTESIAN_POINT('Ctrl Pts',(222.319205309854,-135.887,15.866622789404));
#625=CARTESIAN_POINT('Ctrl Pts',(222.319205309854,-135.987,15.866622789404));
#626=CARTESIAN_POINT('Ctrl Pts',(222.319388352135,-135.887,15.866036526667));
#627=CARTESIAN_POINT('Ctrl Pts',(222.319388352135,-135.987,15.866036526667));
#628=CARTESIAN_POINT('Ctrl Pts',(222.319591012395,-135.887,15.8653874028903));
#629=CARTESIAN_POINT('Ctrl Pts',(222.319591012395,-135.987,15.8653874028903));
#630=CARTESIAN_POINT('Ctrl Pts',(222.319773158881,-135.887,15.8648039186045));
#631=CARTESIAN_POINT('Ctrl Pts',(222.319773158881,-135.987,15.8648039186045));
#632=CARTESIAN_POINT('Ctrl Pts',(222.319864232123,-135.887,15.8645121764616));
#633=CARTESIAN_POINT('Ctrl Pts',(222.319864232123,-135.987,15.8645121764616));
#634=CARTESIAN_POINT('Ctrl Pts',(222.319950127666,-135.887,15.8642370022912));
#635=CARTESIAN_POINT('Ctrl Pts',(222.319950127666,-135.987,15.8642370022912));
#636=CARTESIAN_POINT('Ctrl Pts',(222.320026788081,-135.887,15.8639913848059));
#637=CARTESIAN_POINT('Ctrl Pts',(222.320026788081,-135.987,15.8639913848059));
#638=CARTESIAN_POINT('Ctrl Pts',(222.320065118288,-135.887,15.8638685760632));
#639=CARTESIAN_POINT('Ctrl Pts',(222.320065118288,-135.987,15.8638685760632));
#640=CARTESIAN_POINT('Ctrl Pts',(222.320095374804,-135.887,15.8637716342005));
#641=CARTESIAN_POINT('Ctrl Pts',(222.320095374804,-135.987,15.8637716342005));
#642=CARTESIAN_POINT('Ctrl Pts',(222.320145700306,-135.887,15.8636103603264));
#643=CARTESIAN_POINT('Ctrl Pts',(222.320145700306,-135.987,15.8636103603264));
#644=CARTESIAN_POINT('Ctrl Pts',(222.320170863057,-135.887,15.8635297233894));
#645=CARTESIAN_POINT('Ctrl Pts',(222.320170863057,-135.987,15.8635297233894));
#646=CARTESIAN_POINT('Ctrl Pts',(222.320198740543,-135.887,15.8634403804122));
#647=CARTESIAN_POINT('Ctrl Pts',(222.320198740543,-135.987,15.8634403804122));
#648=CARTESIAN_POINT('Ctrl Pts',(222.320227569878,-135.887,15.8633479641376));
#649=CARTESIAN_POINT('Ctrl Pts',(222.320227569878,-135.987,15.8633479641376));
#650=CARTESIAN_POINT('Ctrl Pts',(222.320241984545,-135.887,15.8633017560003));
#651=CARTESIAN_POINT('Ctrl Pts',(222.320241984545,-135.987,15.8633017560003));
#652=CARTESIAN_POINT('Ctrl Pts',(222.320256536883,-135.887,15.8632551018171));
#653=CARTESIAN_POINT('Ctrl Pts',(222.320256536883,-135.987,15.8632551018171));
#654=CARTESIAN_POINT('Ctrl Pts',(222.320272945913,-135.887,15.8632024808656));
#655=CARTESIAN_POINT('Ctrl Pts',(222.320272945913,-135.987,15.8632024808656));
#656=CARTESIAN_POINT('Ctrl Pts',(222.320281150428,-135.887,15.8631761703899));
#657=CARTESIAN_POINT('Ctrl Pts',(222.320281150428,-135.987,15.8631761703899));
#658=CARTESIAN_POINT('Ctrl Pts',(222.320287864746,-135.887,15.8631546417729));
#659=CARTESIAN_POINT('Ctrl Pts',(222.320287864746,-135.987,15.8631546417729));
#660=CARTESIAN_POINT('Ctrl Pts',(222.320305135515,-135.887,15.8630992332497));
#661=CARTESIAN_POINT('Ctrl Pts',(222.320305135515,-135.987,15.8630992332497));
#662=CARTESIAN_POINT('Ctrl Pts',(222.320313770899,-135.887,15.8630715289881));
#663=CARTESIAN_POINT('Ctrl Pts',(222.320313770899,-135.987,15.8630715289881));
#664=CARTESIAN_POINT('Ctrl Pts',(222.320324115996,-135.887,15.8630383403637));
#665=CARTESIAN_POINT('Ctrl Pts',(222.320324115996,-135.987,15.8630383403637));
#666=CARTESIAN_POINT('Ctrl Pts',(222.3203423311,-135.887,15.8629798620448));
#667=CARTESIAN_POINT('Ctrl Pts',(222.3203423311,-135.987,15.8629798620448));
#668=CARTESIAN_POINT('Ctrl Pts',(222.320351438652,-135.887,15.8629506228853));
#669=CARTESIAN_POINT('Ctrl Pts',(222.320351438652,-135.987,15.8629506228853));
#670=CARTESIAN_POINT('Ctrl Pts',(222.320362245206,-135.887,15.8629159272784));
#671=CARTESIAN_POINT('Ctrl Pts',(222.320362245206,-135.987,15.8629159272784));
#672=CARTESIAN_POINT('Ctrl Pts',(222.320380118635,-135.887,15.8628584991102));
#673=CARTESIAN_POINT('Ctrl Pts',(222.320380118635,-135.987,15.8628584991102));
#674=CARTESIAN_POINT('Ctrl Pts',(222.320389205665,-135.887,15.8628293020576));
#675=CARTESIAN_POINT('Ctrl Pts',(222.320389205665,-135.987,15.8628293020576));
#676=CARTESIAN_POINT('Ctrl Pts',(222.320399635059,-135.887,15.8627957951518));
#677=CARTESIAN_POINT('Ctrl Pts',(222.320399635059,-135.987,15.8627957951518));
#678=CARTESIAN_POINT('Ctrl Pts',(222.320421056302,-135.887,15.8627269032508));
#679=CARTESIAN_POINT('Ctrl Pts',(222.320421056302,-135.987,15.8627269032508));
#680=CARTESIAN_POINT('Ctrl Pts',(222.320436086914,-135.887,15.8626785639698));
#681=CARTESIAN_POINT('Ctrl Pts',(222.320436086914,-135.987,15.8626785639698));
#682=CARTESIAN_POINT('Ctrl Pts',(222.320446344199,-135.887,15.862645705966));
#683=CARTESIAN_POINT('Ctrl Pts',(222.320446344199,-135.987,15.862645705966));
#684=CARTESIAN_POINT('Ctrl Pts',(222.32050993169,-135.887,15.8624407772161));
#685=CARTESIAN_POINT('Ctrl Pts',(222.32050993169,-135.987,15.8624407772161));
#686=CARTESIAN_POINT('Ctrl Pts',(222.320533969334,-135.887,15.8623633090811));
#687=CARTESIAN_POINT('Ctrl Pts',(222.320533969334,-135.987,15.8623633090811));
#688=CARTESIAN_POINT('Ctrl Pts',(222.320650306289,-135.887,15.8619876319034));
#689=CARTESIAN_POINT('Ctrl Pts',(222.320650306289,-135.987,15.8619876319034));
#690=CARTESIAN_POINT('Ctrl Pts',(222.320635529093,-135.887,15.8620353983612));
#691=CARTESIAN_POINT('Ctrl Pts',(222.320635529093,-135.987,15.8620353983612));
#692=CARTESIAN_POINT('',(222.320226932683,-135.887,15.8633500067457));
#693=CARTESIAN_POINT('Ctrl Pts',(218.155031806474,-135.887,29.1975763478461));
#694=CARTESIAN_POINT('Ctrl Pts',(218.76924155434,-135.887,27.231311880196));
#695=CARTESIAN_POINT('Ctrl Pts',(219.430936984631,-135.887,25.1130270545976));
#696=CARTESIAN_POINT('Ctrl Pts',(220.046623023482,-135.887,23.1420218336682));
#697=CARTESIAN_POINT('Ctrl Pts',(220.472283359745,-135.887,21.7793488279865));
#698=CARTESIAN_POINT('Ctrl Pts',(220.8759522309,-135.887,20.4870722225035));
#699=CARTESIAN_POINT('Ctrl Pts',(221.226733877634,-135.887,19.3640968345819));
#700=CARTESIAN_POINT('Ctrl Pts',(221.314429289318,-135.887,19.0833529876015));
#701=CARTESIAN_POINT('Ctrl Pts',(221.398819250053,-135.887,18.8131904645151));
#702=CARTESIAN_POINT('Ctrl Pts',(221.479421014505,-135.887,18.5551546439266));
#703=CARTESIAN_POINT('Ctrl Pts',(221.524752697099,-135.887,18.4100312958665));
#704=CARTESIAN_POINT('Ctrl Pts',(221.568886130756,-135.887,18.2687437596102));
#705=CARTESIAN_POINT('Ctrl Pts',(221.611735435852,-135.887,18.1315669537907));
#706=CARTESIAN_POINT('Ctrl Pts',(221.634522870206,-135.887,18.0586157717251));
#707=CARTESIAN_POINT('Ctrl Pts',(221.659829994106,-135.887,17.9775980424459));
#708=CARTESIAN_POINT('Ctrl Pts',(221.687212128681,-135.887,17.8899372877211));
#709=CARTESIAN_POINT('Ctrl Pts',(221.785101495038,-135.887,17.576555739213));
#710=CARTESIAN_POINT('Ctrl Pts',(221.908101703545,-135.887,17.1827831997149));
#711=CARTESIAN_POINT('Ctrl Pts',(222.020652773632,-135.887,16.8224575033619));
#712=CARTESIAN_POINT('Ctrl Pts',(222.076928308676,-135.887,16.6422946551854));
#713=CARTESIAN_POINT('Ctrl Pts',(222.130591552998,-135.887,16.4704935425464));
#714=CARTESIAN_POINT('Ctrl Pts',(222.177197654365,-135.887,16.3212834731189));
#715=CARTESIAN_POINT('Ctrl Pts',(222.194316397067,-135.887,16.2664775847858));
#716=CARTESIAN_POINT('Ctrl Pts',(222.210483031716,-135.887,16.2147195471678));
#717=CARTESIAN_POINT('Ctrl Pts',(222.225477314408,-135.887,16.1667144204965));
#718=CARTESIAN_POINT('Ctrl Pts',(222.232976349325,-135.887,16.1427057947789));
#719=CARTESIAN_POINT('Ctrl Pts',(222.240683251296,-135.887,16.1180315928529));
#720=CARTESIAN_POINT('Ctrl Pts',(222.250395852303,-135.887,16.0869357053249));
#721=CARTESIAN_POINT('Ctrl Pts',(222.262265466563,-135.887,16.0489339188062));
#722=CARTESIAN_POINT('Ctrl Pts',(222.275739724114,-135.887,16.0057942768855));
#723=CARTESIAN_POINT('Ctrl Pts',(222.287789455517,-135.887,15.9672143604719));
#724=CARTESIAN_POINT('Ctrl Pts',(222.293814321219,-135.887,15.947924402265));
#725=CARTESIAN_POINT('Ctrl Pts',(222.299483043028,-135.887,15.9297744170371));
#726=CARTESIAN_POINT('Ctrl Pts',(222.304417221791,-135.887,15.9139758171339));
#727=CARTESIAN_POINT('Ctrl Pts',(222.306884311172,-135.887,15.9060765171823));
#728=CARTESIAN_POINT('Ctrl Pts',(222.308751268725,-135.887,15.9000987297249));
#729=CARTESIAN_POINT('Ctrl Pts',(222.311691190688,-135.887,15.8906850220041));
#730=CARTESIAN_POINT('Ctrl Pts',(222.31316115167,-135.887,15.8859781681437));
#731=CARTESIAN_POINT('Ctrl Pts',(222.31480873623,-135.887,15.8807024515743));
#732=CARTESIAN_POINT('Ctrl Pts',(222.31627870696,-135.887,15.8759952050269));
#733=CARTESIAN_POINT('Ctrl Pts',(222.317013692325,-135.887,15.8736415817533));
#734=CARTESIAN_POINT('Ctrl Pts',(222.317704249195,-135.887,15.8714301567266));
#735=CARTESIAN_POINT('Ctrl Pts',(222.318306457652,-135.887,15.8695015449549));
#736=CARTESIAN_POINT('Ctrl Pts',(222.318607561881,-135.887,15.868537239069));
#737=CARTESIAN_POINT('Ctrl Pts',(222.318839225294,-135.887,15.867795314878));
#738=CARTESIAN_POINT('Ctrl Pts',(222.319205309854,-135.887,15.866622789404));
#739=CARTESIAN_POINT('Ctrl Pts',(222.319388352135,-135.887,15.866036526667));
#740=CARTESIAN_POINT('Ctrl Pts',(222.319591012395,-135.887,15.8653874028903));
#741=CARTESIAN_POINT('Ctrl Pts',(222.319773158881,-135.887,15.8648039186045));
#742=CARTESIAN_POINT('Ctrl Pts',(222.319864232123,-135.887,15.8645121764616));
#743=CARTESIAN_POINT('Ctrl Pts',(222.319950127666,-135.887,15.8642370022912));
#744=CARTESIAN_POINT('Ctrl Pts',(222.320026788081,-135.887,15.8639913848058));
#745=CARTESIAN_POINT('Ctrl Pts',(222.320065118288,-135.887,15.8638685760632));
#746=CARTESIAN_POINT('Ctrl Pts',(222.320095374804,-135.887,15.8637716342005));
#747=CARTESIAN_POINT('Ctrl Pts',(222.320145700306,-135.887,15.8636103603264));
#748=CARTESIAN_POINT('Ctrl Pts',(222.320170677529,-135.887,15.8635303179354));
#749=CARTESIAN_POINT('Ctrl Pts',(222.320198329602,-135.887,15.8634416974123));
#750=CARTESIAN_POINT('Ctrl Pts',(222.320226932347,-135.887,15.8633500078237));
#751=CARTESIAN_POINT('',(222.320226860203,-135.987,15.8633499832758));
#752=CARTESIAN_POINT('',(222.320226860203,-135.887,15.8633499832758));
#753=CARTESIAN_POINT('Ctrl Pts',(218.414264343123,-135.987,28.3676971265043));
#754=CARTESIAN_POINT('Ctrl Pts',(218.952726927345,-135.987,26.6439201669221));
#755=CARTESIAN_POINT('Ctrl Pts',(219.516716056418,-135.987,24.8384211878577));
#756=CARTESIAN_POINT('Ctrl Pts',(220.046623023482,-135.987,23.1420218336682));
#757=CARTESIAN_POINT('Ctrl Pts',(220.472283359745,-135.987,21.7793488279865));
#758=CARTESIAN_POINT('Ctrl Pts',(220.8759522309,-135.987,20.4870722225035));
#759=CARTESIAN_POINT('Ctrl Pts',(221.226733877634,-135.987,19.3640968345819));
#760=CARTESIAN_POINT('Ctrl Pts',(221.314429289318,-135.987,19.0833529876015));
#761=CARTESIAN_POINT('Ctrl Pts',(221.398819250053,-135.987,18.8131904645151));
#762=CARTESIAN_POINT('Ctrl Pts',(221.479421014505,-135.987,18.5551546439266));
#763=CARTESIAN_POINT('Ctrl Pts',(221.524752697099,-135.987,18.4100312958665));
#764=CARTESIAN_POINT('Ctrl Pts',(221.568886130756,-135.987,18.2687437596102));
#765=CARTESIAN_POINT('Ctrl Pts',(221.611735435852,-135.987,18.1315669537907));
#766=CARTESIAN_POINT('Ctrl Pts',(221.634522870206,-135.987,18.0586157717251));
#767=CARTESIAN_POINT('Ctrl Pts',(221.659829994106,-135.987,17.9775980424459));
#768=CARTESIAN_POINT('Ctrl Pts',(221.687212128681,-135.987,17.8899372877211));
#769=CARTESIAN_POINT('Ctrl Pts',(221.785101495038,-135.987,17.576555739213));
#770=CARTESIAN_POINT('Ctrl Pts',(221.908101703545,-135.987,17.1827831997149));
#771=CARTESIAN_POINT('Ctrl Pts',(222.020652773632,-135.987,16.8224575033619));
#772=CARTESIAN_POINT('Ctrl Pts',(222.076928308676,-135.987,16.6422946551854));
#773=CARTESIAN_POINT('Ctrl Pts',(222.130591552998,-135.987,16.4704935425464));
#774=CARTESIAN_POINT('Ctrl Pts',(222.177197654365,-135.987,16.3212834731189));
#775=CARTESIAN_POINT('Ctrl Pts',(222.194316397067,-135.987,16.2664775847857));
#776=CARTESIAN_POINT('Ctrl Pts',(222.210483031716,-135.987,16.2147195471678));
#777=CARTESIAN_POINT('Ctrl Pts',(222.225477314408,-135.987,16.1667144204965));
#778=CARTESIAN_POINT('Ctrl Pts',(222.232976349325,-135.987,16.1427057947789));
#779=CARTESIAN_POINT('Ctrl Pts',(222.240683251296,-135.987,16.1180315928529));
#780=CARTESIAN_POINT('Ctrl Pts',(222.250395852303,-135.987,16.0869357053249));
#781=CARTESIAN_POINT('Ctrl Pts',(222.262265466563,-135.987,16.0489339188062));
#782=CARTESIAN_POINT('Ctrl Pts',(222.275739724114,-135.987,16.0057942768855));
#783=CARTESIAN_POINT('Ctrl Pts',(222.287789455517,-135.987,15.9672143604719));
#784=CARTESIAN_POINT('Ctrl Pts',(222.293814321219,-135.987,15.947924402265));
#785=CARTESIAN_POINT('Ctrl Pts',(222.299483043028,-135.987,15.9297744170371));
#786=CARTESIAN_POINT('Ctrl Pts',(222.304417221791,-135.987,15.9139758171339));
#787=CARTESIAN_POINT('Ctrl Pts',(222.306884311172,-135.987,15.9060765171823));
#788=CARTESIAN_POINT('Ctrl Pts',(222.308751268725,-135.987,15.9000987297249));
#789=CARTESIAN_POINT('Ctrl Pts',(222.311691190688,-135.987,15.8906850220041));
#790=CARTESIAN_POINT('Ctrl Pts',(222.31316115167,-135.987,15.8859781681437));
#791=CARTESIAN_POINT('Ctrl Pts',(222.31480873623,-135.987,15.8807024515743));
#792=CARTESIAN_POINT('Ctrl Pts',(222.31627870696,-135.987,15.875995205027));
#793=CARTESIAN_POINT('Ctrl Pts',(222.317013692325,-135.987,15.8736415817533));
#794=CARTESIAN_POINT('Ctrl Pts',(222.317704249195,-135.987,15.8714301567266));
#795=CARTESIAN_POINT('Ctrl Pts',(222.318306457652,-135.987,15.8695015449549));
#796=CARTESIAN_POINT('Ctrl Pts',(222.318607561881,-135.987,15.868537239069));
#797=CARTESIAN_POINT('Ctrl Pts',(222.318839225294,-135.987,15.867795314878));
#798=CARTESIAN_POINT('Ctrl Pts',(222.319205309854,-135.987,15.866622789404));
#799=CARTESIAN_POINT('Ctrl Pts',(222.319388352135,-135.987,15.866036526667));
#800=CARTESIAN_POINT('Ctrl Pts',(222.319591012395,-135.987,15.8653874028903));
#801=CARTESIAN_POINT('Ctrl Pts',(222.319773158881,-135.987,15.8648039186045));
#802=CARTESIAN_POINT('Ctrl Pts',(222.319864232123,-135.987,15.8645121764616));
#803=CARTESIAN_POINT('Ctrl Pts',(222.319950127666,-135.987,15.8642370022912));
#804=CARTESIAN_POINT('Ctrl Pts',(222.320026788081,-135.987,15.8639913848059));
#805=CARTESIAN_POINT('Ctrl Pts',(222.320065118288,-135.987,15.8638685760632));
#806=CARTESIAN_POINT('Ctrl Pts',(222.320095374804,-135.987,15.8637716342005));
#807=CARTESIAN_POINT('Ctrl Pts',(222.320145700306,-135.987,15.8636103603264));
#808=CARTESIAN_POINT('Ctrl Pts',(222.320170677668,-135.987,15.863530317489));
#809=CARTESIAN_POINT('Ctrl Pts',(222.320198329911,-135.987,15.8634416964238));
#810=CARTESIAN_POINT('Ctrl Pts',(222.320226932826,-135.987,15.8633500062896));
#811=CARTESIAN_POINT('Ctrl Pts',(217.475930297034,-135.887,31.3715764155299));
#812=CARTESIAN_POINT('Ctrl Pts',(217.475930297034,-133.5252,31.3715764155299));
#813=CARTESIAN_POINT('Ctrl Pts',(219.891096015573,-135.887,23.6399395642629));
#814=CARTESIAN_POINT('Ctrl Pts',(219.891096015573,-133.5252,23.6399395642629));
#815=CARTESIAN_POINT('Ctrl Pts',(221.10215736276,-135.887,19.7629242680799));
#816=CARTESIAN_POINT('Ctrl Pts',(221.10215736276,-133.5252,19.7629242680799));
#817=CARTESIAN_POINT('Ctrl Pts',(221.709434635552,-135.887,17.8187944612205));
#818=CARTESIAN_POINT('Ctrl Pts',(221.709434635552,-133.5252,17.8187944612205));
#819=CARTESIAN_POINT('Ctrl Pts',(222.013073271948,-135.887,16.8467295577908));
#820=CARTESIAN_POINT('Ctrl Pts',(222.013073271948,-133.5252,16.8467295577908));
#821=CARTESIAN_POINT('Ctrl Pts',(222.165765728472,-135.887,16.3578865430876));
#822=CARTESIAN_POINT('Ctrl Pts',(222.165765728472,-133.5252,16.3578865430876));
#823=CARTESIAN_POINT('Ctrl Pts',(222.24255326471,-135.887,16.1120444947839));
#824=CARTESIAN_POINT('Ctrl Pts',(222.24255326471,-133.5252,16.1120444947839));
#825=CARTESIAN_POINT('Ctrl Pts',(222.280947032829,-135.887,15.9891234706321));
#826=CARTESIAN_POINT('Ctrl Pts',(222.280947032829,-133.5252,15.9891234706321));
#827=CARTESIAN_POINT('Ctrl Pts',(222.300364263222,-135.887,15.9269536734339));
#828=CARTESIAN_POINT('Ctrl Pts',(222.300364263222,-133.5252,15.9269536734339));
#829=CARTESIAN_POINT('Ctrl Pts',(222.31018747096,-135.887,15.8954999377863));
#830=CARTESIAN_POINT('Ctrl Pts',(222.31018747096,-133.5252,15.8954999377863));
#831=CARTESIAN_POINT('Ctrl Pts',(222.315099074829,-135.887,15.8797730699624));
#832=CARTESIAN_POINT('Ctrl Pts',(222.315099074829,-133.5252,15.8797730699624));
#833=CARTESIAN_POINT('Ctrl Pts',(222.317611613934,-135.887,15.8717270090879));
#834=CARTESIAN_POINT('Ctrl Pts',(222.317611613934,-133.5252,15.8717270090879));
#835=CARTESIAN_POINT('Ctrl Pts',(222.318902285265,-135.887,15.8675933192575));
#836=CARTESIAN_POINT('Ctrl Pts',(222.318902285265,-133.5252,15.8675933192575));
#837=CARTESIAN_POINT('Ctrl Pts',(222.31954762093,-135.887,15.8655264743424));
#838=CARTESIAN_POINT('Ctrl Pts',(222.31954762093,-133.5252,15.8655264743424));
#839=CARTESIAN_POINT('Ctrl Pts',(222.31988657054,-135.887,15.8644406701584));
#840=CARTESIAN_POINT('Ctrl Pts',(222.31988657054,-133.5252,15.8644406701584));
#841=CARTESIAN_POINT('Ctrl Pts',(222.320073846506,-135.887,15.8638406066426));
#842=CARTESIAN_POINT('Ctrl Pts',(222.320073846506,-133.5252,15.8638406066426));
#843=CARTESIAN_POINT('Ctrl Pts',(222.320167484489,-135.887,15.8635405748847));
#844=CARTESIAN_POINT('Ctrl Pts',(222.320167484489,-133.5252,15.8635405748847));
#845=CARTESIAN_POINT('Ctrl Pts',(222.320221980567,-135.887,15.8633659096641));
#846=CARTESIAN_POINT('Ctrl Pts',(222.320221980567,-133.5252,15.8633659096641));
#847=CARTESIAN_POINT('Ctrl Pts',(222.320267911059,-135.887,15.8632186263424));
#848=CARTESIAN_POINT('Ctrl Pts',(222.320267911059,-133.5252,15.8632186263424));
#849=CARTESIAN_POINT('Ctrl Pts',(222.320290876305,-135.887,15.8631449846816));
#850=CARTESIAN_POINT('Ctrl Pts',(222.320290876305,-133.5252,15.8631449846816));
#851=CARTESIAN_POINT('Ctrl Pts',(222.320310672376,-135.887,15.8630815028441));
#852=CARTESIAN_POINT('Ctrl Pts',(222.320310672376,-133.5252,15.8630815028441));
#853=CARTESIAN_POINT('Ctrl Pts',(222.320343592006,-135.887,15.862975813943));
#854=CARTESIAN_POINT('Ctrl Pts',(222.320343592006,-133.5252,15.862975813943));
#855=CARTESIAN_POINT('Ctrl Pts',(222.320376511636,-135.887,15.8628701250418));
#856=CARTESIAN_POINT('Ctrl Pts',(222.320376511636,-133.5252,15.8628701250418));
#857=CARTESIAN_POINT('Ctrl Pts',(222.320416382934,-135.887,15.8627429288008));
#858=CARTESIAN_POINT('Ctrl Pts',(222.320416382934,-133.5252,15.8627429288008));
#859=CARTESIAN_POINT('Ctrl Pts',(222.320577810401,-135.887,15.8622218422583));
#860=CARTESIAN_POINT('Ctrl Pts',(222.320577810401,-133.5252,15.8622218422583));
#861=CARTESIAN_POINT('',(217.601946353555,-133.5252,30.9681628879394));
#862=CARTESIAN_POINT('Ctrl Pts',(217.601946353555,-133.5252,30.9681628879391));
#863=CARTESIAN_POINT('Ctrl Pts',(217.601946353555,-133.679133333333,30.9681628879391));
#864=CARTESIAN_POINT('Ctrl Pts',(217.601946353555,-133.833066666667,30.9681628879391));
#865=CARTESIAN_POINT('Ctrl Pts',(217.601946353555,-133.987,30.9681628879391));
#866=CARTESIAN_POINT('',(222.320279260674,-133.5252,15.8631822297831));
#867=CARTESIAN_POINT('Ctrl Pts',(222.320279146447,-133.5252,15.8631825975365));
#868=CARTESIAN_POINT('Ctrl Pts',(222.320275438931,-133.5252,15.8631944869696));
#869=CARTESIAN_POINT('Ctrl Pts',(222.320271718551,-133.5252,15.8632064170218));
#870=CARTESIAN_POINT('Ctrl Pts',(222.320267911059,-133.5252,15.8632186263424));
#871=CARTESIAN_POINT('Ctrl Pts',(222.320221980567,-133.5252,15.8633659096641));
#872=CARTESIAN_POINT('Ctrl Pts',(222.320167484489,-133.5252,15.8635405748847));
#873=CARTESIAN_POINT('Ctrl Pts',(222.320073846506,-133.5252,15.8638406066426));
#874=CARTESIAN_POINT('Ctrl Pts',(222.31988657054,-133.5252,15.8644406701584));
#875=CARTESIAN_POINT('Ctrl Pts',(222.31954762093,-133.5252,15.8655264743424));
#876=CARTESIAN_POINT('Ctrl Pts',(222.318902285265,-133.5252,15.8675933192575));
#877=CARTESIAN_POINT('Ctrl Pts',(222.317611613934,-133.5252,15.8717270090879));
#878=CARTESIAN_POINT('Ctrl Pts',(222.315099074829,-133.5252,15.8797730699624));
#879=CARTESIAN_POINT('Ctrl Pts',(222.31018747096,-133.5252,15.8954999377863));
#880=CARTESIAN_POINT('Ctrl Pts',(222.300364263222,-133.5252,15.9269536734339));
#881=CARTESIAN_POINT('Ctrl Pts',(222.280947032829,-133.5252,15.9891234706321));
#882=CARTESIAN_POINT('Ctrl Pts',(222.24255326471,-133.5252,16.1120444947839));
#883=CARTESIAN_POINT('Ctrl Pts',(222.165765728472,-133.5252,16.3578865430876));
#884=CARTESIAN_POINT('Ctrl Pts',(222.013073271948,-133.5252,16.8467295577908));
#885=CARTESIAN_POINT('Ctrl Pts',(221.709434635552,-133.5252,17.8187944612205));
#886=CARTESIAN_POINT('Ctrl Pts',(221.112812258688,-133.5252,19.7288138185544));
#887=CARTESIAN_POINT('Ctrl Pts',(219.933407151866,-133.5252,23.5044873558031));
#888=CARTESIAN_POINT('Ctrl Pts',(217.601946353555,-133.5252,30.968162887939));
#889=CARTESIAN_POINT('',(222.320279260664,-135.887,15.8631822298152));
#890=CARTESIAN_POINT('Ctrl Pts',(222.320279260664,-135.887,15.8631822298152));
#891=CARTESIAN_POINT('Ctrl Pts',(222.320279260664,-135.493366666667,15.8631822298152));
#892=CARTESIAN_POINT('Ctrl Pts',(222.320279260664,-135.099733333333,15.8631822298152));
#893=CARTESIAN_POINT('Ctrl Pts',(222.320279260664,-134.312466666667,15.8631822298152));
#894=CARTESIAN_POINT('Ctrl Pts',(222.320279260674,-133.918833333333,15.8631822297831));
#895=CARTESIAN_POINT('Ctrl Pts',(222.320279260674,-133.5252,15.8631822297831));
#896=CARTESIAN_POINT('Ctrl Pts',(222.320226601502,-135.887,15.8633510704956));
#897=CARTESIAN_POINT('Ctrl Pts',(222.320245897497,-135.887,15.8632892139647));
#898=CARTESIAN_POINT('Ctrl Pts',(222.320262904257,-135.887,15.8632346837306));
#899=CARTESIAN_POINT('Ctrl Pts',(222.320279146437,-135.887,15.8631825975698));
#900=CARTESIAN_POINT('Origin',(206.268401036322,-130.35,4.92760316772129));
#901=CARTESIAN_POINT('',(217.670251249525,-133.5252,-21.0831217686523));
#902=CARTESIAN_POINT('',(217.670251249525,-130.35,-21.0831217686523));
#903=CARTESIAN_POINT('',(211.000003144145,-133.5252,-23.0754670477613));
#904=CARTESIAN_POINT('Origin',(206.268401036322,-133.5252,4.92760316772129));
#905=CARTESIAN_POINT('',(211.000003144145,-132.5254,-23.0754670477613));
#906=CARTESIAN_POINT('',(211.000003144145,-130.35,-23.0754670477613));
#907=CARTESIAN_POINT('',(206.268401036322,-132.5254,-23.4723968322787));
#908=CARTESIAN_POINT('Origin',(206.268401036322,-132.5254,4.92760316772129));
#909=CARTESIAN_POINT('',(206.268401036322,-130.35,-23.4723968322787));
#910=CARTESIAN_POINT('',(206.268401036322,-130.35,-23.4723968322787));
#911=CARTESIAN_POINT('Origin',(206.268401036322,-130.35,4.92760316772129));
#912=CARTESIAN_POINT('',(201.5367989285,-132.5254,-23.0754670477614));
#913=CARTESIAN_POINT('Origin',(206.268401036322,-132.5254,4.92760316772129));
#914=CARTESIAN_POINT('',(201.5367989285,-133.5252,-23.0754670477614));
#915=CARTESIAN_POINT('',(201.5367989285,-130.35,-23.0754670477614));
#916=CARTESIAN_POINT('',(197.325829575786,-133.5252,-22.0277379667032));
#917=CARTESIAN_POINT('Origin',(206.268401036322,-133.5252,4.92760316772129));
#918=CARTESIAN_POINT('',(197.325829575786,-133.987,-22.0277379667032));
#919=CARTESIAN_POINT('',(197.325829575786,-130.35,-22.0277379667032));
#920=CARTESIAN_POINT('',(197.229471071742,-133.987,31.8507854665398));
#921=CARTESIAN_POINT('Origin',(206.268401036322,-133.987,4.92760316772129));
#922=CARTESIAN_POINT('',(197.229471071742,-133.5252,31.8507854665398));
#923=CARTESIAN_POINT('',(197.229471071742,-130.35,31.8507854665398));
#924=CARTESIAN_POINT('',(201.5367989285,-133.5252,32.930673383204));
#925=CARTESIAN_POINT('Origin',(206.268401036322,-133.5252,4.92760316772129));
#926=CARTESIAN_POINT('',(201.5367989285,-132.5254,32.930673383204));
#927=CARTESIAN_POINT('',(201.5367989285,-130.35,32.930673383204));
#928=CARTESIAN_POINT('',(211.000003144145,-132.5254,32.9306733832039));
#929=CARTESIAN_POINT('Origin',(206.268401036322,-132.5254,4.92760316772129));
#930=CARTESIAN_POINT('',(211.000003144145,-133.5252,32.9306733832039));
#931=CARTESIAN_POINT('',(211.000003144145,-130.35,32.9306733832039));
#932=CARTESIAN_POINT('Origin',(206.268401036322,-133.5252,4.92760316772129));
#933=CARTESIAN_POINT('Origin',(206.268401036322,-133.987,4.92760316772129));
#934=CARTESIAN_POINT('',(197.322042709727,-135.987,-19.9103249401576));
#935=CARTESIAN_POINT('Ctrl Pts',(197.325829575786,-133.987,-22.0277379667032));
#936=CARTESIAN_POINT('Ctrl Pts',(197.325829575786,-134.22946686692,-22.0277379667032));
#937=CARTESIAN_POINT('Ctrl Pts',(197.325724290987,-134.514409347126,-21.9688683367794));
#938=CARTESIAN_POINT('Ctrl Pts',(197.325379042561,-134.966541164486,-21.7758238760265));
#939=CARTESIAN_POINT('Ctrl Pts',(197.325073784187,-135.212015311986,-21.6051397149614));
#940=CARTESIAN_POINT('Ctrl Pts',(197.324421860279,-135.564804929642,-21.2406187220592));
#941=CARTESIAN_POINT('Ctrl Pts',(197.323955373754,-135.731882232636,-20.9797843989334));
#942=CARTESIAN_POINT('Ctrl Pts',(197.323083480125,-135.927248001598,-20.4922680997547));
#943=CARTESIAN_POINT('Ctrl Pts',(197.322520355292,-135.987,-20.1773988019311));
#944=CARTESIAN_POINT('Ctrl Pts',(197.322042709727,-135.987,-19.9103249401576));
#945=CARTESIAN_POINT('',(197.233257937801,-135.987,29.7333724399942));
#946=CARTESIAN_POINT('Origin',(206.268401036322,-135.987,4.92760316772129));
#947=CARTESIAN_POINT('Ctrl Pts',(197.233257937801,-135.987,29.7333724399942));
#948=CARTESIAN_POINT('Ctrl Pts',(197.232780292235,-135.987,30.0004463017677));
#949=CARTESIAN_POINT('Ctrl Pts',(197.232217167402,-135.927248001598,30.3153155995913));
#950=CARTESIAN_POINT('Ctrl Pts',(197.231345273774,-135.731882232636,30.80283189877));
#951=CARTESIAN_POINT('Ctrl Pts',(197.230878787249,-135.564804929642,31.0636662218959));
#952=CARTESIAN_POINT('Ctrl Pts',(197.230226863341,-135.212015311986,31.428187214798));
#953=CARTESIAN_POINT('Ctrl Pts',(197.229921604967,-134.966541164486,31.5988713758631));
#954=CARTESIAN_POINT('Ctrl Pts',(197.22957635654,-134.514409347126,31.791915836616));
#955=CARTESIAN_POINT('Ctrl Pts',(197.229471071742,-134.22946686692,31.8507854665398));
#956=CARTESIAN_POINT('Ctrl Pts',(197.229471071742,-133.987,31.8507854665398));
#957=CARTESIAN_POINT('Origin',(197.33886183595,-135.8872,-29.3146810508258));
#958=CARTESIAN_POINT('',(197.308261877151,-133.5252,-12.2048201875047));
#959=CARTESIAN_POINT('',(197.308256079857,-135.987,-12.2015786504538));
#960=CARTESIAN_POINT('Origin',(222.329138490273,-135.8872,-5.8761601706029));
#961=CARTESIAN_POINT('',(222.329138490273,-135.987,-5.8761601706029));
#962=CARTESIAN_POINT('',(223.153029453438,-135.987,-3.18691752736918));
#963=CARTESIAN_POINT('',(222.329138490273,-133.5252,-5.8761601706029));
#964=CARTESIAN_POINT('',(222.329138490273,-135.8872,-5.8761601706029));
#965=CARTESIAN_POINT('',(223.308552897128,-133.5252,-2.67927720177733));
#966=CARTESIAN_POINT('Origin',(217.070951948945,-135.8872,-4.26513113149756));
#967=CARTESIAN_POINT('',(222.570401036281,-135.887,-4.26506040164763));
#968=CARTESIAN_POINT('',(222.570401036281,-133.5252,-4.26506040164763));
#969=CARTESIAN_POINT('',(222.570401036281,-135.8872,-4.26506040164763));
#970=CARTESIAN_POINT('Origin',(217.070951948945,-133.5252,-4.26513113149756));
#971=CARTESIAN_POINT('',(222.570401036281,-135.987,-4.26506040164763));
#972=CARTESIAN_POINT('Origin',(217.070951948945,-135.987,-4.26513113149756));
#973=CARTESIAN_POINT('',(222.570401036281,-135.887,-4.26506040164763));
#974=CARTESIAN_POINT('Ctrl Pts',(222.320226860203,-135.887,15.8633499832758));
#975=CARTESIAN_POINT('Ctrl Pts',(222.320226860203,-133.5252,15.8633499832758));
#976=CARTESIAN_POINT('Ctrl Pts',(222.486052315672,-135.887,15.3325105252308));
#977=CARTESIAN_POINT('Ctrl Pts',(222.486052315672,-133.5252,15.3325105252308));
#978=CARTESIAN_POINT('Ctrl Pts',(222.570401036322,-135.887,14.7795879650873));
#979=CARTESIAN_POINT('Ctrl Pts',(222.570401036322,-133.5252,14.7795879650873));
#980=CARTESIAN_POINT('Ctrl Pts',(222.570401036322,-135.887,14.2234431677219));
#981=CARTESIAN_POINT('Ctrl Pts',(222.570401036322,-133.5252,14.2234431677219));
#982=CARTESIAN_POINT('Ctrl Pts',(222.570401036322,-135.887,-4.26496683227812));
#983=CARTESIAN_POINT('Ctrl Pts',(222.570401036322,-133.5252,-4.26496683227812));
#984=CARTESIAN_POINT('Ctrl Pts',(222.570401036322,-135.887,-4.2650168322781));
#985=CARTESIAN_POINT('Ctrl Pts',(222.570401036322,-133.5252,-4.2650168322781));
#986=CARTESIAN_POINT('Ctrl Pts',(222.570401036322,-135.887,-4.26506683227812));
#987=CARTESIAN_POINT('Ctrl Pts',(222.570401036322,-133.5252,-4.26506683227812));
#988=CARTESIAN_POINT('Ctrl Pts',(222.320279260664,-135.887,15.8631822298153));
#989=CARTESIAN_POINT('Ctrl Pts',(222.48607008499,-135.887,15.3323940376644));
#990=CARTESIAN_POINT('Ctrl Pts',(222.570401036322,-135.887,14.7795293818979));
#991=CARTESIAN_POINT('Ctrl Pts',(222.570401036322,-135.887,14.2234431677219));
#992=CARTESIAN_POINT('Ctrl Pts',(222.570401036322,-135.887,-4.14201002271498));
#993=CARTESIAN_POINT('Ctrl Pts',(222.570401036322,-135.887,-4.26419844758127));
#994=CARTESIAN_POINT('Ctrl Pts',(222.570401036322,-135.887,-4.2650603964775));
#995=CARTESIAN_POINT('Ctrl Pts',(222.570401036322,-133.5252,-4.2650603964775));
#996=CARTESIAN_POINT('Ctrl Pts',(222.570401036322,-133.5252,-4.26419844758127));
#997=CARTESIAN_POINT('Ctrl Pts',(222.570401036322,-133.5252,-4.14201002271498));
#998=CARTESIAN_POINT('Ctrl Pts',(222.570401036322,-133.5252,14.2234431677219));
#999=CARTESIAN_POINT('Ctrl Pts',(222.570401036322,-133.5252,14.7795293818867));
#1000=CARTESIAN_POINT('Ctrl Pts',(222.486070084993,-133.5252,15.3323940376421));
#1001=CARTESIAN_POINT('Ctrl Pts',(222.320279260674,-133.5252,15.8631822297831));
#1002=CARTESIAN_POINT('Origin',(209.893401036529,-133.5252,4.92760316772181));
#1003=CARTESIAN_POINT('',(211.000003144145,-133.5252,21.1532918534442));
#1004=CARTESIAN_POINT('Origin',(209.893401036529,-133.5252,4.92760316772181));
#1005=CARTESIAN_POINT('',(201.5367989285,-133.5252,-11.2981024887182));
#1006=CARTESIAN_POINT('Origin',(201.5367989285,-150.2494,-27.5238081451582));
#1007=CARTESIAN_POINT('',(201.5367989285,-132.5254,42.4276031677215));
#1008=CARTESIAN_POINT('Origin',(211.000003144145,-150.2494,37.3789805391666));
#1009=CARTESIAN_POINT('',(211.000003144145,-132.5254,-32.5723968322785));
#1010=CARTESIAN_POINT('Origin',(206.268401036322,-135.987,4.92760316772129));
#1011=CARTESIAN_POINT('Ctrl Pts',(222.320226860203,-135.987,15.8633499832758));
#1012=CARTESIAN_POINT('Ctrl Pts',(222.570396873383,-135.987,15.0625072306351));
#1013=CARTESIAN_POINT('Ctrl Pts',(222.570401036322,-135.987,14.4186155741986));
#1014=CARTESIAN_POINT('Ctrl Pts',(222.570401036322,-135.987,14.2234431677219));
#1015=CARTESIAN_POINT('Ctrl Pts',(222.570401036322,-135.987,14.1372627762739));
#1016=CARTESIAN_POINT('Ctrl Pts',(222.570401036322,-135.987,14.0510940236191));
#1017=CARTESIAN_POINT('Ctrl Pts',(222.570401036322,-135.987,13.9649194516997));
#1018=CARTESIAN_POINT('Ctrl Pts',(222.570401036322,-135.987,10.9265884043701));
#1019=CARTESIAN_POINT('Ctrl Pts',(222.570401036322,-135.987,7.88825735704044));
#1020=CARTESIAN_POINT('Ctrl Pts',(222.570401036322,-135.987,4.8499263097108));
#1021=CARTESIAN_POINT('Ctrl Pts',(222.570401036322,-135.987,3.14630546467523));
#1022=CARTESIAN_POINT('Ctrl Pts',(222.570401036322,-135.987,1.44268461963966));
#1023=CARTESIAN_POINT('Ctrl Pts',(222.570401036322,-135.987,-0.260936225395911));
#1024=CARTESIAN_POINT('Ctrl Pts',(222.570401036322,-135.987,-1.39007907755384));
#1025=CARTESIAN_POINT('Ctrl Pts',(222.570401036322,-135.987,-2.51922192971177));
#1026=CARTESIAN_POINT('Ctrl Pts',(222.570401036322,-135.987,-3.64836478186969));
#1027=CARTESIAN_POINT('Ctrl Pts',(222.570401036322,-135.987,-3.85393213200584));
#1028=CARTESIAN_POINT('Ctrl Pts',(222.570401036322,-135.987,-4.05949948213628));
#1029=CARTESIAN_POINT('Ctrl Pts',(222.570401036322,-135.987,-4.26506683227812));
#1030=CARTESIAN_POINT('Ctrl Pts',(222.320226860203,-135.887,15.8633499832758));
#1031=CARTESIAN_POINT('Ctrl Pts',(222.320226860203,-135.987,15.8633499832758));
#1032=CARTESIAN_POINT('Ctrl Pts',(222.570396873383,-135.887,15.0625072306351));
#1033=CARTESIAN_POINT('Ctrl Pts',(222.570396873383,-135.987,15.0625072306351));
#1034=CARTESIAN_POINT('Ctrl Pts',(222.570401036322,-135.887,14.4186155741986));
#1035=CARTESIAN_POINT('Ctrl Pts',(222.570401036322,-135.987,14.4186155741986));
#1036=CARTESIAN_POINT('Ctrl Pts',(222.570401036322,-135.887,14.2234431677219));
#1037=CARTESIAN_POINT('Ctrl Pts',(222.570401036322,-135.987,14.2234431677219));
#1038=CARTESIAN_POINT('Ctrl Pts',(222.570401036322,-135.887,14.1372627762739));
#1039=CARTESIAN_POINT('Ctrl Pts',(222.570401036322,-135.987,14.1372627762739));
#1040=CARTESIAN_POINT('Ctrl Pts',(222.570401036322,-135.887,14.0510940236191));
#1041=CARTESIAN_POINT('Ctrl Pts',(222.570401036322,-135.987,14.0510940236191));
#1042=CARTESIAN_POINT('Ctrl Pts',(222.570401036322,-135.887,13.9649194516997));
#1043=CARTESIAN_POINT('Ctrl Pts',(222.570401036322,-135.987,13.9649194516997));
#1044=CARTESIAN_POINT('Ctrl Pts',(222.570401036322,-135.887,10.9265884043701));
#1045=CARTESIAN_POINT('Ctrl Pts',(222.570401036322,-135.987,10.9265884043701));
#1046=CARTESIAN_POINT('Ctrl Pts',(222.570401036322,-135.887,7.88825735704044));
#1047=CARTESIAN_POINT('Ctrl Pts',(222.570401036322,-135.987,7.88825735704044));
#1048=CARTESIAN_POINT('Ctrl Pts',(222.570401036322,-135.887,4.8499263097108));
#1049=CARTESIAN_POINT('Ctrl Pts',(222.570401036322,-135.987,4.8499263097108));
#1050=CARTESIAN_POINT('Ctrl Pts',(222.570401036322,-135.887,3.14630546467523));
#1051=CARTESIAN_POINT('Ctrl Pts',(222.570401036322,-135.987,3.14630546467523));
#1052=CARTESIAN_POINT('Ctrl Pts',(222.570401036322,-135.887,1.44268461963966));
#1053=CARTESIAN_POINT('Ctrl Pts',(222.570401036322,-135.987,1.44268461963966));
#1054=CARTESIAN_POINT('Ctrl Pts',(222.570401036322,-135.887,-0.260936225395911));
#1055=CARTESIAN_POINT('Ctrl Pts',(222.570401036322,-135.987,-0.260936225395911));
#1056=CARTESIAN_POINT('Ctrl Pts',(222.570401036322,-135.887,-1.39007907755384));
#1057=CARTESIAN_POINT('Ctrl Pts',(222.570401036322,-135.987,-1.39007907755384));
#1058=CARTESIAN_POINT('Ctrl Pts',(222.570401036322,-135.887,-2.51922192971177));
#1059=CARTESIAN_POINT('Ctrl Pts',(222.570401036322,-135.987,-2.51922192971177));
#1060=CARTESIAN_POINT('Ctrl Pts',(222.570401036322,-135.887,-3.64836478186969));
#1061=CARTESIAN_POINT('Ctrl Pts',(222.570401036322,-135.987,-3.64836478186969));
#1062=CARTESIAN_POINT('Ctrl Pts',(222.570401036322,-135.887,-3.85393213200584));
#1063=CARTESIAN_POINT('Ctrl Pts',(222.570401036322,-135.987,-3.85393213200584));
#1064=CARTESIAN_POINT('Ctrl Pts',(222.570401036322,-135.887,-4.05949948213628));
#1065=CARTESIAN_POINT('Ctrl Pts',(222.570401036322,-135.987,-4.05949948213628));
#1066=CARTESIAN_POINT('Ctrl Pts',(222.570401036322,-135.887,-4.26506683227812));
#1067=CARTESIAN_POINT('Ctrl Pts',(222.570401036322,-135.987,-4.26506683227812));
#1068=CARTESIAN_POINT('Origin',(206.268401036322,-135.987,4.92760316772129));
#1069=CARTESIAN_POINT('Origin',(206.268401036322,-130.35,4.92760316772129));
#1070=CARTESIAN_POINT('',(206.268401036322,-130.35,3.33887326772184));
#1071=CARTESIAN_POINT('Origin',(206.268401036322,-130.35,4.92760316772184));
#1072=CARTESIAN_POINT('Origin',(206.268401036322,-132.5254,4.92758316772186));
#1073=CARTESIAN_POINT('',(206.268401036322,-132.5254,3.33887326772184));
#1074=CARTESIAN_POINT('Origin',(206.268401036322,-132.5254,4.92760316772184));
#1075=CARTESIAN_POINT('Ctrl Pts',(206.268401036322,-132.5254,3.33887326772184));
#1076=CARTESIAN_POINT('Ctrl Pts',(204.680907104635,-132.5254,3.33887326772184));
#1077=CARTESIAN_POINT('Ctrl Pts',(204.680907104635,-132.5254,4.92760316772184));
#1078=CARTESIAN_POINT('Ctrl Pts',(204.680907104635,-132.5254,6.51633306772184));
#1079=CARTESIAN_POINT('Ctrl Pts',(206.268401036322,-132.5254,6.51633306772184));
#1080=CARTESIAN_POINT('Ctrl Pts',(207.855894968009,-132.5254,6.51633306772184));
#1081=CARTESIAN_POINT('Ctrl Pts',(207.855894968009,-132.5254,4.92760316772184));
#1082=CARTESIAN_POINT('Ctrl Pts',(207.855894968009,-132.5254,3.33887326772184));
#1083=CARTESIAN_POINT('Ctrl Pts',(206.268401036322,-132.5254,3.33887326772184));
#1084=CARTESIAN_POINT('Ctrl Pts',(206.268401036322,-130.35,3.33887326772184));
#1085=CARTESIAN_POINT('Ctrl Pts',(204.680907104635,-130.35,3.33887326772184));
#1086=CARTESIAN_POINT('Ctrl Pts',(204.680907104635,-130.35,4.92760316772184));
#1087=CARTESIAN_POINT('Ctrl Pts',(204.680907104635,-130.35,6.51633306772184));
#1088=CARTESIAN_POINT('Ctrl Pts',(206.268401036322,-130.35,6.51633306772184));
#1089=CARTESIAN_POINT('Ctrl Pts',(207.855894968009,-130.35,6.51633306772184));
#1090=CARTESIAN_POINT('Ctrl Pts',(207.855894968009,-130.35,4.92760316772184));
#1091=CARTESIAN_POINT('Ctrl Pts',(207.855894968009,-130.35,3.33887326772184));
#1092=CARTESIAN_POINT('Ctrl Pts',(206.268401036322,-130.35,3.33887326772184));
#1093=CARTESIAN_POINT('',(206.268401036322,-150.2494,3.33887326772184));
#1094=UNCERTAINTY_MEASURE_WITH_UNIT(LENGTH_MEASURE(0.01),#1098,
'DISTANCE_ACCURACY_VALUE',
'Maximum model space distance between geometric entities at asserted c
onnectivities');
#1095=UNCERTAINTY_MEASURE_WITH_UNIT(LENGTH_MEASURE(0.01),#1098,
'DISTANCE_ACCURACY_VALUE',
'Maximum model space distance between geometric entities at asserted c
onnectivities');
#1096=(
GEOMETRIC_REPRESENTATION_CONTEXT(3)
GLOBAL_UNCERTAINTY_ASSIGNED_CONTEXT((#1094))
GLOBAL_UNIT_ASSIGNED_CONTEXT((#1098,#1100,#1101))
REPRESENTATION_CONTEXT('','3D')
);
#1097=(
GEOMETRIC_REPRESENTATION_CONTEXT(3)
GLOBAL_UNCERTAINTY_ASSIGNED_CONTEXT((#1095))
GLOBAL_UNIT_ASSIGNED_CONTEXT((#1098,#1100,#1101))
REPRESENTATION_CONTEXT('','3D')
);
#1098=(
LENGTH_UNIT()
NAMED_UNIT(*)
SI_UNIT(.MILLI.,.METRE.)
);
#1099=(
LENGTH_UNIT()
NAMED_UNIT(*)
SI_UNIT($,.METRE.)
);
#1100=(
NAMED_UNIT(*)
PLANE_ANGLE_UNIT()
SI_UNIT($,.RADIAN.)
);
#1101=(
NAMED_UNIT(*)
SI_UNIT($,.STERADIAN.)
SOLID_ANGLE_UNIT()
);
#1102=SHAPE_DEFINITION_REPRESENTATION(#1103,#1104);
#1103=PRODUCT_DEFINITION_SHAPE('',$,#1106);
#1104=SHAPE_REPRESENTATION('',(#367),#1096);
#1105=PRODUCT_DEFINITION_CONTEXT('part definition',#1110,'design');
#1106=PRODUCT_DEFINITION('2026-09-16-01-27-47-146','Bottom Clamp',#1107,
#1105);
#1107=PRODUCT_DEFINITION_FORMATION('',$,#1112);
#1108=PRODUCT_RELATED_PRODUCT_CATEGORY('Bottom Clamp','Bottom Clamp',(#1112));
#1109=APPLICATION_PROTOCOL_DEFINITION('international standard',
'automotive_design',2009,#1110);
#1110=APPLICATION_CONTEXT(
'Core Data for Automotive Mechanical Design Process');
#1111=PRODUCT_CONTEXT('part definition',#1110,'mechanical');
#1112=PRODUCT('2026-09-16-01-27-47-146','Bottom Clamp',$,(#1111));
#1113=PRESENTATION_STYLE_ASSIGNMENT((#1115));
#1114=PRESENTATION_STYLE_ASSIGNMENT((#1116));
#1115=SURFACE_STYLE_USAGE(.BOTH.,#1117);
#1116=SURFACE_STYLE_USAGE(.BOTH.,#1118);
#1117=SURFACE_SIDE_STYLE('',(#1119));
#1118=SURFACE_SIDE_STYLE('',(#1120));
#1119=SURFACE_STYLE_FILL_AREA(#1121);
#1120=SURFACE_STYLE_FILL_AREA(#1122);
#1121=FILL_AREA_STYLE('Steel - Satin',(#1123));
#1122=FILL_AREA_STYLE(
'PA 12 - PA 2200 - 120\X\B5m - Balance (with EOS 3D printers)',(#1124));
#1123=FILL_AREA_STYLE_COLOUR('Steel - Satin',#1125);
#1124=FILL_AREA_STYLE_COLOUR(
'PA 12 - PA 2200 - 120\X\B5m - Balance (with EOS 3D printers)',#1126);
#1125=COLOUR_RGB('Steel - Satin',0.627450980392157,0.627450980392157,0.627450980392157);
#1126=COLOUR_RGB(
'PA 12 - PA 2200 - 120\X\B5m - Balance (with EOS 3D printers)',0.964705882352941,
0.964705882352941,0.952941176470588);
ENDSEC;
END-ISO-10303-21;
