ISO-10303-21;
HEADER;
/* Generated by software containing ST-Developer
 * from STEP Tools, Inc. (www.steptools.com) 
 */

FILE_DESCRIPTION(
/* description */ (''),
/* implementation_level */ '2;1');

FILE_NAME(
/* name */ 'Motor Bracket Front Top Spindle.step',
/* time_stamp */ '2026-09-16T01:27:46-04:00',
/* author */ (''),
/* organization */ (''),
/* preprocessor_version */ 'ST-DEVELOPER v20.2',
/* originating_system */ 'Autodesk Translation Framework v15.15.0.0',
/* authorisation */ '');

FILE_SCHEMA (('AUTOMOTIVE_DESIGN { 1 0 10303 214 3 1 1 }'));
ENDSEC;

DATA;
#10=MECHANICAL_DESIGN_GEOMETRIC_PRESENTATION_REPRESENTATION('',(#13),#1225);
#11=SHAPE_REPRESENTATION_RELATIONSHIP('SRR','None',#1232,#12);
#12=ADVANCED_BREP_SHAPE_REPRESENTATION('',(#14),#1224);
#13=STYLED_ITEM('',(#1242),#14);
#14=MANIFOLD_SOLID_BREP('Motor Bracket Front Top Spindle',#717);
#15=FACE_BOUND('',#79,.T.);
#16=FACE_BOUND('',#80,.T.);
#17=FACE_BOUND('',#82,.T.);
#18=FACE_BOUND('',#85,.T.);
#19=FACE_BOUND('',#90,.T.);
#20=FACE_BOUND('',#91,.T.);
#21=FACE_BOUND('',#105,.T.);
#22=FACE_BOUND('',#118,.T.);
#23=PLANE('',#734);
#24=PLANE('',#747);
#25=PLANE('',#753);
#26=PLANE('',#756);
#27=PLANE('',#761);
#28=PLANE('',#775);
#29=PLANE('',#780);
#30=PLANE('',#781);
#31=PLANE('',#783);
#32=PLANE('',#785);
#33=PLANE('',#787);
#34=PLANE('',#791);
#35=PLANE('',#792);
#36=PLANE('',#794);
#37=PLANE('',#796);
#38=PLANE('',#798);
#39=PLANE('',#799);
#40=PLANE('',#800);
#41=FACE_OUTER_BOUND('',#77,.T.);
#42=FACE_OUTER_BOUND('',#78,.T.);
#43=FACE_OUTER_BOUND('',#81,.T.);
#44=FACE_OUTER_BOUND('',#83,.T.);
#45=FACE_OUTER_BOUND('',#84,.T.);
#46=FACE_OUTER_BOUND('',#86,.T.);
#47=FACE_OUTER_BOUND('',#87,.T.);
#48=FACE_OUTER_BOUND('',#88,.T.);
#49=FACE_OUTER_BOUND('',#89,.T.);
#50=FACE_OUTER_BOUND('',#92,.T.);
#51=FACE_OUTER_BOUND('',#93,.T.);
#52=FACE_OUTER_BOUND('',#94,.T.);
#53=FACE_OUTER_BOUND('',#95,.T.);
#54=FACE_OUTER_BOUND('',#96,.T.);
#55=FACE_OUTER_BOUND('',#97,.T.);
#56=FACE_OUTER_BOUND('',#98,.T.);
#57=FACE_OUTER_BOUND('',#99,.T.);
#58=FACE_OUTER_BOUND('',#100,.T.);
#59=FACE_OUTER_BOUND('',#101,.T.);
#60=FACE_OUTER_BOUND('',#102,.T.);
#61=FACE_OUTER_BOUND('',#103,.T.);
#62=FACE_OUTER_BOUND('',#104,.T.);
#63=FACE_OUTER_BOUND('',#106,.T.);
#64=FACE_OUTER_BOUND('',#107,.T.);
#65=FACE_OUTER_BOUND('',#108,.T.);
#66=FACE_OUTER_BOUND('',#109,.T.);
#67=FACE_OUTER_BOUND('',#110,.T.);
#68=FACE_OUTER_BOUND('',#111,.T.);
#69=FACE_OUTER_BOUND('',#112,.T.);
#70=FACE_OUTER_BOUND('',#113,.T.);
#71=FACE_OUTER_BOUND('',#114,.T.);
#72=FACE_OUTER_BOUND('',#115,.T.);
#73=FACE_OUTER_BOUND('',#116,.T.);
#74=FACE_OUTER_BOUND('',#117,.T.);
#75=FACE_OUTER_BOUND('',#119,.T.);
#76=FACE_OUTER_BOUND('',#120,.T.);
#77=EDGE_LOOP('',(#459,#460,#461,#462));
#78=EDGE_LOOP('',(#463,#464,#465,#466,#467,#468,#469,#470,#471,#472,#473,
#474,#475,#476,#477,#478,#479,#480,#481,#482,#483,#484,#485,#486,#487,#488));
#79=EDGE_LOOP('',(#489));
#80=EDGE_LOOP('',(#490));
#81=EDGE_LOOP('',(#491,#492,#493,#494,#495,#496));
#82=EDGE_LOOP('',(#497));
#83=EDGE_LOOP('',(#498,#499,#500,#501));
#84=EDGE_LOOP('',(#502,#503,#504,#505,#506,#507));
#85=EDGE_LOOP('',(#508));
#86=EDGE_LOOP('',(#509,#510,#511,#512));
#87=EDGE_LOOP('',(#513,#514,#515,#516));
#88=EDGE_LOOP('',(#517,#518,#519,#520));
#89=EDGE_LOOP('',(#521,#522,#523,#524,#525,#526,#527,#528,#529,#530,#531,
#532,#533,#534,#535,#536,#537,#538,#539,#540,#541,#542,#543,#544,#545,#546));
#90=EDGE_LOOP('',(#547));
#91=EDGE_LOOP('',(#548));
#92=EDGE_LOOP('',(#549,#550,#551,#552));
#93=EDGE_LOOP('',(#553,#554,#555,#556));
#94=EDGE_LOOP('',(#557,#558,#559,#560));
#95=EDGE_LOOP('',(#561,#562,#563,#564));
#96=EDGE_LOOP('',(#565,#566,#567,#568));
#97=EDGE_LOOP('',(#569,#570,#571,#572));
#98=EDGE_LOOP('',(#573,#574,#575,#576));
#99=EDGE_LOOP('',(#577,#578,#579,#580));
#100=EDGE_LOOP('',(#581,#582,#583,#584));
#101=EDGE_LOOP('',(#585,#586,#587,#588));
#102=EDGE_LOOP('',(#589,#590,#591,#592));
#103=EDGE_LOOP('',(#593,#594,#595,#596));
#104=EDGE_LOOP('',(#597,#598,#599,#600,#601,#602));
#105=EDGE_LOOP('',(#603));
#106=EDGE_LOOP('',(#604,#605,#606,#607));
#107=EDGE_LOOP('',(#608,#609,#610,#611));
#108=EDGE_LOOP('',(#612,#613,#614,#615));
#109=EDGE_LOOP('',(#616,#617,#618,#619));
#110=EDGE_LOOP('',(#620,#621,#622,#623));
#111=EDGE_LOOP('',(#624,#625,#626,#627));
#112=EDGE_LOOP('',(#628,#629,#630,#631));
#113=EDGE_LOOP('',(#632,#633,#634,#635));
#114=EDGE_LOOP('',(#636,#637,#638,#639));
#115=EDGE_LOOP('',(#640,#641,#642,#643));
#116=EDGE_LOOP('',(#644,#645,#646,#647));
#117=EDGE_LOOP('',(#648,#649,#650,#651,#652,#653));
#118=EDGE_LOOP('',(#654));
#119=EDGE_LOOP('',(#655,#656,#657,#658));
#120=EDGE_LOOP('',(#659,#660,#661,#662));
#121=LINE('',#1021,#187);
#122=LINE('',#1024,#188);
#123=LINE('',#1027,#189);
#124=LINE('',#1029,#190);
#125=LINE('',#1033,#191);
#126=LINE('',#1037,#192);
#127=LINE('',#1041,#193);
#128=LINE('',#1045,#194);
#129=LINE('',#1049,#195);
#130=LINE('',#1053,#196);
#131=LINE('',#1055,#197);
#132=LINE('',#1057,#198);
#133=LINE('',#1059,#199);
#134=LINE('',#1063,#200);
#135=LINE('',#1067,#201);
#136=LINE('',#1071,#202);
#137=LINE('',#1074,#203);
#138=LINE('',#1081,#204);
#139=LINE('',#1085,#205);
#140=LINE('',#1086,#206);
#141=LINE('',#1094,#207);
#142=LINE('',#1097,#208);
#143=LINE('',#1100,#209);
#144=LINE('',#1103,#210);
#145=LINE('',#1104,#211);
#146=LINE('',#1109,#212);
#147=LINE('',#1110,#213);
#148=LINE('',#1115,#214);
#149=LINE('',#1118,#215);
#150=LINE('',#1121,#216);
#151=LINE('',#1125,#217);
#152=LINE('',#1129,#218);
#153=LINE('',#1133,#219);
#154=LINE('',#1137,#220);
#155=LINE('',#1141,#221);
#156=LINE('',#1144,#222);
#157=LINE('',#1146,#223);
#158=LINE('',#1150,#224);
#159=LINE('',#1154,#225);
#160=LINE('',#1158,#226);
#161=LINE('',#1161,#227);
#162=LINE('',#1167,#228);
#163=LINE('',#1168,#229);
#164=LINE('',#1170,#230);
#165=LINE('',#1172,#231);
#166=LINE('',#1174,#232);
#167=LINE('',#1178,#233);
#168=LINE('',#1180,#234);
#169=LINE('',#1182,#235);
#170=LINE('',#1184,#236);
#171=LINE('',#1186,#237);
#172=LINE('',#1188,#238);
#173=LINE('',#1190,#239);
#174=LINE('',#1192,#240);
#175=LINE('',#1194,#241);
#176=LINE('',#1199,#242);
#177=LINE('',#1201,#243);
#178=LINE('',#1203,#244);
#179=LINE('',#1205,#245);
#180=LINE('',#1207,#246);
#181=LINE('',#1209,#247);
#182=LINE('',#1211,#248);
#183=LINE('',#1213,#249);
#184=LINE('',#1216,#250);
#185=LINE('',#1218,#251);
#186=LINE('',#1221,#252);
#187=VECTOR('',#809,10.);
#188=VECTOR('',#812,10.);
#189=VECTOR('',#815,10.);
#190=VECTOR('',#816,10.);
#191=VECTOR('',#819,10.);
#192=VECTOR('',#822,10.);
#193=VECTOR('',#825,10.);
#194=VECTOR('',#828,10.);
#195=VECTOR('',#831,10.);
#196=VECTOR('',#834,10.);
#197=VECTOR('',#835,10.);
#198=VECTOR('',#836,10.);
#199=VECTOR('',#837,10.);
#200=VECTOR('',#840,10.);
#201=VECTOR('',#843,10.);
#202=VECTOR('',#846,10.);
#203=VECTOR('',#849,10.);
#204=VECTOR('',#856,10.);
#205=VECTOR('',#859,10.);
#206=VECTOR('',#860,10.);
#207=VECTOR('',#867,10.);
#208=VECTOR('',#870,10.);
#209=VECTOR('',#873,10.);
#210=VECTOR('',#876,10.);
#211=VECTOR('',#877,10.);
#212=VECTOR('',#882,10.);
#213=VECTOR('',#883,10.);
#214=VECTOR('',#890,10.);
#215=VECTOR('',#893,10.);
#216=VECTOR('',#896,10.);
#217=VECTOR('',#899,10.);
#218=VECTOR('',#902,10.);
#219=VECTOR('',#905,10.);
#220=VECTOR('',#908,10.);
#221=VECTOR('',#911,10.);
#222=VECTOR('',#914,10.);
#223=VECTOR('',#915,10.);
#224=VECTOR('',#918,10.);
#225=VECTOR('',#921,10.);
#226=VECTOR('',#924,10.);
#227=VECTOR('',#927,10.);
#228=VECTOR('',#934,10.);
#229=VECTOR('',#935,10.);
#230=VECTOR('',#938,10.);
#231=VECTOR('',#941,10.);
#232=VECTOR('',#944,2.6);
#233=VECTOR('',#949,3.50000000000001);
#234=VECTOR('',#952,10.);
#235=VECTOR('',#955,10.);
#236=VECTOR('',#958,10.);
#237=VECTOR('',#961,10.);
#238=VECTOR('',#964,10.);
#239=VECTOR('',#967,10.);
#240=VECTOR('',#970,10.);
#241=VECTOR('',#973,10.);
#242=VECTOR('',#980,3.50000000000001);
#243=VECTOR('',#983,10.);
#244=VECTOR('',#986,10.);
#245=VECTOR('',#989,10.);
#246=VECTOR('',#992,10.);
#247=VECTOR('',#995,10.);
#248=VECTOR('',#998,10.);
#249=VECTOR('',#1001,10.);
#250=VECTOR('',#1006,10.);
#251=VECTOR('',#1009,10.);
#252=VECTOR('',#1014,2.6);
#253=CIRCLE('',#732,12.5);
#254=CIRCLE('',#733,12.5);
#255=CIRCLE('',#735,3.);
#256=CIRCLE('',#736,3.25);
#257=CIRCLE('',#737,3.);
#258=CIRCLE('',#738,3.);
#259=CIRCLE('',#739,3.25);
#260=CIRCLE('',#740,3.);
#261=CIRCLE('',#741,2.5);
#262=CIRCLE('',#742,20.);
#263=CIRCLE('',#743,20.);
#264=CIRCLE('',#744,2.5);
#265=CIRCLE('',#745,2.6);
#266=CIRCLE('',#746,2.6);
#267=CIRCLE('',#748,12.5);
#268=CIRCLE('',#749,3.50000000000001);
#269=CIRCLE('',#751,12.5);
#270=CIRCLE('',#752,12.5);
#271=CIRCLE('',#754,12.5);
#272=CIRCLE('',#755,3.50000000000001);
#273=CIRCLE('',#758,12.5);
#274=CIRCLE('',#760,12.5);
#275=CIRCLE('',#762,3.);
#276=CIRCLE('',#763,3.25);
#277=CIRCLE('',#764,3.);
#278=CIRCLE('',#765,3.);
#279=CIRCLE('',#766,3.25);
#280=CIRCLE('',#767,3.);
#281=CIRCLE('',#768,2.5);
#282=CIRCLE('',#769,20.);
#283=CIRCLE('',#770,20.);
#284=CIRCLE('',#771,2.5);
#285=CIRCLE('',#772,2.6);
#286=CIRCLE('',#773,2.6);
#287=CIRCLE('',#779,3.50000000000001);
#288=CIRCLE('',#790,3.50000000000001);
#289=VERTEX_POINT('',#1017);
#290=VERTEX_POINT('',#1018);
#291=VERTEX_POINT('',#1020);
#292=VERTEX_POINT('',#1022);
#293=VERTEX_POINT('',#1026);
#294=VERTEX_POINT('',#1028);
#295=VERTEX_POINT('',#1030);
#296=VERTEX_POINT('',#1032);
#297=VERTEX_POINT('',#1034);
#298=VERTEX_POINT('',#1036);
#299=VERTEX_POINT('',#1038);
#300=VERTEX_POINT('',#1040);
#301=VERTEX_POINT('',#1042);
#302=VERTEX_POINT('',#1044);
#303=VERTEX_POINT('',#1046);
#304=VERTEX_POINT('',#1048);
#305=VERTEX_POINT('',#1050);
#306=VERTEX_POINT('',#1052);
#307=VERTEX_POINT('',#1054);
#308=VERTEX_POINT('',#1056);
#309=VERTEX_POINT('',#1058);
#310=VERTEX_POINT('',#1060);
#311=VERTEX_POINT('',#1062);
#312=VERTEX_POINT('',#1064);
#313=VERTEX_POINT('',#1066);
#314=VERTEX_POINT('',#1068);
#315=VERTEX_POINT('',#1070);
#316=VERTEX_POINT('',#1072);
#317=VERTEX_POINT('',#1075);
#318=VERTEX_POINT('',#1077);
#319=VERTEX_POINT('',#1080);
#320=VERTEX_POINT('',#1082);
#321=VERTEX_POINT('',#1084);
#322=VERTEX_POINT('',#1087);
#323=VERTEX_POINT('',#1090);
#324=VERTEX_POINT('',#1091);
#325=VERTEX_POINT('',#1093);
#326=VERTEX_POINT('',#1095);
#327=VERTEX_POINT('',#1099);
#328=VERTEX_POINT('',#1102);
#329=VERTEX_POINT('',#1105);
#330=VERTEX_POINT('',#1108);
#331=VERTEX_POINT('',#1114);
#332=VERTEX_POINT('',#1116);
#333=VERTEX_POINT('',#1120);
#334=VERTEX_POINT('',#1122);
#335=VERTEX_POINT('',#1124);
#336=VERTEX_POINT('',#1126);
#337=VERTEX_POINT('',#1128);
#338=VERTEX_POINT('',#1130);
#339=VERTEX_POINT('',#1132);
#340=VERTEX_POINT('',#1134);
#341=VERTEX_POINT('',#1136);
#342=VERTEX_POINT('',#1138);
#343=VERTEX_POINT('',#1140);
#344=VERTEX_POINT('',#1142);
#345=VERTEX_POINT('',#1145);
#346=VERTEX_POINT('',#1147);
#347=VERTEX_POINT('',#1149);
#348=VERTEX_POINT('',#1151);
#349=VERTEX_POINT('',#1153);
#350=VERTEX_POINT('',#1155);
#351=VERTEX_POINT('',#1157);
#352=VERTEX_POINT('',#1159);
#353=VERTEX_POINT('',#1162);
#354=VERTEX_POINT('',#1164);
#355=VERTEX_POINT('',#1176);
#356=VERTEX_POINT('',#1197);
#357=EDGE_CURVE('',#289,#290,#253,.T.);
#358=EDGE_CURVE('',#290,#291,#121,.T.);
#359=EDGE_CURVE('',#291,#292,#254,.T.);
#360=EDGE_CURVE('',#292,#289,#122,.T.);
#361=EDGE_CURVE('',#293,#292,#123,.T.);
#362=EDGE_CURVE('',#293,#294,#124,.T.);
#363=EDGE_CURVE('',#294,#295,#255,.T.);
#364=EDGE_CURVE('',#295,#296,#125,.T.);
#365=EDGE_CURVE('',#296,#297,#256,.T.);
#366=EDGE_CURVE('',#297,#298,#126,.T.);
#367=EDGE_CURVE('',#298,#299,#257,.T.);
#368=EDGE_CURVE('',#299,#300,#127,.T.);
#369=EDGE_CURVE('',#301,#300,#258,.T.);
#370=EDGE_CURVE('',#302,#301,#128,.T.);
#371=EDGE_CURVE('',#303,#302,#259,.T.);
#372=EDGE_CURVE('',#304,#303,#129,.T.);
#373=EDGE_CURVE('',#305,#304,#260,.T.);
#374=EDGE_CURVE('',#306,#305,#130,.T.);
#375=EDGE_CURVE('',#306,#307,#131,.T.);
#376=EDGE_CURVE('',#308,#307,#132,.T.);
#377=EDGE_CURVE('',#309,#308,#133,.T.);
#378=EDGE_CURVE('',#309,#310,#261,.T.);
#379=EDGE_CURVE('',#311,#310,#134,.T.);
#380=EDGE_CURVE('',#312,#311,#262,.T.);
#381=EDGE_CURVE('',#313,#312,#135,.T.);
#382=EDGE_CURVE('',#314,#313,#263,.T.);
#383=EDGE_CURVE('',#314,#315,#136,.T.);
#384=EDGE_CURVE('',#316,#315,#264,.T.);
#385=EDGE_CURVE('',#316,#289,#137,.T.);
#386=EDGE_CURVE('',#317,#317,#265,.T.);
#387=EDGE_CURVE('',#318,#318,#266,.T.);
#388=EDGE_CURVE('',#319,#291,#138,.T.);
#389=EDGE_CURVE('',#320,#319,#267,.T.);
#390=EDGE_CURVE('',#321,#320,#139,.T.);
#391=EDGE_CURVE('',#293,#321,#140,.T.);
#392=EDGE_CURVE('',#322,#322,#268,.T.);
#393=EDGE_CURVE('',#323,#324,#269,.T.);
#394=EDGE_CURVE('',#324,#325,#141,.T.);
#395=EDGE_CURVE('',#325,#326,#270,.T.);
#396=EDGE_CURVE('',#326,#323,#142,.T.);
#397=EDGE_CURVE('',#323,#327,#143,.T.);
#398=EDGE_CURVE('',#307,#327,#271,.T.);
#399=EDGE_CURVE('',#306,#328,#144,.T.);
#400=EDGE_CURVE('',#328,#324,#145,.T.);
#401=EDGE_CURVE('',#329,#329,#272,.T.);
#402=EDGE_CURVE('',#330,#326,#146,.T.);
#403=EDGE_CURVE('',#327,#330,#147,.T.);
#404=EDGE_CURVE('',#330,#308,#273,.T.);
#405=EDGE_CURVE('',#319,#331,#148,.T.);
#406=EDGE_CURVE('',#331,#332,#274,.T.);
#407=EDGE_CURVE('',#332,#320,#149,.T.);
#408=EDGE_CURVE('',#333,#328,#150,.T.);
#409=EDGE_CURVE('',#334,#333,#275,.T.);
#410=EDGE_CURVE('',#335,#334,#151,.T.);
#411=EDGE_CURVE('',#336,#335,#276,.T.);
#412=EDGE_CURVE('',#337,#336,#152,.T.);
#413=EDGE_CURVE('',#338,#337,#277,.T.);
#414=EDGE_CURVE('',#339,#338,#153,.T.);
#415=EDGE_CURVE('',#339,#340,#278,.T.);
#416=EDGE_CURVE('',#340,#341,#154,.T.);
#417=EDGE_CURVE('',#341,#342,#279,.T.);
#418=EDGE_CURVE('',#342,#343,#155,.T.);
#419=EDGE_CURVE('',#343,#344,#280,.T.);
#420=EDGE_CURVE('',#344,#321,#156,.T.);
#421=EDGE_CURVE('',#345,#332,#157,.T.);
#422=EDGE_CURVE('',#346,#345,#281,.T.);
#423=EDGE_CURVE('',#346,#347,#158,.T.);
#424=EDGE_CURVE('',#348,#347,#282,.T.);
#425=EDGE_CURVE('',#349,#348,#159,.T.);
#426=EDGE_CURVE('',#350,#349,#283,.T.);
#427=EDGE_CURVE('',#351,#350,#160,.T.);
#428=EDGE_CURVE('',#351,#352,#284,.T.);
#429=EDGE_CURVE('',#352,#325,#161,.T.);
#430=EDGE_CURVE('',#353,#353,#285,.T.);
#431=EDGE_CURVE('',#354,#354,#286,.T.);
#432=EDGE_CURVE('',#349,#312,#162,.T.);
#433=EDGE_CURVE('',#311,#350,#163,.T.);
#434=EDGE_CURVE('',#313,#348,#164,.T.);
#435=EDGE_CURVE('',#347,#314,#165,.T.);
#436=EDGE_CURVE('',#354,#318,#166,.T.);
#437=EDGE_CURVE('',#355,#355,#287,.T.);
#438=EDGE_CURVE('',#355,#329,#167,.T.);
#439=EDGE_CURVE('',#310,#351,#168,.T.);
#440=EDGE_CURVE('',#305,#333,#169,.T.);
#441=EDGE_CURVE('',#304,#334,#170,.T.);
#442=EDGE_CURVE('',#303,#335,#171,.T.);
#443=EDGE_CURVE('',#302,#336,#172,.T.);
#444=EDGE_CURVE('',#301,#337,#173,.T.);
#445=EDGE_CURVE('',#300,#338,#174,.T.);
#446=EDGE_CURVE('',#352,#309,#175,.T.);
#447=EDGE_CURVE('',#356,#356,#288,.T.);
#448=EDGE_CURVE('',#356,#322,#176,.T.);
#449=EDGE_CURVE('',#315,#346,#177,.T.);
#450=EDGE_CURVE('',#294,#344,#178,.T.);
#451=EDGE_CURVE('',#295,#343,#179,.T.);
#452=EDGE_CURVE('',#296,#342,#180,.T.);
#453=EDGE_CURVE('',#297,#341,#181,.T.);
#454=EDGE_CURVE('',#298,#340,#182,.T.);
#455=EDGE_CURVE('',#299,#339,#183,.T.);
#456=EDGE_CURVE('',#290,#331,#184,.T.);
#457=EDGE_CURVE('',#345,#316,#185,.T.);
#458=EDGE_CURVE('',#353,#317,#186,.T.);
#459=ORIENTED_EDGE('',*,*,#357,.T.);
#460=ORIENTED_EDGE('',*,*,#358,.T.);
#461=ORIENTED_EDGE('',*,*,#359,.T.);
#462=ORIENTED_EDGE('',*,*,#360,.T.);
#463=ORIENTED_EDGE('',*,*,#360,.F.);
#464=ORIENTED_EDGE('',*,*,#361,.F.);
#465=ORIENTED_EDGE('',*,*,#362,.T.);
#466=ORIENTED_EDGE('',*,*,#363,.T.);
#467=ORIENTED_EDGE('',*,*,#364,.T.);
#468=ORIENTED_EDGE('',*,*,#365,.T.);
#469=ORIENTED_EDGE('',*,*,#366,.T.);
#470=ORIENTED_EDGE('',*,*,#367,.T.);
#471=ORIENTED_EDGE('',*,*,#368,.T.);
#472=ORIENTED_EDGE('',*,*,#369,.F.);
#473=ORIENTED_EDGE('',*,*,#370,.F.);
#474=ORIENTED_EDGE('',*,*,#371,.F.);
#475=ORIENTED_EDGE('',*,*,#372,.F.);
#476=ORIENTED_EDGE('',*,*,#373,.F.);
#477=ORIENTED_EDGE('',*,*,#374,.F.);
#478=ORIENTED_EDGE('',*,*,#375,.T.);
#479=ORIENTED_EDGE('',*,*,#376,.F.);
#480=ORIENTED_EDGE('',*,*,#377,.F.);
#481=ORIENTED_EDGE('',*,*,#378,.T.);
#482=ORIENTED_EDGE('',*,*,#379,.F.);
#483=ORIENTED_EDGE('',*,*,#380,.F.);
#484=ORIENTED_EDGE('',*,*,#381,.F.);
#485=ORIENTED_EDGE('',*,*,#382,.F.);
#486=ORIENTED_EDGE('',*,*,#383,.T.);
#487=ORIENTED_EDGE('',*,*,#384,.F.);
#488=ORIENTED_EDGE('',*,*,#385,.T.);
#489=ORIENTED_EDGE('',*,*,#386,.F.);
#490=ORIENTED_EDGE('',*,*,#387,.F.);
#491=ORIENTED_EDGE('',*,*,#359,.F.);
#492=ORIENTED_EDGE('',*,*,#388,.F.);
#493=ORIENTED_EDGE('',*,*,#389,.F.);
#494=ORIENTED_EDGE('',*,*,#390,.F.);
#495=ORIENTED_EDGE('',*,*,#391,.F.);
#496=ORIENTED_EDGE('',*,*,#361,.T.);
#497=ORIENTED_EDGE('',*,*,#392,.T.);
#498=ORIENTED_EDGE('',*,*,#393,.T.);
#499=ORIENTED_EDGE('',*,*,#394,.T.);
#500=ORIENTED_EDGE('',*,*,#395,.T.);
#501=ORIENTED_EDGE('',*,*,#396,.T.);
#502=ORIENTED_EDGE('',*,*,#393,.F.);
#503=ORIENTED_EDGE('',*,*,#397,.T.);
#504=ORIENTED_EDGE('',*,*,#398,.F.);
#505=ORIENTED_EDGE('',*,*,#375,.F.);
#506=ORIENTED_EDGE('',*,*,#399,.T.);
#507=ORIENTED_EDGE('',*,*,#400,.T.);
#508=ORIENTED_EDGE('',*,*,#401,.F.);
#509=ORIENTED_EDGE('',*,*,#396,.F.);
#510=ORIENTED_EDGE('',*,*,#402,.F.);
#511=ORIENTED_EDGE('',*,*,#403,.F.);
#512=ORIENTED_EDGE('',*,*,#397,.F.);
#513=ORIENTED_EDGE('',*,*,#404,.T.);
#514=ORIENTED_EDGE('',*,*,#376,.T.);
#515=ORIENTED_EDGE('',*,*,#398,.T.);
#516=ORIENTED_EDGE('',*,*,#403,.T.);
#517=ORIENTED_EDGE('',*,*,#389,.T.);
#518=ORIENTED_EDGE('',*,*,#405,.T.);
#519=ORIENTED_EDGE('',*,*,#406,.T.);
#520=ORIENTED_EDGE('',*,*,#407,.T.);
#521=ORIENTED_EDGE('',*,*,#394,.F.);
#522=ORIENTED_EDGE('',*,*,#400,.F.);
#523=ORIENTED_EDGE('',*,*,#408,.F.);
#524=ORIENTED_EDGE('',*,*,#409,.F.);
#525=ORIENTED_EDGE('',*,*,#410,.F.);
#526=ORIENTED_EDGE('',*,*,#411,.F.);
#527=ORIENTED_EDGE('',*,*,#412,.F.);
#528=ORIENTED_EDGE('',*,*,#413,.F.);
#529=ORIENTED_EDGE('',*,*,#414,.F.);
#530=ORIENTED_EDGE('',*,*,#415,.T.);
#531=ORIENTED_EDGE('',*,*,#416,.T.);
#532=ORIENTED_EDGE('',*,*,#417,.T.);
#533=ORIENTED_EDGE('',*,*,#418,.T.);
#534=ORIENTED_EDGE('',*,*,#419,.T.);
#535=ORIENTED_EDGE('',*,*,#420,.T.);
#536=ORIENTED_EDGE('',*,*,#390,.T.);
#537=ORIENTED_EDGE('',*,*,#407,.F.);
#538=ORIENTED_EDGE('',*,*,#421,.F.);
#539=ORIENTED_EDGE('',*,*,#422,.F.);
#540=ORIENTED_EDGE('',*,*,#423,.T.);
#541=ORIENTED_EDGE('',*,*,#424,.F.);
#542=ORIENTED_EDGE('',*,*,#425,.F.);
#543=ORIENTED_EDGE('',*,*,#426,.F.);
#544=ORIENTED_EDGE('',*,*,#427,.F.);
#545=ORIENTED_EDGE('',*,*,#428,.T.);
#546=ORIENTED_EDGE('',*,*,#429,.T.);
#547=ORIENTED_EDGE('',*,*,#430,.F.);
#548=ORIENTED_EDGE('',*,*,#431,.F.);
#549=ORIENTED_EDGE('',*,*,#426,.T.);
#550=ORIENTED_EDGE('',*,*,#432,.T.);
#551=ORIENTED_EDGE('',*,*,#380,.T.);
#552=ORIENTED_EDGE('',*,*,#433,.T.);
#553=ORIENTED_EDGE('',*,*,#432,.F.);
#554=ORIENTED_EDGE('',*,*,#425,.T.);
#555=ORIENTED_EDGE('',*,*,#434,.F.);
#556=ORIENTED_EDGE('',*,*,#381,.T.);
#557=ORIENTED_EDGE('',*,*,#424,.T.);
#558=ORIENTED_EDGE('',*,*,#435,.T.);
#559=ORIENTED_EDGE('',*,*,#382,.T.);
#560=ORIENTED_EDGE('',*,*,#434,.T.);
#561=ORIENTED_EDGE('',*,*,#431,.T.);
#562=ORIENTED_EDGE('',*,*,#436,.T.);
#563=ORIENTED_EDGE('',*,*,#387,.T.);
#564=ORIENTED_EDGE('',*,*,#436,.F.);
#565=ORIENTED_EDGE('',*,*,#437,.T.);
#566=ORIENTED_EDGE('',*,*,#438,.T.);
#567=ORIENTED_EDGE('',*,*,#401,.T.);
#568=ORIENTED_EDGE('',*,*,#438,.F.);
#569=ORIENTED_EDGE('',*,*,#433,.F.);
#570=ORIENTED_EDGE('',*,*,#379,.T.);
#571=ORIENTED_EDGE('',*,*,#439,.T.);
#572=ORIENTED_EDGE('',*,*,#427,.T.);
#573=ORIENTED_EDGE('',*,*,#399,.F.);
#574=ORIENTED_EDGE('',*,*,#374,.T.);
#575=ORIENTED_EDGE('',*,*,#440,.T.);
#576=ORIENTED_EDGE('',*,*,#408,.T.);
#577=ORIENTED_EDGE('',*,*,#440,.F.);
#578=ORIENTED_EDGE('',*,*,#373,.T.);
#579=ORIENTED_EDGE('',*,*,#441,.T.);
#580=ORIENTED_EDGE('',*,*,#409,.T.);
#581=ORIENTED_EDGE('',*,*,#441,.F.);
#582=ORIENTED_EDGE('',*,*,#372,.T.);
#583=ORIENTED_EDGE('',*,*,#442,.T.);
#584=ORIENTED_EDGE('',*,*,#410,.T.);
#585=ORIENTED_EDGE('',*,*,#442,.F.);
#586=ORIENTED_EDGE('',*,*,#371,.T.);
#587=ORIENTED_EDGE('',*,*,#443,.T.);
#588=ORIENTED_EDGE('',*,*,#411,.T.);
#589=ORIENTED_EDGE('',*,*,#443,.F.);
#590=ORIENTED_EDGE('',*,*,#370,.T.);
#591=ORIENTED_EDGE('',*,*,#444,.T.);
#592=ORIENTED_EDGE('',*,*,#412,.T.);
#593=ORIENTED_EDGE('',*,*,#444,.F.);
#594=ORIENTED_EDGE('',*,*,#369,.T.);
#595=ORIENTED_EDGE('',*,*,#445,.T.);
#596=ORIENTED_EDGE('',*,*,#413,.T.);
#597=ORIENTED_EDGE('',*,*,#395,.F.);
#598=ORIENTED_EDGE('',*,*,#429,.F.);
#599=ORIENTED_EDGE('',*,*,#446,.T.);
#600=ORIENTED_EDGE('',*,*,#377,.T.);
#601=ORIENTED_EDGE('',*,*,#404,.F.);
#602=ORIENTED_EDGE('',*,*,#402,.T.);
#603=ORIENTED_EDGE('',*,*,#437,.F.);
#604=ORIENTED_EDGE('',*,*,#428,.F.);
#605=ORIENTED_EDGE('',*,*,#439,.F.);
#606=ORIENTED_EDGE('',*,*,#378,.F.);
#607=ORIENTED_EDGE('',*,*,#446,.F.);
#608=ORIENTED_EDGE('',*,*,#447,.F.);
#609=ORIENTED_EDGE('',*,*,#448,.T.);
#610=ORIENTED_EDGE('',*,*,#392,.F.);
#611=ORIENTED_EDGE('',*,*,#448,.F.);
#612=ORIENTED_EDGE('',*,*,#435,.F.);
#613=ORIENTED_EDGE('',*,*,#423,.F.);
#614=ORIENTED_EDGE('',*,*,#449,.F.);
#615=ORIENTED_EDGE('',*,*,#383,.F.);
#616=ORIENTED_EDGE('',*,*,#391,.T.);
#617=ORIENTED_EDGE('',*,*,#420,.F.);
#618=ORIENTED_EDGE('',*,*,#450,.F.);
#619=ORIENTED_EDGE('',*,*,#362,.F.);
#620=ORIENTED_EDGE('',*,*,#450,.T.);
#621=ORIENTED_EDGE('',*,*,#419,.F.);
#622=ORIENTED_EDGE('',*,*,#451,.F.);
#623=ORIENTED_EDGE('',*,*,#363,.F.);
#624=ORIENTED_EDGE('',*,*,#451,.T.);
#625=ORIENTED_EDGE('',*,*,#418,.F.);
#626=ORIENTED_EDGE('',*,*,#452,.F.);
#627=ORIENTED_EDGE('',*,*,#364,.F.);
#628=ORIENTED_EDGE('',*,*,#452,.T.);
#629=ORIENTED_EDGE('',*,*,#417,.F.);
#630=ORIENTED_EDGE('',*,*,#453,.F.);
#631=ORIENTED_EDGE('',*,*,#365,.F.);
#632=ORIENTED_EDGE('',*,*,#453,.T.);
#633=ORIENTED_EDGE('',*,*,#416,.F.);
#634=ORIENTED_EDGE('',*,*,#454,.F.);
#635=ORIENTED_EDGE('',*,*,#366,.F.);
#636=ORIENTED_EDGE('',*,*,#454,.T.);
#637=ORIENTED_EDGE('',*,*,#415,.F.);
#638=ORIENTED_EDGE('',*,*,#455,.F.);
#639=ORIENTED_EDGE('',*,*,#367,.F.);
#640=ORIENTED_EDGE('',*,*,#368,.F.);
#641=ORIENTED_EDGE('',*,*,#455,.T.);
#642=ORIENTED_EDGE('',*,*,#414,.T.);
#643=ORIENTED_EDGE('',*,*,#445,.F.);
#644=ORIENTED_EDGE('',*,*,#358,.F.);
#645=ORIENTED_EDGE('',*,*,#456,.T.);
#646=ORIENTED_EDGE('',*,*,#405,.F.);
#647=ORIENTED_EDGE('',*,*,#388,.T.);
#648=ORIENTED_EDGE('',*,*,#357,.F.);
#649=ORIENTED_EDGE('',*,*,#385,.F.);
#650=ORIENTED_EDGE('',*,*,#457,.F.);
#651=ORIENTED_EDGE('',*,*,#421,.T.);
#652=ORIENTED_EDGE('',*,*,#406,.F.);
#653=ORIENTED_EDGE('',*,*,#456,.F.);
#654=ORIENTED_EDGE('',*,*,#447,.T.);
#655=ORIENTED_EDGE('',*,*,#422,.T.);
#656=ORIENTED_EDGE('',*,*,#457,.T.);
#657=ORIENTED_EDGE('',*,*,#384,.T.);
#658=ORIENTED_EDGE('',*,*,#449,.T.);
#659=ORIENTED_EDGE('',*,*,#430,.T.);
#660=ORIENTED_EDGE('',*,*,#458,.T.);
#661=ORIENTED_EDGE('',*,*,#386,.T.);
#662=ORIENTED_EDGE('',*,*,#458,.F.);
#663=CYLINDRICAL_SURFACE('',#731,12.5);
#664=CYLINDRICAL_SURFACE('',#750,12.5);
#665=CYLINDRICAL_SURFACE('',#757,12.5);
#666=CYLINDRICAL_SURFACE('',#759,12.5);
#667=CYLINDRICAL_SURFACE('',#774,20.);
#668=CYLINDRICAL_SURFACE('',#776,20.);
#669=CYLINDRICAL_SURFACE('',#777,2.6);
#670=CYLINDRICAL_SURFACE('',#778,3.50000000000001);
#671=CYLINDRICAL_SURFACE('',#782,3.);
#672=CYLINDRICAL_SURFACE('',#784,3.25);
#673=CYLINDRICAL_SURFACE('',#786,3.);
#674=CYLINDRICAL_SURFACE('',#788,2.5);
#675=CYLINDRICAL_SURFACE('',#789,3.50000000000001);
#676=CYLINDRICAL_SURFACE('',#793,3.);
#677=CYLINDRICAL_SURFACE('',#795,3.25);
#678=CYLINDRICAL_SURFACE('',#797,3.);
#679=CYLINDRICAL_SURFACE('',#801,2.5);
#680=CYLINDRICAL_SURFACE('',#802,2.6);
#681=ADVANCED_FACE('',(#41),#663,.T.);
#682=ADVANCED_FACE('',(#42,#15,#16),#23,.T.);
#683=ADVANCED_FACE('',(#43,#17),#24,.F.);
#684=ADVANCED_FACE('',(#44),#664,.T.);
#685=ADVANCED_FACE('',(#45,#18),#25,.T.);
#686=ADVANCED_FACE('',(#46),#26,.F.);
#687=ADVANCED_FACE('',(#47),#665,.T.);
#688=ADVANCED_FACE('',(#48),#666,.T.);
#689=ADVANCED_FACE('',(#49,#19,#20),#27,.F.);
#690=ADVANCED_FACE('',(#50),#667,.T.);
#691=ADVANCED_FACE('',(#51),#28,.T.);
#692=ADVANCED_FACE('',(#52),#668,.T.);
#693=ADVANCED_FACE('',(#53),#669,.F.);
#694=ADVANCED_FACE('',(#54),#670,.F.);
#695=ADVANCED_FACE('',(#55),#29,.F.);
#696=ADVANCED_FACE('',(#56),#30,.F.);
#697=ADVANCED_FACE('',(#57),#671,.F.);
#698=ADVANCED_FACE('',(#58),#31,.F.);
#699=ADVANCED_FACE('',(#59),#672,.T.);
#700=ADVANCED_FACE('',(#60),#32,.F.);
#701=ADVANCED_FACE('',(#61),#673,.F.);
#702=ADVANCED_FACE('',(#62,#21),#33,.F.);
#703=ADVANCED_FACE('',(#63),#674,.F.);
#704=ADVANCED_FACE('',(#64),#675,.F.);
#705=ADVANCED_FACE('',(#65),#34,.T.);
#706=ADVANCED_FACE('',(#66),#35,.T.);
#707=ADVANCED_FACE('',(#67),#676,.F.);
#708=ADVANCED_FACE('',(#68),#36,.T.);
#709=ADVANCED_FACE('',(#69),#677,.T.);
#710=ADVANCED_FACE('',(#70),#37,.T.);
#711=ADVANCED_FACE('',(#71),#678,.F.);
#712=ADVANCED_FACE('',(#72),#38,.T.);
#713=ADVANCED_FACE('',(#73),#39,.T.);
#714=ADVANCED_FACE('',(#74,#22),#40,.T.);
#715=ADVANCED_FACE('',(#75),#679,.F.);
#716=ADVANCED_FACE('',(#76),#680,.F.);
#717=CLOSED_SHELL('',(#681,#682,#683,#684,#685,#686,#687,#688,#689,#690,
#691,#692,#693,#694,#695,#696,#697,#698,#699,#700,#701,#702,#703,#704,#705,
#706,#707,#708,#709,#710,#711,#712,#713,#714,#715,#716));
#718=DERIVED_UNIT_ELEMENT(#720,1.);
#719=DERIVED_UNIT_ELEMENT(#1227,-3.);
#720=(
MASS_UNIT()
NAMED_UNIT(*)
SI_UNIT(.KILO.,.GRAM.)
);
#721=DERIVED_UNIT((#718,#719));
#722=MEASURE_REPRESENTATION_ITEM('density measure',
POSITIVE_RATIO_MEASURE(7850.),#721);
#723=PROPERTY_DEFINITION_REPRESENTATION(#728,#725);
#724=PROPERTY_DEFINITION_REPRESENTATION(#729,#726);
#725=REPRESENTATION('material name',(#727),#1224);
#726=REPRESENTATION('density',(#722),#1224);
#727=DESCRIPTIVE_REPRESENTATION_ITEM('Steel','Steel');
#728=PROPERTY_DEFINITION('material property','material name',#1234);
#729=PROPERTY_DEFINITION('material property','density of part',#1234);
#730=AXIS2_PLACEMENT_3D('',#1015,#803,#804);
#731=AXIS2_PLACEMENT_3D('',#1016,#805,#806);
#732=AXIS2_PLACEMENT_3D('',#1019,#807,#808);
#733=AXIS2_PLACEMENT_3D('',#1023,#810,#811);
#734=AXIS2_PLACEMENT_3D('',#1025,#813,#814);
#735=AXIS2_PLACEMENT_3D('',#1031,#817,#818);
#736=AXIS2_PLACEMENT_3D('',#1035,#820,#821);
#737=AXIS2_PLACEMENT_3D('',#1039,#823,#824);
#738=AXIS2_PLACEMENT_3D('',#1043,#826,#827);
#739=AXIS2_PLACEMENT_3D('',#1047,#829,#830);
#740=AXIS2_PLACEMENT_3D('',#1051,#832,#833);
#741=AXIS2_PLACEMENT_3D('',#1061,#838,#839);
#742=AXIS2_PLACEMENT_3D('',#1065,#841,#842);
#743=AXIS2_PLACEMENT_3D('',#1069,#844,#845);
#744=AXIS2_PLACEMENT_3D('',#1073,#847,#848);
#745=AXIS2_PLACEMENT_3D('',#1076,#850,#851);
#746=AXIS2_PLACEMENT_3D('',#1078,#852,#853);
#747=AXIS2_PLACEMENT_3D('',#1079,#854,#855);
#748=AXIS2_PLACEMENT_3D('',#1083,#857,#858);
#749=AXIS2_PLACEMENT_3D('',#1088,#861,#862);
#750=AXIS2_PLACEMENT_3D('',#1089,#863,#864);
#751=AXIS2_PLACEMENT_3D('',#1092,#865,#866);
#752=AXIS2_PLACEMENT_3D('',#1096,#868,#869);
#753=AXIS2_PLACEMENT_3D('',#1098,#871,#872);
#754=AXIS2_PLACEMENT_3D('',#1101,#874,#875);
#755=AXIS2_PLACEMENT_3D('',#1106,#878,#879);
#756=AXIS2_PLACEMENT_3D('',#1107,#880,#881);
#757=AXIS2_PLACEMENT_3D('',#1111,#884,#885);
#758=AXIS2_PLACEMENT_3D('',#1112,#886,#887);
#759=AXIS2_PLACEMENT_3D('',#1113,#888,#889);
#760=AXIS2_PLACEMENT_3D('',#1117,#891,#892);
#761=AXIS2_PLACEMENT_3D('',#1119,#894,#895);
#762=AXIS2_PLACEMENT_3D('',#1123,#897,#898);
#763=AXIS2_PLACEMENT_3D('',#1127,#900,#901);
#764=AXIS2_PLACEMENT_3D('',#1131,#903,#904);
#765=AXIS2_PLACEMENT_3D('',#1135,#906,#907);
#766=AXIS2_PLACEMENT_3D('',#1139,#909,#910);
#767=AXIS2_PLACEMENT_3D('',#1143,#912,#913);
#768=AXIS2_PLACEMENT_3D('',#1148,#916,#917);
#769=AXIS2_PLACEMENT_3D('',#1152,#919,#920);
#770=AXIS2_PLACEMENT_3D('',#1156,#922,#923);
#771=AXIS2_PLACEMENT_3D('',#1160,#925,#926);
#772=AXIS2_PLACEMENT_3D('',#1163,#928,#929);
#773=AXIS2_PLACEMENT_3D('',#1165,#930,#931);
#774=AXIS2_PLACEMENT_3D('',#1166,#932,#933);
#775=AXIS2_PLACEMENT_3D('',#1169,#936,#937);
#776=AXIS2_PLACEMENT_3D('',#1171,#939,#940);
#777=AXIS2_PLACEMENT_3D('',#1173,#942,#943);
#778=AXIS2_PLACEMENT_3D('',#1175,#945,#946);
#779=AXIS2_PLACEMENT_3D('',#1177,#947,#948);
#780=AXIS2_PLACEMENT_3D('',#1179,#950,#951);
#781=AXIS2_PLACEMENT_3D('',#1181,#953,#954);
#782=AXIS2_PLACEMENT_3D('',#1183,#956,#957);
#783=AXIS2_PLACEMENT_3D('',#1185,#959,#960);
#784=AXIS2_PLACEMENT_3D('',#1187,#962,#963);
#785=AXIS2_PLACEMENT_3D('',#1189,#965,#966);
#786=AXIS2_PLACEMENT_3D('',#1191,#968,#969);
#787=AXIS2_PLACEMENT_3D('',#1193,#971,#972);
#788=AXIS2_PLACEMENT_3D('',#1195,#974,#975);
#789=AXIS2_PLACEMENT_3D('',#1196,#976,#977);
#790=AXIS2_PLACEMENT_3D('',#1198,#978,#979);
#791=AXIS2_PLACEMENT_3D('',#1200,#981,#982);
#792=AXIS2_PLACEMENT_3D('',#1202,#984,#985);
#793=AXIS2_PLACEMENT_3D('',#1204,#987,#988);
#794=AXIS2_PLACEMENT_3D('',#1206,#990,#991);
#795=AXIS2_PLACEMENT_3D('',#1208,#993,#994);
#796=AXIS2_PLACEMENT_3D('',#1210,#996,#997);
#797=AXIS2_PLACEMENT_3D('',#1212,#999,#1000);
#798=AXIS2_PLACEMENT_3D('',#1214,#1002,#1003);
#799=AXIS2_PLACEMENT_3D('',#1215,#1004,#1005);
#800=AXIS2_PLACEMENT_3D('',#1217,#1007,#1008);
#801=AXIS2_PLACEMENT_3D('',#1219,#1010,#1011);
#802=AXIS2_PLACEMENT_3D('',#1220,#1012,#1013);
#803=DIRECTION('axis',(0.,0.,1.));
#804=DIRECTION('refdir',(1.,0.,0.));
#805=DIRECTION('center_axis',(0.,-6.31721073398916E-17,1.));
#806=DIRECTION('ref_axis',(0.707106781186547,0.707106781186547,0.));
#807=DIRECTION('center_axis',(0.,0.,-1.));
#808=DIRECTION('ref_axis',(0.707106781186547,0.707106781186547,0.));
#809=DIRECTION('',(0.,6.31721073398916E-17,-1.));
#810=DIRECTION('center_axis',(0.,0.,1.));
#811=DIRECTION('ref_axis',(0.707106781186547,0.707106781186547,0.));
#812=DIRECTION('',(0.,-6.31721073398916E-17,1.));
#813=DIRECTION('center_axis',(0.,1.,6.31721073398916E-17));
#814=DIRECTION('ref_axis',(1.,0.,0.));
#815=DIRECTION('',(1.,0.,0.));
#816=DIRECTION('',(-4.11908832324696E-15,-6.31721073398916E-17,1.));
#817=DIRECTION('center_axis',(0.,-1.,-6.31721073398916E-17));
#818=DIRECTION('ref_axis',(1.1842378929335E-14,-5.63564987119369E-17,1.));
#819=DIRECTION('',(-1.,3.36648614797625E-31,-5.32907051820068E-15));
#820=DIRECTION('center_axis',(0.,1.,6.31721073398916E-17));
#821=DIRECTION('ref_axis',(0.,5.63564987119369E-17,-1.));
#822=DIRECTION('',(0.,-6.31721073398916E-17,1.));
#823=DIRECTION('center_axis',(0.,-1.,-6.31721073398916E-17));
#824=DIRECTION('ref_axis',(0.,-5.63564987119369E-17,1.));
#825=DIRECTION('',(-1.,2.52079880645568E-31,-3.99036681314549E-15));
#826=DIRECTION('center_axis',(0.,1.,6.31721073398916E-17));
#827=DIRECTION('ref_axis',(0.,-5.63564987119369E-17,1.));
#828=DIRECTION('',(0.,-6.31721073398916E-17,1.));
#829=DIRECTION('center_axis',(0.,-1.,-6.31721073398916E-17));
#830=DIRECTION('ref_axis',(0.,5.63564987119369E-17,-1.));
#831=DIRECTION('',(1.,3.36648614797625E-31,-5.32907051820068E-15));
#832=DIRECTION('center_axis',(0.,1.,6.31721073398916E-17));
#833=DIRECTION('ref_axis',(-1.1842378929335E-14,-5.63564987119369E-17,1.));
#834=DIRECTION('',(4.11908832324696E-15,-6.31721073398916E-17,1.));
#835=DIRECTION('',(-1.,0.,0.));
#836=DIRECTION('',(0.,6.31721073398916E-17,-1.));
#837=DIRECTION('',(-1.,0.,0.));
#838=DIRECTION('center_axis',(0.,-1.,-6.31721073398916E-17));
#839=DIRECTION('ref_axis',(0.707106781186547,0.,-0.707106781186547));
#840=DIRECTION('',(0.,6.31721073398916E-17,-1.));
#841=DIRECTION('center_axis',(0.,-1.,-6.31721073398916E-17));
#842=DIRECTION('ref_axis',(-0.707106781186547,0.,0.707106781186547));
#843=DIRECTION('',(-1.,0.,0.));
#844=DIRECTION('center_axis',(0.,-1.,-6.31721073398916E-17));
#845=DIRECTION('ref_axis',(0.707106781186547,0.,0.707106781186547));
#846=DIRECTION('',(0.,6.31721073398916E-17,-1.));
#847=DIRECTION('center_axis',(0.,1.,6.31721073398916E-17));
#848=DIRECTION('ref_axis',(-0.707106781186547,0.,-0.707106781186547));
#849=DIRECTION('',(1.,0.,0.));
#850=DIRECTION('center_axis',(0.,1.,6.31721073398916E-17));
#851=DIRECTION('ref_axis',(-2.9698465908723E-15,1.11022302462517E-16,1.));
#852=DIRECTION('center_axis',(0.,1.,6.31721073398916E-17));
#853=DIRECTION('ref_axis',(-2.9698465908723E-15,1.11022302462517E-16,1.));
#854=DIRECTION('center_axis',(0.,0.,1.));
#855=DIRECTION('ref_axis',(0.,1.,0.));
#856=DIRECTION('',(0.,1.,0.));
#857=DIRECTION('center_axis',(0.,0.,1.));
#858=DIRECTION('ref_axis',(0.707106781186547,-0.707106781186547,0.));
#859=DIRECTION('',(1.,0.,0.));
#860=DIRECTION('',(-2.32137395783422E-31,-1.,0.));
#861=DIRECTION('center_axis',(0.,0.,1.));
#862=DIRECTION('ref_axis',(-1.,0.,0.));
#863=DIRECTION('center_axis',(0.,6.31721073398916E-17,-1.));
#864=DIRECTION('ref_axis',(-0.707106781186547,-0.707106781186547,0.));
#865=DIRECTION('center_axis',(0.,0.,1.));
#866=DIRECTION('ref_axis',(-0.707106781186547,-0.707106781186547,0.));
#867=DIRECTION('',(0.,-6.31721073398916E-17,1.));
#868=DIRECTION('center_axis',(0.,0.,-1.));
#869=DIRECTION('ref_axis',(-0.707106781186547,-0.707106781186547,0.));
#870=DIRECTION('',(0.,6.31721073398916E-17,-1.));
#871=DIRECTION('center_axis',(0.,0.,-1.));
#872=DIRECTION('ref_axis',(0.,1.,0.));
#873=DIRECTION('',(0.,1.,0.));
#874=DIRECTION('center_axis',(0.,0.,1.));
#875=DIRECTION('ref_axis',(-0.707106781186547,0.707106781186547,0.));
#876=DIRECTION('',(2.32137395783422E-31,-1.,0.));
#877=DIRECTION('',(-1.,0.,0.));
#878=DIRECTION('center_axis',(0.,0.,-1.));
#879=DIRECTION('ref_axis',(1.,0.,0.));
#880=DIRECTION('center_axis',(1.,0.,0.));
#881=DIRECTION('ref_axis',(0.,0.,-1.));
#882=DIRECTION('',(0.,-1.,0.));
#883=DIRECTION('',(0.,-6.31721073398916E-17,1.));
#884=DIRECTION('center_axis',(0.,-6.31721073398916E-17,1.));
#885=DIRECTION('ref_axis',(-0.707106781186547,0.707106781186547,0.));
#886=DIRECTION('center_axis',(0.,0.,-1.));
#887=DIRECTION('ref_axis',(-0.707106781186547,0.707106781186547,0.));
#888=DIRECTION('center_axis',(0.,6.31721073398916E-17,-1.));
#889=DIRECTION('ref_axis',(0.707106781186547,-0.707106781186547,0.));
#890=DIRECTION('',(0.,-6.31721073398916E-17,1.));
#891=DIRECTION('center_axis',(0.,0.,-1.));
#892=DIRECTION('ref_axis',(0.707106781186547,-0.707106781186547,0.));
#893=DIRECTION('',(0.,6.31721073398916E-17,-1.));
#894=DIRECTION('center_axis',(0.,1.,6.31721073398916E-17));
#895=DIRECTION('ref_axis',(1.,0.,0.));
#896=DIRECTION('',(-4.11908832324696E-15,-5.21619982618967E-31,-1.));
#897=DIRECTION('center_axis',(-2.19128029228059E-30,-1.,1.85037170770859E-16));
#898=DIRECTION('ref_axis',(-1.1842378929335E-14,1.85037170770859E-16,1.));
#899=DIRECTION('',(-1.,0.,5.32907051820068E-15));
#900=DIRECTION('center_axis',(0.,1.,0.));
#901=DIRECTION('ref_axis',(0.,0.,-1.));
#902=DIRECTION('',(0.,0.,-1.));
#903=DIRECTION('center_axis',(0.,-1.,0.));
#904=DIRECTION('ref_axis',(0.,0.,1.));
#905=DIRECTION('',(-1.,0.,3.99036681314549E-15));
#906=DIRECTION('center_axis',(0.,1.,0.));
#907=DIRECTION('ref_axis',(0.,0.,1.));
#908=DIRECTION('',(0.,0.,-1.));
#909=DIRECTION('center_axis',(0.,-1.,0.));
#910=DIRECTION('ref_axis',(0.,0.,-1.));
#911=DIRECTION('',(1.,0.,5.32907051820068E-15));
#912=DIRECTION('center_axis',(-2.19128029228059E-30,1.,-1.85037170770859E-16));
#913=DIRECTION('ref_axis',(1.1842378929335E-14,1.85037170770859E-16,1.));
#914=DIRECTION('',(4.11908832324696E-15,-5.21619982618967E-31,-1.));
#915=DIRECTION('',(1.,0.,0.));
#916=DIRECTION('center_axis',(0.,-1.,-6.31721073398916E-17));
#917=DIRECTION('ref_axis',(-0.707106781186547,0.,-0.707106781186547));
#918=DIRECTION('',(0.,-6.31721073398916E-17,1.));
#919=DIRECTION('center_axis',(0.,1.,6.31721073398916E-17));
#920=DIRECTION('ref_axis',(0.707106781186547,0.,0.707106781186547));
#921=DIRECTION('',(1.,0.,0.));
#922=DIRECTION('center_axis',(0.,1.,6.31721073398916E-17));
#923=DIRECTION('ref_axis',(-0.707106781186547,0.,0.707106781186547));
#924=DIRECTION('',(0.,-6.31721073398916E-17,1.));
#925=DIRECTION('center_axis',(0.,1.,6.31721073398916E-17));
#926=DIRECTION('ref_axis',(0.707106781186547,0.,-0.707106781186547));
#927=DIRECTION('',(-1.,0.,0.));
#928=DIRECTION('center_axis',(0.,-1.,-6.31721073398916E-17));
#929=DIRECTION('ref_axis',(-2.9698465908723E-15,1.11022302462517E-16,1.));
#930=DIRECTION('center_axis',(0.,-1.,-6.31721073398916E-17));
#931=DIRECTION('ref_axis',(-2.9698465908723E-15,1.11022302462517E-16,1.));
#932=DIRECTION('center_axis',(0.,-1.,-5.63564987119369E-17));
#933=DIRECTION('ref_axis',(-0.707106781186547,0.,0.707106781186547));
#934=DIRECTION('',(0.,1.,5.63564987119369E-17));
#935=DIRECTION('',(0.,-1.,-5.63564987119369E-17));
#936=DIRECTION('center_axis',(0.,-5.63564987119369E-17,1.));
#937=DIRECTION('ref_axis',(-1.,0.,0.));
#938=DIRECTION('',(0.,-1.,-5.63564987119369E-17));
#939=DIRECTION('center_axis',(0.,-1.,-5.63564987119369E-17));
#940=DIRECTION('ref_axis',(0.707106781186547,0.,0.707106781186547));
#941=DIRECTION('',(0.,1.,5.63564987119369E-17));
#942=DIRECTION('center_axis',(5.55111512312587E-17,-1.,1.11022302462517E-16));
#943=DIRECTION('ref_axis',(-2.9698465908723E-15,1.11022302462517E-16,1.));
#944=DIRECTION('',(-5.55111512312587E-17,1.,-1.11022302462517E-16));
#945=DIRECTION('center_axis',(0.,0.,1.));
#946=DIRECTION('ref_axis',(1.,0.,0.));
#947=DIRECTION('center_axis',(0.,0.,1.));
#948=DIRECTION('ref_axis',(1.,0.,0.));
#949=DIRECTION('',(0.,0.,-1.));
#950=DIRECTION('center_axis',(1.,0.,0.));
#951=DIRECTION('ref_axis',(0.,-6.31721073398916E-17,1.));
#952=DIRECTION('',(0.,-1.,0.));
#953=DIRECTION('center_axis',(-1.,-2.32137395783422E-31,4.11908832324696E-15));
#954=DIRECTION('ref_axis',(-4.11908832324696E-15,-5.21619982618967E-31,
-1.));
#955=DIRECTION('',(0.,-1.,-5.63564987119369E-17));
#956=DIRECTION('center_axis',(0.,1.,5.63564987119369E-17));
#957=DIRECTION('ref_axis',(-1.1842378929335E-14,-5.63564987119369E-17,1.));
#958=DIRECTION('',(0.,-1.,-5.63564987119369E-17));
#959=DIRECTION('center_axis',(5.32907051820068E-15,-5.63564987119369E-17,
1.));
#960=DIRECTION('ref_axis',(-1.,0.,5.32907051820068E-15));
#961=DIRECTION('',(0.,-1.,-5.63564987119369E-17));
#962=DIRECTION('center_axis',(0.,1.,5.63564987119369E-17));
#963=DIRECTION('ref_axis',(0.,5.63564987119369E-17,-1.));
#964=DIRECTION('',(0.,-1.,-5.63564987119369E-17));
#965=DIRECTION('center_axis',(-1.,0.,0.));
#966=DIRECTION('ref_axis',(0.,0.,-1.));
#967=DIRECTION('',(0.,-1.,-5.63564987119369E-17));
#968=DIRECTION('center_axis',(0.,1.,5.63564987119369E-17));
#969=DIRECTION('ref_axis',(0.,-5.63564987119369E-17,1.));
#970=DIRECTION('',(0.,-1.,-5.63564987119369E-17));
#971=DIRECTION('center_axis',(0.,0.,-1.));
#972=DIRECTION('ref_axis',(0.,-1.,0.));
#973=DIRECTION('',(0.,1.,0.));
#974=DIRECTION('center_axis',(0.,-1.,0.));
#975=DIRECTION('ref_axis',(0.707106781186547,0.,-0.707106781186547));
#976=DIRECTION('center_axis',(0.,0.,-1.));
#977=DIRECTION('ref_axis',(-1.,0.,0.));
#978=DIRECTION('center_axis',(0.,0.,-1.));
#979=DIRECTION('ref_axis',(-1.,0.,0.));
#980=DIRECTION('',(0.,0.,-1.));
#981=DIRECTION('center_axis',(1.,0.,0.));
#982=DIRECTION('ref_axis',(0.,-6.31721073398916E-17,1.));
#983=DIRECTION('',(0.,-1.,0.));
#984=DIRECTION('center_axis',(-1.,2.32137395783422E-31,-4.11908832324696E-15));
#985=DIRECTION('ref_axis',(4.11908832324696E-15,-5.21619982618967E-31,-1.));
#986=DIRECTION('',(0.,-1.,-5.63564987119369E-17));
#987=DIRECTION('center_axis',(0.,-1.,-5.63564987119369E-17));
#988=DIRECTION('ref_axis',(1.1842378929335E-14,-5.63564987119369E-17,1.));
#989=DIRECTION('',(0.,-1.,-5.63564987119369E-17));
#990=DIRECTION('center_axis',(5.32907051820068E-15,5.63564987119369E-17,
-1.));
#991=DIRECTION('ref_axis',(1.,0.,5.32907051820068E-15));
#992=DIRECTION('',(0.,-1.,-5.63564987119369E-17));
#993=DIRECTION('center_axis',(0.,-1.,-5.63564987119369E-17));
#994=DIRECTION('ref_axis',(0.,5.63564987119369E-17,-1.));
#995=DIRECTION('',(0.,-1.,-5.63564987119369E-17));
#996=DIRECTION('center_axis',(-1.,0.,0.));
#997=DIRECTION('ref_axis',(0.,0.,-1.));
#998=DIRECTION('',(0.,-1.,-5.63564987119369E-17));
#999=DIRECTION('center_axis',(0.,-1.,-5.63564987119369E-17));
#1000=DIRECTION('ref_axis',(0.,-5.63564987119369E-17,1.));
#1001=DIRECTION('',(0.,-1.,-5.63564987119369E-17));
#1002=DIRECTION('center_axis',(3.99036681314549E-15,5.63564987119369E-17,
-1.));
#1003=DIRECTION('ref_axis',(1.,0.,3.99036681314549E-15));
#1004=DIRECTION('center_axis',(1.,0.,0.));
#1005=DIRECTION('ref_axis',(0.,0.,-1.));
#1006=DIRECTION('',(0.,-1.,0.));
#1007=DIRECTION('center_axis',(0.,0.,1.));
#1008=DIRECTION('ref_axis',(0.,-1.,0.));
#1009=DIRECTION('',(0.,1.,0.));
#1010=DIRECTION('center_axis',(0.,1.,0.));
#1011=DIRECTION('ref_axis',(-0.707106781186547,0.,-0.707106781186547));
#1012=DIRECTION('center_axis',(5.55111512312587E-17,-1.,1.11022302462517E-16));
#1013=DIRECTION('ref_axis',(-2.9698465908723E-15,1.11022302462517E-16,1.));
#1014=DIRECTION('',(-5.55111512312587E-17,1.,-1.11022302462517E-16));
#1015=CARTESIAN_POINT('',(0.,0.,0.));
#1016=CARTESIAN_POINT('Origin',(252.500000000001,-52.3127999999998,-3.32239687442709));
#1017=CARTESIAN_POINT('',(252.500000000001,-39.8127999999998,4.9276031255729));
#1018=CARTESIAN_POINT('',(265.000000000001,-52.3127999999998,4.9276031255729));
#1019=CARTESIAN_POINT('Origin',(252.500000000001,-52.3127999999998,4.9276031255729));
#1020=CARTESIAN_POINT('',(265.000000000001,-52.3127999999998,-5.0723968744271));
#1021=CARTESIAN_POINT('',(265.000000000001,-52.3127999999998,-3.32239687442709));
#1022=CARTESIAN_POINT('',(252.500000000001,-39.8127999999998,-5.0723968744271));
#1023=CARTESIAN_POINT('Origin',(252.500000000001,-52.3127999999998,-5.07239687442709));
#1024=CARTESIAN_POINT('',(252.500000000001,-39.8127999999998,-3.32239687442709));
#1025=CARTESIAN_POINT('Origin',(210.000000000001,-39.8127999999998,-6.57239687442709));
#1026=CARTESIAN_POINT('',(239.000000000001,-39.8127999999998,-5.0723968744271));
#1027=CARTESIAN_POINT('',(245.000000000001,-39.8127999999998,-5.0723968744271));
#1028=CARTESIAN_POINT('',(239.000000000001,-39.8127999999998,10.6776031255729));
#1029=CARTESIAN_POINT('',(239.000000000001,-39.8127999999998,2.05260312557296));
#1030=CARTESIAN_POINT('',(236.000000000001,-39.8127999999998,13.6776031255729));
#1031=CARTESIAN_POINT('Origin',(236.000000000001,-39.8127999999998,10.6776031255729));
#1032=CARTESIAN_POINT('',(233.500000000001,-39.8127999999998,13.6776031255729));
#1033=CARTESIAN_POINT('',(221.75,-39.8127999999998,13.6776031255728));
#1034=CARTESIAN_POINT('',(230.250000000001,-39.8127999999998,16.9276031255729));
#1035=CARTESIAN_POINT('Origin',(233.500000000001,-39.8127999999998,16.9276031255729));
#1036=CARTESIAN_POINT('',(230.250000000001,-39.8127999999998,19.4276031255729));
#1037=CARTESIAN_POINT('',(230.250000000001,-39.8127999999998,6.42760312557289));
#1038=CARTESIAN_POINT('',(227.250000000001,-39.8127999999998,22.4276031255729));
#1039=CARTESIAN_POINT('Origin',(227.250000000001,-39.8127999999998,19.4276031255729));
#1040=CARTESIAN_POINT('',(192.750000000001,-39.8127999999998,22.4276031255729));
#1041=CARTESIAN_POINT('',(201.375,-39.8127999999998,22.4276031255728));
#1042=CARTESIAN_POINT('',(189.750000000001,-39.8127999999998,19.4276031255729));
#1043=CARTESIAN_POINT('Origin',(192.750000000001,-39.8127999999998,19.4276031255729));
#1044=CARTESIAN_POINT('',(189.750000000001,-39.8127999999998,16.9276031255729));
#1045=CARTESIAN_POINT('',(189.750000000001,-39.8127999999998,6.42760312557289));
#1046=CARTESIAN_POINT('',(186.500000000001,-39.8127999999998,13.6776031255729));
#1047=CARTESIAN_POINT('Origin',(186.500000000001,-39.8127999999998,16.9276031255729));
#1048=CARTESIAN_POINT('',(184.000000000001,-39.8127999999998,13.6776031255729));
#1049=CARTESIAN_POINT('',(198.250000000001,-39.8127999999998,13.6776031255728));
#1050=CARTESIAN_POINT('',(181.000000000001,-39.8127999999998,10.6776031255729));
#1051=CARTESIAN_POINT('Origin',(184.000000000001,-39.8127999999998,10.6776031255729));
#1052=CARTESIAN_POINT('',(181.000000000001,-39.8127999999998,-5.0723968744271));
#1053=CARTESIAN_POINT('',(181.000000000001,-39.8127999999998,2.05260312557296));
#1054=CARTESIAN_POINT('',(167.500000000001,-39.8127999999998,-5.0723968744271));
#1055=CARTESIAN_POINT('',(175.000000000001,-39.8127999999998,-5.0723968744271));
#1056=CARTESIAN_POINT('',(167.500000000001,-39.8127999999998,4.9276031255729));
#1057=CARTESIAN_POINT('',(167.500000000001,-39.8127999999998,-3.32239687442709));
#1058=CARTESIAN_POINT('',(172.500000000001,-39.8127999999998,4.9276031255729));
#1059=CARTESIAN_POINT('',(175.000000000001,-39.8127999999998,4.9276031255729));
#1060=CARTESIAN_POINT('',(175.000000000001,-39.8127999999998,7.4276031255729));
#1061=CARTESIAN_POINT('Origin',(172.500000000001,-39.8127999999998,7.42760312557291));
#1062=CARTESIAN_POINT('',(175.000000000001,-39.8127999999998,8.4276031255729));
#1063=CARTESIAN_POINT('',(175.000000000001,-39.8127999999998,-24.0723968744271));
#1064=CARTESIAN_POINT('',(195.000000000001,-39.8127999999998,28.4276031255729));
#1065=CARTESIAN_POINT('Origin',(195.000000000001,-39.8127999999998,8.4276031255729));
#1066=CARTESIAN_POINT('',(225.000000000001,-39.8127999999998,28.4276031255729));
#1067=CARTESIAN_POINT('',(192.500000000001,-39.8127999999998,28.4276031255729));
#1068=CARTESIAN_POINT('',(245.000000000001,-39.8127999999998,8.4276031255729));
#1069=CARTESIAN_POINT('Origin',(225.000000000001,-39.8127999999998,8.4276031255729));
#1070=CARTESIAN_POINT('',(245.000000000001,-39.8127999999998,7.4276031255729));
#1071=CARTESIAN_POINT('',(245.000000000001,-39.8127999999998,-24.0723968744271));
#1072=CARTESIAN_POINT('',(247.500000000001,-39.8127999999998,4.9276031255729));
#1073=CARTESIAN_POINT('Origin',(247.500000000001,-39.8127999999998,7.42760312557291));
#1074=CARTESIAN_POINT('',(245.000000000001,-39.8127999999998,4.9276031255729));
#1075=CARTESIAN_POINT('',(186.500000000001,-39.8127999999998,14.3276031255728));
#1076=CARTESIAN_POINT('Origin',(186.500000000001,-39.8127999999998,16.9276031255728));
#1077=CARTESIAN_POINT('',(233.500000000001,-39.8127999999998,14.3276031255729));
#1078=CARTESIAN_POINT('Origin',(233.500000000001,-39.8127999999998,16.9276031255729));
#1079=CARTESIAN_POINT('Origin',(245.000000000001,-79.8127999999998,-5.0723968744271));
#1080=CARTESIAN_POINT('',(265.000000000001,-67.3127999999998,-5.0723968744271));
#1081=CARTESIAN_POINT('',(265.000000000001,-79.8127999999998,-5.0723968744271));
#1082=CARTESIAN_POINT('',(252.500000000001,-79.8127999999998,-5.0723968744271));
#1083=CARTESIAN_POINT('Origin',(252.500000000001,-67.3127999999998,-5.07239687442709));
#1084=CARTESIAN_POINT('',(239.000000000001,-79.8127999999998,-5.0723968744271));
#1085=CARTESIAN_POINT('',(245.000000000001,-79.8127999999998,-5.0723968744271));
#1086=CARTESIAN_POINT('',(239.000000000001,-20.7127999999998,-5.07239687442709));
#1087=CARTESIAN_POINT('',(259.750000000001,-59.8127999999998,-5.0723968744271));
#1088=CARTESIAN_POINT('Origin',(256.250000000001,-59.8127999999998,-5.0723968744271));
#1089=CARTESIAN_POINT('Origin',(167.500000000001,-67.3127999999998,-3.32239687442709));
#1090=CARTESIAN_POINT('',(155.000000000001,-67.3127999999998,-5.0723968744271));
#1091=CARTESIAN_POINT('',(167.500000000001,-79.8127999999998,-5.0723968744271));
#1092=CARTESIAN_POINT('Origin',(167.500000000001,-67.3127999999998,-5.07239687442709));
#1093=CARTESIAN_POINT('',(167.500000000001,-79.8127999999998,4.9276031255729));
#1094=CARTESIAN_POINT('',(167.500000000001,-79.8127999999998,-3.32239687442709));
#1095=CARTESIAN_POINT('',(155.000000000001,-67.3127999999998,4.9276031255729));
#1096=CARTESIAN_POINT('Origin',(167.500000000001,-67.3127999999998,4.9276031255729));
#1097=CARTESIAN_POINT('',(155.000000000001,-67.3127999999998,-3.32239687442709));
#1098=CARTESIAN_POINT('Origin',(175.000000000001,-79.8127999999998,-5.0723968744271));
#1099=CARTESIAN_POINT('',(155.000000000001,-52.3127999999998,-5.0723968744271));
#1100=CARTESIAN_POINT('',(155.000000000001,-79.8127999999998,-5.0723968744271));
#1101=CARTESIAN_POINT('Origin',(167.500000000001,-52.3127999999998,-5.07239687442709));
#1102=CARTESIAN_POINT('',(181.000000000001,-79.8127999999998,-5.0723968744271));
#1103=CARTESIAN_POINT('',(181.000000000001,-20.7127999999998,-5.07239687442709));
#1104=CARTESIAN_POINT('',(175.000000000001,-79.8127999999998,-5.0723968744271));
#1105=CARTESIAN_POINT('',(160.250000000001,-59.8127999999998,-5.0723968744271));
#1106=CARTESIAN_POINT('Origin',(163.750000000001,-59.8127999999998,-5.0723968744271));
#1107=CARTESIAN_POINT('Origin',(155.000000000001,-59.8127999999998,-0.0723968744270953));
#1108=CARTESIAN_POINT('',(155.000000000001,-52.3127999999998,4.9276031255729));
#1109=CARTESIAN_POINT('',(155.000000000001,-39.8127999999998,4.9276031255729));
#1110=CARTESIAN_POINT('',(155.000000000001,-52.3127999999998,-3.32239687442709));
#1111=CARTESIAN_POINT('Origin',(167.500000000001,-52.3127999999998,-3.32239687442709));
#1112=CARTESIAN_POINT('Origin',(167.500000000001,-52.3127999999998,4.9276031255729));
#1113=CARTESIAN_POINT('Origin',(252.500000000001,-67.3127999999998,-3.32239687442709));
#1114=CARTESIAN_POINT('',(265.000000000001,-67.3127999999998,4.9276031255729));
#1115=CARTESIAN_POINT('',(265.000000000001,-67.3127999999998,-3.32239687442709));
#1116=CARTESIAN_POINT('',(252.500000000001,-79.8127999999998,4.9276031255729));
#1117=CARTESIAN_POINT('Origin',(252.500000000001,-67.3127999999998,4.9276031255729));
#1118=CARTESIAN_POINT('',(252.500000000001,-79.8127999999998,-3.32239687442709));
#1119=CARTESIAN_POINT('Origin',(210.000000000001,-79.8127999999998,-6.57239687442709));
#1120=CARTESIAN_POINT('',(181.000000000001,-79.8127999999998,10.6776031255729));
#1121=CARTESIAN_POINT('',(181.000000000001,-79.8127999999998,10.6776031255729));
#1122=CARTESIAN_POINT('',(184.000000000001,-79.8127999999998,13.6776031255729));
#1123=CARTESIAN_POINT('Origin',(184.000000000001,-79.8127999999998,10.6776031255729));
#1124=CARTESIAN_POINT('',(186.500000000001,-79.8127999999998,13.6776031255729));
#1125=CARTESIAN_POINT('',(186.500000000001,-79.8127999999998,13.6776031255729));
#1126=CARTESIAN_POINT('',(189.750000000001,-79.8127999999998,16.9276031255729));
#1127=CARTESIAN_POINT('Origin',(186.500000000001,-79.8127999999998,16.9276031255729));
#1128=CARTESIAN_POINT('',(189.750000000001,-79.8127999999998,19.4276031255729));
#1129=CARTESIAN_POINT('',(189.750000000001,-79.8127999999998,19.4276031255729));
#1130=CARTESIAN_POINT('',(192.750000000001,-79.8127999999998,22.4276031255729));
#1131=CARTESIAN_POINT('Origin',(192.750000000001,-79.8127999999998,19.4276031255729));
#1132=CARTESIAN_POINT('',(227.250000000001,-79.8127999999998,22.4276031255729));
#1133=CARTESIAN_POINT('',(227.250000000001,-79.8127999999998,22.4276031255727));
#1134=CARTESIAN_POINT('',(230.250000000001,-79.8127999999998,19.4276031255729));
#1135=CARTESIAN_POINT('Origin',(227.250000000001,-79.8127999999998,19.4276031255729));
#1136=CARTESIAN_POINT('',(230.250000000001,-79.8127999999998,16.9276031255729));
#1137=CARTESIAN_POINT('',(230.250000000001,-79.8127999999998,19.4276031255729));
#1138=CARTESIAN_POINT('',(233.500000000001,-79.8127999999998,13.6776031255729));
#1139=CARTESIAN_POINT('Origin',(233.500000000001,-79.8127999999998,16.9276031255729));
#1140=CARTESIAN_POINT('',(236.000000000001,-79.8127999999998,13.6776031255729));
#1141=CARTESIAN_POINT('',(233.500000000001,-79.8127999999998,13.6776031255729));
#1142=CARTESIAN_POINT('',(239.000000000001,-79.8127999999998,10.6776031255729));
#1143=CARTESIAN_POINT('Origin',(236.000000000001,-79.8127999999998,10.6776031255729));
#1144=CARTESIAN_POINT('',(239.000000000001,-79.8127999999998,10.6776031255729));
#1145=CARTESIAN_POINT('',(247.500000000001,-79.8127999999998,4.9276031255729));
#1146=CARTESIAN_POINT('',(245.000000000001,-79.8127999999998,4.9276031255729));
#1147=CARTESIAN_POINT('',(245.000000000001,-79.8127999999998,7.42760312557291));
#1148=CARTESIAN_POINT('Origin',(247.500000000001,-79.8127999999998,7.42760312557291));
#1149=CARTESIAN_POINT('',(245.000000000001,-79.8127999999998,8.4276031255729));
#1150=CARTESIAN_POINT('',(245.000000000001,-79.8127999999998,28.4276031255729));
#1151=CARTESIAN_POINT('',(225.000000000001,-79.8127999999998,28.4276031255729));
#1152=CARTESIAN_POINT('Origin',(225.000000000001,-79.8127999999998,8.4276031255729));
#1153=CARTESIAN_POINT('',(195.000000000001,-79.8127999999998,28.4276031255729));
#1154=CARTESIAN_POINT('',(245.000000000001,-79.8127999999998,28.4276031255729));
#1155=CARTESIAN_POINT('',(175.000000000001,-79.8127999999998,8.4276031255729));
#1156=CARTESIAN_POINT('Origin',(195.000000000001,-79.8127999999998,8.4276031255729));
#1157=CARTESIAN_POINT('',(175.000000000001,-79.8127999999998,7.42760312557291));
#1158=CARTESIAN_POINT('',(175.000000000001,-79.8127999999998,28.4276031255729));
#1159=CARTESIAN_POINT('',(172.500000000001,-79.8127999999998,4.9276031255729));
#1160=CARTESIAN_POINT('Origin',(172.500000000001,-79.8127999999998,7.42760312557291));
#1161=CARTESIAN_POINT('',(175.000000000001,-79.8127999999998,4.9276031255729));
#1162=CARTESIAN_POINT('',(186.500000000001,-79.8127999999998,14.3276031255728));
#1163=CARTESIAN_POINT('Origin',(186.500000000001,-79.8127999999998,16.9276031255728));
#1164=CARTESIAN_POINT('',(233.500000000001,-79.8127999999998,14.3276031255729));
#1165=CARTESIAN_POINT('Origin',(233.500000000001,-79.8127999999998,16.9276031255729));
#1166=CARTESIAN_POINT('Origin',(195.000000000001,38.3872000000002,8.4276031255729));
#1167=CARTESIAN_POINT('',(195.000000000001,38.3872000000002,28.4276031255729));
#1168=CARTESIAN_POINT('',(175.000000000001,38.3872000000002,8.4276031255729));
#1169=CARTESIAN_POINT('Origin',(245.000000000001,38.3872000000002,28.4276031255729));
#1170=CARTESIAN_POINT('',(225.000000000001,38.3872000000002,28.4276031255729));
#1171=CARTESIAN_POINT('Origin',(225.000000000001,38.3872000000002,8.4276031255729));
#1172=CARTESIAN_POINT('',(245.000000000001,38.3872000000002,8.4276031255729));
#1173=CARTESIAN_POINT('Origin',(233.500000000001,-79.8127999999998,16.9276031255729));
#1174=CARTESIAN_POINT('',(233.500000000001,-79.8127999999998,14.3276031255729));
#1175=CARTESIAN_POINT('Origin',(163.750000000001,-59.8127999999998,4.9276031255729));
#1176=CARTESIAN_POINT('',(160.250000000001,-59.8127999999998,4.9276031255729));
#1177=CARTESIAN_POINT('Origin',(163.750000000001,-59.8127999999998,4.9276031255729));
#1178=CARTESIAN_POINT('',(160.250000000001,-59.8127999999998,4.9276031255729));
#1179=CARTESIAN_POINT('Origin',(175.000000000001,38.3872000000002,-41.5723968744271));
#1180=CARTESIAN_POINT('',(175.000000000001,-0.712799999999834,7.42760312557291));
#1181=CARTESIAN_POINT('Origin',(181.000000000001,38.3872000000002,10.6776031255729));
#1182=CARTESIAN_POINT('',(181.000000000001,38.3872000000002,10.6776031255729));
#1183=CARTESIAN_POINT('Origin',(184.000000000001,38.3872000000002,10.6776031255729));
#1184=CARTESIAN_POINT('',(184.000000000001,38.3872000000002,13.6776031255729));
#1185=CARTESIAN_POINT('Origin',(186.500000000001,38.3872000000002,13.6776031255729));
#1186=CARTESIAN_POINT('',(186.500000000001,38.3872000000002,13.6776031255729));
#1187=CARTESIAN_POINT('Origin',(186.500000000001,38.3872000000002,16.9276031255729));
#1188=CARTESIAN_POINT('',(189.750000000001,38.3872000000002,16.9276031255729));
#1189=CARTESIAN_POINT('Origin',(189.750000000001,38.3872000000002,19.4276031255729));
#1190=CARTESIAN_POINT('',(189.750000000001,38.3872000000002,19.4276031255729));
#1191=CARTESIAN_POINT('Origin',(192.750000000001,38.3872000000002,19.4276031255729));
#1192=CARTESIAN_POINT('',(192.750000000001,38.3872000000002,22.4276031255729));
#1193=CARTESIAN_POINT('Origin',(175.000000000001,-39.8127999999998,4.9276031255729));
#1194=CARTESIAN_POINT('',(172.500000000001,-0.712799999999834,4.9276031255729));
#1195=CARTESIAN_POINT('Origin',(172.500000000001,-0.712799999999834,7.42760312557291));
#1196=CARTESIAN_POINT('Origin',(256.250000000001,-59.8127999999998,4.9276031255729));
#1197=CARTESIAN_POINT('',(259.750000000001,-59.8127999999998,4.9276031255729));
#1198=CARTESIAN_POINT('Origin',(256.250000000001,-59.8127999999998,4.9276031255729));
#1199=CARTESIAN_POINT('',(259.750000000001,-59.8127999999998,4.9276031255729));
#1200=CARTESIAN_POINT('Origin',(245.000000000001,38.3872000000002,-41.5723968744271));
#1201=CARTESIAN_POINT('',(245.000000000001,-0.712799999999834,7.42760312557291));
#1202=CARTESIAN_POINT('Origin',(239.000000000001,38.3872000000002,10.6776031255729));
#1203=CARTESIAN_POINT('',(239.000000000001,38.3872000000002,10.6776031255729));
#1204=CARTESIAN_POINT('Origin',(236.000000000001,38.3872000000002,10.6776031255729));
#1205=CARTESIAN_POINT('',(236.000000000001,38.3872000000002,13.6776031255729));
#1206=CARTESIAN_POINT('Origin',(233.500000000001,38.3872000000002,13.6776031255729));
#1207=CARTESIAN_POINT('',(233.500000000001,38.3872000000002,13.6776031255729));
#1208=CARTESIAN_POINT('Origin',(233.500000000001,38.3872000000002,16.9276031255729));
#1209=CARTESIAN_POINT('',(230.250000000001,38.3872000000002,16.9276031255729));
#1210=CARTESIAN_POINT('Origin',(230.250000000001,38.3872000000002,19.4276031255729));
#1211=CARTESIAN_POINT('',(230.250000000001,38.3872000000002,19.4276031255729));
#1212=CARTESIAN_POINT('Origin',(227.250000000001,38.3872000000002,19.4276031255729));
#1213=CARTESIAN_POINT('',(227.250000000001,38.3872000000002,22.4276031255729));
#1214=CARTESIAN_POINT('Origin',(192.750000000001,38.3872000000002,22.4276031255727));
#1215=CARTESIAN_POINT('Origin',(265.000000000001,-59.8127999999998,-0.0723968744270953));
#1216=CARTESIAN_POINT('',(265.000000000001,-39.8127999999998,4.9276031255729));
#1217=CARTESIAN_POINT('Origin',(245.000000000001,-39.8127999999998,4.9276031255729));
#1218=CARTESIAN_POINT('',(247.500000000001,-0.712799999999834,4.9276031255729));
#1219=CARTESIAN_POINT('Origin',(247.500000000001,-0.712799999999834,7.42760312557291));
#1220=CARTESIAN_POINT('Origin',(186.500000000001,-79.8127999999998,16.9276031255728));
#1221=CARTESIAN_POINT('',(186.500000000001,-79.8127999999998,14.3276031255728));
#1222=UNCERTAINTY_MEASURE_WITH_UNIT(LENGTH_MEASURE(0.01),#1226,
'DISTANCE_ACCURACY_VALUE',
'Maximum model space distance between geometric entities at asserted c
onnectivities');
#1223=UNCERTAINTY_MEASURE_WITH_UNIT(LENGTH_MEASURE(0.01),#1226,
'DISTANCE_ACCURACY_VALUE',
'Maximum model space distance between geometric entities at asserted c
onnectivities');
#1224=(
GEOMETRIC_REPRESENTATION_CONTEXT(3)
GLOBAL_UNCERTAINTY_ASSIGNED_CONTEXT((#1222))
GLOBAL_UNIT_ASSIGNED_CONTEXT((#1226,#1228,#1229))
REPRESENTATION_CONTEXT('','3D')
);
#1225=(
GEOMETRIC_REPRESENTATION_CONTEXT(3)
GLOBAL_UNCERTAINTY_ASSIGNED_CONTEXT((#1223))
GLOBAL_UNIT_ASSIGNED_CONTEXT((#1226,#1228,#1229))
REPRESENTATION_CONTEXT('','3D')
);
#1226=(
LENGTH_UNIT()
NAMED_UNIT(*)
SI_UNIT(.MILLI.,.METRE.)
);
#1227=(
LENGTH_UNIT()
NAMED_UNIT(*)
SI_UNIT($,.METRE.)
);
#1228=(
NAMED_UNIT(*)
PLANE_ANGLE_UNIT()
SI_UNIT($,.RADIAN.)
);
#1229=(
NAMED_UNIT(*)
SI_UNIT($,.STERADIAN.)
SOLID_ANGLE_UNIT()
);
#1230=SHAPE_DEFINITION_REPRESENTATION(#1231,#1232);
#1231=PRODUCT_DEFINITION_SHAPE('',$,#1234);
#1232=SHAPE_REPRESENTATION('',(#730),#1224);
#1233=PRODUCT_DEFINITION_CONTEXT('part definition',#1238,'design');
#1234=PRODUCT_DEFINITION('2026-09-16-01-27-46-855',
'Motor Bracket Front Top Spindle',#1235,#1233);
#1235=PRODUCT_DEFINITION_FORMATION('',$,#1240);
#1236=PRODUCT_RELATED_PRODUCT_CATEGORY(
'Motor Bracket Front Top Spindle','Motor Bracket Front Top Spindle',(#1240));
#1237=APPLICATION_PROTOCOL_DEFINITION('international standard',
'automotive_design',2009,#1238);
#1238=APPLICATION_CONTEXT(
'Core Data for Automotive Mechanical Design Process');
#1239=PRODUCT_CONTEXT('part definition',#1238,'mechanical');
#1240=PRODUCT('2026-09-16-01-27-46-855',
'Motor Bracket Front Top Spindle',$,(#1239));
#1241=PRESENTATION_STYLE_ASSIGNMENT((#1243));
#1242=PRESENTATION_STYLE_ASSIGNMENT((#1244));
#1243=SURFACE_STYLE_USAGE(.BOTH.,#1245);
#1244=SURFACE_STYLE_USAGE(.BOTH.,#1246);
#1245=SURFACE_SIDE_STYLE('',(#1247));
#1246=SURFACE_SIDE_STYLE('',(#1248));
#1247=SURFACE_STYLE_FILL_AREA(#1249);
#1248=SURFACE_STYLE_FILL_AREA(#1250);
#1249=FILL_AREA_STYLE('Steel - Satin',(#1251));
#1250=FILL_AREA_STYLE(
'PA 12 - PA 2200 - 120\X\B5m - Balance (with EOS 3D printers)',(#1252));
#1251=FILL_AREA_STYLE_COLOUR('Steel - Satin',#1253);
#1252=FILL_AREA_STYLE_COLOUR(
'PA 12 - PA 2200 - 120\X\B5m - Balance (with EOS 3D printers)',#1254);
#1253=COLOUR_RGB('Steel - Satin',0.627450980392157,0.627450980392157,0.627450980392157);
#1254=COLOUR_RGB(
'PA 12 - PA 2200 - 120\X\B5m - Balance (with EOS 3D printers)',0.964705882352941,
0.964705882352941,0.952941176470588);
ENDSEC;
END-ISO-10303-21;
