ISO-10303-21;
HEADER;
/* Generated by software containing ST-Developer
 * from STEP Tools, Inc. (www.steptools.com) 
 */

FILE_DESCRIPTION(
/* description */ (''),
/* implementation_level */ '2;1');

FILE_NAME(
/* name */ 'Motor Bracket Front Top Traverse.step',
/* time_stamp */ '2026-09-16T01:27:46-04:00',
/* author */ (''),
/* organization */ (''),
/* preprocessor_version */ 'ST-DEVELOPER v20.2',
/* originating_system */ 'Autodesk Translation Framework v15.15.0.0',
/* authorisation */ '');

FILE_SCHEMA (('AUTOMOTIVE_DESIGN { 1 0 10303 214 3 1 1 }'));
ENDSEC;

DATA;
#10=MECHANICAL_DESIGN_GEOMETRIC_PRESENTATION_REPRESENTATION('',(#13),#1225);
#11=SHAPE_REPRESENTATION_RELATIONSHIP('SRR','None',#1232,#12);
#12=ADVANCED_BREP_SHAPE_REPRESENTATION('',(#14),#1224);
#13=STYLED_ITEM('',(#1242),#14);
#14=MANIFOLD_SOLID_BREP('Motor Bracket Front Top Traverse',#717);
#15=FACE_BOUND('',#80,.T.);
#16=FACE_BOUND('',#83,.T.);
#17=FACE_BOUND('',#84,.T.);
#18=FACE_BOUND('',#87,.T.);
#19=FACE_BOUND('',#93,.T.);
#20=FACE_BOUND('',#94,.T.);
#21=FACE_BOUND('',#106,.T.);
#22=FACE_BOUND('',#118,.T.);
#23=PLANE('',#734);
#24=PLANE('',#735);
#25=PLANE('',#740);
#26=PLANE('',#756);
#27=PLANE('',#759);
#28=PLANE('',#764);
#29=PLANE('',#765);
#30=PLANE('',#781);
#31=PLANE('',#782);
#32=PLANE('',#784);
#33=PLANE('',#786);
#34=PLANE('',#788);
#35=PLANE('',#792);
#36=PLANE('',#793);
#37=PLANE('',#795);
#38=PLANE('',#797);
#39=PLANE('',#799);
#40=PLANE('',#800);
#41=FACE_OUTER_BOUND('',#77,.T.);
#42=FACE_OUTER_BOUND('',#78,.T.);
#43=FACE_OUTER_BOUND('',#79,.T.);
#44=FACE_OUTER_BOUND('',#81,.T.);
#45=FACE_OUTER_BOUND('',#82,.T.);
#46=FACE_OUTER_BOUND('',#85,.T.);
#47=FACE_OUTER_BOUND('',#86,.T.);
#48=FACE_OUTER_BOUND('',#88,.T.);
#49=FACE_OUTER_BOUND('',#89,.T.);
#50=FACE_OUTER_BOUND('',#90,.T.);
#51=FACE_OUTER_BOUND('',#91,.T.);
#52=FACE_OUTER_BOUND('',#92,.T.);
#53=FACE_OUTER_BOUND('',#95,.T.);
#54=FACE_OUTER_BOUND('',#96,.T.);
#55=FACE_OUTER_BOUND('',#97,.T.);
#56=FACE_OUTER_BOUND('',#98,.T.);
#57=FACE_OUTER_BOUND('',#99,.T.);
#58=FACE_OUTER_BOUND('',#100,.T.);
#59=FACE_OUTER_BOUND('',#101,.T.);
#60=FACE_OUTER_BOUND('',#102,.T.);
#61=FACE_OUTER_BOUND('',#103,.T.);
#62=FACE_OUTER_BOUND('',#104,.T.);
#63=FACE_OUTER_BOUND('',#105,.T.);
#64=FACE_OUTER_BOUND('',#107,.T.);
#65=FACE_OUTER_BOUND('',#108,.T.);
#66=FACE_OUTER_BOUND('',#109,.T.);
#67=FACE_OUTER_BOUND('',#110,.T.);
#68=FACE_OUTER_BOUND('',#111,.T.);
#69=FACE_OUTER_BOUND('',#112,.T.);
#70=FACE_OUTER_BOUND('',#113,.T.);
#71=FACE_OUTER_BOUND('',#114,.T.);
#72=FACE_OUTER_BOUND('',#115,.T.);
#73=FACE_OUTER_BOUND('',#116,.T.);
#74=FACE_OUTER_BOUND('',#117,.T.);
#75=FACE_OUTER_BOUND('',#119,.T.);
#76=FACE_OUTER_BOUND('',#120,.T.);
#77=EDGE_LOOP('',(#459,#460,#461,#462));
#78=EDGE_LOOP('',(#463,#464,#465,#466));
#79=EDGE_LOOP('',(#467,#468,#469,#470,#471,#472));
#80=EDGE_LOOP('',(#473));
#81=EDGE_LOOP('',(#474,#475,#476,#477));
#82=EDGE_LOOP('',(#478,#479,#480,#481,#482,#483,#484,#485,#486,#487,#488,
#489,#490,#491,#492,#493,#494,#495,#496,#497,#498,#499,#500,#501,#502,#503));
#83=EDGE_LOOP('',(#504));
#84=EDGE_LOOP('',(#505));
#85=EDGE_LOOP('',(#506,#507,#508,#509));
#86=EDGE_LOOP('',(#510,#511,#512,#513,#514,#515));
#87=EDGE_LOOP('',(#516));
#88=EDGE_LOOP('',(#517,#518,#519,#520));
#89=EDGE_LOOP('',(#521,#522,#523,#524));
#90=EDGE_LOOP('',(#525,#526,#527,#528));
#91=EDGE_LOOP('',(#529,#530,#531,#532));
#92=EDGE_LOOP('',(#533,#534,#535,#536,#537,#538,#539,#540,#541,#542,#543,
#544,#545,#546,#547,#548,#549,#550,#551,#552,#553,#554,#555,#556,#557,#558));
#93=EDGE_LOOP('',(#559));
#94=EDGE_LOOP('',(#560));
#95=EDGE_LOOP('',(#561,#562,#563,#564));
#96=EDGE_LOOP('',(#565,#566,#567,#568));
#97=EDGE_LOOP('',(#569,#570,#571,#572));
#98=EDGE_LOOP('',(#573,#574,#575,#576));
#99=EDGE_LOOP('',(#577,#578,#579,#580));
#100=EDGE_LOOP('',(#581,#582,#583,#584));
#101=EDGE_LOOP('',(#585,#586,#587,#588));
#102=EDGE_LOOP('',(#589,#590,#591,#592));
#103=EDGE_LOOP('',(#593,#594,#595,#596));
#104=EDGE_LOOP('',(#597,#598,#599,#600));
#105=EDGE_LOOP('',(#601,#602,#603,#604,#605,#606));
#106=EDGE_LOOP('',(#607));
#107=EDGE_LOOP('',(#608,#609,#610,#611));
#108=EDGE_LOOP('',(#612,#613,#614,#615));
#109=EDGE_LOOP('',(#616,#617,#618,#619));
#110=EDGE_LOOP('',(#620,#621,#622,#623));
#111=EDGE_LOOP('',(#624,#625,#626,#627));
#112=EDGE_LOOP('',(#628,#629,#630,#631));
#113=EDGE_LOOP('',(#632,#633,#634,#635));
#114=EDGE_LOOP('',(#636,#637,#638,#639));
#115=EDGE_LOOP('',(#640,#641,#642,#643));
#116=EDGE_LOOP('',(#644,#645,#646,#647));
#117=EDGE_LOOP('',(#648,#649,#650,#651,#652,#653));
#118=EDGE_LOOP('',(#654));
#119=EDGE_LOOP('',(#655,#656,#657,#658));
#120=EDGE_LOOP('',(#659,#660,#661,#662));
#121=LINE('',#1021,#187);
#122=LINE('',#1024,#188);
#123=LINE('',#1027,#189);
#124=LINE('',#1029,#190);
#125=LINE('',#1030,#191);
#126=LINE('',#1033,#192);
#127=LINE('',#1035,#193);
#128=LINE('',#1037,#194);
#129=LINE('',#1044,#195);
#130=LINE('',#1047,#196);
#131=LINE('',#1051,#197);
#132=LINE('',#1055,#198);
#133=LINE('',#1059,#199);
#134=LINE('',#1063,#200);
#135=LINE('',#1067,#201);
#136=LINE('',#1071,#202);
#137=LINE('',#1073,#203);
#138=LINE('',#1075,#204);
#139=LINE('',#1077,#205);
#140=LINE('',#1081,#206);
#141=LINE('',#1085,#207);
#142=LINE('',#1089,#208);
#143=LINE('',#1092,#209);
#144=LINE('',#1102,#210);
#145=LINE('',#1105,#211);
#146=LINE('',#1108,#212);
#147=LINE('',#1111,#213);
#148=LINE('',#1112,#214);
#149=LINE('',#1117,#215);
#150=LINE('',#1118,#216);
#151=LINE('',#1125,#217);
#152=LINE('',#1126,#218);
#153=LINE('',#1129,#219);
#154=LINE('',#1130,#220);
#155=LINE('',#1133,#221);
#156=LINE('',#1137,#222);
#157=LINE('',#1140,#223);
#158=LINE('',#1143,#224);
#159=LINE('',#1145,#225);
#160=LINE('',#1149,#226);
#161=LINE('',#1153,#227);
#162=LINE('',#1157,#228);
#163=LINE('',#1161,#229);
#164=LINE('',#1165,#230);
#165=LINE('',#1168,#231);
#166=LINE('',#1174,#232);
#167=LINE('',#1176,#233);
#168=LINE('',#1180,#234);
#169=LINE('',#1182,#235);
#170=LINE('',#1184,#236);
#171=LINE('',#1186,#237);
#172=LINE('',#1188,#238);
#173=LINE('',#1190,#239);
#174=LINE('',#1192,#240);
#175=LINE('',#1194,#241);
#176=LINE('',#1196,#242);
#177=LINE('',#1201,#243);
#178=LINE('',#1203,#244);
#179=LINE('',#1205,#245);
#180=LINE('',#1207,#246);
#181=LINE('',#1209,#247);
#182=LINE('',#1211,#248);
#183=LINE('',#1213,#249);
#184=LINE('',#1215,#250);
#185=LINE('',#1218,#251);
#186=LINE('',#1221,#252);
#187=VECTOR('',#809,10.);
#188=VECTOR('',#812,10.);
#189=VECTOR('',#815,10.);
#190=VECTOR('',#816,10.);
#191=VECTOR('',#817,10.);
#192=VECTOR('',#820,10.);
#193=VECTOR('',#821,10.);
#194=VECTOR('',#822,10.);
#195=VECTOR('',#831,10.);
#196=VECTOR('',#834,10.);
#197=VECTOR('',#837,10.);
#198=VECTOR('',#840,10.);
#199=VECTOR('',#843,10.);
#200=VECTOR('',#846,10.);
#201=VECTOR('',#849,10.);
#202=VECTOR('',#852,10.);
#203=VECTOR('',#853,10.);
#204=VECTOR('',#854,10.);
#205=VECTOR('',#855,10.);
#206=VECTOR('',#858,10.);
#207=VECTOR('',#861,10.);
#208=VECTOR('',#864,10.);
#209=VECTOR('',#867,10.);
#210=VECTOR('',#876,10.);
#211=VECTOR('',#879,10.);
#212=VECTOR('',#882,10.);
#213=VECTOR('',#885,10.);
#214=VECTOR('',#886,10.);
#215=VECTOR('',#891,10.);
#216=VECTOR('',#892,10.);
#217=VECTOR('',#901,10.);
#218=VECTOR('',#902,10.);
#219=VECTOR('',#905,10.);
#220=VECTOR('',#906,10.);
#221=VECTOR('',#909,10.);
#222=VECTOR('',#912,10.);
#223=VECTOR('',#915,10.);
#224=VECTOR('',#918,10.);
#225=VECTOR('',#919,10.);
#226=VECTOR('',#922,10.);
#227=VECTOR('',#925,10.);
#228=VECTOR('',#928,10.);
#229=VECTOR('',#931,10.);
#230=VECTOR('',#934,10.);
#231=VECTOR('',#937,10.);
#232=VECTOR('',#944,10.);
#233=VECTOR('',#947,2.6);
#234=VECTOR('',#952,3.50000000000001);
#235=VECTOR('',#955,10.);
#236=VECTOR('',#958,10.);
#237=VECTOR('',#961,10.);
#238=VECTOR('',#964,10.);
#239=VECTOR('',#967,10.);
#240=VECTOR('',#970,10.);
#241=VECTOR('',#973,10.);
#242=VECTOR('',#976,10.);
#243=VECTOR('',#983,3.50000000000001);
#244=VECTOR('',#986,10.);
#245=VECTOR('',#989,10.);
#246=VECTOR('',#992,10.);
#247=VECTOR('',#995,10.);
#248=VECTOR('',#998,10.);
#249=VECTOR('',#1001,10.);
#250=VECTOR('',#1004,10.);
#251=VECTOR('',#1009,10.);
#252=VECTOR('',#1014,2.6);
#253=CIRCLE('',#732,12.5);
#254=CIRCLE('',#733,12.5);
#255=CIRCLE('',#736,12.5);
#256=CIRCLE('',#737,3.50000000000001);
#257=CIRCLE('',#739,12.5);
#258=CIRCLE('',#741,3.);
#259=CIRCLE('',#742,3.25);
#260=CIRCLE('',#743,3.);
#261=CIRCLE('',#744,3.);
#262=CIRCLE('',#745,3.25);
#263=CIRCLE('',#746,3.);
#264=CIRCLE('',#747,2.5);
#265=CIRCLE('',#748,20.);
#266=CIRCLE('',#749,20.);
#267=CIRCLE('',#750,2.5);
#268=CIRCLE('',#751,2.6);
#269=CIRCLE('',#752,2.6);
#270=CIRCLE('',#754,12.5);
#271=CIRCLE('',#755,12.5);
#272=CIRCLE('',#757,12.5);
#273=CIRCLE('',#758,3.50000000000001);
#274=CIRCLE('',#761,12.5);
#275=CIRCLE('',#763,20.);
#276=CIRCLE('',#766,2.5);
#277=CIRCLE('',#767,20.);
#278=CIRCLE('',#768,2.5);
#279=CIRCLE('',#769,3.);
#280=CIRCLE('',#770,3.25);
#281=CIRCLE('',#771,3.);
#282=CIRCLE('',#772,3.);
#283=CIRCLE('',#773,3.25);
#284=CIRCLE('',#774,3.);
#285=CIRCLE('',#775,2.6);
#286=CIRCLE('',#776,2.6);
#287=CIRCLE('',#780,3.50000000000001);
#288=CIRCLE('',#791,3.50000000000001);
#289=VERTEX_POINT('',#1017);
#290=VERTEX_POINT('',#1018);
#291=VERTEX_POINT('',#1020);
#292=VERTEX_POINT('',#1022);
#293=VERTEX_POINT('',#1026);
#294=VERTEX_POINT('',#1028);
#295=VERTEX_POINT('',#1032);
#296=VERTEX_POINT('',#1034);
#297=VERTEX_POINT('',#1036);
#298=VERTEX_POINT('',#1039);
#299=VERTEX_POINT('',#1042);
#300=VERTEX_POINT('',#1046);
#301=VERTEX_POINT('',#1048);
#302=VERTEX_POINT('',#1050);
#303=VERTEX_POINT('',#1052);
#304=VERTEX_POINT('',#1054);
#305=VERTEX_POINT('',#1056);
#306=VERTEX_POINT('',#1058);
#307=VERTEX_POINT('',#1060);
#308=VERTEX_POINT('',#1062);
#309=VERTEX_POINT('',#1064);
#310=VERTEX_POINT('',#1066);
#311=VERTEX_POINT('',#1068);
#312=VERTEX_POINT('',#1070);
#313=VERTEX_POINT('',#1072);
#314=VERTEX_POINT('',#1074);
#315=VERTEX_POINT('',#1076);
#316=VERTEX_POINT('',#1078);
#317=VERTEX_POINT('',#1080);
#318=VERTEX_POINT('',#1082);
#319=VERTEX_POINT('',#1084);
#320=VERTEX_POINT('',#1086);
#321=VERTEX_POINT('',#1088);
#322=VERTEX_POINT('',#1090);
#323=VERTEX_POINT('',#1093);
#324=VERTEX_POINT('',#1095);
#325=VERTEX_POINT('',#1098);
#326=VERTEX_POINT('',#1099);
#327=VERTEX_POINT('',#1101);
#328=VERTEX_POINT('',#1103);
#329=VERTEX_POINT('',#1107);
#330=VERTEX_POINT('',#1110);
#331=VERTEX_POINT('',#1113);
#332=VERTEX_POINT('',#1116);
#333=VERTEX_POINT('',#1122);
#334=VERTEX_POINT('',#1123);
#335=VERTEX_POINT('',#1128);
#336=VERTEX_POINT('',#1132);
#337=VERTEX_POINT('',#1134);
#338=VERTEX_POINT('',#1136);
#339=VERTEX_POINT('',#1139);
#340=VERTEX_POINT('',#1141);
#341=VERTEX_POINT('',#1144);
#342=VERTEX_POINT('',#1146);
#343=VERTEX_POINT('',#1148);
#344=VERTEX_POINT('',#1150);
#345=VERTEX_POINT('',#1152);
#346=VERTEX_POINT('',#1154);
#347=VERTEX_POINT('',#1156);
#348=VERTEX_POINT('',#1158);
#349=VERTEX_POINT('',#1160);
#350=VERTEX_POINT('',#1162);
#351=VERTEX_POINT('',#1164);
#352=VERTEX_POINT('',#1166);
#353=VERTEX_POINT('',#1169);
#354=VERTEX_POINT('',#1171);
#355=VERTEX_POINT('',#1178);
#356=VERTEX_POINT('',#1199);
#357=EDGE_CURVE('',#289,#290,#253,.T.);
#358=EDGE_CURVE('',#290,#291,#121,.T.);
#359=EDGE_CURVE('',#291,#292,#254,.T.);
#360=EDGE_CURVE('',#292,#289,#122,.T.);
#361=EDGE_CURVE('',#290,#293,#123,.T.);
#362=EDGE_CURVE('',#294,#293,#124,.T.);
#363=EDGE_CURVE('',#294,#291,#125,.T.);
#364=EDGE_CURVE('',#295,#289,#126,.T.);
#365=EDGE_CURVE('',#296,#295,#127,.T.);
#366=EDGE_CURVE('',#296,#297,#128,.T.);
#367=EDGE_CURVE('',#293,#297,#255,.T.);
#368=EDGE_CURVE('',#298,#298,#256,.T.);
#369=EDGE_CURVE('',#299,#294,#257,.T.);
#370=EDGE_CURVE('',#297,#299,#129,.T.);
#371=EDGE_CURVE('',#296,#300,#130,.T.);
#372=EDGE_CURVE('',#300,#301,#258,.T.);
#373=EDGE_CURVE('',#301,#302,#131,.T.);
#374=EDGE_CURVE('',#302,#303,#259,.T.);
#375=EDGE_CURVE('',#303,#304,#132,.T.);
#376=EDGE_CURVE('',#304,#305,#260,.T.);
#377=EDGE_CURVE('',#305,#306,#133,.T.);
#378=EDGE_CURVE('',#307,#306,#261,.T.);
#379=EDGE_CURVE('',#308,#307,#134,.T.);
#380=EDGE_CURVE('',#309,#308,#262,.T.);
#381=EDGE_CURVE('',#310,#309,#135,.T.);
#382=EDGE_CURVE('',#311,#310,#263,.T.);
#383=EDGE_CURVE('',#312,#311,#136,.T.);
#384=EDGE_CURVE('',#312,#313,#137,.T.);
#385=EDGE_CURVE('',#314,#313,#138,.T.);
#386=EDGE_CURVE('',#315,#314,#139,.T.);
#387=EDGE_CURVE('',#315,#316,#264,.T.);
#388=EDGE_CURVE('',#317,#316,#140,.T.);
#389=EDGE_CURVE('',#318,#317,#265,.T.);
#390=EDGE_CURVE('',#319,#318,#141,.T.);
#391=EDGE_CURVE('',#320,#319,#266,.T.);
#392=EDGE_CURVE('',#320,#321,#142,.T.);
#393=EDGE_CURVE('',#322,#321,#267,.T.);
#394=EDGE_CURVE('',#322,#299,#143,.T.);
#395=EDGE_CURVE('',#323,#323,#268,.T.);
#396=EDGE_CURVE('',#324,#324,#269,.T.);
#397=EDGE_CURVE('',#325,#326,#270,.T.);
#398=EDGE_CURVE('',#326,#327,#144,.T.);
#399=EDGE_CURVE('',#327,#328,#271,.T.);
#400=EDGE_CURVE('',#328,#325,#145,.T.);
#401=EDGE_CURVE('',#325,#329,#146,.T.);
#402=EDGE_CURVE('',#313,#329,#272,.T.);
#403=EDGE_CURVE('',#312,#330,#147,.T.);
#404=EDGE_CURVE('',#330,#326,#148,.T.);
#405=EDGE_CURVE('',#331,#331,#273,.T.);
#406=EDGE_CURVE('',#332,#328,#149,.T.);
#407=EDGE_CURVE('',#329,#332,#150,.T.);
#408=EDGE_CURVE('',#332,#314,#274,.T.);
#409=EDGE_CURVE('',#333,#334,#275,.T.);
#410=EDGE_CURVE('',#334,#318,#151,.T.);
#411=EDGE_CURVE('',#317,#333,#152,.T.);
#412=EDGE_CURVE('',#334,#335,#153,.T.);
#413=EDGE_CURVE('',#319,#335,#154,.T.);
#414=EDGE_CURVE('',#336,#292,#155,.T.);
#415=EDGE_CURVE('',#337,#336,#276,.T.);
#416=EDGE_CURVE('',#337,#338,#156,.T.);
#417=EDGE_CURVE('',#335,#338,#277,.T.);
#418=EDGE_CURVE('',#339,#333,#157,.T.);
#419=EDGE_CURVE('',#339,#340,#278,.T.);
#420=EDGE_CURVE('',#340,#327,#158,.T.);
#421=EDGE_CURVE('',#341,#330,#159,.T.);
#422=EDGE_CURVE('',#342,#341,#279,.T.);
#423=EDGE_CURVE('',#343,#342,#160,.T.);
#424=EDGE_CURVE('',#344,#343,#280,.T.);
#425=EDGE_CURVE('',#345,#344,#161,.T.);
#426=EDGE_CURVE('',#346,#345,#281,.T.);
#427=EDGE_CURVE('',#347,#346,#162,.T.);
#428=EDGE_CURVE('',#347,#348,#282,.T.);
#429=EDGE_CURVE('',#348,#349,#163,.T.);
#430=EDGE_CURVE('',#349,#350,#283,.T.);
#431=EDGE_CURVE('',#350,#351,#164,.T.);
#432=EDGE_CURVE('',#351,#352,#284,.T.);
#433=EDGE_CURVE('',#352,#295,#165,.T.);
#434=EDGE_CURVE('',#353,#353,#285,.T.);
#435=EDGE_CURVE('',#354,#354,#286,.T.);
#436=EDGE_CURVE('',#338,#320,#166,.T.);
#437=EDGE_CURVE('',#353,#324,#167,.T.);
#438=EDGE_CURVE('',#355,#355,#287,.T.);
#439=EDGE_CURVE('',#355,#331,#168,.T.);
#440=EDGE_CURVE('',#316,#339,#169,.T.);
#441=EDGE_CURVE('',#311,#341,#170,.T.);
#442=EDGE_CURVE('',#310,#342,#171,.T.);
#443=EDGE_CURVE('',#309,#343,#172,.T.);
#444=EDGE_CURVE('',#308,#344,#173,.T.);
#445=EDGE_CURVE('',#307,#345,#174,.T.);
#446=EDGE_CURVE('',#306,#346,#175,.T.);
#447=EDGE_CURVE('',#340,#315,#176,.T.);
#448=EDGE_CURVE('',#356,#356,#288,.T.);
#449=EDGE_CURVE('',#356,#298,#177,.T.);
#450=EDGE_CURVE('',#321,#337,#178,.T.);
#451=EDGE_CURVE('',#300,#352,#179,.T.);
#452=EDGE_CURVE('',#301,#351,#180,.T.);
#453=EDGE_CURVE('',#302,#350,#181,.T.);
#454=EDGE_CURVE('',#303,#349,#182,.T.);
#455=EDGE_CURVE('',#304,#348,#183,.T.);
#456=EDGE_CURVE('',#305,#347,#184,.T.);
#457=EDGE_CURVE('',#336,#322,#185,.T.);
#458=EDGE_CURVE('',#354,#323,#186,.T.);
#459=ORIENTED_EDGE('',*,*,#357,.T.);
#460=ORIENTED_EDGE('',*,*,#358,.T.);
#461=ORIENTED_EDGE('',*,*,#359,.T.);
#462=ORIENTED_EDGE('',*,*,#360,.T.);
#463=ORIENTED_EDGE('',*,*,#358,.F.);
#464=ORIENTED_EDGE('',*,*,#361,.T.);
#465=ORIENTED_EDGE('',*,*,#362,.F.);
#466=ORIENTED_EDGE('',*,*,#363,.T.);
#467=ORIENTED_EDGE('',*,*,#357,.F.);
#468=ORIENTED_EDGE('',*,*,#364,.F.);
#469=ORIENTED_EDGE('',*,*,#365,.F.);
#470=ORIENTED_EDGE('',*,*,#366,.T.);
#471=ORIENTED_EDGE('',*,*,#367,.F.);
#472=ORIENTED_EDGE('',*,*,#361,.F.);
#473=ORIENTED_EDGE('',*,*,#368,.T.);
#474=ORIENTED_EDGE('',*,*,#369,.T.);
#475=ORIENTED_EDGE('',*,*,#362,.T.);
#476=ORIENTED_EDGE('',*,*,#367,.T.);
#477=ORIENTED_EDGE('',*,*,#370,.T.);
#478=ORIENTED_EDGE('',*,*,#370,.F.);
#479=ORIENTED_EDGE('',*,*,#366,.F.);
#480=ORIENTED_EDGE('',*,*,#371,.T.);
#481=ORIENTED_EDGE('',*,*,#372,.T.);
#482=ORIENTED_EDGE('',*,*,#373,.T.);
#483=ORIENTED_EDGE('',*,*,#374,.T.);
#484=ORIENTED_EDGE('',*,*,#375,.T.);
#485=ORIENTED_EDGE('',*,*,#376,.T.);
#486=ORIENTED_EDGE('',*,*,#377,.T.);
#487=ORIENTED_EDGE('',*,*,#378,.F.);
#488=ORIENTED_EDGE('',*,*,#379,.F.);
#489=ORIENTED_EDGE('',*,*,#380,.F.);
#490=ORIENTED_EDGE('',*,*,#381,.F.);
#491=ORIENTED_EDGE('',*,*,#382,.F.);
#492=ORIENTED_EDGE('',*,*,#383,.F.);
#493=ORIENTED_EDGE('',*,*,#384,.T.);
#494=ORIENTED_EDGE('',*,*,#385,.F.);
#495=ORIENTED_EDGE('',*,*,#386,.F.);
#496=ORIENTED_EDGE('',*,*,#387,.T.);
#497=ORIENTED_EDGE('',*,*,#388,.F.);
#498=ORIENTED_EDGE('',*,*,#389,.F.);
#499=ORIENTED_EDGE('',*,*,#390,.F.);
#500=ORIENTED_EDGE('',*,*,#391,.F.);
#501=ORIENTED_EDGE('',*,*,#392,.T.);
#502=ORIENTED_EDGE('',*,*,#393,.F.);
#503=ORIENTED_EDGE('',*,*,#394,.T.);
#504=ORIENTED_EDGE('',*,*,#395,.F.);
#505=ORIENTED_EDGE('',*,*,#396,.F.);
#506=ORIENTED_EDGE('',*,*,#397,.T.);
#507=ORIENTED_EDGE('',*,*,#398,.T.);
#508=ORIENTED_EDGE('',*,*,#399,.T.);
#509=ORIENTED_EDGE('',*,*,#400,.T.);
#510=ORIENTED_EDGE('',*,*,#397,.F.);
#511=ORIENTED_EDGE('',*,*,#401,.T.);
#512=ORIENTED_EDGE('',*,*,#402,.F.);
#513=ORIENTED_EDGE('',*,*,#384,.F.);
#514=ORIENTED_EDGE('',*,*,#403,.T.);
#515=ORIENTED_EDGE('',*,*,#404,.T.);
#516=ORIENTED_EDGE('',*,*,#405,.F.);
#517=ORIENTED_EDGE('',*,*,#400,.F.);
#518=ORIENTED_EDGE('',*,*,#406,.F.);
#519=ORIENTED_EDGE('',*,*,#407,.F.);
#520=ORIENTED_EDGE('',*,*,#401,.F.);
#521=ORIENTED_EDGE('',*,*,#408,.T.);
#522=ORIENTED_EDGE('',*,*,#385,.T.);
#523=ORIENTED_EDGE('',*,*,#402,.T.);
#524=ORIENTED_EDGE('',*,*,#407,.T.);
#525=ORIENTED_EDGE('',*,*,#409,.T.);
#526=ORIENTED_EDGE('',*,*,#410,.T.);
#527=ORIENTED_EDGE('',*,*,#389,.T.);
#528=ORIENTED_EDGE('',*,*,#411,.T.);
#529=ORIENTED_EDGE('',*,*,#410,.F.);
#530=ORIENTED_EDGE('',*,*,#412,.T.);
#531=ORIENTED_EDGE('',*,*,#413,.F.);
#532=ORIENTED_EDGE('',*,*,#390,.T.);
#533=ORIENTED_EDGE('',*,*,#360,.F.);
#534=ORIENTED_EDGE('',*,*,#414,.F.);
#535=ORIENTED_EDGE('',*,*,#415,.F.);
#536=ORIENTED_EDGE('',*,*,#416,.T.);
#537=ORIENTED_EDGE('',*,*,#417,.F.);
#538=ORIENTED_EDGE('',*,*,#412,.F.);
#539=ORIENTED_EDGE('',*,*,#409,.F.);
#540=ORIENTED_EDGE('',*,*,#418,.F.);
#541=ORIENTED_EDGE('',*,*,#419,.T.);
#542=ORIENTED_EDGE('',*,*,#420,.T.);
#543=ORIENTED_EDGE('',*,*,#398,.F.);
#544=ORIENTED_EDGE('',*,*,#404,.F.);
#545=ORIENTED_EDGE('',*,*,#421,.F.);
#546=ORIENTED_EDGE('',*,*,#422,.F.);
#547=ORIENTED_EDGE('',*,*,#423,.F.);
#548=ORIENTED_EDGE('',*,*,#424,.F.);
#549=ORIENTED_EDGE('',*,*,#425,.F.);
#550=ORIENTED_EDGE('',*,*,#426,.F.);
#551=ORIENTED_EDGE('',*,*,#427,.F.);
#552=ORIENTED_EDGE('',*,*,#428,.T.);
#553=ORIENTED_EDGE('',*,*,#429,.T.);
#554=ORIENTED_EDGE('',*,*,#430,.T.);
#555=ORIENTED_EDGE('',*,*,#431,.T.);
#556=ORIENTED_EDGE('',*,*,#432,.T.);
#557=ORIENTED_EDGE('',*,*,#433,.T.);
#558=ORIENTED_EDGE('',*,*,#364,.T.);
#559=ORIENTED_EDGE('',*,*,#434,.F.);
#560=ORIENTED_EDGE('',*,*,#435,.F.);
#561=ORIENTED_EDGE('',*,*,#417,.T.);
#562=ORIENTED_EDGE('',*,*,#436,.T.);
#563=ORIENTED_EDGE('',*,*,#391,.T.);
#564=ORIENTED_EDGE('',*,*,#413,.T.);
#565=ORIENTED_EDGE('',*,*,#434,.T.);
#566=ORIENTED_EDGE('',*,*,#437,.T.);
#567=ORIENTED_EDGE('',*,*,#396,.T.);
#568=ORIENTED_EDGE('',*,*,#437,.F.);
#569=ORIENTED_EDGE('',*,*,#438,.T.);
#570=ORIENTED_EDGE('',*,*,#439,.T.);
#571=ORIENTED_EDGE('',*,*,#405,.T.);
#572=ORIENTED_EDGE('',*,*,#439,.F.);
#573=ORIENTED_EDGE('',*,*,#411,.F.);
#574=ORIENTED_EDGE('',*,*,#388,.T.);
#575=ORIENTED_EDGE('',*,*,#440,.T.);
#576=ORIENTED_EDGE('',*,*,#418,.T.);
#577=ORIENTED_EDGE('',*,*,#403,.F.);
#578=ORIENTED_EDGE('',*,*,#383,.T.);
#579=ORIENTED_EDGE('',*,*,#441,.T.);
#580=ORIENTED_EDGE('',*,*,#421,.T.);
#581=ORIENTED_EDGE('',*,*,#441,.F.);
#582=ORIENTED_EDGE('',*,*,#382,.T.);
#583=ORIENTED_EDGE('',*,*,#442,.T.);
#584=ORIENTED_EDGE('',*,*,#422,.T.);
#585=ORIENTED_EDGE('',*,*,#442,.F.);
#586=ORIENTED_EDGE('',*,*,#381,.T.);
#587=ORIENTED_EDGE('',*,*,#443,.T.);
#588=ORIENTED_EDGE('',*,*,#423,.T.);
#589=ORIENTED_EDGE('',*,*,#443,.F.);
#590=ORIENTED_EDGE('',*,*,#380,.T.);
#591=ORIENTED_EDGE('',*,*,#444,.T.);
#592=ORIENTED_EDGE('',*,*,#424,.T.);
#593=ORIENTED_EDGE('',*,*,#444,.F.);
#594=ORIENTED_EDGE('',*,*,#379,.T.);
#595=ORIENTED_EDGE('',*,*,#445,.T.);
#596=ORIENTED_EDGE('',*,*,#425,.T.);
#597=ORIENTED_EDGE('',*,*,#445,.F.);
#598=ORIENTED_EDGE('',*,*,#378,.T.);
#599=ORIENTED_EDGE('',*,*,#446,.T.);
#600=ORIENTED_EDGE('',*,*,#426,.T.);
#601=ORIENTED_EDGE('',*,*,#399,.F.);
#602=ORIENTED_EDGE('',*,*,#420,.F.);
#603=ORIENTED_EDGE('',*,*,#447,.T.);
#604=ORIENTED_EDGE('',*,*,#386,.T.);
#605=ORIENTED_EDGE('',*,*,#408,.F.);
#606=ORIENTED_EDGE('',*,*,#406,.T.);
#607=ORIENTED_EDGE('',*,*,#438,.F.);
#608=ORIENTED_EDGE('',*,*,#419,.F.);
#609=ORIENTED_EDGE('',*,*,#440,.F.);
#610=ORIENTED_EDGE('',*,*,#387,.F.);
#611=ORIENTED_EDGE('',*,*,#447,.F.);
#612=ORIENTED_EDGE('',*,*,#448,.F.);
#613=ORIENTED_EDGE('',*,*,#449,.T.);
#614=ORIENTED_EDGE('',*,*,#368,.F.);
#615=ORIENTED_EDGE('',*,*,#449,.F.);
#616=ORIENTED_EDGE('',*,*,#436,.F.);
#617=ORIENTED_EDGE('',*,*,#416,.F.);
#618=ORIENTED_EDGE('',*,*,#450,.F.);
#619=ORIENTED_EDGE('',*,*,#392,.F.);
#620=ORIENTED_EDGE('',*,*,#365,.T.);
#621=ORIENTED_EDGE('',*,*,#433,.F.);
#622=ORIENTED_EDGE('',*,*,#451,.F.);
#623=ORIENTED_EDGE('',*,*,#371,.F.);
#624=ORIENTED_EDGE('',*,*,#451,.T.);
#625=ORIENTED_EDGE('',*,*,#432,.F.);
#626=ORIENTED_EDGE('',*,*,#452,.F.);
#627=ORIENTED_EDGE('',*,*,#372,.F.);
#628=ORIENTED_EDGE('',*,*,#452,.T.);
#629=ORIENTED_EDGE('',*,*,#431,.F.);
#630=ORIENTED_EDGE('',*,*,#453,.F.);
#631=ORIENTED_EDGE('',*,*,#373,.F.);
#632=ORIENTED_EDGE('',*,*,#453,.T.);
#633=ORIENTED_EDGE('',*,*,#430,.F.);
#634=ORIENTED_EDGE('',*,*,#454,.F.);
#635=ORIENTED_EDGE('',*,*,#374,.F.);
#636=ORIENTED_EDGE('',*,*,#454,.T.);
#637=ORIENTED_EDGE('',*,*,#429,.F.);
#638=ORIENTED_EDGE('',*,*,#455,.F.);
#639=ORIENTED_EDGE('',*,*,#375,.F.);
#640=ORIENTED_EDGE('',*,*,#455,.T.);
#641=ORIENTED_EDGE('',*,*,#428,.F.);
#642=ORIENTED_EDGE('',*,*,#456,.F.);
#643=ORIENTED_EDGE('',*,*,#376,.F.);
#644=ORIENTED_EDGE('',*,*,#377,.F.);
#645=ORIENTED_EDGE('',*,*,#456,.T.);
#646=ORIENTED_EDGE('',*,*,#427,.T.);
#647=ORIENTED_EDGE('',*,*,#446,.F.);
#648=ORIENTED_EDGE('',*,*,#359,.F.);
#649=ORIENTED_EDGE('',*,*,#363,.F.);
#650=ORIENTED_EDGE('',*,*,#369,.F.);
#651=ORIENTED_EDGE('',*,*,#394,.F.);
#652=ORIENTED_EDGE('',*,*,#457,.F.);
#653=ORIENTED_EDGE('',*,*,#414,.T.);
#654=ORIENTED_EDGE('',*,*,#448,.T.);
#655=ORIENTED_EDGE('',*,*,#415,.T.);
#656=ORIENTED_EDGE('',*,*,#457,.T.);
#657=ORIENTED_EDGE('',*,*,#393,.T.);
#658=ORIENTED_EDGE('',*,*,#450,.T.);
#659=ORIENTED_EDGE('',*,*,#435,.T.);
#660=ORIENTED_EDGE('',*,*,#458,.T.);
#661=ORIENTED_EDGE('',*,*,#395,.T.);
#662=ORIENTED_EDGE('',*,*,#458,.F.);
#663=CYLINDRICAL_SURFACE('',#731,12.5);
#664=CYLINDRICAL_SURFACE('',#738,12.5);
#665=CYLINDRICAL_SURFACE('',#753,12.5);
#666=CYLINDRICAL_SURFACE('',#760,12.5);
#667=CYLINDRICAL_SURFACE('',#762,20.);
#668=CYLINDRICAL_SURFACE('',#777,20.);
#669=CYLINDRICAL_SURFACE('',#778,2.6);
#670=CYLINDRICAL_SURFACE('',#779,3.50000000000001);
#671=CYLINDRICAL_SURFACE('',#783,3.);
#672=CYLINDRICAL_SURFACE('',#785,3.25);
#673=CYLINDRICAL_SURFACE('',#787,3.);
#674=CYLINDRICAL_SURFACE('',#789,2.5);
#675=CYLINDRICAL_SURFACE('',#790,3.50000000000001);
#676=CYLINDRICAL_SURFACE('',#794,3.);
#677=CYLINDRICAL_SURFACE('',#796,3.25);
#678=CYLINDRICAL_SURFACE('',#798,3.);
#679=CYLINDRICAL_SURFACE('',#801,2.5);
#680=CYLINDRICAL_SURFACE('',#802,2.6);
#681=ADVANCED_FACE('',(#41),#663,.T.);
#682=ADVANCED_FACE('',(#42),#23,.T.);
#683=ADVANCED_FACE('',(#43,#15),#24,.F.);
#684=ADVANCED_FACE('',(#44),#664,.T.);
#685=ADVANCED_FACE('',(#45,#16,#17),#25,.T.);
#686=ADVANCED_FACE('',(#46),#665,.T.);
#687=ADVANCED_FACE('',(#47,#18),#26,.T.);
#688=ADVANCED_FACE('',(#48),#27,.F.);
#689=ADVANCED_FACE('',(#49),#666,.T.);
#690=ADVANCED_FACE('',(#50),#667,.T.);
#691=ADVANCED_FACE('',(#51),#28,.T.);
#692=ADVANCED_FACE('',(#52,#19,#20),#29,.F.);
#693=ADVANCED_FACE('',(#53),#668,.T.);
#694=ADVANCED_FACE('',(#54),#669,.F.);
#695=ADVANCED_FACE('',(#55),#670,.F.);
#696=ADVANCED_FACE('',(#56),#30,.F.);
#697=ADVANCED_FACE('',(#57),#31,.F.);
#698=ADVANCED_FACE('',(#58),#671,.F.);
#699=ADVANCED_FACE('',(#59),#32,.F.);
#700=ADVANCED_FACE('',(#60),#672,.T.);
#701=ADVANCED_FACE('',(#61),#33,.F.);
#702=ADVANCED_FACE('',(#62),#673,.F.);
#703=ADVANCED_FACE('',(#63,#21),#34,.F.);
#704=ADVANCED_FACE('',(#64),#674,.F.);
#705=ADVANCED_FACE('',(#65),#675,.F.);
#706=ADVANCED_FACE('',(#66),#35,.T.);
#707=ADVANCED_FACE('',(#67),#36,.T.);
#708=ADVANCED_FACE('',(#68),#676,.F.);
#709=ADVANCED_FACE('',(#69),#37,.T.);
#710=ADVANCED_FACE('',(#70),#677,.T.);
#711=ADVANCED_FACE('',(#71),#38,.T.);
#712=ADVANCED_FACE('',(#72),#678,.F.);
#713=ADVANCED_FACE('',(#73),#39,.T.);
#714=ADVANCED_FACE('',(#74,#22),#40,.T.);
#715=ADVANCED_FACE('',(#75),#679,.F.);
#716=ADVANCED_FACE('',(#76),#680,.F.);
#717=CLOSED_SHELL('',(#681,#682,#683,#684,#685,#686,#687,#688,#689,#690,
#691,#692,#693,#694,#695,#696,#697,#698,#699,#700,#701,#702,#703,#704,#705,
#706,#707,#708,#709,#710,#711,#712,#713,#714,#715,#716));
#718=DERIVED_UNIT_ELEMENT(#720,1.);
#719=DERIVED_UNIT_ELEMENT(#1227,-3.);
#720=(
MASS_UNIT()
NAMED_UNIT(*)
SI_UNIT(.KILO.,.GRAM.)
);
#721=DERIVED_UNIT((#718,#719));
#722=MEASURE_REPRESENTATION_ITEM('density measure',
POSITIVE_RATIO_MEASURE(7850.),#721);
#723=PROPERTY_DEFINITION_REPRESENTATION(#728,#725);
#724=PROPERTY_DEFINITION_REPRESENTATION(#729,#726);
#725=REPRESENTATION('material name',(#727),#1224);
#726=REPRESENTATION('density',(#722),#1224);
#727=DESCRIPTIVE_REPRESENTATION_ITEM('Steel','Steel');
#728=PROPERTY_DEFINITION('material property','material name',#1234);
#729=PROPERTY_DEFINITION('material property','density of part',#1234);
#730=AXIS2_PLACEMENT_3D('',#1015,#803,#804);
#731=AXIS2_PLACEMENT_3D('',#1016,#805,#806);
#732=AXIS2_PLACEMENT_3D('',#1019,#807,#808);
#733=AXIS2_PLACEMENT_3D('',#1023,#810,#811);
#734=AXIS2_PLACEMENT_3D('',#1025,#813,#814);
#735=AXIS2_PLACEMENT_3D('',#1031,#818,#819);
#736=AXIS2_PLACEMENT_3D('',#1038,#823,#824);
#737=AXIS2_PLACEMENT_3D('',#1040,#825,#826);
#738=AXIS2_PLACEMENT_3D('',#1041,#827,#828);
#739=AXIS2_PLACEMENT_3D('',#1043,#829,#830);
#740=AXIS2_PLACEMENT_3D('',#1045,#832,#833);
#741=AXIS2_PLACEMENT_3D('',#1049,#835,#836);
#742=AXIS2_PLACEMENT_3D('',#1053,#838,#839);
#743=AXIS2_PLACEMENT_3D('',#1057,#841,#842);
#744=AXIS2_PLACEMENT_3D('',#1061,#844,#845);
#745=AXIS2_PLACEMENT_3D('',#1065,#847,#848);
#746=AXIS2_PLACEMENT_3D('',#1069,#850,#851);
#747=AXIS2_PLACEMENT_3D('',#1079,#856,#857);
#748=AXIS2_PLACEMENT_3D('',#1083,#859,#860);
#749=AXIS2_PLACEMENT_3D('',#1087,#862,#863);
#750=AXIS2_PLACEMENT_3D('',#1091,#865,#866);
#751=AXIS2_PLACEMENT_3D('',#1094,#868,#869);
#752=AXIS2_PLACEMENT_3D('',#1096,#870,#871);
#753=AXIS2_PLACEMENT_3D('',#1097,#872,#873);
#754=AXIS2_PLACEMENT_3D('',#1100,#874,#875);
#755=AXIS2_PLACEMENT_3D('',#1104,#877,#878);
#756=AXIS2_PLACEMENT_3D('',#1106,#880,#881);
#757=AXIS2_PLACEMENT_3D('',#1109,#883,#884);
#758=AXIS2_PLACEMENT_3D('',#1114,#887,#888);
#759=AXIS2_PLACEMENT_3D('',#1115,#889,#890);
#760=AXIS2_PLACEMENT_3D('',#1119,#893,#894);
#761=AXIS2_PLACEMENT_3D('',#1120,#895,#896);
#762=AXIS2_PLACEMENT_3D('',#1121,#897,#898);
#763=AXIS2_PLACEMENT_3D('',#1124,#899,#900);
#764=AXIS2_PLACEMENT_3D('',#1127,#903,#904);
#765=AXIS2_PLACEMENT_3D('',#1131,#907,#908);
#766=AXIS2_PLACEMENT_3D('',#1135,#910,#911);
#767=AXIS2_PLACEMENT_3D('',#1138,#913,#914);
#768=AXIS2_PLACEMENT_3D('',#1142,#916,#917);
#769=AXIS2_PLACEMENT_3D('',#1147,#920,#921);
#770=AXIS2_PLACEMENT_3D('',#1151,#923,#924);
#771=AXIS2_PLACEMENT_3D('',#1155,#926,#927);
#772=AXIS2_PLACEMENT_3D('',#1159,#929,#930);
#773=AXIS2_PLACEMENT_3D('',#1163,#932,#933);
#774=AXIS2_PLACEMENT_3D('',#1167,#935,#936);
#775=AXIS2_PLACEMENT_3D('',#1170,#938,#939);
#776=AXIS2_PLACEMENT_3D('',#1172,#940,#941);
#777=AXIS2_PLACEMENT_3D('',#1173,#942,#943);
#778=AXIS2_PLACEMENT_3D('',#1175,#945,#946);
#779=AXIS2_PLACEMENT_3D('',#1177,#948,#949);
#780=AXIS2_PLACEMENT_3D('',#1179,#950,#951);
#781=AXIS2_PLACEMENT_3D('',#1181,#953,#954);
#782=AXIS2_PLACEMENT_3D('',#1183,#956,#957);
#783=AXIS2_PLACEMENT_3D('',#1185,#959,#960);
#784=AXIS2_PLACEMENT_3D('',#1187,#962,#963);
#785=AXIS2_PLACEMENT_3D('',#1189,#965,#966);
#786=AXIS2_PLACEMENT_3D('',#1191,#968,#969);
#787=AXIS2_PLACEMENT_3D('',#1193,#971,#972);
#788=AXIS2_PLACEMENT_3D('',#1195,#974,#975);
#789=AXIS2_PLACEMENT_3D('',#1197,#977,#978);
#790=AXIS2_PLACEMENT_3D('',#1198,#979,#980);
#791=AXIS2_PLACEMENT_3D('',#1200,#981,#982);
#792=AXIS2_PLACEMENT_3D('',#1202,#984,#985);
#793=AXIS2_PLACEMENT_3D('',#1204,#987,#988);
#794=AXIS2_PLACEMENT_3D('',#1206,#990,#991);
#795=AXIS2_PLACEMENT_3D('',#1208,#993,#994);
#796=AXIS2_PLACEMENT_3D('',#1210,#996,#997);
#797=AXIS2_PLACEMENT_3D('',#1212,#999,#1000);
#798=AXIS2_PLACEMENT_3D('',#1214,#1002,#1003);
#799=AXIS2_PLACEMENT_3D('',#1216,#1005,#1006);
#800=AXIS2_PLACEMENT_3D('',#1217,#1007,#1008);
#801=AXIS2_PLACEMENT_3D('',#1219,#1010,#1011);
#802=AXIS2_PLACEMENT_3D('',#1220,#1012,#1013);
#803=DIRECTION('axis',(0.,0.,1.));
#804=DIRECTION('refdir',(1.,0.,0.));
#805=DIRECTION('center_axis',(0.,6.31721073398916E-17,-1.));
#806=DIRECTION('ref_axis',(0.707106781186547,-0.707106781186547,0.));
#807=DIRECTION('center_axis',(0.,0.,1.));
#808=DIRECTION('ref_axis',(0.707106781186547,-0.707106781186547,0.));
#809=DIRECTION('',(0.,-6.31721073398916E-17,1.));
#810=DIRECTION('center_axis',(0.,0.,-1.));
#811=DIRECTION('ref_axis',(0.707106781186547,-0.707106781186547,0.));
#812=DIRECTION('',(0.,6.31721073398916E-17,-1.));
#813=DIRECTION('center_axis',(1.,0.,0.));
#814=DIRECTION('ref_axis',(0.,0.,-1.));
#815=DIRECTION('',(0.,1.,0.));
#816=DIRECTION('',(0.,6.31721073398916E-17,-1.));
#817=DIRECTION('',(0.,-1.,0.));
#818=DIRECTION('center_axis',(0.,0.,1.));
#819=DIRECTION('ref_axis',(0.,1.,0.));
#820=DIRECTION('',(1.,0.,0.));
#821=DIRECTION('',(-2.32137395783422E-31,-1.,0.));
#822=DIRECTION('',(1.,0.,0.));
#823=DIRECTION('center_axis',(0.,0.,1.));
#824=DIRECTION('ref_axis',(0.707106781186547,0.707106781186547,0.));
#825=DIRECTION('center_axis',(0.,0.,1.));
#826=DIRECTION('ref_axis',(-1.,0.,0.));
#827=DIRECTION('center_axis',(0.,-6.31721073398916E-17,1.));
#828=DIRECTION('ref_axis',(0.707106781186547,0.707106781186547,0.));
#829=DIRECTION('center_axis',(0.,0.,-1.));
#830=DIRECTION('ref_axis',(0.707106781186547,0.707106781186547,0.));
#831=DIRECTION('',(0.,-6.31721073398916E-17,1.));
#832=DIRECTION('center_axis',(0.,1.,6.31721073398916E-17));
#833=DIRECTION('ref_axis',(1.,0.,0.));
#834=DIRECTION('',(-4.11908832324696E-15,-6.31721073398916E-17,1.));
#835=DIRECTION('center_axis',(0.,-1.,-6.31721073398916E-17));
#836=DIRECTION('ref_axis',(1.1842378929335E-14,-5.63564987119369E-17,1.));
#837=DIRECTION('',(-1.,3.36648614797625E-31,-5.32907051820068E-15));
#838=DIRECTION('center_axis',(0.,1.,6.31721073398916E-17));
#839=DIRECTION('ref_axis',(0.,5.63564987119369E-17,-1.));
#840=DIRECTION('',(0.,-6.31721073398916E-17,1.));
#841=DIRECTION('center_axis',(0.,-1.,-6.31721073398916E-17));
#842=DIRECTION('ref_axis',(0.,-5.63564987119369E-17,1.));
#843=DIRECTION('',(-1.,2.52079880645568E-31,-3.99036681314549E-15));
#844=DIRECTION('center_axis',(0.,1.,6.31721073398916E-17));
#845=DIRECTION('ref_axis',(0.,-5.63564987119369E-17,1.));
#846=DIRECTION('',(0.,-6.31721073398916E-17,1.));
#847=DIRECTION('center_axis',(0.,-1.,-6.31721073398916E-17));
#848=DIRECTION('ref_axis',(0.,5.63564987119369E-17,-1.));
#849=DIRECTION('',(1.,3.36648614797625E-31,-5.32907051820068E-15));
#850=DIRECTION('center_axis',(0.,1.,6.31721073398916E-17));
#851=DIRECTION('ref_axis',(-1.1842378929335E-14,-5.63564987119369E-17,1.));
#852=DIRECTION('',(4.11908832324696E-15,-6.31721073398916E-17,1.));
#853=DIRECTION('',(-1.,0.,0.));
#854=DIRECTION('',(0.,6.31721073398916E-17,-1.));
#855=DIRECTION('',(-1.,0.,0.));
#856=DIRECTION('center_axis',(0.,-1.,-6.31721073398916E-17));
#857=DIRECTION('ref_axis',(0.707106781186547,0.,-0.707106781186547));
#858=DIRECTION('',(0.,6.31721073398916E-17,-1.));
#859=DIRECTION('center_axis',(0.,-1.,-6.31721073398916E-17));
#860=DIRECTION('ref_axis',(-0.707106781186547,0.,0.707106781186547));
#861=DIRECTION('',(-1.,0.,0.));
#862=DIRECTION('center_axis',(0.,-1.,-6.31721073398916E-17));
#863=DIRECTION('ref_axis',(0.707106781186547,0.,0.707106781186547));
#864=DIRECTION('',(0.,6.31721073398916E-17,-1.));
#865=DIRECTION('center_axis',(0.,1.,6.31721073398916E-17));
#866=DIRECTION('ref_axis',(-0.707106781186547,0.,-0.707106781186547));
#867=DIRECTION('',(1.,0.,0.));
#868=DIRECTION('center_axis',(0.,1.,6.31721073398916E-17));
#869=DIRECTION('ref_axis',(-2.9698465908723E-15,1.11022302462517E-16,1.));
#870=DIRECTION('center_axis',(0.,1.,6.31721073398916E-17));
#871=DIRECTION('ref_axis',(-2.9698465908723E-15,1.11022302462517E-16,1.));
#872=DIRECTION('center_axis',(0.,6.31721073398916E-17,-1.));
#873=DIRECTION('ref_axis',(-0.707106781186547,-0.707106781186547,0.));
#874=DIRECTION('center_axis',(0.,0.,1.));
#875=DIRECTION('ref_axis',(-0.707106781186547,-0.707106781186547,0.));
#876=DIRECTION('',(0.,-6.31721073398916E-17,1.));
#877=DIRECTION('center_axis',(0.,0.,-1.));
#878=DIRECTION('ref_axis',(-0.707106781186547,-0.707106781186547,0.));
#879=DIRECTION('',(0.,6.31721073398916E-17,-1.));
#880=DIRECTION('center_axis',(0.,0.,-1.));
#881=DIRECTION('ref_axis',(0.,1.,0.));
#882=DIRECTION('',(0.,1.,0.));
#883=DIRECTION('center_axis',(0.,0.,1.));
#884=DIRECTION('ref_axis',(-0.707106781186547,0.707106781186547,0.));
#885=DIRECTION('',(2.32137395783422E-31,-1.,0.));
#886=DIRECTION('',(-1.,0.,0.));
#887=DIRECTION('center_axis',(0.,0.,-1.));
#888=DIRECTION('ref_axis',(1.,0.,0.));
#889=DIRECTION('center_axis',(1.,0.,0.));
#890=DIRECTION('ref_axis',(0.,0.,-1.));
#891=DIRECTION('',(0.,-1.,0.));
#892=DIRECTION('',(0.,-6.31721073398916E-17,1.));
#893=DIRECTION('center_axis',(0.,-6.31721073398916E-17,1.));
#894=DIRECTION('ref_axis',(-0.707106781186547,0.707106781186547,0.));
#895=DIRECTION('center_axis',(0.,0.,-1.));
#896=DIRECTION('ref_axis',(-0.707106781186547,0.707106781186547,0.));
#897=DIRECTION('center_axis',(0.,-1.,-5.63564987119369E-17));
#898=DIRECTION('ref_axis',(-0.707106781186547,0.,0.707106781186547));
#899=DIRECTION('center_axis',(0.,1.,6.31721073398916E-17));
#900=DIRECTION('ref_axis',(-0.707106781186547,0.,0.707106781186547));
#901=DIRECTION('',(0.,1.,5.63564987119369E-17));
#902=DIRECTION('',(0.,-1.,-5.63564987119369E-17));
#903=DIRECTION('center_axis',(0.,-5.63564987119369E-17,1.));
#904=DIRECTION('ref_axis',(-1.,0.,0.));
#905=DIRECTION('',(1.,0.,0.));
#906=DIRECTION('',(0.,-1.,-5.63564987119369E-17));
#907=DIRECTION('center_axis',(0.,1.,6.31721073398916E-17));
#908=DIRECTION('ref_axis',(1.,0.,0.));
#909=DIRECTION('',(1.,0.,0.));
#910=DIRECTION('center_axis',(0.,-1.,-6.31721073398916E-17));
#911=DIRECTION('ref_axis',(-0.707106781186547,0.,-0.707106781186547));
#912=DIRECTION('',(0.,-6.31721073398916E-17,1.));
#913=DIRECTION('center_axis',(0.,1.,6.31721073398916E-17));
#914=DIRECTION('ref_axis',(0.707106781186547,0.,0.707106781186547));
#915=DIRECTION('',(0.,-6.31721073398916E-17,1.));
#916=DIRECTION('center_axis',(0.,1.,6.31721073398916E-17));
#917=DIRECTION('ref_axis',(0.707106781186547,0.,-0.707106781186547));
#918=DIRECTION('',(-1.,0.,0.));
#919=DIRECTION('',(-4.11908832324696E-15,-5.21619982618967E-31,-1.));
#920=DIRECTION('center_axis',(-2.19128029228059E-30,-1.,1.85037170770859E-16));
#921=DIRECTION('ref_axis',(-1.1842378929335E-14,1.85037170770859E-16,1.));
#922=DIRECTION('',(-1.,0.,5.32907051820068E-15));
#923=DIRECTION('center_axis',(0.,1.,0.));
#924=DIRECTION('ref_axis',(0.,0.,-1.));
#925=DIRECTION('',(0.,0.,-1.));
#926=DIRECTION('center_axis',(0.,-1.,0.));
#927=DIRECTION('ref_axis',(0.,0.,1.));
#928=DIRECTION('',(-1.,0.,3.99036681314549E-15));
#929=DIRECTION('center_axis',(0.,1.,0.));
#930=DIRECTION('ref_axis',(0.,0.,1.));
#931=DIRECTION('',(0.,0.,-1.));
#932=DIRECTION('center_axis',(0.,-1.,0.));
#933=DIRECTION('ref_axis',(0.,0.,-1.));
#934=DIRECTION('',(1.,0.,5.32907051820068E-15));
#935=DIRECTION('center_axis',(-2.19128029228059E-30,1.,-1.85037170770859E-16));
#936=DIRECTION('ref_axis',(1.1842378929335E-14,1.85037170770859E-16,1.));
#937=DIRECTION('',(4.11908832324696E-15,-5.21619982618967E-31,-1.));
#938=DIRECTION('center_axis',(0.,-1.,-6.31721073398916E-17));
#939=DIRECTION('ref_axis',(-2.9698465908723E-15,1.11022302462517E-16,1.));
#940=DIRECTION('center_axis',(0.,-1.,-6.31721073398916E-17));
#941=DIRECTION('ref_axis',(-2.9698465908723E-15,1.11022302462517E-16,1.));
#942=DIRECTION('center_axis',(0.,-1.,-5.63564987119369E-17));
#943=DIRECTION('ref_axis',(0.707106781186547,0.,0.707106781186547));
#944=DIRECTION('',(0.,1.,5.63564987119369E-17));
#945=DIRECTION('center_axis',(5.55111512312587E-17,-1.,1.11022302462517E-16));
#946=DIRECTION('ref_axis',(-2.9698465908723E-15,1.11022302462517E-16,1.));
#947=DIRECTION('',(-5.55111512312587E-17,1.,-1.11022302462517E-16));
#948=DIRECTION('center_axis',(0.,0.,1.));
#949=DIRECTION('ref_axis',(1.,0.,0.));
#950=DIRECTION('center_axis',(0.,0.,1.));
#951=DIRECTION('ref_axis',(1.,0.,0.));
#952=DIRECTION('',(0.,0.,-1.));
#953=DIRECTION('center_axis',(1.,0.,0.));
#954=DIRECTION('ref_axis',(0.,-6.31721073398916E-17,1.));
#955=DIRECTION('',(0.,-1.,0.));
#956=DIRECTION('center_axis',(-1.,-2.32137395783422E-31,4.11908832324696E-15));
#957=DIRECTION('ref_axis',(-4.11908832324696E-15,-5.21619982618967E-31,
-1.));
#958=DIRECTION('',(0.,-1.,-5.63564987119369E-17));
#959=DIRECTION('center_axis',(0.,1.,5.63564987119369E-17));
#960=DIRECTION('ref_axis',(-1.1842378929335E-14,-5.63564987119369E-17,1.));
#961=DIRECTION('',(0.,-1.,-5.63564987119369E-17));
#962=DIRECTION('center_axis',(5.32907051820068E-15,-5.63564987119369E-17,
1.));
#963=DIRECTION('ref_axis',(-1.,0.,5.32907051820068E-15));
#964=DIRECTION('',(0.,-1.,-5.63564987119369E-17));
#965=DIRECTION('center_axis',(0.,1.,5.63564987119369E-17));
#966=DIRECTION('ref_axis',(0.,5.63564987119369E-17,-1.));
#967=DIRECTION('',(0.,-1.,-5.63564987119369E-17));
#968=DIRECTION('center_axis',(-1.,0.,0.));
#969=DIRECTION('ref_axis',(0.,0.,-1.));
#970=DIRECTION('',(0.,-1.,-5.63564987119369E-17));
#971=DIRECTION('center_axis',(0.,1.,5.63564987119369E-17));
#972=DIRECTION('ref_axis',(0.,-5.63564987119369E-17,1.));
#973=DIRECTION('',(0.,-1.,-5.63564987119369E-17));
#974=DIRECTION('center_axis',(0.,0.,-1.));
#975=DIRECTION('ref_axis',(0.,-1.,0.));
#976=DIRECTION('',(0.,1.,0.));
#977=DIRECTION('center_axis',(0.,-1.,0.));
#978=DIRECTION('ref_axis',(0.707106781186547,0.,-0.707106781186547));
#979=DIRECTION('center_axis',(0.,0.,-1.));
#980=DIRECTION('ref_axis',(-1.,0.,0.));
#981=DIRECTION('center_axis',(0.,0.,-1.));
#982=DIRECTION('ref_axis',(-1.,0.,0.));
#983=DIRECTION('',(0.,0.,-1.));
#984=DIRECTION('center_axis',(1.,0.,0.));
#985=DIRECTION('ref_axis',(0.,-6.31721073398916E-17,1.));
#986=DIRECTION('',(0.,-1.,0.));
#987=DIRECTION('center_axis',(-1.,2.32137395783422E-31,-4.11908832324696E-15));
#988=DIRECTION('ref_axis',(4.11908832324696E-15,-5.21619982618967E-31,-1.));
#989=DIRECTION('',(0.,-1.,-5.63564987119369E-17));
#990=DIRECTION('center_axis',(0.,-1.,-5.63564987119369E-17));
#991=DIRECTION('ref_axis',(1.1842378929335E-14,-5.63564987119369E-17,1.));
#992=DIRECTION('',(0.,-1.,-5.63564987119369E-17));
#993=DIRECTION('center_axis',(5.32907051820068E-15,5.63564987119369E-17,
-1.));
#994=DIRECTION('ref_axis',(1.,0.,5.32907051820068E-15));
#995=DIRECTION('',(0.,-1.,-5.63564987119369E-17));
#996=DIRECTION('center_axis',(0.,-1.,-5.63564987119369E-17));
#997=DIRECTION('ref_axis',(0.,5.63564987119369E-17,-1.));
#998=DIRECTION('',(0.,-1.,-5.63564987119369E-17));
#999=DIRECTION('center_axis',(-1.,0.,0.));
#1000=DIRECTION('ref_axis',(0.,0.,-1.));
#1001=DIRECTION('',(0.,-1.,-5.63564987119369E-17));
#1002=DIRECTION('center_axis',(0.,-1.,-5.63564987119369E-17));
#1003=DIRECTION('ref_axis',(0.,-5.63564987119369E-17,1.));
#1004=DIRECTION('',(0.,-1.,-5.63564987119369E-17));
#1005=DIRECTION('center_axis',(3.99036681314549E-15,5.63564987119369E-17,
-1.));
#1006=DIRECTION('ref_axis',(1.,0.,3.99036681314549E-15));
#1007=DIRECTION('center_axis',(0.,0.,1.));
#1008=DIRECTION('ref_axis',(0.,-1.,0.));
#1009=DIRECTION('',(0.,1.,0.));
#1010=DIRECTION('center_axis',(0.,1.,0.));
#1011=DIRECTION('ref_axis',(-0.707106781186547,0.,-0.707106781186547));
#1012=DIRECTION('center_axis',(5.55111512312587E-17,-1.,1.11022302462517E-16));
#1013=DIRECTION('ref_axis',(-2.9698465908723E-15,1.11022302462517E-16,1.));
#1014=DIRECTION('',(-5.55111512312587E-17,1.,-1.11022302462517E-16));
#1015=CARTESIAN_POINT('',(0.,0.,0.));
#1016=CARTESIAN_POINT('Origin',(252.500000000001,167.6872,-3.32239687442709));
#1017=CARTESIAN_POINT('',(252.500000000001,155.1872,-5.0723968744271));
#1018=CARTESIAN_POINT('',(265.000000000001,167.6872,-5.0723968744271));
#1019=CARTESIAN_POINT('Origin',(252.500000000001,167.6872,-5.07239687442709));
#1020=CARTESIAN_POINT('',(265.000000000001,167.6872,4.9276031255729));
#1021=CARTESIAN_POINT('',(265.000000000001,167.6872,-3.32239687442709));
#1022=CARTESIAN_POINT('',(252.500000000001,155.1872,4.9276031255729));
#1023=CARTESIAN_POINT('Origin',(252.500000000001,167.6872,4.9276031255729));
#1024=CARTESIAN_POINT('',(252.500000000001,155.1872,-3.32239687442709));
#1025=CARTESIAN_POINT('Origin',(265.000000000001,175.1872,-0.0723968744270953));
#1026=CARTESIAN_POINT('',(265.000000000001,182.6872,-5.0723968744271));
#1027=CARTESIAN_POINT('',(265.000000000001,155.1872,-5.0723968744271));
#1028=CARTESIAN_POINT('',(265.000000000001,182.6872,4.9276031255729));
#1029=CARTESIAN_POINT('',(265.000000000001,182.6872,-3.32239687442709));
#1030=CARTESIAN_POINT('',(265.000000000001,195.1872,4.9276031255729));
#1031=CARTESIAN_POINT('Origin',(245.000000000001,155.1872,-5.0723968744271));
#1032=CARTESIAN_POINT('',(239.000000000001,155.1872,-5.0723968744271));
#1033=CARTESIAN_POINT('',(245.000000000001,155.1872,-5.0723968744271));
#1034=CARTESIAN_POINT('',(239.000000000001,195.1872,-5.0723968744271));
#1035=CARTESIAN_POINT('',(239.000000000001,214.2872,-5.07239687442709));
#1036=CARTESIAN_POINT('',(252.500000000001,195.1872,-5.0723968744271));
#1037=CARTESIAN_POINT('',(245.000000000001,195.1872,-5.0723968744271));
#1038=CARTESIAN_POINT('Origin',(252.500000000001,182.6872,-5.07239687442709));
#1039=CARTESIAN_POINT('',(259.750000000001,175.1872,-5.0723968744271));
#1040=CARTESIAN_POINT('Origin',(256.250000000001,175.1872,-5.0723968744271));
#1041=CARTESIAN_POINT('Origin',(252.500000000001,182.6872,-3.32239687442709));
#1042=CARTESIAN_POINT('',(252.500000000001,195.1872,4.9276031255729));
#1043=CARTESIAN_POINT('Origin',(252.500000000001,182.6872,4.9276031255729));
#1044=CARTESIAN_POINT('',(252.500000000001,195.1872,-3.32239687442709));
#1045=CARTESIAN_POINT('Origin',(210.000000000001,195.1872,-6.57239687442709));
#1046=CARTESIAN_POINT('',(239.000000000001,195.1872,10.6776031255729));
#1047=CARTESIAN_POINT('',(239.000000000001,195.1872,2.05260312557296));
#1048=CARTESIAN_POINT('',(236.000000000001,195.1872,13.6776031255729));
#1049=CARTESIAN_POINT('Origin',(236.000000000001,195.1872,10.6776031255729));
#1050=CARTESIAN_POINT('',(233.500000000001,195.1872,13.6776031255729));
#1051=CARTESIAN_POINT('',(221.75,195.1872,13.6776031255728));
#1052=CARTESIAN_POINT('',(230.250000000001,195.1872,16.9276031255729));
#1053=CARTESIAN_POINT('Origin',(233.500000000001,195.1872,16.9276031255729));
#1054=CARTESIAN_POINT('',(230.250000000001,195.1872,19.4276031255729));
#1055=CARTESIAN_POINT('',(230.250000000001,195.1872,6.42760312557289));
#1056=CARTESIAN_POINT('',(227.250000000001,195.1872,22.4276031255729));
#1057=CARTESIAN_POINT('Origin',(227.250000000001,195.1872,19.4276031255729));
#1058=CARTESIAN_POINT('',(192.750000000001,195.1872,22.4276031255729));
#1059=CARTESIAN_POINT('',(201.375,195.1872,22.4276031255728));
#1060=CARTESIAN_POINT('',(189.750000000001,195.1872,19.4276031255729));
#1061=CARTESIAN_POINT('Origin',(192.750000000001,195.1872,19.4276031255729));
#1062=CARTESIAN_POINT('',(189.750000000001,195.1872,16.9276031255729));
#1063=CARTESIAN_POINT('',(189.750000000001,195.1872,6.42760312557289));
#1064=CARTESIAN_POINT('',(186.500000000001,195.1872,13.6776031255729));
#1065=CARTESIAN_POINT('Origin',(186.500000000001,195.1872,16.9276031255729));
#1066=CARTESIAN_POINT('',(184.000000000001,195.1872,13.6776031255729));
#1067=CARTESIAN_POINT('',(198.250000000001,195.1872,13.6776031255728));
#1068=CARTESIAN_POINT('',(181.000000000001,195.1872,10.6776031255729));
#1069=CARTESIAN_POINT('Origin',(184.000000000001,195.1872,10.6776031255729));
#1070=CARTESIAN_POINT('',(181.000000000001,195.1872,-5.0723968744271));
#1071=CARTESIAN_POINT('',(181.000000000001,195.1872,2.05260312557296));
#1072=CARTESIAN_POINT('',(167.500000000001,195.1872,-5.0723968744271));
#1073=CARTESIAN_POINT('',(175.000000000001,195.1872,-5.0723968744271));
#1074=CARTESIAN_POINT('',(167.500000000001,195.1872,4.9276031255729));
#1075=CARTESIAN_POINT('',(167.500000000001,195.1872,-3.32239687442709));
#1076=CARTESIAN_POINT('',(172.500000000001,195.1872,4.9276031255729));
#1077=CARTESIAN_POINT('',(175.000000000001,195.1872,4.9276031255729));
#1078=CARTESIAN_POINT('',(175.000000000001,195.1872,7.4276031255729));
#1079=CARTESIAN_POINT('Origin',(172.500000000001,195.1872,7.42760312557291));
#1080=CARTESIAN_POINT('',(175.000000000001,195.1872,8.4276031255729));
#1081=CARTESIAN_POINT('',(175.000000000001,195.1872,-24.0723968744271));
#1082=CARTESIAN_POINT('',(195.000000000001,195.1872,28.4276031255729));
#1083=CARTESIAN_POINT('Origin',(195.000000000001,195.1872,8.4276031255729));
#1084=CARTESIAN_POINT('',(225.000000000001,195.1872,28.4276031255729));
#1085=CARTESIAN_POINT('',(192.500000000001,195.1872,28.4276031255729));
#1086=CARTESIAN_POINT('',(245.000000000001,195.1872,8.4276031255729));
#1087=CARTESIAN_POINT('Origin',(225.000000000001,195.1872,8.4276031255729));
#1088=CARTESIAN_POINT('',(245.000000000001,195.1872,7.4276031255729));
#1089=CARTESIAN_POINT('',(245.000000000001,195.1872,-24.0723968744271));
#1090=CARTESIAN_POINT('',(247.500000000001,195.1872,4.9276031255729));
#1091=CARTESIAN_POINT('Origin',(247.500000000001,195.1872,7.42760312557291));
#1092=CARTESIAN_POINT('',(245.000000000001,195.1872,4.9276031255729));
#1093=CARTESIAN_POINT('',(186.500000000001,195.1872,14.3276031255728));
#1094=CARTESIAN_POINT('Origin',(186.500000000001,195.1872,16.9276031255728));
#1095=CARTESIAN_POINT('',(233.500000000001,195.1872,14.3276031255729));
#1096=CARTESIAN_POINT('Origin',(233.500000000001,195.1872,16.9276031255729));
#1097=CARTESIAN_POINT('Origin',(167.500000000001,167.6872,-3.32239687442709));
#1098=CARTESIAN_POINT('',(155.000000000001,167.6872,-5.0723968744271));
#1099=CARTESIAN_POINT('',(167.500000000001,155.1872,-5.0723968744271));
#1100=CARTESIAN_POINT('Origin',(167.500000000001,167.6872,-5.07239687442709));
#1101=CARTESIAN_POINT('',(167.500000000001,155.1872,4.9276031255729));
#1102=CARTESIAN_POINT('',(167.500000000001,155.1872,-3.32239687442709));
#1103=CARTESIAN_POINT('',(155.000000000001,167.6872,4.9276031255729));
#1104=CARTESIAN_POINT('Origin',(167.500000000001,167.6872,4.9276031255729));
#1105=CARTESIAN_POINT('',(155.000000000001,167.6872,-3.32239687442709));
#1106=CARTESIAN_POINT('Origin',(175.000000000001,155.1872,-5.0723968744271));
#1107=CARTESIAN_POINT('',(155.000000000001,182.6872,-5.0723968744271));
#1108=CARTESIAN_POINT('',(155.000000000001,155.1872,-5.0723968744271));
#1109=CARTESIAN_POINT('Origin',(167.500000000001,182.6872,-5.07239687442709));
#1110=CARTESIAN_POINT('',(181.000000000001,155.1872,-5.0723968744271));
#1111=CARTESIAN_POINT('',(181.000000000001,214.2872,-5.07239687442709));
#1112=CARTESIAN_POINT('',(175.000000000001,155.1872,-5.0723968744271));
#1113=CARTESIAN_POINT('',(160.250000000001,175.1872,-5.0723968744271));
#1114=CARTESIAN_POINT('Origin',(163.750000000001,175.1872,-5.0723968744271));
#1115=CARTESIAN_POINT('Origin',(155.000000000001,175.1872,-0.0723968744270953));
#1116=CARTESIAN_POINT('',(155.000000000001,182.6872,4.9276031255729));
#1117=CARTESIAN_POINT('',(155.000000000001,195.1872,4.9276031255729));
#1118=CARTESIAN_POINT('',(155.000000000001,182.6872,-3.32239687442709));
#1119=CARTESIAN_POINT('Origin',(167.500000000001,182.6872,-3.32239687442709));
#1120=CARTESIAN_POINT('Origin',(167.500000000001,182.6872,4.9276031255729));
#1121=CARTESIAN_POINT('Origin',(195.000000000001,273.3872,8.4276031255729));
#1122=CARTESIAN_POINT('',(175.000000000001,155.1872,8.4276031255729));
#1123=CARTESIAN_POINT('',(195.000000000001,155.1872,28.4276031255729));
#1124=CARTESIAN_POINT('Origin',(195.000000000001,155.1872,8.4276031255729));
#1125=CARTESIAN_POINT('',(195.000000000001,273.3872,28.4276031255729));
#1126=CARTESIAN_POINT('',(175.000000000001,273.3872,8.4276031255729));
#1127=CARTESIAN_POINT('Origin',(245.000000000001,273.3872,28.4276031255729));
#1128=CARTESIAN_POINT('',(225.000000000001,155.1872,28.4276031255729));
#1129=CARTESIAN_POINT('',(245.000000000001,155.1872,28.4276031255729));
#1130=CARTESIAN_POINT('',(225.000000000001,273.3872,28.4276031255729));
#1131=CARTESIAN_POINT('Origin',(210.000000000001,155.1872,-6.57239687442709));
#1132=CARTESIAN_POINT('',(247.500000000001,155.1872,4.9276031255729));
#1133=CARTESIAN_POINT('',(245.000000000001,155.1872,4.9276031255729));
#1134=CARTESIAN_POINT('',(245.000000000001,155.1872,7.42760312557291));
#1135=CARTESIAN_POINT('Origin',(247.500000000001,155.1872,7.42760312557291));
#1136=CARTESIAN_POINT('',(245.000000000001,155.1872,8.4276031255729));
#1137=CARTESIAN_POINT('',(245.000000000001,155.1872,28.4276031255729));
#1138=CARTESIAN_POINT('Origin',(225.000000000001,155.1872,8.4276031255729));
#1139=CARTESIAN_POINT('',(175.000000000001,155.1872,7.42760312557291));
#1140=CARTESIAN_POINT('',(175.000000000001,155.1872,28.4276031255729));
#1141=CARTESIAN_POINT('',(172.500000000001,155.1872,4.9276031255729));
#1142=CARTESIAN_POINT('Origin',(172.500000000001,155.1872,7.42760312557291));
#1143=CARTESIAN_POINT('',(175.000000000001,155.1872,4.9276031255729));
#1144=CARTESIAN_POINT('',(181.000000000001,155.1872,10.6776031255729));
#1145=CARTESIAN_POINT('',(181.000000000001,155.1872,10.6776031255729));
#1146=CARTESIAN_POINT('',(184.000000000001,155.1872,13.6776031255729));
#1147=CARTESIAN_POINT('Origin',(184.000000000001,155.1872,10.6776031255729));
#1148=CARTESIAN_POINT('',(186.500000000001,155.1872,13.6776031255729));
#1149=CARTESIAN_POINT('',(186.500000000001,155.1872,13.6776031255729));
#1150=CARTESIAN_POINT('',(189.750000000001,155.1872,16.9276031255729));
#1151=CARTESIAN_POINT('Origin',(186.500000000001,155.1872,16.9276031255729));
#1152=CARTESIAN_POINT('',(189.750000000001,155.1872,19.4276031255729));
#1153=CARTESIAN_POINT('',(189.750000000001,155.1872,19.4276031255729));
#1154=CARTESIAN_POINT('',(192.750000000001,155.1872,22.4276031255729));
#1155=CARTESIAN_POINT('Origin',(192.750000000001,155.1872,19.4276031255729));
#1156=CARTESIAN_POINT('',(227.250000000001,155.1872,22.4276031255729));
#1157=CARTESIAN_POINT('',(227.250000000001,155.1872,22.4276031255727));
#1158=CARTESIAN_POINT('',(230.250000000001,155.1872,19.4276031255729));
#1159=CARTESIAN_POINT('Origin',(227.250000000001,155.1872,19.4276031255729));
#1160=CARTESIAN_POINT('',(230.250000000001,155.1872,16.9276031255729));
#1161=CARTESIAN_POINT('',(230.250000000001,155.1872,19.4276031255729));
#1162=CARTESIAN_POINT('',(233.500000000001,155.1872,13.6776031255729));
#1163=CARTESIAN_POINT('Origin',(233.500000000001,155.1872,16.9276031255729));
#1164=CARTESIAN_POINT('',(236.000000000001,155.1872,13.6776031255729));
#1165=CARTESIAN_POINT('',(233.500000000001,155.1872,13.6776031255729));
#1166=CARTESIAN_POINT('',(239.000000000001,155.1872,10.6776031255729));
#1167=CARTESIAN_POINT('Origin',(236.000000000001,155.1872,10.6776031255729));
#1168=CARTESIAN_POINT('',(239.000000000001,155.1872,10.6776031255729));
#1169=CARTESIAN_POINT('',(233.500000000001,155.1872,14.3276031255729));
#1170=CARTESIAN_POINT('Origin',(233.500000000001,155.1872,16.9276031255729));
#1171=CARTESIAN_POINT('',(186.500000000001,155.1872,14.3276031255728));
#1172=CARTESIAN_POINT('Origin',(186.500000000001,155.1872,16.9276031255728));
#1173=CARTESIAN_POINT('Origin',(225.000000000001,273.3872,8.4276031255729));
#1174=CARTESIAN_POINT('',(245.000000000001,273.3872,8.4276031255729));
#1175=CARTESIAN_POINT('Origin',(233.500000000001,155.1872,16.9276031255729));
#1176=CARTESIAN_POINT('',(233.500000000001,155.1872,14.3276031255729));
#1177=CARTESIAN_POINT('Origin',(163.750000000001,175.1872,4.9276031255729));
#1178=CARTESIAN_POINT('',(160.250000000001,175.1872,4.9276031255729));
#1179=CARTESIAN_POINT('Origin',(163.750000000001,175.1872,4.9276031255729));
#1180=CARTESIAN_POINT('',(160.250000000001,175.1872,4.9276031255729));
#1181=CARTESIAN_POINT('Origin',(175.000000000001,273.3872,-41.5723968744271));
#1182=CARTESIAN_POINT('',(175.000000000001,234.2872,7.42760312557291));
#1183=CARTESIAN_POINT('Origin',(181.000000000001,273.3872,10.6776031255729));
#1184=CARTESIAN_POINT('',(181.000000000001,273.3872,10.6776031255729));
#1185=CARTESIAN_POINT('Origin',(184.000000000001,273.3872,10.6776031255729));
#1186=CARTESIAN_POINT('',(184.000000000001,273.3872,13.6776031255729));
#1187=CARTESIAN_POINT('Origin',(186.500000000001,273.3872,13.6776031255729));
#1188=CARTESIAN_POINT('',(186.500000000001,273.3872,13.6776031255729));
#1189=CARTESIAN_POINT('Origin',(186.500000000001,273.3872,16.9276031255729));
#1190=CARTESIAN_POINT('',(189.750000000001,273.3872,16.9276031255729));
#1191=CARTESIAN_POINT('Origin',(189.750000000001,273.3872,19.4276031255729));
#1192=CARTESIAN_POINT('',(189.750000000001,273.3872,19.4276031255729));
#1193=CARTESIAN_POINT('Origin',(192.750000000001,273.3872,19.4276031255729));
#1194=CARTESIAN_POINT('',(192.750000000001,273.3872,22.4276031255729));
#1195=CARTESIAN_POINT('Origin',(175.000000000001,195.1872,4.9276031255729));
#1196=CARTESIAN_POINT('',(172.500000000001,234.2872,4.9276031255729));
#1197=CARTESIAN_POINT('Origin',(172.500000000001,234.2872,7.42760312557291));
#1198=CARTESIAN_POINT('Origin',(256.250000000001,175.1872,4.9276031255729));
#1199=CARTESIAN_POINT('',(259.750000000001,175.1872,4.9276031255729));
#1200=CARTESIAN_POINT('Origin',(256.250000000001,175.1872,4.9276031255729));
#1201=CARTESIAN_POINT('',(259.750000000001,175.1872,4.9276031255729));
#1202=CARTESIAN_POINT('Origin',(245.000000000001,273.3872,-41.5723968744271));
#1203=CARTESIAN_POINT('',(245.000000000001,234.2872,7.42760312557291));
#1204=CARTESIAN_POINT('Origin',(239.000000000001,273.3872,10.6776031255729));
#1205=CARTESIAN_POINT('',(239.000000000001,273.3872,10.6776031255729));
#1206=CARTESIAN_POINT('Origin',(236.000000000001,273.3872,10.6776031255729));
#1207=CARTESIAN_POINT('',(236.000000000001,273.3872,13.6776031255729));
#1208=CARTESIAN_POINT('Origin',(233.500000000001,273.3872,13.6776031255729));
#1209=CARTESIAN_POINT('',(233.500000000001,273.3872,13.6776031255729));
#1210=CARTESIAN_POINT('Origin',(233.500000000001,273.3872,16.9276031255729));
#1211=CARTESIAN_POINT('',(230.250000000001,273.3872,16.9276031255729));
#1212=CARTESIAN_POINT('Origin',(230.250000000001,273.3872,19.4276031255729));
#1213=CARTESIAN_POINT('',(230.250000000001,273.3872,19.4276031255729));
#1214=CARTESIAN_POINT('Origin',(227.250000000001,273.3872,19.4276031255729));
#1215=CARTESIAN_POINT('',(227.250000000001,273.3872,22.4276031255729));
#1216=CARTESIAN_POINT('Origin',(192.750000000001,273.3872,22.4276031255727));
#1217=CARTESIAN_POINT('Origin',(245.000000000001,195.1872,4.9276031255729));
#1218=CARTESIAN_POINT('',(247.500000000001,234.2872,4.9276031255729));
#1219=CARTESIAN_POINT('Origin',(247.500000000001,234.2872,7.42760312557291));
#1220=CARTESIAN_POINT('Origin',(186.500000000001,155.1872,16.9276031255728));
#1221=CARTESIAN_POINT('',(186.500000000001,155.1872,14.3276031255728));
#1222=UNCERTAINTY_MEASURE_WITH_UNIT(LENGTH_MEASURE(0.01),#1226,
'DISTANCE_ACCURACY_VALUE',
'Maximum model space distance between geometric entities at asserted c
onnectivities');
#1223=UNCERTAINTY_MEASURE_WITH_UNIT(LENGTH_MEASURE(0.01),#1226,
'DISTANCE_ACCURACY_VALUE',
'Maximum model space distance between geometric entities at asserted c
onnectivities');
#1224=(
GEOMETRIC_REPRESENTATION_CONTEXT(3)
GLOBAL_UNCERTAINTY_ASSIGNED_CONTEXT((#1222))
GLOBAL_UNIT_ASSIGNED_CONTEXT((#1226,#1228,#1229))
REPRESENTATION_CONTEXT('','3D')
);
#1225=(
GEOMETRIC_REPRESENTATION_CONTEXT(3)
GLOBAL_UNCERTAINTY_ASSIGNED_CONTEXT((#1223))
GLOBAL_UNIT_ASSIGNED_CONTEXT((#1226,#1228,#1229))
REPRESENTATION_CONTEXT('','3D')
);
#1226=(
LENGTH_UNIT()
NAMED_UNIT(*)
SI_UNIT(.MILLI.,.METRE.)
);
#1227=(
LENGTH_UNIT()
NAMED_UNIT(*)
SI_UNIT($,.METRE.)
);
#1228=(
NAMED_UNIT(*)
PLANE_ANGLE_UNIT()
SI_UNIT($,.RADIAN.)
);
#1229=(
NAMED_UNIT(*)
SI_UNIT($,.STERADIAN.)
SOLID_ANGLE_UNIT()
);
#1230=SHAPE_DEFINITION_REPRESENTATION(#1231,#1232);
#1231=PRODUCT_DEFINITION_SHAPE('',$,#1234);
#1232=SHAPE_REPRESENTATION('',(#730),#1224);
#1233=PRODUCT_DEFINITION_CONTEXT('part definition',#1238,'design');
#1234=PRODUCT_DEFINITION('2026-09-16-01-27-46-559',
'Motor Bracket Front Top Traverse',#1235,#1233);
#1235=PRODUCT_DEFINITION_FORMATION('',$,#1240);
#1236=PRODUCT_RELATED_PRODUCT_CATEGORY(
'Motor Bracket Front Top Traverse','Motor Bracket Front Top Traverse',(#1240));
#1237=APPLICATION_PROTOCOL_DEFINITION('international standard',
'automotive_design',2009,#1238);
#1238=APPLICATION_CONTEXT(
'Core Data for Automotive Mechanical Design Process');
#1239=PRODUCT_CONTEXT('part definition',#1238,'mechanical');
#1240=PRODUCT('2026-09-16-01-27-46-559',
'Motor Bracket Front Top Traverse',$,(#1239));
#1241=PRESENTATION_STYLE_ASSIGNMENT((#1243));
#1242=PRESENTATION_STYLE_ASSIGNMENT((#1244));
#1243=SURFACE_STYLE_USAGE(.BOTH.,#1245);
#1244=SURFACE_STYLE_USAGE(.BOTH.,#1246);
#1245=SURFACE_SIDE_STYLE('',(#1247));
#1246=SURFACE_SIDE_STYLE('',(#1248));
#1247=SURFACE_STYLE_FILL_AREA(#1249);
#1248=SURFACE_STYLE_FILL_AREA(#1250);
#1249=FILL_AREA_STYLE('Steel - Satin',(#1251));
#1250=FILL_AREA_STYLE(
'PA 12 - PA 2200 - 120\X\B5m - Balance (with EOS 3D printers)',(#1252));
#1251=FILL_AREA_STYLE_COLOUR('Steel - Satin',#1253);
#1252=FILL_AREA_STYLE_COLOUR(
'PA 12 - PA 2200 - 120\X\B5m - Balance (with EOS 3D printers)',#1254);
#1253=COLOUR_RGB('Steel - Satin',0.627450980392157,0.627450980392157,0.627450980392157);
#1254=COLOUR_RGB(
'PA 12 - PA 2200 - 120\X\B5m - Balance (with EOS 3D printers)',0.964705882352941,
0.964705882352941,0.952941176470588);
ENDSEC;
END-ISO-10303-21;
