ISO-10303-21;
HEADER;
/* Generated by software containing ST-Developer
 * from STEP Tools, Inc. (www.steptools.com) 
 */

FILE_DESCRIPTION(
/* description */ (''),
/* implementation_level */ '2;1');

FILE_NAME(
/* name */ 'Tension Sensor Housing.step',
/* time_stamp */ '2026-09-16T01:27:47-04:00',
/* author */ (''),
/* organization */ (''),
/* preprocessor_version */ 'ST-DEVELOPER v20.2',
/* originating_system */ 'Autodesk Translation Framework v15.15.0.0',
/* authorisation */ '');

FILE_SCHEMA (('AUTOMOTIVE_DESIGN { 1 0 10303 214 3 1 1 }'));
ENDSEC;

DATA;
#10=MECHANICAL_DESIGN_GEOMETRIC_PRESENTATION_REPRESENTATION('',(#13),#1928);
#11=SHAPE_REPRESENTATION_RELATIONSHIP('SRR','None',#1935,#12);
#12=ADVANCED_BREP_SHAPE_REPRESENTATION('',(#14),#1927);
#13=STYLED_ITEM('',(#1945),#14);
#14=MANIFOLD_SOLID_BREP('Tension Sensor Housing',#1130);
#15=B_SPLINE_SURFACE_WITH_KNOTS('',3,3,((#1865,#1866,#1867,#1868,#1869,
#1870),(#1871,#1872,#1873,#1874,#1875,#1876),(#1877,#1878,#1879,#1880,#1881,
#1882),(#1883,#1884,#1885,#1886,#1887,#1888)),.UNSPECIFIED.,.F.,.F.,.F.,
(4,4),(4,1,1,4),(0.,1.),(3.22727954358656,4.42271785689248,5.21967673242977,
6.01663560796706),.UNSPECIFIED.);
#16=B_SPLINE_CURVE_WITH_KNOTS('',3,(#1781,#1782,#1783,#1784,#1785,#1786),
 .UNSPECIFIED.,.F.,.F.,(4,2,4),(0.,0.470343862987536,0.915826377512907),
 .UNSPECIFIED.);
#17=B_SPLINE_CURVE_WITH_KNOTS('',3,(#1890,#1891,#1892,#1893,#1894,#1895),
 .UNSPECIFIED.,.F.,.F.,(4,2,4),(0.,0.425289710597812,0.843890060285209),
 .UNSPECIFIED.);
#18=B_SPLINE_CURVE_WITH_KNOTS('',3,(#1896,#1897,#1898,#1899,#1900,#1901),
 .UNSPECIFIED.,.F.,.F.,(4,1,1,4),(3.52935547051106,4.42271785689248,5.21967673242977,
6.01663560796706),.UNSPECIFIED.);
#19=FACE_BOUND('',#134,.T.);
#20=FACE_BOUND('',#135,.T.);
#21=FACE_BOUND('',#139,.T.);
#22=FACE_BOUND('',#140,.T.);
#23=FACE_BOUND('',#143,.T.);
#24=FACE_BOUND('',#144,.T.);
#25=FACE_BOUND('',#150,.T.);
#26=FACE_BOUND('',#160,.T.);
#27=FACE_BOUND('',#163,.T.);
#28=FACE_BOUND('',#167,.T.);
#29=FACE_BOUND('',#169,.T.);
#30=FACE_BOUND('',#170,.T.);
#31=FACE_BOUND('',#178,.T.);
#32=FACE_BOUND('',#179,.T.);
#33=FACE_BOUND('',#184,.T.);
#34=FACE_BOUND('',#185,.T.);
#35=FACE_BOUND('',#202,.T.);
#36=FACE_BOUND('',#204,.T.);
#37=PLANE('',#1147);
#38=PLANE('',#1152);
#39=PLANE('',#1156);
#40=PLANE('',#1161);
#41=PLANE('',#1171);
#42=PLANE('',#1172);
#43=PLANE('',#1177);
#44=PLANE('',#1178);
#45=PLANE('',#1179);
#46=PLANE('',#1180);
#47=PLANE('',#1186);
#48=PLANE('',#1189);
#49=PLANE('',#1192);
#50=PLANE('',#1193);
#51=PLANE('',#1194);
#52=PLANE('',#1195);
#53=PLANE('',#1196);
#54=PLANE('',#1199);
#55=PLANE('',#1200);
#56=PLANE('',#1201);
#57=PLANE('',#1204);
#58=PLANE('',#1206);
#59=PLANE('',#1208);
#60=PLANE('',#1210);
#61=PLANE('',#1211);
#62=PLANE('',#1212);
#63=PLANE('',#1213);
#64=PLANE('',#1215);
#65=PLANE('',#1217);
#66=PLANE('',#1219);
#67=PLANE('',#1227);
#68=PLANE('',#1228);
#69=PLANE('',#1238);
#70=PLANE('',#1239);
#71=PLANE('',#1243);
#72=PLANE('',#1244);
#73=PLANE('',#1245);
#74=PLANE('',#1246);
#75=FACE_OUTER_BOUND('',#132,.T.);
#76=FACE_OUTER_BOUND('',#133,.T.);
#77=FACE_OUTER_BOUND('',#136,.T.);
#78=FACE_OUTER_BOUND('',#137,.T.);
#79=FACE_OUTER_BOUND('',#138,.T.);
#80=FACE_OUTER_BOUND('',#141,.T.);
#81=FACE_OUTER_BOUND('',#142,.T.);
#82=FACE_OUTER_BOUND('',#145,.T.);
#83=FACE_OUTER_BOUND('',#146,.T.);
#84=FACE_OUTER_BOUND('',#147,.T.);
#85=FACE_OUTER_BOUND('',#148,.T.);
#86=FACE_OUTER_BOUND('',#149,.T.);
#87=FACE_OUTER_BOUND('',#151,.T.);
#88=FACE_OUTER_BOUND('',#152,.T.);
#89=FACE_OUTER_BOUND('',#153,.T.);
#90=FACE_OUTER_BOUND('',#154,.T.);
#91=FACE_OUTER_BOUND('',#155,.T.);
#92=FACE_OUTER_BOUND('',#156,.T.);
#93=FACE_OUTER_BOUND('',#157,.T.);
#94=FACE_OUTER_BOUND('',#158,.T.);
#95=FACE_OUTER_BOUND('',#159,.T.);
#96=FACE_OUTER_BOUND('',#161,.T.);
#97=FACE_OUTER_BOUND('',#162,.T.);
#98=FACE_OUTER_BOUND('',#164,.T.);
#99=FACE_OUTER_BOUND('',#165,.T.);
#100=FACE_OUTER_BOUND('',#166,.T.);
#101=FACE_OUTER_BOUND('',#168,.T.);
#102=FACE_OUTER_BOUND('',#171,.T.);
#103=FACE_OUTER_BOUND('',#172,.T.);
#104=FACE_OUTER_BOUND('',#173,.T.);
#105=FACE_OUTER_BOUND('',#174,.T.);
#106=FACE_OUTER_BOUND('',#175,.T.);
#107=FACE_OUTER_BOUND('',#176,.T.);
#108=FACE_OUTER_BOUND('',#177,.T.);
#109=FACE_OUTER_BOUND('',#180,.T.);
#110=FACE_OUTER_BOUND('',#181,.T.);
#111=FACE_OUTER_BOUND('',#182,.T.);
#112=FACE_OUTER_BOUND('',#183,.T.);
#113=FACE_OUTER_BOUND('',#186,.T.);
#114=FACE_OUTER_BOUND('',#187,.T.);
#115=FACE_OUTER_BOUND('',#188,.T.);
#116=FACE_OUTER_BOUND('',#189,.T.);
#117=FACE_OUTER_BOUND('',#190,.T.);
#118=FACE_OUTER_BOUND('',#191,.T.);
#119=FACE_OUTER_BOUND('',#192,.T.);
#120=FACE_OUTER_BOUND('',#193,.T.);
#121=FACE_OUTER_BOUND('',#194,.T.);
#122=FACE_OUTER_BOUND('',#195,.T.);
#123=FACE_OUTER_BOUND('',#196,.T.);
#124=FACE_OUTER_BOUND('',#197,.T.);
#125=FACE_OUTER_BOUND('',#198,.T.);
#126=FACE_OUTER_BOUND('',#199,.T.);
#127=FACE_OUTER_BOUND('',#200,.T.);
#128=FACE_OUTER_BOUND('',#201,.T.);
#129=FACE_OUTER_BOUND('',#203,.T.);
#130=FACE_OUTER_BOUND('',#205,.T.);
#131=FACE_OUTER_BOUND('',#206,.T.);
#132=EDGE_LOOP('',(#737,#738,#739));
#133=EDGE_LOOP('',(#740,#741,#742,#743,#744,#745,#746,#747,#748,#749,#750,
#751,#752,#753));
#134=EDGE_LOOP('',(#754));
#135=EDGE_LOOP('',(#755));
#136=EDGE_LOOP('',(#756,#757,#758,#759));
#137=EDGE_LOOP('',(#760,#761,#762,#763));
#138=EDGE_LOOP('',(#764,#765,#766,#767,#768,#769));
#139=EDGE_LOOP('',(#770));
#140=EDGE_LOOP('',(#771));
#141=EDGE_LOOP('',(#772,#773,#774,#775));
#142=EDGE_LOOP('',(#776,#777,#778,#779));
#143=EDGE_LOOP('',(#780));
#144=EDGE_LOOP('',(#781));
#145=EDGE_LOOP('',(#782,#783,#784,#785));
#146=EDGE_LOOP('',(#786,#787,#788,#789));
#147=EDGE_LOOP('',(#790,#791,#792,#793));
#148=EDGE_LOOP('',(#794,#795,#796,#797));
#149=EDGE_LOOP('',(#798,#799,#800,#801));
#150=EDGE_LOOP('',(#802));
#151=EDGE_LOOP('',(#803,#804,#805,#806));
#152=EDGE_LOOP('',(#807,#808,#809,#810));
#153=EDGE_LOOP('',(#811,#812,#813,#814));
#154=EDGE_LOOP('',(#815,#816,#817,#818));
#155=EDGE_LOOP('',(#819,#820,#821,#822));
#156=EDGE_LOOP('',(#823,#824,#825,#826));
#157=EDGE_LOOP('',(#827,#828,#829,#830));
#158=EDGE_LOOP('',(#831,#832,#833,#834));
#159=EDGE_LOOP('',(#835));
#160=EDGE_LOOP('',(#836));
#161=EDGE_LOOP('',(#837,#838,#839,#840));
#162=EDGE_LOOP('',(#841));
#163=EDGE_LOOP('',(#842));
#164=EDGE_LOOP('',(#843,#844,#845,#846));
#165=EDGE_LOOP('',(#847,#848,#849,#850,#851,#852,#853,#854,#855,#856));
#166=EDGE_LOOP('',(#857,#858,#859,#860));
#167=EDGE_LOOP('',(#861));
#168=EDGE_LOOP('',(#862,#863,#864,#865));
#169=EDGE_LOOP('',(#866));
#170=EDGE_LOOP('',(#867));
#171=EDGE_LOOP('',(#868,#869,#870,#871));
#172=EDGE_LOOP('',(#872,#873,#874,#875,#876,#877,#878,#879,#880,#881));
#173=EDGE_LOOP('',(#882,#883,#884,#885));
#174=EDGE_LOOP('',(#886,#887,#888,#889));
#175=EDGE_LOOP('',(#890,#891,#892,#893));
#176=EDGE_LOOP('',(#894,#895,#896,#897));
#177=EDGE_LOOP('',(#898,#899,#900,#901,#902,#903,#904,#905,#906,#907,#908,
#909,#910,#911));
#178=EDGE_LOOP('',(#912));
#179=EDGE_LOOP('',(#913));
#180=EDGE_LOOP('',(#914,#915,#916,#917));
#181=EDGE_LOOP('',(#918,#919,#920,#921));
#182=EDGE_LOOP('',(#922,#923,#924,#925,#926,#927,#928,#929,#930));
#183=EDGE_LOOP('',(#931,#932,#933,#934,#935,#936,#937,#938,#939,#940,#941,
#942,#943));
#184=EDGE_LOOP('',(#944));
#185=EDGE_LOOP('',(#945));
#186=EDGE_LOOP('',(#946,#947,#948,#949));
#187=EDGE_LOOP('',(#950,#951,#952,#953));
#188=EDGE_LOOP('',(#954,#955,#956));
#189=EDGE_LOOP('',(#957,#958,#959));
#190=EDGE_LOOP('',(#960,#961,#962,#963));
#191=EDGE_LOOP('',(#964,#965,#966,#967));
#192=EDGE_LOOP('',(#968,#969,#970,#971,#972,#973,#974,#975,#976,#977,#978,
#979,#980,#981,#982,#983));
#193=EDGE_LOOP('',(#984,#985,#986,#987,#988,#989,#990));
#194=EDGE_LOOP('',(#991,#992,#993,#994,#995,#996,#997));
#195=EDGE_LOOP('',(#998,#999,#1000,#1001));
#196=EDGE_LOOP('',(#1002,#1003,#1004,#1005));
#197=EDGE_LOOP('',(#1006,#1007,#1008,#1009,#1010,#1011,#1012,#1013,#1014,
#1015,#1016,#1017,#1018,#1019));
#198=EDGE_LOOP('',(#1020,#1021,#1022,#1023,#1024,#1025,#1026));
#199=EDGE_LOOP('',(#1027,#1028,#1029,#1030,#1031,#1032,#1033,#1034,#1035,
#1036,#1037,#1038,#1039,#1040));
#200=EDGE_LOOP('',(#1041,#1042,#1043,#1044));
#201=EDGE_LOOP('',(#1045));
#202=EDGE_LOOP('',(#1046));
#203=EDGE_LOOP('',(#1047));
#204=EDGE_LOOP('',(#1048));
#205=EDGE_LOOP('',(#1049,#1050,#1051,#1052));
#206=EDGE_LOOP('',(#1053,#1054));
#207=ELLIPSE('',#1146,7.93215510890003,7.5);
#208=ELLIPSE('',#1209,7.93215510890003,7.5);
#209=ELLIPSE('',#1218,15.3577674337862,5.);
#210=ELLIPSE('',#1220,7.93215510890003,7.5);
#211=ELLIPSE('',#1230,3.17286204356001,3.);
#212=ELLIPSE('',#1233,7.93215510890003,7.5);
#213=ELLIPSE('',#1235,7.93215510890003,7.5);
#214=CIRCLE('',#1145,7.5);
#215=CIRCLE('',#1148,6.);
#216=CIRCLE('',#1149,6.);
#217=CIRCLE('',#1150,4.25);
#218=CIRCLE('',#1151,4.25);
#219=CIRCLE('',#1154,1.65);
#220=CIRCLE('',#1155,1.65);
#221=CIRCLE('',#1157,1.65);
#222=CIRCLE('',#1159,2.5);
#223=CIRCLE('',#1160,2.5);
#224=CIRCLE('',#1162,2.09999999999999);
#225=CIRCLE('',#1163,2.1);
#226=CIRCLE('',#1165,2.1);
#227=CIRCLE('',#1167,2.09999999999999);
#228=CIRCLE('',#1169,1.65);
#229=CIRCLE('',#1170,1.65);
#230=CIRCLE('',#1174,6.);
#231=CIRCLE('',#1176,6.);
#232=CIRCLE('',#1182,1.65);
#233=CIRCLE('',#1184,2.5);
#234=CIRCLE('',#1185,2.5);
#235=CIRCLE('',#1187,4.25);
#236=CIRCLE('',#1190,4.25);
#237=CIRCLE('',#1197,0.25);
#238=CIRCLE('',#1198,0.25);
#239=CIRCLE('',#1203,0.25);
#240=CIRCLE('',#1205,0.25);
#241=CIRCLE('',#1214,5.);
#242=CIRCLE('',#1216,5.);
#243=CIRCLE('',#1222,5.);
#244=CIRCLE('',#1223,5.);
#245=CIRCLE('',#1224,5.);
#246=CIRCLE('',#1225,5.);
#247=CIRCLE('',#1226,5.);
#248=CIRCLE('',#1231,3.);
#249=CIRCLE('',#1234,7.5);
#250=CIRCLE('',#1236,7.5);
#251=CIRCLE('',#1237,7.5);
#252=CIRCLE('',#1241,5.50000000000001);
#253=CIRCLE('',#1242,5.50000000000001);
#254=LINE('',#1568,#363);
#255=LINE('',#1575,#364);
#256=LINE('',#1577,#365);
#257=LINE('',#1579,#366);
#258=LINE('',#1581,#367);
#259=LINE('',#1583,#368);
#260=LINE('',#1589,#369);
#261=LINE('',#1591,#370);
#262=LINE('',#1593,#371);
#263=LINE('',#1595,#372);
#264=LINE('',#1597,#373);
#265=LINE('',#1599,#374);
#266=LINE('',#1600,#375);
#267=LINE('',#1607,#376);
#268=LINE('',#1609,#377);
#269=LINE('',#1610,#378);
#270=LINE('',#1615,#379);
#271=LINE('',#1619,#380);
#272=LINE('',#1621,#381);
#273=LINE('',#1623,#382);
#274=LINE('',#1625,#383);
#275=LINE('',#1626,#384);
#276=LINE('',#1633,#385);
#277=LINE('',#1638,#386);
#278=LINE('',#1640,#387);
#279=LINE('',#1642,#388);
#280=LINE('',#1643,#389);
#281=LINE('',#1651,#390);
#282=LINE('',#1655,#391);
#283=LINE('',#1660,#392);
#284=LINE('',#1664,#393);
#285=LINE('',#1665,#394);
#286=LINE('',#1669,#395);
#287=LINE('',#1670,#396);
#288=LINE('',#1671,#397);
#289=LINE('',#1674,#398);
#290=LINE('',#1681,#399);
#291=LINE('',#1683,#400);
#292=LINE('',#1685,#401);
#293=LINE('',#1686,#402);
#294=LINE('',#1688,#403);
#295=LINE('',#1689,#404);
#296=LINE('',#1691,#405);
#297=LINE('',#1692,#406);
#298=LINE('',#1696,#407);
#299=LINE('',#1702,#408);
#300=LINE('',#1708,#409);
#301=LINE('',#1713,#410);
#302=LINE('',#1716,#411);
#303=LINE('',#1718,#412);
#304=LINE('',#1720,#413);
#305=LINE('',#1722,#414);
#306=LINE('',#1723,#415);
#307=LINE('',#1724,#416);
#308=LINE('',#1727,#417);
#309=LINE('',#1728,#418);
#310=LINE('',#1730,#419);
#311=LINE('',#1734,#420);
#312=LINE('',#1735,#421);
#313=LINE('',#1736,#422);
#314=LINE('',#1742,#423);
#315=LINE('',#1744,#424);
#316=LINE('',#1746,#425);
#317=LINE('',#1749,#426);
#318=LINE('',#1751,#427);
#319=LINE('',#1752,#428);
#320=LINE('',#1754,#429);
#321=LINE('',#1758,#430);
#322=LINE('',#1759,#431);
#323=LINE('',#1760,#432);
#324=LINE('',#1763,#433);
#325=LINE('',#1764,#434);
#326=LINE('',#1771,#435);
#327=LINE('',#1772,#436);
#328=LINE('',#1774,#437);
#329=LINE('',#1776,#438);
#330=LINE('',#1779,#439);
#331=LINE('',#1788,#440);
#332=LINE('',#1791,#441);
#333=LINE('',#1792,#442);
#334=LINE('',#1796,#443);
#335=LINE('',#1798,#444);
#336=LINE('',#1800,#445);
#337=LINE('',#1801,#446);
#338=LINE('',#1805,#447);
#339=LINE('',#1807,#448);
#340=LINE('',#1809,#449);
#341=LINE('',#1810,#450);
#342=LINE('',#1813,#451);
#343=LINE('',#1817,#452);
#344=LINE('',#1824,#453);
#345=LINE('',#1826,#454);
#346=LINE('',#1827,#455);
#347=LINE('',#1832,#456);
#348=LINE('',#1833,#457);
#349=LINE('',#1838,#458);
#350=LINE('',#1842,#459);
#351=LINE('',#1846,#460);
#352=LINE('',#1848,#461);
#353=LINE('',#1849,#462);
#354=LINE('',#1853,#463);
#355=LINE('',#1854,#464);
#356=LINE('',#1857,#465);
#357=LINE('',#1858,#466);
#358=LINE('',#1864,#467);
#359=LINE('',#1906,#468);
#360=LINE('',#1913,#469);
#361=LINE('',#1918,#470);
#362=LINE('',#1923,#471);
#363=VECTOR('',#1251,7.5);
#364=VECTOR('',#1258,10.);
#365=VECTOR('',#1259,10.);
#366=VECTOR('',#1260,10.);
#367=VECTOR('',#1261,10.);
#368=VECTOR('',#1262,10.);
#369=VECTOR('',#1267,10.);
#370=VECTOR('',#1268,10.);
#371=VECTOR('',#1269,10.);
#372=VECTOR('',#1270,10.);
#373=VECTOR('',#1271,10.);
#374=VECTOR('',#1272,10.);
#375=VECTOR('',#1273,10.);
#376=VECTOR('',#1280,10.);
#377=VECTOR('',#1281,10.);
#378=VECTOR('',#1282,6.);
#379=VECTOR('',#1287,1.65);
#380=VECTOR('',#1292,10.);
#381=VECTOR('',#1293,10.);
#382=VECTOR('',#1294,10.);
#383=VECTOR('',#1295,10.);
#384=VECTOR('',#1296,10.);
#385=VECTOR('',#1303,2.5);
#386=VECTOR('',#1308,10.);
#387=VECTOR('',#1309,10.);
#388=VECTOR('',#1310,10.);
#389=VECTOR('',#1311,10.);
#390=VECTOR('',#1320,2.1);
#391=VECTOR('',#1325,2.09999999999999);
#392=VECTOR('',#1330,1.65);
#393=VECTOR('',#1335,10.);
#394=VECTOR('',#1336,10.);
#395=VECTOR('',#1339,10.);
#396=VECTOR('',#1340,10.);
#397=VECTOR('',#1341,10.);
#398=VECTOR('',#1344,6.);
#399=VECTOR('',#1353,10.);
#400=VECTOR('',#1354,10.);
#401=VECTOR('',#1355,10.);
#402=VECTOR('',#1356,10.);
#403=VECTOR('',#1359,10.);
#404=VECTOR('',#1360,10.);
#405=VECTOR('',#1363,10.);
#406=VECTOR('',#1364,10.);
#407=VECTOR('',#1369,1.65);
#408=VECTOR('',#1376,2.5);
#409=VECTOR('',#1385,4.25);
#410=VECTOR('',#1392,4.25);
#411=VECTOR('',#1395,10.);
#412=VECTOR('',#1396,10.);
#413=VECTOR('',#1397,10.);
#414=VECTOR('',#1398,10.);
#415=VECTOR('',#1399,10.);
#416=VECTOR('',#1400,10.);
#417=VECTOR('',#1403,10.);
#418=VECTOR('',#1404,10.);
#419=VECTOR('',#1407,10.);
#420=VECTOR('',#1410,10.);
#421=VECTOR('',#1411,10.);
#422=VECTOR('',#1412,10.);
#423=VECTOR('',#1417,10.);
#424=VECTOR('',#1418,10.);
#425=VECTOR('',#1419,10.);
#426=VECTOR('',#1422,10.);
#427=VECTOR('',#1423,10.);
#428=VECTOR('',#1424,10.);
#429=VECTOR('',#1427,10.);
#430=VECTOR('',#1430,10.);
#431=VECTOR('',#1431,10.);
#432=VECTOR('',#1432,10.);
#433=VECTOR('',#1435,10.);
#434=VECTOR('',#1436,10.);
#435=VECTOR('',#1445,10.);
#436=VECTOR('',#1446,10.);
#437=VECTOR('',#1449,10.);
#438=VECTOR('',#1452,10.);
#439=VECTOR('',#1455,10.);
#440=VECTOR('',#1458,10.);
#441=VECTOR('',#1461,10.);
#442=VECTOR('',#1462,10.);
#443=VECTOR('',#1465,10.);
#444=VECTOR('',#1466,10.);
#445=VECTOR('',#1467,10.);
#446=VECTOR('',#1468,10.);
#447=VECTOR('',#1471,10.);
#448=VECTOR('',#1472,10.);
#449=VECTOR('',#1473,10.);
#450=VECTOR('',#1474,10.);
#451=VECTOR('',#1477,10.);
#452=VECTOR('',#1482,10.);
#453=VECTOR('',#1489,10.);
#454=VECTOR('',#1490,10.);
#455=VECTOR('',#1491,10.);
#456=VECTOR('',#1496,10.);
#457=VECTOR('',#1497,10.);
#458=VECTOR('',#1502,5.);
#459=VECTOR('',#1505,10.);
#460=VECTOR('',#1508,10.);
#461=VECTOR('',#1511,10.);
#462=VECTOR('',#1512,10.);
#463=VECTOR('',#1517,10.);
#464=VECTOR('',#1518,10.);
#465=VECTOR('',#1521,10.);
#466=VECTOR('',#1522,10.);
#467=VECTOR('',#1529,10.);
#468=VECTOR('',#1534,7.5);
#469=VECTOR('',#1547,10.);
#470=VECTOR('',#1552,5.50000000000001);
#471=VECTOR('',#1561,10.);
#472=VERTEX_POINT('',#1566);
#473=VERTEX_POINT('',#1567);
#474=VERTEX_POINT('',#1569);
#475=VERTEX_POINT('',#1573);
#476=VERTEX_POINT('',#1574);
#477=VERTEX_POINT('',#1576);
#478=VERTEX_POINT('',#1578);
#479=VERTEX_POINT('',#1580);
#480=VERTEX_POINT('',#1582);
#481=VERTEX_POINT('',#1584);
#482=VERTEX_POINT('',#1586);
#483=VERTEX_POINT('',#1588);
#484=VERTEX_POINT('',#1590);
#485=VERTEX_POINT('',#1592);
#486=VERTEX_POINT('',#1594);
#487=VERTEX_POINT('',#1596);
#488=VERTEX_POINT('',#1598);
#489=VERTEX_POINT('',#1601);
#490=VERTEX_POINT('',#1603);
#491=VERTEX_POINT('',#1606);
#492=VERTEX_POINT('',#1608);
#493=VERTEX_POINT('',#1612);
#494=VERTEX_POINT('',#1614);
#495=VERTEX_POINT('',#1618);
#496=VERTEX_POINT('',#1620);
#497=VERTEX_POINT('',#1622);
#498=VERTEX_POINT('',#1624);
#499=VERTEX_POINT('',#1627);
#500=VERTEX_POINT('',#1630);
#501=VERTEX_POINT('',#1632);
#502=VERTEX_POINT('',#1636);
#503=VERTEX_POINT('',#1637);
#504=VERTEX_POINT('',#1639);
#505=VERTEX_POINT('',#1641);
#506=VERTEX_POINT('',#1644);
#507=VERTEX_POINT('',#1646);
#508=VERTEX_POINT('',#1649);
#509=VERTEX_POINT('',#1653);
#510=VERTEX_POINT('',#1657);
#511=VERTEX_POINT('',#1659);
#512=VERTEX_POINT('',#1663);
#513=VERTEX_POINT('',#1667);
#514=VERTEX_POINT('',#1668);
#515=VERTEX_POINT('',#1673);
#516=VERTEX_POINT('',#1679);
#517=VERTEX_POINT('',#1680);
#518=VERTEX_POINT('',#1682);
#519=VERTEX_POINT('',#1684);
#520=VERTEX_POINT('',#1695);
#521=VERTEX_POINT('',#1699);
#522=VERTEX_POINT('',#1701);
#523=VERTEX_POINT('',#1705);
#524=VERTEX_POINT('',#1710);
#525=VERTEX_POINT('',#1715);
#526=VERTEX_POINT('',#1717);
#527=VERTEX_POINT('',#1719);
#528=VERTEX_POINT('',#1721);
#529=VERTEX_POINT('',#1726);
#530=VERTEX_POINT('',#1732);
#531=VERTEX_POINT('',#1733);
#532=VERTEX_POINT('',#1738);
#533=VERTEX_POINT('',#1739);
#534=VERTEX_POINT('',#1741);
#535=VERTEX_POINT('',#1743);
#536=VERTEX_POINT('',#1745);
#537=VERTEX_POINT('',#1748);
#538=VERTEX_POINT('',#1750);
#539=VERTEX_POINT('',#1756);
#540=VERTEX_POINT('',#1757);
#541=VERTEX_POINT('',#1762);
#542=VERTEX_POINT('',#1768);
#543=VERTEX_POINT('',#1769);
#544=VERTEX_POINT('',#1778);
#545=VERTEX_POINT('',#1780);
#546=VERTEX_POINT('',#1790);
#547=VERTEX_POINT('',#1794);
#548=VERTEX_POINT('',#1795);
#549=VERTEX_POINT('',#1797);
#550=VERTEX_POINT('',#1799);
#551=VERTEX_POINT('',#1803);
#552=VERTEX_POINT('',#1804);
#553=VERTEX_POINT('',#1806);
#554=VERTEX_POINT('',#1808);
#555=VERTEX_POINT('',#1812);
#556=VERTEX_POINT('',#1816);
#557=VERTEX_POINT('',#1820);
#558=VERTEX_POINT('',#1821);
#559=VERTEX_POINT('',#1823);
#560=VERTEX_POINT('',#1825);
#561=VERTEX_POINT('',#1829);
#562=VERTEX_POINT('',#1830);
#563=VERTEX_POINT('',#1835);
#564=VERTEX_POINT('',#1837);
#565=VERTEX_POINT('',#1839);
#566=VERTEX_POINT('',#1841);
#567=VERTEX_POINT('',#1843);
#568=VERTEX_POINT('',#1845);
#569=VERTEX_POINT('',#1852);
#570=VERTEX_POINT('',#1856);
#571=VERTEX_POINT('',#1860);
#572=VERTEX_POINT('',#1862);
#573=VERTEX_POINT('',#1889);
#574=VERTEX_POINT('',#1903);
#575=VERTEX_POINT('',#1905);
#576=VERTEX_POINT('',#1915);
#577=VERTEX_POINT('',#1917);
#578=EDGE_CURVE('',#472,#473,#254,.T.);
#579=EDGE_CURVE('',#474,#472,#214,.T.);
#580=EDGE_CURVE('',#474,#473,#207,.T.);
#581=EDGE_CURVE('',#475,#476,#255,.T.);
#582=EDGE_CURVE('',#477,#476,#256,.T.);
#583=EDGE_CURVE('',#478,#477,#257,.T.);
#584=EDGE_CURVE('',#478,#479,#258,.T.);
#585=EDGE_CURVE('',#480,#479,#259,.T.);
#586=EDGE_CURVE('',#481,#480,#215,.T.);
#587=EDGE_CURVE('',#482,#481,#216,.T.);
#588=EDGE_CURVE('',#483,#482,#260,.T.);
#589=EDGE_CURVE('',#484,#483,#261,.T.);
#590=EDGE_CURVE('',#484,#485,#262,.T.);
#591=EDGE_CURVE('',#485,#486,#263,.T.);
#592=EDGE_CURVE('',#486,#487,#264,.T.);
#593=EDGE_CURVE('',#487,#488,#265,.T.);
#594=EDGE_CURVE('',#488,#475,#266,.T.);
#595=EDGE_CURVE('',#489,#489,#217,.T.);
#596=EDGE_CURVE('',#490,#490,#218,.T.);
#597=EDGE_CURVE('',#479,#491,#267,.T.);
#598=EDGE_CURVE('',#492,#491,#268,.T.);
#599=EDGE_CURVE('',#480,#492,#269,.T.);
#600=EDGE_CURVE('',#493,#493,#219,.T.);
#601=EDGE_CURVE('',#493,#494,#270,.T.);
#602=EDGE_CURVE('',#494,#494,#220,.T.);
#603=EDGE_CURVE('',#495,#482,#271,.T.);
#604=EDGE_CURVE('',#495,#496,#272,.T.);
#605=EDGE_CURVE('',#496,#497,#273,.T.);
#606=EDGE_CURVE('',#497,#498,#274,.T.);
#607=EDGE_CURVE('',#498,#483,#275,.T.);
#608=EDGE_CURVE('',#499,#499,#221,.T.);
#609=EDGE_CURVE('',#500,#500,#222,.T.);
#610=EDGE_CURVE('',#500,#501,#276,.T.);
#611=EDGE_CURVE('',#501,#501,#223,.T.);
#612=EDGE_CURVE('',#502,#503,#277,.T.);
#613=EDGE_CURVE('',#504,#503,#278,.T.);
#614=EDGE_CURVE('',#504,#505,#279,.T.);
#615=EDGE_CURVE('',#505,#502,#280,.T.);
#616=EDGE_CURVE('',#506,#506,#224,.T.);
#617=EDGE_CURVE('',#507,#507,#225,.T.);
#618=EDGE_CURVE('',#508,#508,#226,.T.);
#619=EDGE_CURVE('',#508,#507,#281,.T.);
#620=EDGE_CURVE('',#509,#509,#227,.T.);
#621=EDGE_CURVE('',#509,#506,#282,.T.);
#622=EDGE_CURVE('',#510,#510,#228,.T.);
#623=EDGE_CURVE('',#510,#511,#283,.T.);
#624=EDGE_CURVE('',#511,#511,#229,.T.);
#625=EDGE_CURVE('',#512,#498,#284,.T.);
#626=EDGE_CURVE('',#484,#512,#285,.T.);
#627=EDGE_CURVE('',#513,#514,#286,.T.);
#628=EDGE_CURVE('',#514,#505,#287,.T.);
#629=EDGE_CURVE('',#504,#513,#288,.T.);
#630=EDGE_CURVE('',#515,#481,#289,.T.);
#631=EDGE_CURVE('',#515,#495,#230,.T.);
#632=EDGE_CURVE('',#492,#515,#231,.T.);
#633=EDGE_CURVE('',#516,#517,#290,.T.);
#634=EDGE_CURVE('',#518,#517,#291,.T.);
#635=EDGE_CURVE('',#518,#519,#292,.T.);
#636=EDGE_CURVE('',#519,#516,#293,.T.);
#637=EDGE_CURVE('',#517,#485,#294,.T.);
#638=EDGE_CURVE('',#486,#516,#295,.T.);
#639=EDGE_CURVE('',#487,#519,#296,.T.);
#640=EDGE_CURVE('',#488,#518,#297,.T.);
#641=EDGE_CURVE('',#499,#520,#298,.T.);
#642=EDGE_CURVE('',#520,#520,#232,.T.);
#643=EDGE_CURVE('',#521,#521,#233,.T.);
#644=EDGE_CURVE('',#521,#522,#299,.T.);
#645=EDGE_CURVE('',#522,#522,#234,.T.);
#646=EDGE_CURVE('',#523,#523,#235,.T.);
#647=EDGE_CURVE('',#489,#523,#300,.T.);
#648=EDGE_CURVE('',#524,#524,#236,.T.);
#649=EDGE_CURVE('',#490,#524,#301,.T.);
#650=EDGE_CURVE('',#525,#513,#302,.T.);
#651=EDGE_CURVE('',#503,#526,#303,.T.);
#652=EDGE_CURVE('',#527,#526,#304,.T.);
#653=EDGE_CURVE('',#528,#527,#305,.T.);
#654=EDGE_CURVE('',#512,#528,#306,.T.);
#655=EDGE_CURVE('',#525,#497,#307,.T.);
#656=EDGE_CURVE('',#529,#525,#308,.T.);
#657=EDGE_CURVE('',#529,#496,#309,.T.);
#658=EDGE_CURVE('',#514,#529,#310,.T.);
#659=EDGE_CURVE('',#530,#531,#311,.T.);
#660=EDGE_CURVE('',#530,#528,#312,.T.);
#661=EDGE_CURVE('',#531,#527,#313,.T.);
#662=EDGE_CURVE('',#532,#533,#237,.T.);
#663=EDGE_CURVE('',#532,#534,#314,.T.);
#664=EDGE_CURVE('',#534,#535,#315,.T.);
#665=EDGE_CURVE('',#535,#536,#316,.T.);
#666=EDGE_CURVE('',#531,#536,#238,.T.);
#667=EDGE_CURVE('',#526,#537,#317,.T.);
#668=EDGE_CURVE('',#537,#538,#318,.T.);
#669=EDGE_CURVE('',#538,#533,#319,.T.);
#670=EDGE_CURVE('',#502,#537,#320,.T.);
#671=EDGE_CURVE('',#539,#540,#321,.T.);
#672=EDGE_CURVE('',#539,#535,#322,.T.);
#673=EDGE_CURVE('',#534,#540,#323,.T.);
#674=EDGE_CURVE('',#536,#541,#324,.T.);
#675=EDGE_CURVE('',#541,#539,#325,.T.);
#676=EDGE_CURVE('',#541,#530,#239,.T.);
#677=EDGE_CURVE('',#542,#543,#240,.T.);
#678=EDGE_CURVE('',#475,#542,#326,.T.);
#679=EDGE_CURVE('',#540,#543,#327,.T.);
#680=EDGE_CURVE('',#543,#532,#328,.T.);
#681=EDGE_CURVE('',#533,#542,#329,.T.);
#682=EDGE_CURVE('',#544,#538,#330,.T.);
#683=EDGE_CURVE('',#545,#544,#16,.T.);
#684=EDGE_CURVE('',#473,#545,#208,.T.);
#685=EDGE_CURVE('',#476,#474,#331,.T.);
#686=EDGE_CURVE('',#546,#491,#332,.T.);
#687=EDGE_CURVE('',#544,#546,#333,.T.);
#688=EDGE_CURVE('',#547,#548,#334,.T.);
#689=EDGE_CURVE('',#548,#549,#335,.T.);
#690=EDGE_CURVE('',#550,#549,#336,.T.);
#691=EDGE_CURVE('',#547,#550,#337,.T.);
#692=EDGE_CURVE('',#551,#552,#338,.T.);
#693=EDGE_CURVE('',#553,#552,#339,.T.);
#694=EDGE_CURVE('',#553,#554,#340,.T.);
#695=EDGE_CURVE('',#554,#551,#341,.T.);
#696=EDGE_CURVE('',#555,#547,#342,.T.);
#697=EDGE_CURVE('',#550,#555,#241,.T.);
#698=EDGE_CURVE('',#552,#556,#343,.T.);
#699=EDGE_CURVE('',#556,#553,#242,.T.);
#700=EDGE_CURVE('',#557,#558,#209,.T.);
#701=EDGE_CURVE('',#559,#557,#344,.T.);
#702=EDGE_CURVE('',#560,#559,#345,.T.);
#703=EDGE_CURVE('',#560,#558,#346,.T.);
#704=EDGE_CURVE('',#561,#562,#210,.T.);
#705=EDGE_CURVE('',#560,#561,#347,.T.);
#706=EDGE_CURVE('',#559,#562,#348,.T.);
#707=EDGE_CURVE('',#563,#563,#243,.T.);
#708=EDGE_CURVE('',#563,#564,#349,.T.);
#709=EDGE_CURVE('',#565,#564,#244,.T.);
#710=EDGE_CURVE('',#566,#565,#350,.T.);
#711=EDGE_CURVE('',#566,#567,#245,.T.);
#712=EDGE_CURVE('',#567,#568,#351,.T.);
#713=EDGE_CURVE('',#554,#568,#246,.T.);
#714=EDGE_CURVE('',#556,#557,#352,.T.);
#715=EDGE_CURVE('',#558,#555,#353,.T.);
#716=EDGE_CURVE('',#564,#549,#247,.T.);
#717=EDGE_CURVE('',#548,#569,#354,.T.);
#718=EDGE_CURVE('',#569,#561,#355,.T.);
#719=EDGE_CURVE('',#570,#551,#356,.T.);
#720=EDGE_CURVE('',#562,#570,#357,.T.);
#721=EDGE_CURVE('',#571,#478,#211,.T.);
#722=EDGE_CURVE('',#477,#572,#248,.T.);
#723=EDGE_CURVE('',#572,#571,#358,.T.);
#724=EDGE_CURVE('',#573,#546,#17,.F.);
#725=EDGE_CURVE('',#573,#545,#18,.T.);
#726=EDGE_CURVE('',#573,#574,#212,.T.);
#727=EDGE_CURVE('',#574,#575,#359,.T.);
#728=EDGE_CURVE('',#575,#575,#249,.T.);
#729=EDGE_CURVE('',#574,#571,#213,.T.);
#730=EDGE_CURVE('',#569,#572,#250,.T.);
#731=EDGE_CURVE('',#472,#570,#251,.T.);
#732=EDGE_CURVE('',#568,#565,#360,.T.);
#733=EDGE_CURVE('',#576,#576,#252,.T.);
#734=EDGE_CURVE('',#576,#577,#361,.T.);
#735=EDGE_CURVE('',#577,#577,#253,.T.);
#736=EDGE_CURVE('',#567,#566,#362,.T.);
#737=ORIENTED_EDGE('',*,*,#578,.F.);
#738=ORIENTED_EDGE('',*,*,#579,.F.);
#739=ORIENTED_EDGE('',*,*,#580,.T.);
#740=ORIENTED_EDGE('',*,*,#581,.T.);
#741=ORIENTED_EDGE('',*,*,#582,.F.);
#742=ORIENTED_EDGE('',*,*,#583,.F.);
#743=ORIENTED_EDGE('',*,*,#584,.T.);
#744=ORIENTED_EDGE('',*,*,#585,.F.);
#745=ORIENTED_EDGE('',*,*,#586,.F.);
#746=ORIENTED_EDGE('',*,*,#587,.F.);
#747=ORIENTED_EDGE('',*,*,#588,.F.);
#748=ORIENTED_EDGE('',*,*,#589,.F.);
#749=ORIENTED_EDGE('',*,*,#590,.T.);
#750=ORIENTED_EDGE('',*,*,#591,.T.);
#751=ORIENTED_EDGE('',*,*,#592,.T.);
#752=ORIENTED_EDGE('',*,*,#593,.T.);
#753=ORIENTED_EDGE('',*,*,#594,.T.);
#754=ORIENTED_EDGE('',*,*,#595,.T.);
#755=ORIENTED_EDGE('',*,*,#596,.T.);
#756=ORIENTED_EDGE('',*,*,#597,.T.);
#757=ORIENTED_EDGE('',*,*,#598,.F.);
#758=ORIENTED_EDGE('',*,*,#599,.F.);
#759=ORIENTED_EDGE('',*,*,#585,.T.);
#760=ORIENTED_EDGE('',*,*,#600,.T.);
#761=ORIENTED_EDGE('',*,*,#601,.T.);
#762=ORIENTED_EDGE('',*,*,#602,.T.);
#763=ORIENTED_EDGE('',*,*,#601,.F.);
#764=ORIENTED_EDGE('',*,*,#603,.F.);
#765=ORIENTED_EDGE('',*,*,#604,.T.);
#766=ORIENTED_EDGE('',*,*,#605,.T.);
#767=ORIENTED_EDGE('',*,*,#606,.T.);
#768=ORIENTED_EDGE('',*,*,#607,.T.);
#769=ORIENTED_EDGE('',*,*,#588,.T.);
#770=ORIENTED_EDGE('',*,*,#608,.F.);
#771=ORIENTED_EDGE('',*,*,#600,.F.);
#772=ORIENTED_EDGE('',*,*,#609,.T.);
#773=ORIENTED_EDGE('',*,*,#610,.T.);
#774=ORIENTED_EDGE('',*,*,#611,.T.);
#775=ORIENTED_EDGE('',*,*,#610,.F.);
#776=ORIENTED_EDGE('',*,*,#612,.T.);
#777=ORIENTED_EDGE('',*,*,#613,.F.);
#778=ORIENTED_EDGE('',*,*,#614,.T.);
#779=ORIENTED_EDGE('',*,*,#615,.T.);
#780=ORIENTED_EDGE('',*,*,#616,.F.);
#781=ORIENTED_EDGE('',*,*,#617,.F.);
#782=ORIENTED_EDGE('',*,*,#618,.F.);
#783=ORIENTED_EDGE('',*,*,#619,.T.);
#784=ORIENTED_EDGE('',*,*,#617,.T.);
#785=ORIENTED_EDGE('',*,*,#619,.F.);
#786=ORIENTED_EDGE('',*,*,#620,.F.);
#787=ORIENTED_EDGE('',*,*,#621,.T.);
#788=ORIENTED_EDGE('',*,*,#616,.T.);
#789=ORIENTED_EDGE('',*,*,#621,.F.);
#790=ORIENTED_EDGE('',*,*,#622,.F.);
#791=ORIENTED_EDGE('',*,*,#623,.T.);
#792=ORIENTED_EDGE('',*,*,#624,.T.);
#793=ORIENTED_EDGE('',*,*,#623,.F.);
#794=ORIENTED_EDGE('',*,*,#589,.T.);
#795=ORIENTED_EDGE('',*,*,#607,.F.);
#796=ORIENTED_EDGE('',*,*,#625,.F.);
#797=ORIENTED_EDGE('',*,*,#626,.F.);
#798=ORIENTED_EDGE('',*,*,#627,.T.);
#799=ORIENTED_EDGE('',*,*,#628,.T.);
#800=ORIENTED_EDGE('',*,*,#614,.F.);
#801=ORIENTED_EDGE('',*,*,#629,.T.);
#802=ORIENTED_EDGE('',*,*,#624,.F.);
#803=ORIENTED_EDGE('',*,*,#630,.F.);
#804=ORIENTED_EDGE('',*,*,#631,.T.);
#805=ORIENTED_EDGE('',*,*,#603,.T.);
#806=ORIENTED_EDGE('',*,*,#587,.T.);
#807=ORIENTED_EDGE('',*,*,#632,.T.);
#808=ORIENTED_EDGE('',*,*,#630,.T.);
#809=ORIENTED_EDGE('',*,*,#586,.T.);
#810=ORIENTED_EDGE('',*,*,#599,.T.);
#811=ORIENTED_EDGE('',*,*,#633,.T.);
#812=ORIENTED_EDGE('',*,*,#634,.F.);
#813=ORIENTED_EDGE('',*,*,#635,.T.);
#814=ORIENTED_EDGE('',*,*,#636,.T.);
#815=ORIENTED_EDGE('',*,*,#591,.F.);
#816=ORIENTED_EDGE('',*,*,#637,.F.);
#817=ORIENTED_EDGE('',*,*,#633,.F.);
#818=ORIENTED_EDGE('',*,*,#638,.F.);
#819=ORIENTED_EDGE('',*,*,#593,.F.);
#820=ORIENTED_EDGE('',*,*,#639,.T.);
#821=ORIENTED_EDGE('',*,*,#635,.F.);
#822=ORIENTED_EDGE('',*,*,#640,.F.);
#823=ORIENTED_EDGE('',*,*,#592,.F.);
#824=ORIENTED_EDGE('',*,*,#638,.T.);
#825=ORIENTED_EDGE('',*,*,#636,.F.);
#826=ORIENTED_EDGE('',*,*,#639,.F.);
#827=ORIENTED_EDGE('',*,*,#608,.T.);
#828=ORIENTED_EDGE('',*,*,#641,.T.);
#829=ORIENTED_EDGE('',*,*,#642,.T.);
#830=ORIENTED_EDGE('',*,*,#641,.F.);
#831=ORIENTED_EDGE('',*,*,#643,.T.);
#832=ORIENTED_EDGE('',*,*,#644,.T.);
#833=ORIENTED_EDGE('',*,*,#645,.T.);
#834=ORIENTED_EDGE('',*,*,#644,.F.);
#835=ORIENTED_EDGE('',*,*,#646,.F.);
#836=ORIENTED_EDGE('',*,*,#645,.F.);
#837=ORIENTED_EDGE('',*,*,#595,.F.);
#838=ORIENTED_EDGE('',*,*,#647,.T.);
#839=ORIENTED_EDGE('',*,*,#646,.T.);
#840=ORIENTED_EDGE('',*,*,#647,.F.);
#841=ORIENTED_EDGE('',*,*,#648,.F.);
#842=ORIENTED_EDGE('',*,*,#611,.F.);
#843=ORIENTED_EDGE('',*,*,#596,.F.);
#844=ORIENTED_EDGE('',*,*,#649,.T.);
#845=ORIENTED_EDGE('',*,*,#648,.T.);
#846=ORIENTED_EDGE('',*,*,#649,.F.);
#847=ORIENTED_EDGE('',*,*,#650,.T.);
#848=ORIENTED_EDGE('',*,*,#629,.F.);
#849=ORIENTED_EDGE('',*,*,#613,.T.);
#850=ORIENTED_EDGE('',*,*,#651,.T.);
#851=ORIENTED_EDGE('',*,*,#652,.F.);
#852=ORIENTED_EDGE('',*,*,#653,.F.);
#853=ORIENTED_EDGE('',*,*,#654,.F.);
#854=ORIENTED_EDGE('',*,*,#625,.T.);
#855=ORIENTED_EDGE('',*,*,#606,.F.);
#856=ORIENTED_EDGE('',*,*,#655,.F.);
#857=ORIENTED_EDGE('',*,*,#656,.T.);
#858=ORIENTED_EDGE('',*,*,#655,.T.);
#859=ORIENTED_EDGE('',*,*,#605,.F.);
#860=ORIENTED_EDGE('',*,*,#657,.F.);
#861=ORIENTED_EDGE('',*,*,#622,.T.);
#862=ORIENTED_EDGE('',*,*,#650,.F.);
#863=ORIENTED_EDGE('',*,*,#656,.F.);
#864=ORIENTED_EDGE('',*,*,#658,.F.);
#865=ORIENTED_EDGE('',*,*,#627,.F.);
#866=ORIENTED_EDGE('',*,*,#642,.F.);
#867=ORIENTED_EDGE('',*,*,#602,.F.);
#868=ORIENTED_EDGE('',*,*,#659,.F.);
#869=ORIENTED_EDGE('',*,*,#660,.T.);
#870=ORIENTED_EDGE('',*,*,#653,.T.);
#871=ORIENTED_EDGE('',*,*,#661,.F.);
#872=ORIENTED_EDGE('',*,*,#662,.F.);
#873=ORIENTED_EDGE('',*,*,#663,.T.);
#874=ORIENTED_EDGE('',*,*,#664,.T.);
#875=ORIENTED_EDGE('',*,*,#665,.T.);
#876=ORIENTED_EDGE('',*,*,#666,.F.);
#877=ORIENTED_EDGE('',*,*,#661,.T.);
#878=ORIENTED_EDGE('',*,*,#652,.T.);
#879=ORIENTED_EDGE('',*,*,#667,.T.);
#880=ORIENTED_EDGE('',*,*,#668,.T.);
#881=ORIENTED_EDGE('',*,*,#669,.T.);
#882=ORIENTED_EDGE('',*,*,#612,.F.);
#883=ORIENTED_EDGE('',*,*,#670,.T.);
#884=ORIENTED_EDGE('',*,*,#667,.F.);
#885=ORIENTED_EDGE('',*,*,#651,.F.);
#886=ORIENTED_EDGE('',*,*,#671,.F.);
#887=ORIENTED_EDGE('',*,*,#672,.T.);
#888=ORIENTED_EDGE('',*,*,#664,.F.);
#889=ORIENTED_EDGE('',*,*,#673,.T.);
#890=ORIENTED_EDGE('',*,*,#674,.F.);
#891=ORIENTED_EDGE('',*,*,#665,.F.);
#892=ORIENTED_EDGE('',*,*,#672,.F.);
#893=ORIENTED_EDGE('',*,*,#675,.F.);
#894=ORIENTED_EDGE('',*,*,#676,.T.);
#895=ORIENTED_EDGE('',*,*,#659,.T.);
#896=ORIENTED_EDGE('',*,*,#666,.T.);
#897=ORIENTED_EDGE('',*,*,#674,.T.);
#898=ORIENTED_EDGE('',*,*,#677,.F.);
#899=ORIENTED_EDGE('',*,*,#678,.F.);
#900=ORIENTED_EDGE('',*,*,#594,.F.);
#901=ORIENTED_EDGE('',*,*,#640,.T.);
#902=ORIENTED_EDGE('',*,*,#634,.T.);
#903=ORIENTED_EDGE('',*,*,#637,.T.);
#904=ORIENTED_EDGE('',*,*,#590,.F.);
#905=ORIENTED_EDGE('',*,*,#626,.T.);
#906=ORIENTED_EDGE('',*,*,#654,.T.);
#907=ORIENTED_EDGE('',*,*,#660,.F.);
#908=ORIENTED_EDGE('',*,*,#676,.F.);
#909=ORIENTED_EDGE('',*,*,#675,.T.);
#910=ORIENTED_EDGE('',*,*,#671,.T.);
#911=ORIENTED_EDGE('',*,*,#679,.T.);
#912=ORIENTED_EDGE('',*,*,#618,.T.);
#913=ORIENTED_EDGE('',*,*,#620,.T.);
#914=ORIENTED_EDGE('',*,*,#680,.F.);
#915=ORIENTED_EDGE('',*,*,#679,.F.);
#916=ORIENTED_EDGE('',*,*,#673,.F.);
#917=ORIENTED_EDGE('',*,*,#663,.F.);
#918=ORIENTED_EDGE('',*,*,#662,.T.);
#919=ORIENTED_EDGE('',*,*,#681,.T.);
#920=ORIENTED_EDGE('',*,*,#677,.T.);
#921=ORIENTED_EDGE('',*,*,#680,.T.);
#922=ORIENTED_EDGE('',*,*,#581,.F.);
#923=ORIENTED_EDGE('',*,*,#678,.T.);
#924=ORIENTED_EDGE('',*,*,#681,.F.);
#925=ORIENTED_EDGE('',*,*,#669,.F.);
#926=ORIENTED_EDGE('',*,*,#682,.F.);
#927=ORIENTED_EDGE('',*,*,#683,.F.);
#928=ORIENTED_EDGE('',*,*,#684,.F.);
#929=ORIENTED_EDGE('',*,*,#580,.F.);
#930=ORIENTED_EDGE('',*,*,#685,.F.);
#931=ORIENTED_EDGE('',*,*,#682,.T.);
#932=ORIENTED_EDGE('',*,*,#668,.F.);
#933=ORIENTED_EDGE('',*,*,#670,.F.);
#934=ORIENTED_EDGE('',*,*,#615,.F.);
#935=ORIENTED_EDGE('',*,*,#628,.F.);
#936=ORIENTED_EDGE('',*,*,#658,.T.);
#937=ORIENTED_EDGE('',*,*,#657,.T.);
#938=ORIENTED_EDGE('',*,*,#604,.F.);
#939=ORIENTED_EDGE('',*,*,#631,.F.);
#940=ORIENTED_EDGE('',*,*,#632,.F.);
#941=ORIENTED_EDGE('',*,*,#598,.T.);
#942=ORIENTED_EDGE('',*,*,#686,.F.);
#943=ORIENTED_EDGE('',*,*,#687,.F.);
#944=ORIENTED_EDGE('',*,*,#643,.F.);
#945=ORIENTED_EDGE('',*,*,#609,.F.);
#946=ORIENTED_EDGE('',*,*,#688,.T.);
#947=ORIENTED_EDGE('',*,*,#689,.T.);
#948=ORIENTED_EDGE('',*,*,#690,.F.);
#949=ORIENTED_EDGE('',*,*,#691,.F.);
#950=ORIENTED_EDGE('',*,*,#692,.T.);
#951=ORIENTED_EDGE('',*,*,#693,.F.);
#952=ORIENTED_EDGE('',*,*,#694,.T.);
#953=ORIENTED_EDGE('',*,*,#695,.T.);
#954=ORIENTED_EDGE('',*,*,#696,.T.);
#955=ORIENTED_EDGE('',*,*,#691,.T.);
#956=ORIENTED_EDGE('',*,*,#697,.T.);
#957=ORIENTED_EDGE('',*,*,#698,.T.);
#958=ORIENTED_EDGE('',*,*,#699,.T.);
#959=ORIENTED_EDGE('',*,*,#693,.T.);
#960=ORIENTED_EDGE('',*,*,#700,.F.);
#961=ORIENTED_EDGE('',*,*,#701,.F.);
#962=ORIENTED_EDGE('',*,*,#702,.F.);
#963=ORIENTED_EDGE('',*,*,#703,.T.);
#964=ORIENTED_EDGE('',*,*,#704,.F.);
#965=ORIENTED_EDGE('',*,*,#705,.F.);
#966=ORIENTED_EDGE('',*,*,#702,.T.);
#967=ORIENTED_EDGE('',*,*,#706,.T.);
#968=ORIENTED_EDGE('',*,*,#707,.T.);
#969=ORIENTED_EDGE('',*,*,#708,.T.);
#970=ORIENTED_EDGE('',*,*,#709,.F.);
#971=ORIENTED_EDGE('',*,*,#710,.F.);
#972=ORIENTED_EDGE('',*,*,#711,.T.);
#973=ORIENTED_EDGE('',*,*,#712,.T.);
#974=ORIENTED_EDGE('',*,*,#713,.F.);
#975=ORIENTED_EDGE('',*,*,#694,.F.);
#976=ORIENTED_EDGE('',*,*,#699,.F.);
#977=ORIENTED_EDGE('',*,*,#714,.T.);
#978=ORIENTED_EDGE('',*,*,#700,.T.);
#979=ORIENTED_EDGE('',*,*,#715,.T.);
#980=ORIENTED_EDGE('',*,*,#697,.F.);
#981=ORIENTED_EDGE('',*,*,#690,.T.);
#982=ORIENTED_EDGE('',*,*,#716,.F.);
#983=ORIENTED_EDGE('',*,*,#708,.F.);
#984=ORIENTED_EDGE('',*,*,#717,.F.);
#985=ORIENTED_EDGE('',*,*,#688,.F.);
#986=ORIENTED_EDGE('',*,*,#696,.F.);
#987=ORIENTED_EDGE('',*,*,#715,.F.);
#988=ORIENTED_EDGE('',*,*,#703,.F.);
#989=ORIENTED_EDGE('',*,*,#705,.T.);
#990=ORIENTED_EDGE('',*,*,#718,.F.);
#991=ORIENTED_EDGE('',*,*,#719,.F.);
#992=ORIENTED_EDGE('',*,*,#720,.F.);
#993=ORIENTED_EDGE('',*,*,#706,.F.);
#994=ORIENTED_EDGE('',*,*,#701,.T.);
#995=ORIENTED_EDGE('',*,*,#714,.F.);
#996=ORIENTED_EDGE('',*,*,#698,.F.);
#997=ORIENTED_EDGE('',*,*,#692,.F.);
#998=ORIENTED_EDGE('',*,*,#721,.T.);
#999=ORIENTED_EDGE('',*,*,#583,.T.);
#1000=ORIENTED_EDGE('',*,*,#722,.T.);
#1001=ORIENTED_EDGE('',*,*,#723,.T.);
#1002=ORIENTED_EDGE('',*,*,#683,.T.);
#1003=ORIENTED_EDGE('',*,*,#687,.T.);
#1004=ORIENTED_EDGE('',*,*,#724,.F.);
#1005=ORIENTED_EDGE('',*,*,#725,.T.);
#1006=ORIENTED_EDGE('',*,*,#578,.T.);
#1007=ORIENTED_EDGE('',*,*,#684,.T.);
#1008=ORIENTED_EDGE('',*,*,#725,.F.);
#1009=ORIENTED_EDGE('',*,*,#726,.T.);
#1010=ORIENTED_EDGE('',*,*,#727,.T.);
#1011=ORIENTED_EDGE('',*,*,#728,.F.);
#1012=ORIENTED_EDGE('',*,*,#727,.F.);
#1013=ORIENTED_EDGE('',*,*,#729,.T.);
#1014=ORIENTED_EDGE('',*,*,#723,.F.);
#1015=ORIENTED_EDGE('',*,*,#730,.F.);
#1016=ORIENTED_EDGE('',*,*,#718,.T.);
#1017=ORIENTED_EDGE('',*,*,#704,.T.);
#1018=ORIENTED_EDGE('',*,*,#720,.T.);
#1019=ORIENTED_EDGE('',*,*,#731,.F.);
#1020=ORIENTED_EDGE('',*,*,#726,.F.);
#1021=ORIENTED_EDGE('',*,*,#724,.T.);
#1022=ORIENTED_EDGE('',*,*,#686,.T.);
#1023=ORIENTED_EDGE('',*,*,#597,.F.);
#1024=ORIENTED_EDGE('',*,*,#584,.F.);
#1025=ORIENTED_EDGE('',*,*,#721,.F.);
#1026=ORIENTED_EDGE('',*,*,#729,.F.);
#1027=ORIENTED_EDGE('',*,*,#719,.T.);
#1028=ORIENTED_EDGE('',*,*,#695,.F.);
#1029=ORIENTED_EDGE('',*,*,#713,.T.);
#1030=ORIENTED_EDGE('',*,*,#732,.T.);
#1031=ORIENTED_EDGE('',*,*,#709,.T.);
#1032=ORIENTED_EDGE('',*,*,#716,.T.);
#1033=ORIENTED_EDGE('',*,*,#689,.F.);
#1034=ORIENTED_EDGE('',*,*,#717,.T.);
#1035=ORIENTED_EDGE('',*,*,#730,.T.);
#1036=ORIENTED_EDGE('',*,*,#722,.F.);
#1037=ORIENTED_EDGE('',*,*,#582,.T.);
#1038=ORIENTED_EDGE('',*,*,#685,.T.);
#1039=ORIENTED_EDGE('',*,*,#579,.T.);
#1040=ORIENTED_EDGE('',*,*,#731,.T.);
#1041=ORIENTED_EDGE('',*,*,#733,.F.);
#1042=ORIENTED_EDGE('',*,*,#734,.T.);
#1043=ORIENTED_EDGE('',*,*,#735,.T.);
#1044=ORIENTED_EDGE('',*,*,#734,.F.);
#1045=ORIENTED_EDGE('',*,*,#735,.F.);
#1046=ORIENTED_EDGE('',*,*,#707,.F.);
#1047=ORIENTED_EDGE('',*,*,#728,.T.);
#1048=ORIENTED_EDGE('',*,*,#733,.T.);
#1049=ORIENTED_EDGE('',*,*,#736,.T.);
#1050=ORIENTED_EDGE('',*,*,#710,.T.);
#1051=ORIENTED_EDGE('',*,*,#732,.F.);
#1052=ORIENTED_EDGE('',*,*,#712,.F.);
#1053=ORIENTED_EDGE('',*,*,#711,.F.);
#1054=ORIENTED_EDGE('',*,*,#736,.F.);
#1055=CYLINDRICAL_SURFACE('',#1144,7.5);
#1056=CYLINDRICAL_SURFACE('',#1153,1.65);
#1057=CYLINDRICAL_SURFACE('',#1158,2.5);
#1058=CYLINDRICAL_SURFACE('',#1164,2.1);
#1059=CYLINDRICAL_SURFACE('',#1166,2.09999999999999);
#1060=CYLINDRICAL_SURFACE('',#1168,1.65);
#1061=CYLINDRICAL_SURFACE('',#1173,6.);
#1062=CYLINDRICAL_SURFACE('',#1175,6.);
#1063=CYLINDRICAL_SURFACE('',#1181,1.65);
#1064=CYLINDRICAL_SURFACE('',#1183,2.5);
#1065=CYLINDRICAL_SURFACE('',#1188,4.25);
#1066=CYLINDRICAL_SURFACE('',#1191,4.25);
#1067=CYLINDRICAL_SURFACE('',#1202,0.25);
#1068=CYLINDRICAL_SURFACE('',#1207,0.25);
#1069=CYLINDRICAL_SURFACE('',#1221,5.);
#1070=CYLINDRICAL_SURFACE('',#1229,3.);
#1071=CYLINDRICAL_SURFACE('',#1232,7.5);
#1072=CYLINDRICAL_SURFACE('',#1240,5.50000000000001);
#1073=ADVANCED_FACE('',(#75),#1055,.T.);
#1074=ADVANCED_FACE('',(#76,#19,#20),#37,.T.);
#1075=ADVANCED_FACE('',(#77),#38,.T.);
#1076=ADVANCED_FACE('',(#78),#1056,.F.);
#1077=ADVANCED_FACE('',(#79,#21,#22),#39,.T.);
#1078=ADVANCED_FACE('',(#80),#1057,.F.);
#1079=ADVANCED_FACE('',(#81,#23,#24),#40,.F.);
#1080=ADVANCED_FACE('',(#82),#1058,.F.);
#1081=ADVANCED_FACE('',(#83),#1059,.F.);
#1082=ADVANCED_FACE('',(#84),#1060,.F.);
#1083=ADVANCED_FACE('',(#85),#41,.T.);
#1084=ADVANCED_FACE('',(#86,#25),#42,.T.);
#1085=ADVANCED_FACE('',(#87),#1061,.F.);
#1086=ADVANCED_FACE('',(#88),#1062,.T.);
#1087=ADVANCED_FACE('',(#89),#43,.T.);
#1088=ADVANCED_FACE('',(#90),#44,.T.);
#1089=ADVANCED_FACE('',(#91),#45,.T.);
#1090=ADVANCED_FACE('',(#92),#46,.T.);
#1091=ADVANCED_FACE('',(#93),#1063,.F.);
#1092=ADVANCED_FACE('',(#94),#1064,.F.);
#1093=ADVANCED_FACE('',(#95,#26),#47,.F.);
#1094=ADVANCED_FACE('',(#96),#1065,.T.);
#1095=ADVANCED_FACE('',(#97,#27),#48,.F.);
#1096=ADVANCED_FACE('',(#98),#1066,.T.);
#1097=ADVANCED_FACE('',(#99),#49,.T.);
#1098=ADVANCED_FACE('',(#100,#28),#50,.T.);
#1099=ADVANCED_FACE('',(#101,#29,#30),#51,.T.);
#1100=ADVANCED_FACE('',(#102),#52,.T.);
#1101=ADVANCED_FACE('',(#103),#53,.T.);
#1102=ADVANCED_FACE('',(#104),#54,.T.);
#1103=ADVANCED_FACE('',(#105),#55,.F.);
#1104=ADVANCED_FACE('',(#106),#56,.F.);
#1105=ADVANCED_FACE('',(#107),#1067,.T.);
#1106=ADVANCED_FACE('',(#108,#31,#32),#57,.T.);
#1107=ADVANCED_FACE('',(#109),#58,.F.);
#1108=ADVANCED_FACE('',(#110),#1068,.T.);
#1109=ADVANCED_FACE('',(#111),#59,.T.);
#1110=ADVANCED_FACE('',(#112,#33,#34),#60,.T.);
#1111=ADVANCED_FACE('',(#113),#61,.F.);
#1112=ADVANCED_FACE('',(#114),#62,.F.);
#1113=ADVANCED_FACE('',(#115),#63,.T.);
#1114=ADVANCED_FACE('',(#116),#64,.T.);
#1115=ADVANCED_FACE('',(#117),#65,.F.);
#1116=ADVANCED_FACE('',(#118),#66,.F.);
#1117=ADVANCED_FACE('',(#119),#1069,.F.);
#1118=ADVANCED_FACE('',(#120),#67,.F.);
#1119=ADVANCED_FACE('',(#121),#68,.F.);
#1120=ADVANCED_FACE('',(#122),#1070,.F.);
#1121=ADVANCED_FACE('',(#123),#15,.T.);
#1122=ADVANCED_FACE('',(#124),#1071,.T.);
#1123=ADVANCED_FACE('',(#125),#69,.T.);
#1124=ADVANCED_FACE('',(#126),#70,.F.);
#1125=ADVANCED_FACE('',(#127),#1072,.F.);
#1126=ADVANCED_FACE('',(#128,#35),#71,.T.);
#1127=ADVANCED_FACE('',(#129,#36),#72,.T.);
#1128=ADVANCED_FACE('',(#130),#73,.T.);
#1129=ADVANCED_FACE('',(#131),#74,.F.);
#1130=CLOSED_SHELL('',(#1073,#1074,#1075,#1076,#1077,#1078,#1079,#1080,
#1081,#1082,#1083,#1084,#1085,#1086,#1087,#1088,#1089,#1090,#1091,#1092,
#1093,#1094,#1095,#1096,#1097,#1098,#1099,#1100,#1101,#1102,#1103,#1104,
#1105,#1106,#1107,#1108,#1109,#1110,#1111,#1112,#1113,#1114,#1115,#1116,
#1117,#1118,#1119,#1120,#1121,#1122,#1123,#1124,#1125,#1126,#1127,#1128,
#1129));
#1131=DERIVED_UNIT_ELEMENT(#1133,1.);
#1132=DERIVED_UNIT_ELEMENT(#1930,-3.);
#1133=(
MASS_UNIT()
NAMED_UNIT(*)
SI_UNIT(.KILO.,.GRAM.)
);
#1134=DERIVED_UNIT((#1131,#1132));
#1135=MEASURE_REPRESENTATION_ITEM('density measure',
POSITIVE_RATIO_MEASURE(7850.),#1134);
#1136=PROPERTY_DEFINITION_REPRESENTATION(#1141,#1138);
#1137=PROPERTY_DEFINITION_REPRESENTATION(#1142,#1139);
#1138=REPRESENTATION('material name',(#1140),#1927);
#1139=REPRESENTATION('density',(#1135),#1927);
#1140=DESCRIPTIVE_REPRESENTATION_ITEM('Steel','Steel');
#1141=PROPERTY_DEFINITION('material property','material name',#1937);
#1142=PROPERTY_DEFINITION('material property','density of part',#1937);
#1143=AXIS2_PLACEMENT_3D('',#1564,#1247,#1248);
#1144=AXIS2_PLACEMENT_3D('',#1565,#1249,#1250);
#1145=AXIS2_PLACEMENT_3D('',#1570,#1252,#1253);
#1146=AXIS2_PLACEMENT_3D('',#1571,#1254,#1255);
#1147=AXIS2_PLACEMENT_3D('',#1572,#1256,#1257);
#1148=AXIS2_PLACEMENT_3D('',#1585,#1263,#1264);
#1149=AXIS2_PLACEMENT_3D('',#1587,#1265,#1266);
#1150=AXIS2_PLACEMENT_3D('',#1602,#1274,#1275);
#1151=AXIS2_PLACEMENT_3D('',#1604,#1276,#1277);
#1152=AXIS2_PLACEMENT_3D('',#1605,#1278,#1279);
#1153=AXIS2_PLACEMENT_3D('',#1611,#1283,#1284);
#1154=AXIS2_PLACEMENT_3D('',#1613,#1285,#1286);
#1155=AXIS2_PLACEMENT_3D('',#1616,#1288,#1289);
#1156=AXIS2_PLACEMENT_3D('',#1617,#1290,#1291);
#1157=AXIS2_PLACEMENT_3D('',#1628,#1297,#1298);
#1158=AXIS2_PLACEMENT_3D('',#1629,#1299,#1300);
#1159=AXIS2_PLACEMENT_3D('',#1631,#1301,#1302);
#1160=AXIS2_PLACEMENT_3D('',#1634,#1304,#1305);
#1161=AXIS2_PLACEMENT_3D('',#1635,#1306,#1307);
#1162=AXIS2_PLACEMENT_3D('',#1645,#1312,#1313);
#1163=AXIS2_PLACEMENT_3D('',#1647,#1314,#1315);
#1164=AXIS2_PLACEMENT_3D('',#1648,#1316,#1317);
#1165=AXIS2_PLACEMENT_3D('',#1650,#1318,#1319);
#1166=AXIS2_PLACEMENT_3D('',#1652,#1321,#1322);
#1167=AXIS2_PLACEMENT_3D('',#1654,#1323,#1324);
#1168=AXIS2_PLACEMENT_3D('',#1656,#1326,#1327);
#1169=AXIS2_PLACEMENT_3D('',#1658,#1328,#1329);
#1170=AXIS2_PLACEMENT_3D('',#1661,#1331,#1332);
#1171=AXIS2_PLACEMENT_3D('',#1662,#1333,#1334);
#1172=AXIS2_PLACEMENT_3D('',#1666,#1337,#1338);
#1173=AXIS2_PLACEMENT_3D('',#1672,#1342,#1343);
#1174=AXIS2_PLACEMENT_3D('',#1675,#1345,#1346);
#1175=AXIS2_PLACEMENT_3D('',#1676,#1347,#1348);
#1176=AXIS2_PLACEMENT_3D('',#1677,#1349,#1350);
#1177=AXIS2_PLACEMENT_3D('',#1678,#1351,#1352);
#1178=AXIS2_PLACEMENT_3D('',#1687,#1357,#1358);
#1179=AXIS2_PLACEMENT_3D('',#1690,#1361,#1362);
#1180=AXIS2_PLACEMENT_3D('',#1693,#1365,#1366);
#1181=AXIS2_PLACEMENT_3D('',#1694,#1367,#1368);
#1182=AXIS2_PLACEMENT_3D('',#1697,#1370,#1371);
#1183=AXIS2_PLACEMENT_3D('',#1698,#1372,#1373);
#1184=AXIS2_PLACEMENT_3D('',#1700,#1374,#1375);
#1185=AXIS2_PLACEMENT_3D('',#1703,#1377,#1378);
#1186=AXIS2_PLACEMENT_3D('',#1704,#1379,#1380);
#1187=AXIS2_PLACEMENT_3D('',#1706,#1381,#1382);
#1188=AXIS2_PLACEMENT_3D('',#1707,#1383,#1384);
#1189=AXIS2_PLACEMENT_3D('',#1709,#1386,#1387);
#1190=AXIS2_PLACEMENT_3D('',#1711,#1388,#1389);
#1191=AXIS2_PLACEMENT_3D('',#1712,#1390,#1391);
#1192=AXIS2_PLACEMENT_3D('',#1714,#1393,#1394);
#1193=AXIS2_PLACEMENT_3D('',#1725,#1401,#1402);
#1194=AXIS2_PLACEMENT_3D('',#1729,#1405,#1406);
#1195=AXIS2_PLACEMENT_3D('',#1731,#1408,#1409);
#1196=AXIS2_PLACEMENT_3D('',#1737,#1413,#1414);
#1197=AXIS2_PLACEMENT_3D('',#1740,#1415,#1416);
#1198=AXIS2_PLACEMENT_3D('',#1747,#1420,#1421);
#1199=AXIS2_PLACEMENT_3D('',#1753,#1425,#1426);
#1200=AXIS2_PLACEMENT_3D('',#1755,#1428,#1429);
#1201=AXIS2_PLACEMENT_3D('',#1761,#1433,#1434);
#1202=AXIS2_PLACEMENT_3D('',#1765,#1437,#1438);
#1203=AXIS2_PLACEMENT_3D('',#1766,#1439,#1440);
#1204=AXIS2_PLACEMENT_3D('',#1767,#1441,#1442);
#1205=AXIS2_PLACEMENT_3D('',#1770,#1443,#1444);
#1206=AXIS2_PLACEMENT_3D('',#1773,#1447,#1448);
#1207=AXIS2_PLACEMENT_3D('',#1775,#1450,#1451);
#1208=AXIS2_PLACEMENT_3D('',#1777,#1453,#1454);
#1209=AXIS2_PLACEMENT_3D('',#1787,#1456,#1457);
#1210=AXIS2_PLACEMENT_3D('',#1789,#1459,#1460);
#1211=AXIS2_PLACEMENT_3D('',#1793,#1463,#1464);
#1212=AXIS2_PLACEMENT_3D('',#1802,#1469,#1470);
#1213=AXIS2_PLACEMENT_3D('',#1811,#1475,#1476);
#1214=AXIS2_PLACEMENT_3D('',#1814,#1478,#1479);
#1215=AXIS2_PLACEMENT_3D('',#1815,#1480,#1481);
#1216=AXIS2_PLACEMENT_3D('',#1818,#1483,#1484);
#1217=AXIS2_PLACEMENT_3D('',#1819,#1485,#1486);
#1218=AXIS2_PLACEMENT_3D('',#1822,#1487,#1488);
#1219=AXIS2_PLACEMENT_3D('',#1828,#1492,#1493);
#1220=AXIS2_PLACEMENT_3D('',#1831,#1494,#1495);
#1221=AXIS2_PLACEMENT_3D('',#1834,#1498,#1499);
#1222=AXIS2_PLACEMENT_3D('',#1836,#1500,#1501);
#1223=AXIS2_PLACEMENT_3D('',#1840,#1503,#1504);
#1224=AXIS2_PLACEMENT_3D('',#1844,#1506,#1507);
#1225=AXIS2_PLACEMENT_3D('',#1847,#1509,#1510);
#1226=AXIS2_PLACEMENT_3D('',#1850,#1513,#1514);
#1227=AXIS2_PLACEMENT_3D('',#1851,#1515,#1516);
#1228=AXIS2_PLACEMENT_3D('',#1855,#1519,#1520);
#1229=AXIS2_PLACEMENT_3D('',#1859,#1523,#1524);
#1230=AXIS2_PLACEMENT_3D('',#1861,#1525,#1526);
#1231=AXIS2_PLACEMENT_3D('',#1863,#1527,#1528);
#1232=AXIS2_PLACEMENT_3D('',#1902,#1530,#1531);
#1233=AXIS2_PLACEMENT_3D('',#1904,#1532,#1533);
#1234=AXIS2_PLACEMENT_3D('',#1907,#1535,#1536);
#1235=AXIS2_PLACEMENT_3D('',#1908,#1537,#1538);
#1236=AXIS2_PLACEMENT_3D('',#1909,#1539,#1540);
#1237=AXIS2_PLACEMENT_3D('',#1910,#1541,#1542);
#1238=AXIS2_PLACEMENT_3D('',#1911,#1543,#1544);
#1239=AXIS2_PLACEMENT_3D('',#1912,#1545,#1546);
#1240=AXIS2_PLACEMENT_3D('',#1914,#1548,#1549);
#1241=AXIS2_PLACEMENT_3D('',#1916,#1550,#1551);
#1242=AXIS2_PLACEMENT_3D('',#1919,#1553,#1554);
#1243=AXIS2_PLACEMENT_3D('',#1920,#1555,#1556);
#1244=AXIS2_PLACEMENT_3D('',#1921,#1557,#1558);
#1245=AXIS2_PLACEMENT_3D('',#1922,#1559,#1560);
#1246=AXIS2_PLACEMENT_3D('',#1924,#1562,#1563);
#1247=DIRECTION('axis',(0.,0.,1.));
#1248=DIRECTION('refdir',(1.,0.,0.));
#1249=DIRECTION('center_axis',(0.945518575599317,1.97933711373482E-16,-0.325568154457156));
#1250=DIRECTION('ref_axis',(2.82641256835728E-17,-1.,-5.25879000057793E-16));
#1251=DIRECTION('',(-0.945518575599317,-1.97933711373482E-16,0.325568154457156));
#1252=DIRECTION('center_axis',(0.945518575599317,2.02470201257232E-16,-0.325568154457156));
#1253=DIRECTION('ref_axis',(3.2553461136676E-17,-1.,-5.27355936696959E-16));
#1254=DIRECTION('center_axis',(1.,2.77555756156288E-17,-5.551115122881E-17));
#1255=DIRECTION('ref_axis',(-2.05199348007719E-17,5.25879000057794E-16,
-1.));
#1256=DIRECTION('center_axis',(2.0662355414773E-61,-1.,1.46814865436604E-76));
#1257=DIRECTION('ref_axis',(1.,2.0662355414773E-61,7.03182551869173E-16));
#1258=DIRECTION('',(5.55111512288101E-17,-5.27355936696959E-16,1.));
#1259=DIRECTION('',(0.325568154457156,-4.89588502570476E-16,0.945518575599317));
#1260=DIRECTION('',(0.945518575599317,1.97933711373482E-16,-0.325568154457156));
#1261=DIRECTION('',(0.,0.,-1.));
#1262=DIRECTION('',(1.,2.0662355414773E-61,7.105427357601E-16));
#1263=DIRECTION('center_axis',(-2.0662355414773E-61,1.,-1.46814865436604E-76));
#1264=DIRECTION('ref_axis',(0.,0.,-1.));
#1265=DIRECTION('center_axis',(2.0662355414773E-61,-1.,1.46814865436604E-76));
#1266=DIRECTION('ref_axis',(0.707106781186549,0.,-0.707106781186546));
#1267=DIRECTION('',(-1.,-2.0662355414773E-61,0.));
#1268=DIRECTION('',(-7.105427357601E-16,0.,1.));
#1269=DIRECTION('',(1.,2.0662355414773E-61,7.03182551869173E-16));
#1270=DIRECTION('',(0.,1.46814865436604E-76,1.));
#1271=DIRECTION('',(1.,2.0662355414773E-61,0.));
#1272=DIRECTION('',(0.,-1.46814865436604E-76,-1.));
#1273=DIRECTION('',(1.,0.,6.66133814775094E-16));
#1274=DIRECTION('center_axis',(-2.0662355414773E-61,1.,-1.46814865436604E-76));
#1275=DIRECTION('ref_axis',(-1.11022302462884E-15,5.63472075159736E-29,
1.));
#1276=DIRECTION('center_axis',(-2.0662355414773E-61,1.,-1.46814865436604E-76));
#1277=DIRECTION('ref_axis',(-1.11022302462884E-15,5.63472075159736E-29,
1.));
#1278=DIRECTION('center_axis',(-7.105427357601E-16,0.,1.));
#1279=DIRECTION('ref_axis',(1.,0.,7.105427357601E-16));
#1280=DIRECTION('',(-2.77555756156288E-17,1.,-1.97215226305252E-32));
#1281=DIRECTION('',(1.,0.,6.66133814775094E-16));
#1282=DIRECTION('',(0.,1.,0.));
#1283=DIRECTION('center_axis',(6.8001160258228E-16,-1.20320420293752E-14,
-1.));
#1284=DIRECTION('ref_axis',(1.,-5.08343367400235E-14,6.80011602582892E-16));
#1285=DIRECTION('center_axis',(0.,0.,1.));
#1286=DIRECTION('ref_axis',(1.,-5.08343367400235E-14,6.80011602582892E-16));
#1287=DIRECTION('',(6.8001160258228E-16,-1.20320420293752E-14,-1.));
#1288=DIRECTION('center_axis',(8.88178419700125E-16,2.2186712959341E-31,
-1.));
#1289=DIRECTION('ref_axis',(1.,-5.08343367400235E-14,6.80011602582892E-16));
#1290=DIRECTION('center_axis',(0.,0.,1.));
#1291=DIRECTION('ref_axis',(1.,0.,0.));
#1292=DIRECTION('',(3.08452320485719E-48,-1.,0.));
#1293=DIRECTION('',(-1.,0.,0.));
#1294=DIRECTION('',(0.,-1.,0.));
#1295=DIRECTION('',(1.,0.,0.));
#1296=DIRECTION('',(0.,1.,0.));
#1297=DIRECTION('center_axis',(0.,0.,1.));
#1298=DIRECTION('ref_axis',(1.,-5.08343367400235E-14,6.80011602582892E-16));
#1299=DIRECTION('center_axis',(5.07530525542929E-14,1.,0.));
#1300=DIRECTION('ref_axis',(1.11022302462884E-15,-5.63472075159736E-29,
-1.));
#1301=DIRECTION('center_axis',(-2.06623554147731E-61,1.,-1.46814865436604E-76));
#1302=DIRECTION('ref_axis',(1.11022302462884E-15,-5.63472075159736E-29,
-1.));
#1303=DIRECTION('',(-5.07530525542929E-14,-1.,0.));
#1304=DIRECTION('center_axis',(-5.08343367400235E-14,-1.,-1.22951367668321E-30));
#1305=DIRECTION('ref_axis',(1.11022302462884E-15,-5.52079374138267E-29,
-1.));
#1306=DIRECTION('center_axis',(-7.03182551869173E-16,4.1908235589866E-31,
1.));
#1307=DIRECTION('ref_axis',(-1.,-2.0662355414773E-61,-7.03182551869173E-16));
#1308=DIRECTION('',(0.,-1.,4.1908235589866E-31));
#1309=DIRECTION('',(1.,2.0662355414773E-61,7.03182551869173E-16));
#1310=DIRECTION('',(-6.99553299955797E-33,1.,-4.1908235589866E-31));
#1311=DIRECTION('',(1.,0.,6.66133814775094E-16));
#1312=DIRECTION('center_axis',(7.03182551869173E-16,-4.1908235589866E-31,
-1.));
#1313=DIRECTION('ref_axis',(-1.,-2.0662355414773E-61,-7.03182551869173E-16));
#1314=DIRECTION('center_axis',(7.03182551869173E-16,-4.1908235589866E-31,
-1.));
#1315=DIRECTION('ref_axis',(-1.,-2.0662355414773E-61,-7.03182551869173E-16));
#1316=DIRECTION('center_axis',(0.,0.,1.));
#1317=DIRECTION('ref_axis',(-1.,-2.0662355414773E-61,0.));
#1318=DIRECTION('center_axis',(7.03182551869173E-16,-4.1908235589866E-31,
-1.));
#1319=DIRECTION('ref_axis',(-1.,-2.0662355414773E-61,-7.03182551869173E-16));
#1320=DIRECTION('',(0.,0.,-1.));
#1321=DIRECTION('center_axis',(0.,0.,1.));
#1322=DIRECTION('ref_axis',(-1.,-2.0662355414773E-61,0.));
#1323=DIRECTION('center_axis',(7.03182551869173E-16,-4.1908235589866E-31,
-1.));
#1324=DIRECTION('ref_axis',(-1.,-2.0662355414773E-61,-7.03182551869173E-16));
#1325=DIRECTION('',(0.,0.,-1.));
#1326=DIRECTION('center_axis',(-1.,0.,-8.88178419700125E-16));
#1327=DIRECTION('ref_axis',(1.96974659846794E-46,-1.,-2.2186712959341E-31));
#1328=DIRECTION('center_axis',(1.,6.99553299955827E-33,7.03182551869173E-16));
#1329=DIRECTION('ref_axis',(6.99553299955842E-33,-1.,-2.2186712959341E-31));
#1330=DIRECTION('',(1.,0.,8.88178419700125E-16));
#1331=DIRECTION('center_axis',(1.,6.99553299955827E-33,7.03182551869173E-16));
#1332=DIRECTION('ref_axis',(6.99553299955842E-33,-1.,-2.2186712959341E-31));
#1333=DIRECTION('center_axis',(1.,0.,0.));
#1334=DIRECTION('ref_axis',(0.,1.,0.));
#1335=DIRECTION('',(0.,0.,1.));
#1336=DIRECTION('',(0.,-1.,4.1908235589866E-31));
#1337=DIRECTION('center_axis',(1.,6.99553299955842E-33,0.));
#1338=DIRECTION('ref_axis',(-6.99553299955842E-33,1.,2.2186712959341E-31));
#1339=DIRECTION('',(-6.99553299955842E-33,1.,2.2186712959341E-31));
#1340=DIRECTION('',(-7.03182551869173E-16,-2.2186712959341E-31,1.));
#1341=DIRECTION('',(0.,0.,-1.));
#1342=DIRECTION('center_axis',(3.08452320485719E-48,-1.,0.));
#1343=DIRECTION('ref_axis',(0.707106781186549,0.,-0.707106781186546));
#1344=DIRECTION('',(0.,-1.,0.));
#1345=DIRECTION('center_axis',(-2.06623554147731E-61,1.,-1.46814865436604E-76));
#1346=DIRECTION('ref_axis',(0.707106781186549,0.,-0.707106781186546));
#1347=DIRECTION('center_axis',(0.,-1.,0.));
#1348=DIRECTION('ref_axis',(0.,0.,-1.));
#1349=DIRECTION('center_axis',(2.06623554147731E-61,-1.,1.46814865436604E-76));
#1350=DIRECTION('ref_axis',(0.,0.,-1.));
#1351=DIRECTION('center_axis',(0.,-1.,0.));
#1352=DIRECTION('ref_axis',(0.,0.,-1.));
#1353=DIRECTION('',(0.,-7.45896213780116E-91,-1.));
#1354=DIRECTION('',(-1.,0.,-7.03182551869173E-16));
#1355=DIRECTION('',(0.,0.,1.));
#1356=DIRECTION('',(-1.,0.,0.));
#1357=DIRECTION('center_axis',(-1.,0.,0.));
#1358=DIRECTION('ref_axis',(0.,-7.45896213780116E-91,-1.));
#1359=DIRECTION('',(0.,1.,-4.1908235589866E-31));
#1360=DIRECTION('',(0.,-1.,0.));
#1361=DIRECTION('center_axis',(1.,0.,0.));
#1362=DIRECTION('ref_axis',(0.,0.,1.));
#1363=DIRECTION('',(0.,-1.,0.));
#1364=DIRECTION('',(0.,-1.,4.1908235589866E-31));
#1365=DIRECTION('center_axis',(0.,0.,1.));
#1366=DIRECTION('ref_axis',(-1.,0.,0.));
#1367=DIRECTION('center_axis',(6.8001160258228E-16,-1.20320420293752E-14,
-1.));
#1368=DIRECTION('ref_axis',(1.,-5.08343367400235E-14,6.80011602582892E-16));
#1369=DIRECTION('',(6.8001160258228E-16,-1.20320420293752E-14,-1.));
#1370=DIRECTION('center_axis',(8.88178419700125E-16,2.2186712959341E-31,
-1.));
#1371=DIRECTION('ref_axis',(1.,-5.08343367400235E-14,6.80011602582892E-16));
#1372=DIRECTION('center_axis',(5.07530525542929E-14,1.,0.));
#1373=DIRECTION('ref_axis',(1.11022302462884E-15,-5.63472075159736E-29,
-1.));
#1374=DIRECTION('center_axis',(-2.06623554147731E-61,1.,-1.46814865436604E-76));
#1375=DIRECTION('ref_axis',(1.11022302462884E-15,-5.63472075159736E-29,
-1.));
#1376=DIRECTION('',(-5.07530525542929E-14,-1.,0.));
#1377=DIRECTION('center_axis',(-5.08343367400235E-14,-1.,-1.22951367668321E-30));
#1378=DIRECTION('ref_axis',(1.11022302462884E-15,-5.52079374138267E-29,
-1.));
#1379=DIRECTION('center_axis',(5.08343367400235E-14,1.,1.22951367668321E-30));
#1380=DIRECTION('ref_axis',(1.11022302462884E-15,-5.52079374138267E-29,
-1.));
#1381=DIRECTION('center_axis',(5.08343367400235E-14,1.,1.22951367668321E-30));
#1382=DIRECTION('ref_axis',(-1.11022302462884E-15,5.52079374138268E-29,
1.));
#1383=DIRECTION('center_axis',(5.07530525542929E-14,1.,0.));
#1384=DIRECTION('ref_axis',(-1.11022302462884E-15,5.63472075159736E-29,
1.));
#1385=DIRECTION('',(-5.07530525542929E-14,-1.,0.));
#1386=DIRECTION('center_axis',(5.08343367400235E-14,1.,1.22951367668321E-30));
#1387=DIRECTION('ref_axis',(1.11022302462884E-15,-5.52079374138267E-29,
-1.));
#1388=DIRECTION('center_axis',(5.08343367400235E-14,1.,1.22951367668321E-30));
#1389=DIRECTION('ref_axis',(-1.11022302462884E-15,5.52079374138268E-29,
1.));
#1390=DIRECTION('center_axis',(5.07530525542929E-14,1.,0.));
#1391=DIRECTION('ref_axis',(-1.11022302462884E-15,5.63472075159736E-29,
1.));
#1392=DIRECTION('',(-5.07530525542929E-14,-1.,0.));
#1393=DIRECTION('center_axis',(2.0662355414773E-61,-1.,0.));
#1394=DIRECTION('ref_axis',(1.,2.0662355414773E-61,7.03182551869173E-16));
#1395=DIRECTION('',(1.,2.0662355414773E-61,8.88178419700125E-16));
#1396=DIRECTION('',(0.,0.,-1.));
#1397=DIRECTION('',(-1.,0.,2.15213805893467E-30));
#1398=DIRECTION('',(0.,0.,-1.));
#1399=DIRECTION('',(1.,2.0662355414773E-61,7.03182551869173E-16));
#1400=DIRECTION('',(0.,0.,1.));
#1401=DIRECTION('center_axis',(-1.,-6.99553299955842E-33,0.));
#1402=DIRECTION('ref_axis',(6.99553299955842E-33,-1.,-2.2186712959341E-31));
#1403=DIRECTION('',(6.99553299955842E-33,-1.,-2.2186712959341E-31));
#1404=DIRECTION('',(0.,0.,1.));
#1405=DIRECTION('center_axis',(8.88178419700125E-16,2.2186712959341E-31,
-1.));
#1406=DIRECTION('ref_axis',(6.99553299955842E-33,-1.,-2.2186712959341E-31));
#1407=DIRECTION('',(-1.,-2.06623554147731E-61,-8.88178419700125E-16));
#1408=DIRECTION('center_axis',(1.,0.,6.66133814775094E-16));
#1409=DIRECTION('ref_axis',(6.66133814775094E-16,0.,-1.));
#1410=DIRECTION('',(6.66133814775094E-16,-5.91645678915771E-29,-1.));
#1411=DIRECTION('',(-2.94691400464164E-46,-1.,4.1908235589866E-31));
#1412=DIRECTION('',(0.,-1.,-7.17379352978222E-31));
#1413=DIRECTION('center_axis',(0.,0.,-1.));
#1414=DIRECTION('ref_axis',(-1.,0.,0.));
#1415=DIRECTION('center_axis',(0.,0.,1.));
#1416=DIRECTION('ref_axis',(0.707106781186548,-0.707106781186548,0.));
#1417=DIRECTION('',(-1.,8.88178419700144E-14,0.));
#1418=DIRECTION('',(-8.88178419700144E-14,-1.,0.));
#1419=DIRECTION('',(1.,-8.88178419700144E-14,0.));
#1420=DIRECTION('center_axis',(0.,0.,1.));
#1421=DIRECTION('ref_axis',(0.707106781186598,0.707106781186497,0.));
#1422=DIRECTION('',(0.,1.,0.));
#1423=DIRECTION('',(1.,0.,0.));
#1424=DIRECTION('',(0.,-1.,-7.17379352978222E-31));
#1425=DIRECTION('center_axis',(-1.,0.,0.));
#1426=DIRECTION('ref_axis',(0.,1.,0.));
#1427=DIRECTION('',(0.,0.,-1.));
#1428=DIRECTION('center_axis',(-1.,8.88178419700144E-14,4.67012391686415E-44));
#1429=DIRECTION('ref_axis',(6.2501512266978E-44,1.2295136766832E-30,-1.));
#1430=DIRECTION('',(8.88178419700144E-14,1.,6.2036074412089E-29));
#1431=DIRECTION('',(6.2501512266978E-44,1.2295136766832E-30,-1.));
#1432=DIRECTION('',(-6.2501512266978E-44,-1.2295136766832E-30,1.));
#1433=DIRECTION('center_axis',(-8.88178419700144E-14,-1.,0.));
#1434=DIRECTION('ref_axis',(0.,0.,-1.));
#1435=DIRECTION('',(-6.66133814775094E-16,5.91645678915771E-29,1.));
#1436=DIRECTION('',(-1.,8.88178419700144E-14,-7.03182551869173E-16));
#1437=DIRECTION('center_axis',(-6.66133814775094E-16,5.91645678915771E-29,
1.));
#1438=DIRECTION('ref_axis',(0.707106781186598,0.707106781186497,0.));
#1439=DIRECTION('center_axis',(7.03182551869173E-16,-4.1908235589866E-31,
-1.));
#1440=DIRECTION('ref_axis',(0.707106781186598,0.707106781186497,0.));
#1441=DIRECTION('center_axis',(-7.03182551869173E-16,4.1908235589866E-31,
1.));
#1442=DIRECTION('ref_axis',(-1.,-2.0662355414773E-61,-7.03182551869173E-16));
#1443=DIRECTION('center_axis',(7.03182551869173E-16,-4.1908235589866E-31,
-1.));
#1444=DIRECTION('ref_axis',(0.707106781186548,-0.707106781186548,0.));
#1445=DIRECTION('',(-2.94691400464164E-46,-1.,4.1908235589866E-31));
#1446=DIRECTION('',(1.,-8.88178419700144E-14,7.03182551869173E-16));
#1447=DIRECTION('center_axis',(8.88178419700144E-14,1.,0.));
#1448=DIRECTION('ref_axis',(0.,0.,1.));
#1449=DIRECTION('',(6.66133814775094E-16,-5.91645678915771E-29,-1.));
#1450=DIRECTION('center_axis',(6.66133814775094E-16,-5.91645678915771E-29,
-1.));
#1451=DIRECTION('ref_axis',(0.707106781186548,-0.707106781186548,0.));
#1452=DIRECTION('',(-6.66133814775094E-16,5.91645678915771E-29,1.));
#1453=DIRECTION('center_axis',(1.,0.,6.66133814775094E-16));
#1454=DIRECTION('ref_axis',(6.66133814775094E-16,0.,-1.));
#1455=DIRECTION('',(9.83404629118577E-64,-1.97215226305253E-31,-1.));
#1456=DIRECTION('center_axis',(1.,2.77555756156288E-17,-5.551115122881E-17));
#1457=DIRECTION('ref_axis',(-2.05199348007719E-17,5.25879000057794E-16,
-1.));
#1458=DIRECTION('',(-2.77555756156288E-17,1.,5.27355936696959E-16));
#1459=DIRECTION('center_axis',(-2.06623554147731E-61,1.,-1.46814865436604E-76));
#1460=DIRECTION('ref_axis',(-1.,-2.06623554147731E-61,-7.03182551869173E-16));
#1461=DIRECTION('',(0.,0.,-1.));
#1462=DIRECTION('',(-1.,-2.77555756156287E-17,-1.7300759355309E-16));
#1463=DIRECTION('center_axis',(-0.325568154457155,5.43806491744332E-16,
-0.945518575599317));
#1464=DIRECTION('ref_axis',(-1.01039249419185E-17,1.,5.78620052592483E-16));
#1465=DIRECTION('',(0.945518575599317,2.62434123210284E-17,-0.325568154457155));
#1466=DIRECTION('',(-1.01039249419185E-17,1.,5.78620052592483E-16));
#1467=DIRECTION('',(0.945518575599317,1.97933711373482E-16,-0.325568154457155));
#1468=DIRECTION('',(-1.01039249419185E-17,1.,5.78620052592483E-16));
#1469=DIRECTION('center_axis',(-0.325568154457155,5.43806491744332E-16,
-0.945518575599317));
#1470=DIRECTION('ref_axis',(-1.01039249419185E-17,1.,5.78620052592483E-16));
#1471=DIRECTION('',(-0.945518575599317,3.29584383843728E-14,0.325568154457155));
#1472=DIRECTION('',(-1.01039249419185E-17,1.,5.78620052592483E-16));
#1473=DIRECTION('',(0.945518575599317,1.97933711373482E-16,-0.325568154457155));
#1474=DIRECTION('',(-1.01039249419185E-17,1.,5.78620052592483E-16));
#1475=DIRECTION('center_axis',(-0.945518575599317,-1.97933711373482E-16,
0.325568154457156));
#1476=DIRECTION('ref_axis',(-1.01039249419185E-17,1.,5.78620052592483E-16));
#1477=DIRECTION('',(0.325568154457156,9.03633152907649E-18,0.945518575599317));
#1478=DIRECTION('center_axis',(-0.945518575599317,-1.97933711373482E-16,
0.325568154457156));
#1479=DIRECTION('ref_axis',(-1.01039249419185E-17,1.,5.78620052592483E-16));
#1480=DIRECTION('center_axis',(-0.945518575599317,-1.97933711373482E-16,
0.325568154457156));
#1481=DIRECTION('ref_axis',(-1.01039249419185E-17,1.,5.78620052592483E-16));
#1482=DIRECTION('',(-0.325568154457156,-9.03633152907649E-18,-0.945518575599317));
#1483=DIRECTION('center_axis',(-0.945518575599317,-1.97933711373482E-16,
0.325568154457156));
#1484=DIRECTION('ref_axis',(-1.01039249419185E-17,1.,5.78620052592483E-16));
#1485=DIRECTION('center_axis',(5.55111512288101E-17,-5.31730096949865E-16,
1.));
#1486=DIRECTION('ref_axis',(2.77555756156288E-17,-1.,-5.31730096949865E-16));
#1487=DIRECTION('center_axis',(-5.55111512288101E-17,5.31730096949865E-16,
-1.));
#1488=DIRECTION('ref_axis',(-1.,-2.82641256835728E-17,7.22906522326108E-17));
#1489=DIRECTION('',(1.,2.77555756156288E-17,-5.551115122881E-17));
#1490=DIRECTION('',(2.77555756156288E-17,-1.,-5.31730096949865E-16));
#1491=DIRECTION('',(1.,2.77555756156288E-17,-5.551115122881E-17));
#1492=DIRECTION('center_axis',(-1.,-2.77555756156288E-17,5.4738221262688E-48));
#1493=DIRECTION('ref_axis',(-2.77555756156288E-17,1.,5.31730096949865E-16));
#1494=DIRECTION('center_axis',(-1.,-2.77555756156288E-17,5.4738221262688E-48));
#1495=DIRECTION('ref_axis',(3.49912164280381E-17,5.25879000057793E-16,-1.));
#1496=DIRECTION('',(9.83404629118577E-64,-1.97215226305253E-31,-1.));
#1497=DIRECTION('',(9.83404629118577E-64,-1.97215226305253E-31,-1.));
#1498=DIRECTION('center_axis',(0.945518575599317,1.97933711373482E-16,-0.325568154457156));
#1499=DIRECTION('ref_axis',(2.82641256835728E-17,-1.,-5.25879000057794E-16));
#1500=DIRECTION('center_axis',(-0.945518575599317,-2.02470201257232E-16,
0.325568154457156));
#1501=DIRECTION('ref_axis',(2.82641256835728E-17,-1.,-5.25879000057794E-16));
#1502=DIRECTION('',(0.945518575599317,1.97933711373482E-16,-0.325568154457156));
#1503=DIRECTION('center_axis',(-0.945518575599317,-2.02470201257232E-16,
0.325568154457156));
#1504=DIRECTION('ref_axis',(2.82641256835728E-17,-1.,-5.25879000057794E-16));
#1505=DIRECTION('',(0.945518575599317,1.97933711373483E-16,-0.325568154457157));
#1506=DIRECTION('center_axis',(0.945518575599317,1.97933711373482E-16,-0.325568154457156));
#1507=DIRECTION('ref_axis',(-2.77555756156288E-17,1.,5.27355936696959E-16));
#1508=DIRECTION('',(0.945518575599317,1.97933711373483E-16,-0.325568154457157));
#1509=DIRECTION('center_axis',(-0.945518575599317,-2.02470201257232E-16,
0.325568154457156));
#1510=DIRECTION('ref_axis',(2.82641256835728E-17,-1.,-5.25879000057794E-16));
#1511=DIRECTION('',(-0.945518575599317,-1.97933711373482E-16,0.325568154457156));
#1512=DIRECTION('',(0.945518575599317,1.97933711373482E-16,-0.325568154457156));
#1513=DIRECTION('center_axis',(-0.945518575599317,-2.02470201257232E-16,
0.325568154457156));
#1514=DIRECTION('ref_axis',(2.82641256835728E-17,-1.,-5.25879000057794E-16));
#1515=DIRECTION('center_axis',(-2.77555756156289E-17,1.,5.9211894646675E-16));
#1516=DIRECTION('ref_axis',(-1.,-2.77555756156288E-17,-1.73007593550641E-16));
#1517=DIRECTION('',(-0.325568154457156,-9.03633152907649E-18,-0.945518575599317));
#1518=DIRECTION('',(-0.945518575599317,-1.97933711373482E-16,0.325568154457156));
#1519=DIRECTION('center_axis',(-3.48575260549292E-14,-1.,-5.9211894646675E-16));
#1520=DIRECTION('ref_axis',(1.,-3.48575260549292E-14,1.73007593550622E-16));
#1521=DIRECTION('',(0.325568154457156,-1.19083598894941E-14,0.945518575599317));
#1522=DIRECTION('',(0.945518575599317,1.97933711373482E-16,-0.325568154457156));
#1523=DIRECTION('center_axis',(0.945518575599317,1.97933711373482E-16,-0.325568154457156));
#1524=DIRECTION('ref_axis',(0.261035247862131,0.597614304666944,0.758101406297997));
#1525=DIRECTION('center_axis',(-1.,-2.77555756156288E-17,5.551115122881E-17));
#1526=DIRECTION('ref_axis',(5.55111512288101E-17,-1.22718026525772E-15,
1.));
#1527=DIRECTION('center_axis',(0.945518575599317,1.97933711373482E-16,-0.325568154457156));
#1528=DIRECTION('ref_axis',(0.261035247862131,0.597614304666944,0.758101406297997));
#1529=DIRECTION('',(-0.945518575599317,-1.97933711373482E-16,0.325568154457156));
#1530=DIRECTION('center_axis',(0.945518575599317,1.97933711373482E-16,-0.325568154457156));
#1531=DIRECTION('ref_axis',(2.82641256835728E-17,-1.,-5.25879000057793E-16));
#1532=DIRECTION('center_axis',(-1.,-2.77555756156288E-17,5.551115122881E-17));
#1533=DIRECTION('ref_axis',(-2.05199348007719E-17,5.25879000057794E-16,
-1.));
#1534=DIRECTION('',(-0.945518575599317,-1.97933711373482E-16,0.325568154457156));
#1535=DIRECTION('center_axis',(-0.945518575599317,-2.02470201257232E-16,
0.325568154457156));
#1536=DIRECTION('ref_axis',(3.2553461136676E-17,-1.,-5.27355936696959E-16));
#1537=DIRECTION('center_axis',(-1.,-2.77555756156288E-17,5.551115122881E-17));
#1538=DIRECTION('ref_axis',(-2.05199348007719E-17,5.25879000057794E-16,
-1.));
#1539=DIRECTION('center_axis',(0.945518575599317,2.02470201257232E-16,-0.325568154457156));
#1540=DIRECTION('ref_axis',(3.2553461136676E-17,-1.,-5.27355936696959E-16));
#1541=DIRECTION('center_axis',(0.945518575599317,2.02470201257232E-16,-0.325568154457156));
#1542=DIRECTION('ref_axis',(3.2553461136676E-17,-1.,-5.27355936696959E-16));
#1543=DIRECTION('center_axis',(-1.,-2.77555756156288E-17,5.551115122881E-17));
#1544=DIRECTION('ref_axis',(2.77555756156288E-17,-1.,-5.31730096949877E-16));
#1545=DIRECTION('center_axis',(-0.945518575599317,-1.97933711373482E-16,
0.325568154457156));
#1546=DIRECTION('ref_axis',(-1.01039249419185E-17,1.,5.78620052592483E-16));
#1547=DIRECTION('',(-2.77555756156288E-17,1.,5.27355936696959E-16));
#1548=DIRECTION('center_axis',(0.945518575599317,1.97933711373482E-16,-0.325568154457156));
#1549=DIRECTION('ref_axis',(2.82641256835728E-17,-1.,-5.25879000057794E-16));
#1550=DIRECTION('center_axis',(0.945518575599317,2.02470201257232E-16,-0.325568154457156));
#1551=DIRECTION('ref_axis',(2.82641256835728E-17,-1.,-5.25879000057794E-16));
#1552=DIRECTION('',(0.945518575599317,1.97933711373482E-16,-0.325568154457156));
#1553=DIRECTION('center_axis',(0.945518575599317,2.02470201257232E-16,-0.325568154457156));
#1554=DIRECTION('ref_axis',(3.2553461136676E-17,-1.,-5.27355936696959E-16));
#1555=DIRECTION('center_axis',(-0.945518575599317,-2.02470201257232E-16,
0.325568154457156));
#1556=DIRECTION('ref_axis',(3.2553461136676E-17,-1.,-5.27355936696959E-16));
#1557=DIRECTION('center_axis',(-0.945518575599317,-2.02470201257232E-16,
0.325568154457156));
#1558=DIRECTION('ref_axis',(3.2553461136676E-17,-1.,-5.27355936696959E-16));
#1559=DIRECTION('center_axis',(-0.325568154457157,4.89588502570476E-16,
-0.945518575599317));
#1560=DIRECTION('ref_axis',(-2.77555756156288E-17,1.,5.27355936696959E-16));
#1561=DIRECTION('',(-2.77555756156288E-17,1.,5.27355936696959E-16));
#1562=DIRECTION('center_axis',(0.945518575599317,1.97933711373482E-16,-0.325568154457156));
#1563=DIRECTION('ref_axis',(-2.77555756156288E-17,1.,5.27355936696959E-16));
#1564=CARTESIAN_POINT('',(0.,0.,0.));
#1565=CARTESIAN_POINT('Origin',(104.190358244069,-133.850000000006,47.8450021953024));
#1566=CARTESIAN_POINT('',(137.283508390045,-126.350000000006,36.4501167893019));
#1567=CARTESIAN_POINT('',(136.268401036323,-126.350000000006,36.7996462816418));
#1568=CARTESIAN_POINT('',(104.190358244069,-126.350000000006,47.8450021953024));
#1569=CARTESIAN_POINT('',(136.268401036323,-127.02883096046,33.5020309706135));
#1570=CARTESIAN_POINT('Origin',(137.283508390045,-133.850000000006,36.4501167893019));
#1571=CARTESIAN_POINT('Origin',(136.268401036323,-133.850000000006,36.7996462816418));
#1572=CARTESIAN_POINT('Origin',(46.2684010363239,-127.85,-6.57239683227884));
#1573=CARTESIAN_POINT('',(136.268401036323,-127.85,-3.57239683227878));
#1574=CARTESIAN_POINT('',(136.268401036323,-127.85,33.5020309706136));
#1575=CARTESIAN_POINT('',(136.268401036323,-127.85,24.4276031677213));
#1576=CARTESIAN_POINT('',(134.007542029007,-127.85,26.9360196486739));
#1577=CARTESIAN_POINT('',(133.62803336927,-127.85,25.8338464708953));
#1578=CARTESIAN_POINT('',(116.268401036323,-127.85,33.0440957284935));
#1579=CARTESIAN_POINT('',(100.914391883031,-127.85,38.3309050546744));
#1580=CARTESIAN_POINT('',(116.268401036323,-127.85,18.4276031677212));
#1581=CARTESIAN_POINT('',(116.268401036323,-127.85,24.4276031677213));
#1582=CARTESIAN_POINT('',(51.1771131509596,-127.85,18.4276031677212));
#1583=CARTESIAN_POINT('',(65.6802708070955,-127.85,18.4276031677212));
#1584=CARTESIAN_POINT('',(45.7227570936417,-127.85,14.9276031677212));
#1585=CARTESIAN_POINT('Origin',(51.1771131509596,-127.85,12.4276031677212));
#1586=CARTESIAN_POINT('',(40.2684010363239,-127.85,11.4276031677212));
#1587=CARTESIAN_POINT('Origin',(40.2684010363239,-127.85,17.4276031677212));
#1588=CARTESIAN_POINT('',(46.2684010363239,-127.85,11.4276031677212));
#1589=CARTESIAN_POINT('',(41.8934010363238,-127.85,11.4276031677212));
#1590=CARTESIAN_POINT('',(46.2684010363239,-127.85,-3.57239683227884));
#1591=CARTESIAN_POINT('',(46.2684010363239,-127.85,-6.57239683227884));
#1592=CARTESIAN_POINT('',(80.8589381845001,-127.85,-3.57239683227881));
#1593=CARTESIAN_POINT('',(66.2684010363238,-127.85,-3.57239683227883));
#1594=CARTESIAN_POINT('',(80.8589381845001,-127.85,2.00000002980232));
#1595=CARTESIAN_POINT('',(80.8589381845001,-127.85,-2.28619840123826));
#1596=CARTESIAN_POINT('',(109.000001624227,-127.85,2.00000002980232));
#1597=CARTESIAN_POINT('',(77.6342013302752,-127.85,2.00000002980232));
#1598=CARTESIAN_POINT('',(109.000001624227,-127.85,-3.57239683227881));
#1599=CARTESIAN_POINT('',(109.000001624227,-127.85,-5.07239683227883));
#1600=CARTESIAN_POINT('',(126.268401036323,-127.85,-3.57239683227878));
#1601=CARTESIAN_POINT('',(121.461401036317,-127.850000000004,6.3356031677216));
#1602=CARTESIAN_POINT('Origin',(121.461401036317,-127.850000000004,10.5856031677216));
#1603=CARTESIAN_POINT('',(68.3754010363168,-127.850000000001,6.33560316772179));
#1604=CARTESIAN_POINT('Origin',(68.3754010363168,-127.850000000001,10.5856031677218));
#1605=CARTESIAN_POINT('Origin',(86.2684010363236,-124.85,18.4276031677212));
#1606=CARTESIAN_POINT('',(116.268401036323,-121.85,18.4276031677212));
#1607=CARTESIAN_POINT('',(116.268401036323,-126.35,18.4276031677212));
#1608=CARTESIAN_POINT('',(51.1771131509596,-121.85,18.4276031677212));
#1609=CARTESIAN_POINT('',(126.268401036323,-121.85,18.4276031677212));
#1610=CARTESIAN_POINT('',(51.1771131509596,-129.35,18.4276031677212));
#1611=CARTESIAN_POINT('Origin',(34.2684010363163,-145.400000000002,24.1276031677214));
#1612=CARTESIAN_POINT('',(32.6184010363163,-145.400000000002,11.4276031677213));
#1613=CARTESIAN_POINT('Origin',(34.2684010363163,-145.400000000002,11.4276031677213));
#1614=CARTESIAN_POINT('',(32.6184010363163,-145.400000000003,-18.5723968322782));
#1615=CARTESIAN_POINT('',(32.6184010363163,-145.400000000002,24.1276031677214));
#1616=CARTESIAN_POINT('Origin',(34.2684010363163,-145.400000000002,-18.5723968322782));
#1617=CARTESIAN_POINT('Origin',(37.5184010363238,-136.85,11.4276031677212));
#1618=CARTESIAN_POINT('',(40.2684010363239,-121.85,11.4276031677212));
#1619=CARTESIAN_POINT('',(40.2684010363239,-129.35,11.4276031677212));
#1620=CARTESIAN_POINT('',(28.7684010363236,-121.85,11.4276031677212));
#1621=CARTESIAN_POINT('',(28.7684010363236,-121.85,11.4276031677212));
#1622=CARTESIAN_POINT('',(28.7684010363236,-151.85,11.4276031677212));
#1623=CARTESIAN_POINT('',(28.7684010363236,-151.85,11.4276031677212));
#1624=CARTESIAN_POINT('',(46.2684010363239,-151.85,11.4276031677212));
#1625=CARTESIAN_POINT('',(46.2684010363239,-151.85,11.4276031677212));
#1626=CARTESIAN_POINT('',(46.2684010363239,-121.85,11.4276031677212));
#1627=CARTESIAN_POINT('',(42.6184010363163,-145.400000000002,11.4276031677213));
#1628=CARTESIAN_POINT('Origin',(44.2684010363163,-145.400000000003,11.4276031677213));
#1629=CARTESIAN_POINT('Origin',(68.3754010363167,-128.850000000003,10.5856031677218));
#1630=CARTESIAN_POINT('',(68.3754010363171,-121.849999999997,13.0856031677218));
#1631=CARTESIAN_POINT('Origin',(68.3754010363171,-121.849999999997,10.5856031677218));
#1632=CARTESIAN_POINT('',(68.3754010363167,-128.850000000003,13.0856031677218));
#1633=CARTESIAN_POINT('',(68.3754010363167,-128.850000000003,13.0856031677218));
#1634=CARTESIAN_POINT('Origin',(68.3754010363167,-128.850000000003,10.5856031677218));
#1635=CARTESIAN_POINT('Origin',(86.2684010363236,-124.85,-6.57239683227881));
#1636=CARTESIAN_POINT('',(126.268401036323,-121.85,-6.57239683227881));
#1637=CARTESIAN_POINT('',(126.268401036323,-151.85,-6.57239683227881));
#1638=CARTESIAN_POINT('',(126.268401036323,-138.35,-6.57239683227878));
#1639=CARTESIAN_POINT('',(46.2684010363239,-151.85,-6.57239683227884));
#1640=CARTESIAN_POINT('',(46.2684010363239,-151.85,-6.57239683227884));
#1641=CARTESIAN_POINT('',(46.2684010363236,-121.85,-6.57239683227845));
#1642=CARTESIAN_POINT('',(46.2684010363236,-123.35,-6.57239683227884));
#1643=CARTESIAN_POINT('',(126.268401036323,-121.85,-6.57239683227878));
#1644=CARTESIAN_POINT('',(118.368401036323,-131.85,-6.57239683227879));
#1645=CARTESIAN_POINT('Origin',(116.268401036323,-131.85,-6.57239683227879));
#1646=CARTESIAN_POINT('',(58.3684010363238,-131.85,-6.57239683227883));
#1647=CARTESIAN_POINT('Origin',(56.2684010363238,-131.85,-6.57239683227883));
#1648=CARTESIAN_POINT('Origin',(56.2684010363238,-131.85,-6.57239683227883));
#1649=CARTESIAN_POINT('',(58.3684010363238,-131.85,-3.57239683227883));
#1650=CARTESIAN_POINT('Origin',(56.2684010363238,-131.85,-3.57239683227883));
#1651=CARTESIAN_POINT('',(58.3684010363238,-131.85,-6.57239683227883));
#1652=CARTESIAN_POINT('Origin',(116.268401036323,-131.85,-6.57239683227879));
#1653=CARTESIAN_POINT('',(118.368401036323,-131.85,-3.57239683227879));
#1654=CARTESIAN_POINT('Origin',(116.268401036323,-131.85,-3.57239683227879));
#1655=CARTESIAN_POINT('',(118.368401036323,-131.85,-6.57239683227879));
#1656=CARTESIAN_POINT('Origin',(46.2684010363236,-131.85,-11.5723968322784));
#1657=CARTESIAN_POINT('',(28.7684010363236,-130.2,-11.5723968322785));
#1658=CARTESIAN_POINT('Origin',(28.7684010363236,-131.85,-11.5723968322785));
#1659=CARTESIAN_POINT('',(46.2684010363236,-130.2,-11.5723968322784));
#1660=CARTESIAN_POINT('',(46.2684010363236,-130.2,-11.5723968322784));
#1661=CARTESIAN_POINT('Origin',(46.2684010363236,-131.85,-11.5723968322784));
#1662=CARTESIAN_POINT('Origin',(46.2684010363239,-151.85,-3.57239683227882));
#1663=CARTESIAN_POINT('',(46.2684010363239,-151.85,-3.57239683227884));
#1664=CARTESIAN_POINT('',(46.2684010363239,-151.85,-3.57239683227882));
#1665=CARTESIAN_POINT('',(46.2684010363239,-145.85,-3.57239683227884));
#1666=CARTESIAN_POINT('Origin',(46.2684010363236,-171.85,-6.57239683227845));
#1667=CARTESIAN_POINT('',(46.2684010363239,-151.85,-18.5723968322785));
#1668=CARTESIAN_POINT('',(46.2684010363236,-121.85,-18.5723968322785));
#1669=CARTESIAN_POINT('',(46.2684010363236,-146.85,-18.5723968322785));
#1670=CARTESIAN_POINT('',(46.2684010363236,-121.85,-38.5723968322785));
#1671=CARTESIAN_POINT('',(46.2684010363236,-151.85,-5.07239683227865));
#1672=CARTESIAN_POINT('Origin',(40.2684010363239,-129.35,17.4276031677212));
#1673=CARTESIAN_POINT('',(45.7227570936417,-121.85,14.9276031677212));
#1674=CARTESIAN_POINT('',(45.7227570936417,-129.35,14.9276031677212));
#1675=CARTESIAN_POINT('Origin',(40.2684010363239,-121.85,17.4276031677212));
#1676=CARTESIAN_POINT('Origin',(51.1771131509596,-129.35,12.4276031677212));
#1677=CARTESIAN_POINT('Origin',(51.1771131509596,-121.85,12.4276031677212));
#1678=CARTESIAN_POINT('Origin',(94.9294699043633,-137.85,-0.786198401238244));
#1679=CARTESIAN_POINT('',(80.8589381845001,-137.85,2.00000002980232));
#1680=CARTESIAN_POINT('',(80.8589381845001,-137.85,-3.57239683227881));
#1681=CARTESIAN_POINT('',(80.8589381845001,-137.85,2.00000002980232));
#1682=CARTESIAN_POINT('',(109.000001624227,-137.85,-3.57239683227881));
#1683=CARTESIAN_POINT('',(90.5989354703435,-137.85,-3.57239683227881));
#1684=CARTESIAN_POINT('',(109.000001624227,-137.85,2.00000002980232));
#1685=CARTESIAN_POINT('',(109.000001624227,-137.85,-3.57239683227881));
#1686=CARTESIAN_POINT('',(109.000001624227,-137.85,2.00000002980232));
#1687=CARTESIAN_POINT('Origin',(80.8589381845001,-127.85,2.00000002980232));
#1688=CARTESIAN_POINT('',(80.8589381845001,-133.85,-3.57239683227882));
#1689=CARTESIAN_POINT('',(80.8589381845001,-127.85,2.00000002980232));
#1690=CARTESIAN_POINT('Origin',(109.000001624227,-127.85,-3.57239683227881));
#1691=CARTESIAN_POINT('',(109.000001624227,-127.85,2.00000002980232));
#1692=CARTESIAN_POINT('',(109.000001624227,-133.85,-3.5723968322788));
#1693=CARTESIAN_POINT('Origin',(109.000001624227,-127.85,2.00000002980232));
#1694=CARTESIAN_POINT('Origin',(44.2684010363163,-145.400000000002,24.1276031677214));
#1695=CARTESIAN_POINT('',(42.6184010363163,-145.400000000003,-18.5723968322782));
#1696=CARTESIAN_POINT('',(42.6184010363163,-145.400000000002,24.1276031677214));
#1697=CARTESIAN_POINT('Origin',(44.2684010363163,-145.400000000003,-18.5723968322782));
#1698=CARTESIAN_POINT('Origin',(121.461401036317,-128.850000000006,10.5856031677216));
#1699=CARTESIAN_POINT('',(121.461401036317,-121.85,13.0856031677216));
#1700=CARTESIAN_POINT('Origin',(121.461401036317,-121.85,10.5856031677216));
#1701=CARTESIAN_POINT('',(121.461401036317,-128.850000000006,13.0856031677216));
#1702=CARTESIAN_POINT('',(121.461401036317,-128.850000000006,13.0856031677216));
#1703=CARTESIAN_POINT('Origin',(121.461401036317,-128.850000000006,10.5856031677216));
#1704=CARTESIAN_POINT('Origin',(121.461401036317,-128.850000000006,10.5856031677216));
#1705=CARTESIAN_POINT('',(121.461401036317,-128.850000000006,6.3356031677216));
#1706=CARTESIAN_POINT('Origin',(121.461401036317,-128.850000000006,10.5856031677216));
#1707=CARTESIAN_POINT('Origin',(121.461401036317,-128.850000000006,10.5856031677216));
#1708=CARTESIAN_POINT('',(121.461401036317,-128.850000000006,6.3356031677216));
#1709=CARTESIAN_POINT('Origin',(68.3754010363167,-128.850000000003,10.5856031677218));
#1710=CARTESIAN_POINT('',(68.3754010363167,-128.850000000003,6.33560316772179));
#1711=CARTESIAN_POINT('Origin',(68.3754010363167,-128.850000000003,10.5856031677218));
#1712=CARTESIAN_POINT('Origin',(68.3754010363167,-128.850000000003,10.5856031677218));
#1713=CARTESIAN_POINT('',(68.3754010363167,-128.850000000003,6.33560316772179));
#1714=CARTESIAN_POINT('Origin',(46.2684010363239,-151.85,-6.57239683227884));
#1715=CARTESIAN_POINT('',(28.7684010363236,-151.85,-18.5723968322785));
#1716=CARTESIAN_POINT('',(46.2684010363238,-151.85,-18.5723968322785));
#1717=CARTESIAN_POINT('',(126.268401036323,-151.85,-9.57239683227881));
#1718=CARTESIAN_POINT('',(126.268401036323,-151.85,-6.57239683227881));
#1719=CARTESIAN_POINT('',(136.268401036323,-151.85,-9.57239683227881));
#1720=CARTESIAN_POINT('',(136.268401036323,-151.85,-9.57239683227881));
#1721=CARTESIAN_POINT('',(136.268401036323,-151.85,-3.57239683227878));
#1722=CARTESIAN_POINT('',(136.268401036323,-151.85,-6.57239683227878));
#1723=CARTESIAN_POINT('',(46.2684010363239,-151.85,-3.57239683227884));
#1724=CARTESIAN_POINT('',(28.7684010363236,-151.85,-3.57239683227882));
#1725=CARTESIAN_POINT('Origin',(28.7684010363236,-121.85,-6.57239683227845));
#1726=CARTESIAN_POINT('',(28.7684010363236,-121.85,-18.5723968322785));
#1727=CARTESIAN_POINT('',(28.7684010363236,-121.85,-18.5723968322785));
#1728=CARTESIAN_POINT('',(28.7684010363236,-121.85,-3.57239683227882));
#1729=CARTESIAN_POINT('Origin',(46.2684010363236,-121.85,-18.5723968322785));
#1730=CARTESIAN_POINT('',(86.2684010363235,-121.85,-18.5723968322784));
#1731=CARTESIAN_POINT('Origin',(136.268401036323,-127.85,-6.57239683227878));
#1732=CARTESIAN_POINT('',(136.268401036323,-134.300000000007,-3.57239683227878));
#1733=CARTESIAN_POINT('',(136.268401036323,-134.300000000007,-9.57239683227881));
#1734=CARTESIAN_POINT('',(136.268401036323,-134.300000000007,-6.66119846643081));
#1735=CARTESIAN_POINT('',(136.268401036323,-151.85,-3.57239683227878));
#1736=CARTESIAN_POINT('',(136.268401036323,-121.85,-9.57239683227881));
#1737=CARTESIAN_POINT('Origin',(131.268401036323,-136.85,-9.57239683227881));
#1738=CARTESIAN_POINT('',(136.018401036323,-133.650000000007,-9.57239683227881));
#1739=CARTESIAN_POINT('',(136.268401036323,-133.400000000007,-9.57239683227881));
#1740=CARTESIAN_POINT('Origin',(136.018401036323,-133.400000000007,-9.57239683227881));
#1741=CARTESIAN_POINT('',(135.00000201165,-133.650000000007,-9.57239683227881));
#1742=CARTESIAN_POINT('',(133.634201531437,-133.650000000007,-9.57239683227881));
#1743=CARTESIAN_POINT('',(135.00000201165,-134.050000000007,-9.57239683227881));
#1744=CARTESIAN_POINT('',(135.00000201165,-135.350000000004,-9.57239683227881));
#1745=CARTESIAN_POINT('',(136.018401036323,-134.050000000007,-9.57239683227881));
#1746=CARTESIAN_POINT('',(133.634201531437,-134.050000000007,-9.57239683227881));
#1747=CARTESIAN_POINT('Origin',(136.018401036323,-134.300000000007,-9.57239683227881));
#1748=CARTESIAN_POINT('',(126.268401036323,-121.85,-9.57239683227881));
#1749=CARTESIAN_POINT('',(126.268401036323,-151.85,-9.57239683227881));
#1750=CARTESIAN_POINT('',(136.268401036323,-121.85,-9.57239683227881));
#1751=CARTESIAN_POINT('',(126.268401036323,-121.85,-9.57239683227881));
#1752=CARTESIAN_POINT('',(136.268401036323,-121.85,-9.57239683227881));
#1753=CARTESIAN_POINT('Origin',(126.268401036323,-151.85,-6.57239683227881));
#1754=CARTESIAN_POINT('',(126.268401036323,-121.85,-6.57239683227881));
#1755=CARTESIAN_POINT('Origin',(135.00000201165,-133.850000000007,-3.00000004470348));
#1756=CARTESIAN_POINT('',(135.00000201165,-134.050000000007,-3.57239683227878));
#1757=CARTESIAN_POINT('',(135.00000201165,-133.650000000007,-3.57239683227878));
#1758=CARTESIAN_POINT('',(135.00000201165,-136.850000000006,-3.57239683227878));
#1759=CARTESIAN_POINT('',(135.00000201165,-134.050000000007,-10.5000001564622));
#1760=CARTESIAN_POINT('',(135.00000201165,-133.650000000007,-10.5000001564622));
#1761=CARTESIAN_POINT('Origin',(136.000002026551,-134.050000000007,-6.75000010058284));
#1762=CARTESIAN_POINT('',(136.018401036323,-134.050000000007,-3.57239683227878));
#1763=CARTESIAN_POINT('',(136.018401036323,-134.050000000007,-6.66119846643081));
#1764=CARTESIAN_POINT('',(111.134201531438,-134.050000000005,-3.57239683227879));
#1765=CARTESIAN_POINT('Origin',(136.018401036323,-134.300000000007,-6.66119846643081));
#1766=CARTESIAN_POINT('Origin',(136.018401036323,-134.300000000007,-3.57239683227878));
#1767=CARTESIAN_POINT('Origin',(86.2684010363236,-139.85,-3.57239683227881));
#1768=CARTESIAN_POINT('',(136.268401036323,-133.400000000007,-3.57239683227878));
#1769=CARTESIAN_POINT('',(136.018401036323,-133.650000000007,-3.57239683227878));
#1770=CARTESIAN_POINT('Origin',(136.018401036323,-133.400000000007,-3.57239683227878));
#1771=CARTESIAN_POINT('',(136.268401036323,-151.85,-3.57239683227878));
#1772=CARTESIAN_POINT('',(111.134201531438,-133.650000000005,-3.57239683227879));
#1773=CARTESIAN_POINT('Origin',(136.000002026551,-133.650000000007,-6.75000010058284));
#1774=CARTESIAN_POINT('',(136.018401036323,-133.650000000007,-6.66119846643081));
#1775=CARTESIAN_POINT('Origin',(136.018401036323,-133.400000000007,-6.66119846643081));
#1776=CARTESIAN_POINT('',(136.268401036323,-133.400000000007,-6.66119846643081));
#1777=CARTESIAN_POINT('Origin',(136.268401036323,-127.85,-6.57239683227878));
#1778=CARTESIAN_POINT('',(136.268401036323,-121.85,41.4276031677213));
#1779=CARTESIAN_POINT('',(136.268401036323,-121.85,-0.572396832278813));
#1780=CARTESIAN_POINT('',(136.268401036324,-130.615603463004,43.9562833237917));
#1781=CARTESIAN_POINT('Ctrl Pts',(136.268401036323,-130.615603463004,43.9562833237918));
#1782=CARTESIAN_POINT('Ctrl Pts',(136.268401036323,-129.216415825377,43.2489565458293));
#1783=CARTESIAN_POINT('Ctrl Pts',(136.268401036323,-127.737456964977,42.6860422431069));
#1784=CARTESIAN_POINT('Ctrl Pts',(136.268401036323,-124.799293001857,41.8621208176692));
#1785=CARTESIAN_POINT('Ctrl Pts',(136.268401036323,-123.326465498868,41.5820204288488));
#1786=CARTESIAN_POINT('Ctrl Pts',(136.268401036323,-121.85,41.4276031677213));
#1787=CARTESIAN_POINT('Origin',(136.268401036323,-133.850000000006,36.7996462816418));
#1788=CARTESIAN_POINT('',(136.268401036323,-130.850000000003,33.5020309706136));
#1789=CARTESIAN_POINT('Origin',(126.268401036323,-121.85,-6.57239683227878));
#1790=CARTESIAN_POINT('',(116.268401036323,-121.85,41.4276031677213));
#1791=CARTESIAN_POINT('',(116.268401036323,-121.85,24.4276031677213));
#1792=CARTESIAN_POINT('',(136.268401036323,-121.85,41.4276031677213));
#1793=CARTESIAN_POINT('Origin',(134.255187172207,-137.427338713235,33.7983403408754));
#1794=CARTESIAN_POINT('',(134.255187172207,-133.650000000007,33.7983403408754));
#1795=CARTESIAN_POINT('',(136.146224323406,-133.650000000007,33.1472040319611));
#1796=CARTESIAN_POINT('',(135.200705747807,-133.650000000007,33.4727721864183));
#1797=CARTESIAN_POINT('',(136.146224323406,-130.272661286778,33.1472040319611));
#1798=CARTESIAN_POINT('',(136.146224323406,-140.486817932507,33.1472040319611));
#1799=CARTESIAN_POINT('',(134.255187172207,-130.272661286778,33.7983403408754));
#1800=CARTESIAN_POINT('',(134.255187172207,-130.272661286778,33.7983403408754));
#1801=CARTESIAN_POINT('',(134.255187172207,-140.486817932507,33.7983403408754));
#1802=CARTESIAN_POINT('Origin',(134.255187172207,-137.427338713235,33.7983403408754));
#1803=CARTESIAN_POINT('',(136.146224323406,-134.050000000007,33.1472040319611));
#1804=CARTESIAN_POINT('',(134.255187172207,-134.050000000007,33.7983403408754));
#1805=CARTESIAN_POINT('',(134.255187172207,-134.050000000007,33.7983403408754));
#1806=CARTESIAN_POINT('',(134.255187172207,-137.427338713235,33.7983403408754));
#1807=CARTESIAN_POINT('',(134.255187172207,-140.486817932507,33.7983403408754));
#1808=CARTESIAN_POINT('',(136.146224323406,-137.427338713235,33.1472040319611));
#1809=CARTESIAN_POINT('',(134.255187172207,-137.427338713235,33.7983403408754));
#1810=CARTESIAN_POINT('',(136.146224323406,-140.486817932507,33.1472040319611));
#1811=CARTESIAN_POINT('Origin',(134.009908819384,-133.850000000006,33.0860002805475));
#1812=CARTESIAN_POINT('',(133.765933260505,-133.650000000007,32.3774438085632));
#1813=CARTESIAN_POINT('',(133.88154769495,-133.650000000007,32.7132125066961));
#1814=CARTESIAN_POINT('Origin',(135.392471238847,-133.850000000006,37.1012530982162));
#1815=CARTESIAN_POINT('Origin',(134.009908819384,-133.850000000006,33.0860002805475));
#1816=CARTESIAN_POINT('',(133.765933260505,-134.050000000007,32.3774438085632));
#1817=CARTESIAN_POINT('',(134.146534252942,-134.050000000007,33.4827893508532));
#1818=CARTESIAN_POINT('Origin',(135.392471238847,-133.850000000006,37.1012530982162));
#1819=CARTESIAN_POINT('Origin',(133.50000201165,-133.650000000007,32.4276031677211));
#1820=CARTESIAN_POINT('',(133.620259904021,-134.050000000007,32.4276031677211));
#1821=CARTESIAN_POINT('',(133.620259904021,-133.650000000007,32.4276031677211));
#1822=CARTESIAN_POINT('Origin',(148.965736205439,-133.850000000006,32.4276031677211));
#1823=CARTESIAN_POINT('',(133.50000201165,-134.050000000007,32.4276031677211));
#1824=CARTESIAN_POINT('',(133.50000201165,-134.050000000007,32.4276031677211));
#1825=CARTESIAN_POINT('',(133.50000201165,-133.650000000007,32.4276031677211));
#1826=CARTESIAN_POINT('',(133.50000201165,-134.12322330471,32.4276031677211));
#1827=CARTESIAN_POINT('',(133.50000201165,-133.650000000007,32.4276031677211));
#1828=CARTESIAN_POINT('Origin',(133.50000201165,-134.050000000007,32.4276031677211));
#1829=CARTESIAN_POINT('',(133.50000201165,-133.650000000007,29.8235482249264));
#1830=CARTESIAN_POINT('',(133.50000201165,-134.050000000007,29.8235482249264));
#1831=CARTESIAN_POINT('Origin',(133.50000201165,-133.850000000006,37.7528825104411));
#1832=CARTESIAN_POINT('',(133.50000201165,-133.650000000007,32.4276031677211));
#1833=CARTESIAN_POINT('',(133.50000201165,-134.050000000007,32.4276031677211));
#1834=CARTESIAN_POINT('Origin',(104.190358244069,-133.850000000006,47.8450021953024));
#1835=CARTESIAN_POINT('',(132.555915512049,-128.850000000006,38.0779575615877));
#1836=CARTESIAN_POINT('Origin',(132.555915512049,-133.850000000006,38.0779575615877));
#1837=CARTESIAN_POINT('',(137.283508390045,-128.850000000006,36.4501167893019));
#1838=CARTESIAN_POINT('',(104.190358244069,-128.850000000006,47.8450021953024));
#1839=CARTESIAN_POINT('',(138.420792456684,-130.272661286778,39.7530295466427));
#1840=CARTESIAN_POINT('Origin',(137.283508390045,-133.850000000006,36.4501167893019));
#1841=CARTESIAN_POINT('',(136.529755305486,-130.272661286778,40.404165855557));
#1842=CARTESIAN_POINT('',(136.529755305486,-130.272661286778,40.404165855557));
#1843=CARTESIAN_POINT('',(136.529755305486,-137.427338713235,40.404165855557));
#1844=CARTESIAN_POINT('Origin',(135.392471238847,-133.850000000006,37.1012530982163));
#1845=CARTESIAN_POINT('',(138.420792456684,-137.427338713235,39.7530295466427));
#1846=CARTESIAN_POINT('',(136.529755305486,-137.427338713235,40.404165855557));
#1847=CARTESIAN_POINT('Origin',(137.283508390045,-133.850000000006,36.4501167893019));
#1848=CARTESIAN_POINT('',(102.563820265727,-134.050000000007,43.1211929056494));
#1849=CARTESIAN_POINT('',(102.563820265727,-133.650000000007,43.1211929056494));
#1850=CARTESIAN_POINT('Origin',(137.283508390045,-133.850000000006,36.4501167893019));
#1851=CARTESIAN_POINT('Origin',(136.19517773162,-133.650000000007,2.42760316772112));
#1852=CARTESIAN_POINT('',(134.84261556776,-133.650000000007,29.3612493035806));
#1853=CARTESIAN_POINT('',(135.772584846149,-133.650000000007,32.0620761977818));
#1854=CARTESIAN_POINT('',(101.749465421784,-133.650000000007,40.7561347095811));
#1855=CARTESIAN_POINT('Origin',(135.00000201165,-134.050000000007,2.42760316772112));
#1856=CARTESIAN_POINT('',(134.84261556776,-134.050000000007,29.3612493035806));
#1857=CARTESIAN_POINT('',(131.234619748604,-134.050000000007,18.8828685989785));
#1858=CARTESIAN_POINT('',(101.749465421784,-134.050000000007,40.7561347095811));
#1859=CARTESIAN_POINT('Origin',(100.914391883031,-130.85,38.3309050546744));
#1860=CARTESIAN_POINT('',(116.268401036323,-131.707142857145,36.0846965339054));
#1861=CARTESIAN_POINT('Origin',(116.268401036323,-130.85,33.0440957284935));
#1862=CARTESIAN_POINT('',(134.943532417875,-131.707142857145,29.6543331174247));
#1863=CARTESIAN_POINT('Origin',(134.007542029007,-130.85,26.9360196486739));
#1864=CARTESIAN_POINT('',(101.850382271899,-131.707142857145,41.0492185234252));
#1865=CARTESIAN_POINT('Ctrl Pts',(116.268401036323,-121.85,41.4276031677213));
#1866=CARTESIAN_POINT('Ctrl Pts',(120.10722281601,-121.85,41.4276031677213));
#1867=CARTESIAN_POINT('Ctrl Pts',(126.305220032631,-121.85,41.4276031677213));
#1868=CARTESIAN_POINT('Ctrl Pts',(134.488905554478,-121.85,41.4276031677213));
#1869=CARTESIAN_POINT('Ctrl Pts',(139.110390930679,-121.85,41.4276031677213));
#1870=CARTESIAN_POINT('Ctrl Pts',(141.408811042688,-121.85,41.4276031677213));
#1871=CARTESIAN_POINT('Ctrl Pts',(115.378030188455,-124.163299193955,43.1232947452832));
#1872=CARTESIAN_POINT('Ctrl Pts',(119.0658126334,-124.203682366685,42.9109241993993));
#1873=CARTESIAN_POINT('Ctrl Pts',(125.001885217858,-124.360671370071,42.5491894822516));
#1874=CARTESIAN_POINT('Ctrl Pts',(132.867976992922,-124.658515039013,41.9104378021808));
#1875=CARTESIAN_POINT('Ctrl Pts',(137.346626170399,-124.817043158233,41.4614805319045));
#1876=CARTESIAN_POINT('Ctrl Pts',(139.585155922425,-124.882357339641,41.2159196689823));
#1877=CARTESIAN_POINT('Ctrl Pts',(114.488688848818,-126.007038597127,45.4539602737105));
#1878=CARTESIAN_POINT('Ctrl Pts',(118.025563083137,-126.145505367043,45.0424673544993));
#1879=CARTESIAN_POINT('Ctrl Pts',(123.699865448139,-126.533684477849,44.395748472264));
#1880=CARTESIAN_POINT('Ctrl Pts',(131.249528936628,-127.29627359236,43.3149395524803));
#1881=CARTESIAN_POINT('Ctrl Pts',(135.586252688226,-127.763253459713,42.541611706647));
#1882=CARTESIAN_POINT('Ctrl Pts',(137.765573232155,-127.985172156223,42.1110122074217));
#1883=CARTESIAN_POINT('Ctrl Pts',(113.713736335416,-127.146207160325,48.1225229805428));
#1884=CARTESIAN_POINT('Ctrl Pts',(117.115922508676,-127.434540634127,47.5589538672521));
#1885=CARTESIAN_POINT('Ctrl Pts',(122.563189077494,-128.094169679663,46.7284998874028));
#1886=CARTESIAN_POINT('Ctrl Pts',(129.872278894075,-129.374633368516,45.429417498077));
#1887=CARTESIAN_POINT('Ctrl Pts',(134.119823300031,-130.202934562243,44.4874827998013));
#1888=CARTESIAN_POINT('Ctrl Pts',(136.268401036324,-130.615603463004,43.9562833237917));
#1889=CARTESIAN_POINT('',(116.268045182859,-127.385113775202,47.7061856711443));
#1890=CARTESIAN_POINT('Ctrl Pts',(116.268401036323,-121.85,41.4276031677213));
#1891=CARTESIAN_POINT('Ctrl Pts',(116.268401036323,-122.993357349671,42.2657054906057));
#1892=CARTESIAN_POINT('Ctrl Pts',(116.26840103636,-124.042466085178,43.2277341691111));
#1893=CARTESIAN_POINT('Ctrl Pts',(116.26840103636,-125.898622990948,45.3411785499189));
#1894=CARTESIAN_POINT('Ctrl Pts',(116.268401036323,-126.706561899023,46.4863520111021));
#1895=CARTESIAN_POINT('Ctrl Pts',(116.268401036323,-127.384240190274,47.7057067943196));
#1896=CARTESIAN_POINT('Ctrl Pts',(116.268045182859,-127.385113775202,47.7061856711443));
#1897=CARTESIAN_POINT('Ctrl Pts',(118.76248338366,-127.640420421173,47.3048961019256));
#1898=CARTESIAN_POINT('Ctrl Pts',(123.354733803358,-128.232838693864,46.5878145435996));
#1899=CARTESIAN_POINT('Ctrl Pts',(129.872278894075,-129.374633368516,45.429417498077));
#1900=CARTESIAN_POINT('Ctrl Pts',(134.119823300031,-130.202934562243,44.4874827998013));
#1901=CARTESIAN_POINT('Ctrl Pts',(136.268401036324,-130.615603463004,43.9562833237917));
#1902=CARTESIAN_POINT('Origin',(104.190358244069,-133.850000000006,47.8450021953024));
#1903=CARTESIAN_POINT('',(116.268401036323,-126.350000000006,43.6861985474351));
#1904=CARTESIAN_POINT('Origin',(116.268401036323,-133.850000000006,43.6861985474351));
#1905=CARTESIAN_POINT('',(104.190358244069,-126.350000000006,47.8450021953024));
#1906=CARTESIAN_POINT('',(104.190358244069,-126.350000000006,47.8450021953024));
#1907=CARTESIAN_POINT('Origin',(104.190358244069,-133.850000000006,47.8450021953024));
#1908=CARTESIAN_POINT('Origin',(116.268401036323,-133.850000000006,43.6861985474351));
#1909=CARTESIAN_POINT('Origin',(137.283508390045,-133.850000000006,36.4501167893019));
#1910=CARTESIAN_POINT('Origin',(137.283508390045,-133.850000000006,36.4501167893019));
#1911=CARTESIAN_POINT('Origin',(116.268401036323,-121.85,24.4276031677213));
#1912=CARTESIAN_POINT('Origin',(135.900945970583,-133.850000000006,32.4348639716332));
#1913=CARTESIAN_POINT('',(138.420792456684,-140.486817932507,39.7530295466427));
#1914=CARTESIAN_POINT('Origin',(104.190358244069,-133.850000000006,47.8450021953024));
#1915=CARTESIAN_POINT('',(104.190358244069,-128.350000000006,47.8450021953024));
#1916=CARTESIAN_POINT('Origin',(104.190358244069,-133.850000000006,47.8450021953024));
#1917=CARTESIAN_POINT('',(132.555915512049,-128.350000000006,38.0779575615877));
#1918=CARTESIAN_POINT('',(104.190358244069,-128.350000000006,47.8450021953024));
#1919=CARTESIAN_POINT('Origin',(132.555915512049,-133.850000000006,38.0779575615877));
#1920=CARTESIAN_POINT('Origin',(132.555915512049,-133.850000000006,38.0779575615877));
#1921=CARTESIAN_POINT('Origin',(104.190358244069,-133.850000000006,47.8450021953024));
#1922=CARTESIAN_POINT('Origin',(136.529755305486,-137.427338713235,40.404165855557));
#1923=CARTESIAN_POINT('',(136.529755305486,-140.486817932507,40.404165855557));
#1924=CARTESIAN_POINT('Origin',(136.775033658309,-133.850000000006,41.1165059158849));
#1925=UNCERTAINTY_MEASURE_WITH_UNIT(LENGTH_MEASURE(0.01),#1929,
'DISTANCE_ACCURACY_VALUE',
'Maximum model space distance between geometric entities at asserted c
onnectivities');
#1926=UNCERTAINTY_MEASURE_WITH_UNIT(LENGTH_MEASURE(0.01),#1929,
'DISTANCE_ACCURACY_VALUE',
'Maximum model space distance between geometric entities at asserted c
onnectivities');
#1927=(
GEOMETRIC_REPRESENTATION_CONTEXT(3)
GLOBAL_UNCERTAINTY_ASSIGNED_CONTEXT((#1925))
GLOBAL_UNIT_ASSIGNED_CONTEXT((#1929,#1931,#1932))
REPRESENTATION_CONTEXT('','3D')
);
#1928=(
GEOMETRIC_REPRESENTATION_CONTEXT(3)
GLOBAL_UNCERTAINTY_ASSIGNED_CONTEXT((#1926))
GLOBAL_UNIT_ASSIGNED_CONTEXT((#1929,#1931,#1932))
REPRESENTATION_CONTEXT('','3D')
);
#1929=(
LENGTH_UNIT()
NAMED_UNIT(*)
SI_UNIT(.MILLI.,.METRE.)
);
#1930=(
LENGTH_UNIT()
NAMED_UNIT(*)
SI_UNIT($,.METRE.)
);
#1931=(
NAMED_UNIT(*)
PLANE_ANGLE_UNIT()
SI_UNIT($,.RADIAN.)
);
#1932=(
NAMED_UNIT(*)
SI_UNIT($,.STERADIAN.)
SOLID_ANGLE_UNIT()
);
#1933=SHAPE_DEFINITION_REPRESENTATION(#1934,#1935);
#1934=PRODUCT_DEFINITION_SHAPE('',$,#1937);
#1935=SHAPE_REPRESENTATION('',(#1143),#1927);
#1936=PRODUCT_DEFINITION_CONTEXT('part definition',#1941,'design');
#1937=PRODUCT_DEFINITION('2026-09-16-01-27-47-250',
'Tension Sensor Housing',#1938,#1936);
#1938=PRODUCT_DEFINITION_FORMATION('',$,#1943);
#1939=PRODUCT_RELATED_PRODUCT_CATEGORY('Tension Sensor Housing',
'Tension Sensor Housing',(#1943));
#1940=APPLICATION_PROTOCOL_DEFINITION('international standard',
'automotive_design',2009,#1941);
#1941=APPLICATION_CONTEXT(
'Core Data for Automotive Mechanical Design Process');
#1942=PRODUCT_CONTEXT('part definition',#1941,'mechanical');
#1943=PRODUCT('2026-09-16-01-27-47-250','Tension Sensor Housing',$,(#1942));
#1944=PRESENTATION_STYLE_ASSIGNMENT((#1946));
#1945=PRESENTATION_STYLE_ASSIGNMENT((#1947));
#1946=SURFACE_STYLE_USAGE(.BOTH.,#1948);
#1947=SURFACE_STYLE_USAGE(.BOTH.,#1949);
#1948=SURFACE_SIDE_STYLE('',(#1950));
#1949=SURFACE_SIDE_STYLE('',(#1951));
#1950=SURFACE_STYLE_FILL_AREA(#1952);
#1951=SURFACE_STYLE_FILL_AREA(#1953);
#1952=FILL_AREA_STYLE('Steel - Satin',(#1954));
#1953=FILL_AREA_STYLE(
'PA 12 - PA 2200 - 120\X\B5m - Balance (with EOS 3D printers)',(#1955));
#1954=FILL_AREA_STYLE_COLOUR('Steel - Satin',#1956);
#1955=FILL_AREA_STYLE_COLOUR(
'PA 12 - PA 2200 - 120\X\B5m - Balance (with EOS 3D printers)',#1957);
#1956=COLOUR_RGB('Steel - Satin',0.627450980392157,0.627450980392157,0.627450980392157);
#1957=COLOUR_RGB(
'PA 12 - PA 2200 - 120\X\B5m - Balance (with EOS 3D printers)',0.964705882352941,
0.964705882352941,0.952941176470588);
ENDSEC;
END-ISO-10303-21;
