ISO-10303-21;
HEADER;
/* Generated by software containing ST-Developer
 * from STEP Tools, Inc. (www.steptools.com) 
 */

FILE_DESCRIPTION(
/* description */ (''),
/* implementation_level */ '2;1');

FILE_NAME(
/* name */ 'Top Limit Housing.step',
/* time_stamp */ '2026-09-16T01:27:47-04:00',
/* author */ (''),
/* organization */ (''),
/* preprocessor_version */ 'ST-DEVELOPER v20.2',
/* originating_system */ 'Autodesk Translation Framework v15.15.0.0',
/* authorisation */ '');

FILE_SCHEMA (('AUTOMOTIVE_DESIGN { 1 0 10303 214 3 1 1 }'));
ENDSEC;

DATA;
#10=MECHANICAL_DESIGN_GEOMETRIC_PRESENTATION_REPRESENTATION('',(#13),#453);
#11=SHAPE_REPRESENTATION_RELATIONSHIP('SRR','None',#460,#12);
#12=ADVANCED_BREP_SHAPE_REPRESENTATION('',(#14),#452);
#13=STYLED_ITEM('',(#470),#14);
#14=MANIFOLD_SOLID_BREP('Top Limit Housing',#269);
#15=CYLINDRICAL_SURFACE('',#295,6.5);
#16=CYLINDRICAL_SURFACE('',#297,9.5);
#17=CYLINDRICAL_SURFACE('',#299,6.5);
#18=FACE_OUTER_BOUND('',#32,.T.);
#19=FACE_OUTER_BOUND('',#33,.T.);
#20=FACE_OUTER_BOUND('',#34,.T.);
#21=FACE_OUTER_BOUND('',#35,.T.);
#22=FACE_OUTER_BOUND('',#36,.T.);
#23=FACE_OUTER_BOUND('',#37,.T.);
#24=FACE_OUTER_BOUND('',#38,.T.);
#25=FACE_OUTER_BOUND('',#39,.T.);
#26=FACE_OUTER_BOUND('',#40,.T.);
#27=FACE_OUTER_BOUND('',#41,.T.);
#28=FACE_OUTER_BOUND('',#42,.T.);
#29=FACE_OUTER_BOUND('',#43,.T.);
#30=FACE_OUTER_BOUND('',#44,.T.);
#31=FACE_OUTER_BOUND('',#45,.T.);
#32=EDGE_LOOP('',(#172,#173,#174,#175,#176,#177,#178,#179,#180,#181));
#33=EDGE_LOOP('',(#182,#183,#184,#185));
#34=EDGE_LOOP('',(#186,#187,#188,#189));
#35=EDGE_LOOP('',(#190,#191,#192,#193,#194,#195));
#36=EDGE_LOOP('',(#196,#197,#198,#199,#200,#201,#202,#203,#204,#205));
#37=EDGE_LOOP('',(#206,#207,#208,#209));
#38=EDGE_LOOP('',(#210,#211,#212,#213));
#39=EDGE_LOOP('',(#214,#215,#216,#217));
#40=EDGE_LOOP('',(#218,#219,#220,#221));
#41=EDGE_LOOP('',(#222,#223,#224,#225));
#42=EDGE_LOOP('',(#226,#227,#228,#229));
#43=EDGE_LOOP('',(#230,#231,#232,#233));
#44=EDGE_LOOP('',(#234,#235,#236,#237));
#45=EDGE_LOOP('',(#238,#239,#240,#241,#242,#243));
#46=CIRCLE('',#284,6.5);
#47=CIRCLE('',#285,9.5);
#48=CIRCLE('',#286,6.5);
#49=CIRCLE('',#291,6.5);
#50=CIRCLE('',#292,9.5);
#51=CIRCLE('',#293,6.5);
#52=LINE('',#379,#82);
#53=LINE('',#381,#83);
#54=LINE('',#383,#84);
#55=LINE('',#385,#85);
#56=LINE('',#387,#86);
#57=LINE('',#391,#87);
#58=LINE('',#395,#88);
#59=LINE('',#400,#89);
#60=LINE('',#402,#90);
#61=LINE('',#404,#91);
#62=LINE('',#405,#92);
#63=LINE('',#407,#93);
#64=LINE('',#408,#94);
#65=LINE('',#411,#95);
#66=LINE('',#413,#96);
#67=LINE('',#414,#97);
#68=LINE('',#417,#98);
#69=LINE('',#421,#99);
#70=LINE('',#425,#100);
#71=LINE('',#429,#101);
#72=LINE('',#431,#102);
#73=LINE('',#432,#103);
#74=LINE('',#434,#104);
#75=LINE('',#436,#105);
#76=LINE('',#438,#106);
#77=LINE('',#440,#107);
#78=LINE('',#442,#108);
#79=LINE('',#444,#109);
#80=LINE('',#446,#110);
#81=LINE('',#448,#111);
#82=VECTOR('',#307,10.);
#83=VECTOR('',#308,10.);
#84=VECTOR('',#309,10.);
#85=VECTOR('',#310,10.);
#86=VECTOR('',#311,10.);
#87=VECTOR('',#314,10.);
#88=VECTOR('',#317,10.);
#89=VECTOR('',#322,10.);
#90=VECTOR('',#323,10.);
#91=VECTOR('',#324,10.);
#92=VECTOR('',#325,10.);
#93=VECTOR('',#328,10.);
#94=VECTOR('',#329,10.);
#95=VECTOR('',#332,10.);
#96=VECTOR('',#333,10.);
#97=VECTOR('',#334,10.);
#98=VECTOR('',#337,10.);
#99=VECTOR('',#340,10.);
#100=VECTOR('',#343,10.);
#101=VECTOR('',#346,10.);
#102=VECTOR('',#347,10.);
#103=VECTOR('',#348,10.);
#104=VECTOR('',#351,10.);
#105=VECTOR('',#354,10.);
#106=VECTOR('',#357,10.);
#107=VECTOR('',#360,10.);
#108=VECTOR('',#363,10.);
#109=VECTOR('',#366,10.);
#110=VECTOR('',#369,10.);
#111=VECTOR('',#372,10.);
#112=VERTEX_POINT('',#377);
#113=VERTEX_POINT('',#378);
#114=VERTEX_POINT('',#380);
#115=VERTEX_POINT('',#382);
#116=VERTEX_POINT('',#384);
#117=VERTEX_POINT('',#386);
#118=VERTEX_POINT('',#388);
#119=VERTEX_POINT('',#390);
#120=VERTEX_POINT('',#392);
#121=VERTEX_POINT('',#394);
#122=VERTEX_POINT('',#398);
#123=VERTEX_POINT('',#399);
#124=VERTEX_POINT('',#401);
#125=VERTEX_POINT('',#403);
#126=VERTEX_POINT('',#410);
#127=VERTEX_POINT('',#412);
#128=VERTEX_POINT('',#416);
#129=VERTEX_POINT('',#418);
#130=VERTEX_POINT('',#420);
#131=VERTEX_POINT('',#422);
#132=VERTEX_POINT('',#424);
#133=VERTEX_POINT('',#426);
#134=VERTEX_POINT('',#428);
#135=VERTEX_POINT('',#430);
#136=EDGE_CURVE('',#112,#113,#52,.T.);
#137=EDGE_CURVE('',#113,#114,#53,.T.);
#138=EDGE_CURVE('',#114,#115,#54,.T.);
#139=EDGE_CURVE('',#115,#116,#55,.T.);
#140=EDGE_CURVE('',#116,#117,#56,.T.);
#141=EDGE_CURVE('',#117,#118,#46,.T.);
#142=EDGE_CURVE('',#118,#119,#57,.T.);
#143=EDGE_CURVE('',#119,#120,#47,.T.);
#144=EDGE_CURVE('',#120,#121,#58,.T.);
#145=EDGE_CURVE('',#121,#112,#48,.T.);
#146=EDGE_CURVE('',#122,#123,#59,.T.);
#147=EDGE_CURVE('',#123,#124,#60,.T.);
#148=EDGE_CURVE('',#124,#125,#61,.T.);
#149=EDGE_CURVE('',#125,#122,#62,.T.);
#150=EDGE_CURVE('',#114,#124,#63,.T.);
#151=EDGE_CURVE('',#125,#113,#64,.T.);
#152=EDGE_CURVE('',#112,#126,#65,.F.);
#153=EDGE_CURVE('',#126,#127,#66,.T.);
#154=EDGE_CURVE('',#122,#127,#67,.T.);
#155=EDGE_CURVE('',#127,#128,#68,.T.);
#156=EDGE_CURVE('',#129,#126,#49,.F.);
#157=EDGE_CURVE('',#130,#129,#69,.T.);
#158=EDGE_CURVE('',#131,#130,#50,.F.);
#159=EDGE_CURVE('',#132,#131,#70,.T.);
#160=EDGE_CURVE('',#133,#132,#51,.F.);
#161=EDGE_CURVE('',#134,#133,#71,.T.);
#162=EDGE_CURVE('',#135,#134,#72,.T.);
#163=EDGE_CURVE('',#128,#135,#73,.T.);
#164=EDGE_CURVE('',#128,#123,#74,.T.);
#165=EDGE_CURVE('',#129,#121,#75,.F.);
#166=EDGE_CURVE('',#120,#130,#76,.F.);
#167=EDGE_CURVE('',#131,#119,#77,.F.);
#168=EDGE_CURVE('',#118,#132,#78,.F.);
#169=EDGE_CURVE('',#133,#117,#79,.F.);
#170=EDGE_CURVE('',#116,#134,#80,.T.);
#171=EDGE_CURVE('',#115,#135,#81,.T.);
#172=ORIENTED_EDGE('',*,*,#136,.T.);
#173=ORIENTED_EDGE('',*,*,#137,.T.);
#174=ORIENTED_EDGE('',*,*,#138,.T.);
#175=ORIENTED_EDGE('',*,*,#139,.T.);
#176=ORIENTED_EDGE('',*,*,#140,.T.);
#177=ORIENTED_EDGE('',*,*,#141,.T.);
#178=ORIENTED_EDGE('',*,*,#142,.T.);
#179=ORIENTED_EDGE('',*,*,#143,.T.);
#180=ORIENTED_EDGE('',*,*,#144,.T.);
#181=ORIENTED_EDGE('',*,*,#145,.T.);
#182=ORIENTED_EDGE('',*,*,#146,.T.);
#183=ORIENTED_EDGE('',*,*,#147,.T.);
#184=ORIENTED_EDGE('',*,*,#148,.T.);
#185=ORIENTED_EDGE('',*,*,#149,.T.);
#186=ORIENTED_EDGE('',*,*,#148,.F.);
#187=ORIENTED_EDGE('',*,*,#150,.F.);
#188=ORIENTED_EDGE('',*,*,#137,.F.);
#189=ORIENTED_EDGE('',*,*,#151,.F.);
#190=ORIENTED_EDGE('',*,*,#149,.F.);
#191=ORIENTED_EDGE('',*,*,#151,.T.);
#192=ORIENTED_EDGE('',*,*,#136,.F.);
#193=ORIENTED_EDGE('',*,*,#152,.T.);
#194=ORIENTED_EDGE('',*,*,#153,.T.);
#195=ORIENTED_EDGE('',*,*,#154,.F.);
#196=ORIENTED_EDGE('',*,*,#155,.F.);
#197=ORIENTED_EDGE('',*,*,#153,.F.);
#198=ORIENTED_EDGE('',*,*,#156,.F.);
#199=ORIENTED_EDGE('',*,*,#157,.F.);
#200=ORIENTED_EDGE('',*,*,#158,.F.);
#201=ORIENTED_EDGE('',*,*,#159,.F.);
#202=ORIENTED_EDGE('',*,*,#160,.F.);
#203=ORIENTED_EDGE('',*,*,#161,.F.);
#204=ORIENTED_EDGE('',*,*,#162,.F.);
#205=ORIENTED_EDGE('',*,*,#163,.F.);
#206=ORIENTED_EDGE('',*,*,#164,.T.);
#207=ORIENTED_EDGE('',*,*,#146,.F.);
#208=ORIENTED_EDGE('',*,*,#154,.T.);
#209=ORIENTED_EDGE('',*,*,#155,.T.);
#210=ORIENTED_EDGE('',*,*,#165,.F.);
#211=ORIENTED_EDGE('',*,*,#156,.T.);
#212=ORIENTED_EDGE('',*,*,#152,.F.);
#213=ORIENTED_EDGE('',*,*,#145,.F.);
#214=ORIENTED_EDGE('',*,*,#166,.T.);
#215=ORIENTED_EDGE('',*,*,#157,.T.);
#216=ORIENTED_EDGE('',*,*,#165,.T.);
#217=ORIENTED_EDGE('',*,*,#144,.F.);
#218=ORIENTED_EDGE('',*,*,#167,.F.);
#219=ORIENTED_EDGE('',*,*,#158,.T.);
#220=ORIENTED_EDGE('',*,*,#166,.F.);
#221=ORIENTED_EDGE('',*,*,#143,.F.);
#222=ORIENTED_EDGE('',*,*,#168,.T.);
#223=ORIENTED_EDGE('',*,*,#159,.T.);
#224=ORIENTED_EDGE('',*,*,#167,.T.);
#225=ORIENTED_EDGE('',*,*,#142,.F.);
#226=ORIENTED_EDGE('',*,*,#169,.F.);
#227=ORIENTED_EDGE('',*,*,#160,.T.);
#228=ORIENTED_EDGE('',*,*,#168,.F.);
#229=ORIENTED_EDGE('',*,*,#141,.F.);
#230=ORIENTED_EDGE('',*,*,#170,.T.);
#231=ORIENTED_EDGE('',*,*,#161,.T.);
#232=ORIENTED_EDGE('',*,*,#169,.T.);
#233=ORIENTED_EDGE('',*,*,#140,.F.);
#234=ORIENTED_EDGE('',*,*,#171,.T.);
#235=ORIENTED_EDGE('',*,*,#162,.T.);
#236=ORIENTED_EDGE('',*,*,#170,.F.);
#237=ORIENTED_EDGE('',*,*,#139,.F.);
#238=ORIENTED_EDGE('',*,*,#147,.F.);
#239=ORIENTED_EDGE('',*,*,#164,.F.);
#240=ORIENTED_EDGE('',*,*,#163,.T.);
#241=ORIENTED_EDGE('',*,*,#171,.F.);
#242=ORIENTED_EDGE('',*,*,#138,.F.);
#243=ORIENTED_EDGE('',*,*,#150,.T.);
#244=PLANE('',#283);
#245=PLANE('',#287);
#246=PLANE('',#288);
#247=PLANE('',#289);
#248=PLANE('',#290);
#249=PLANE('',#294);
#250=PLANE('',#296);
#251=PLANE('',#298);
#252=PLANE('',#300);
#253=PLANE('',#301);
#254=PLANE('',#302);
#255=ADVANCED_FACE('',(#18),#244,.T.);
#256=ADVANCED_FACE('',(#19),#245,.T.);
#257=ADVANCED_FACE('',(#20),#246,.F.);
#258=ADVANCED_FACE('',(#21),#247,.T.);
#259=ADVANCED_FACE('',(#22),#248,.F.);
#260=ADVANCED_FACE('',(#23),#249,.T.);
#261=ADVANCED_FACE('',(#24),#15,.F.);
#262=ADVANCED_FACE('',(#25),#250,.T.);
#263=ADVANCED_FACE('',(#26),#16,.F.);
#264=ADVANCED_FACE('',(#27),#251,.T.);
#265=ADVANCED_FACE('',(#28),#17,.F.);
#266=ADVANCED_FACE('',(#29),#252,.T.);
#267=ADVANCED_FACE('',(#30),#253,.F.);
#268=ADVANCED_FACE('',(#31),#254,.F.);
#269=CLOSED_SHELL('',(#255,#256,#257,#258,#259,#260,#261,#262,#263,#264,
#265,#266,#267,#268));
#270=DERIVED_UNIT_ELEMENT(#272,1.);
#271=DERIVED_UNIT_ELEMENT(#455,-3.);
#272=(
MASS_UNIT()
NAMED_UNIT(*)
SI_UNIT(.KILO.,.GRAM.)
);
#273=DERIVED_UNIT((#270,#271));
#274=MEASURE_REPRESENTATION_ITEM('density measure',
POSITIVE_RATIO_MEASURE(7850.),#273);
#275=PROPERTY_DEFINITION_REPRESENTATION(#280,#277);
#276=PROPERTY_DEFINITION_REPRESENTATION(#281,#278);
#277=REPRESENTATION('material name',(#279),#452);
#278=REPRESENTATION('density',(#274),#452);
#279=DESCRIPTIVE_REPRESENTATION_ITEM('Steel','Steel');
#280=PROPERTY_DEFINITION('material property','material name',#462);
#281=PROPERTY_DEFINITION('material property','density of part',#462);
#282=AXIS2_PLACEMENT_3D('',#375,#303,#304);
#283=AXIS2_PLACEMENT_3D('',#376,#305,#306);
#284=AXIS2_PLACEMENT_3D('',#389,#312,#313);
#285=AXIS2_PLACEMENT_3D('',#393,#315,#316);
#286=AXIS2_PLACEMENT_3D('',#396,#318,#319);
#287=AXIS2_PLACEMENT_3D('',#397,#320,#321);
#288=AXIS2_PLACEMENT_3D('',#406,#326,#327);
#289=AXIS2_PLACEMENT_3D('',#409,#330,#331);
#290=AXIS2_PLACEMENT_3D('',#415,#335,#336);
#291=AXIS2_PLACEMENT_3D('',#419,#338,#339);
#292=AXIS2_PLACEMENT_3D('',#423,#341,#342);
#293=AXIS2_PLACEMENT_3D('',#427,#344,#345);
#294=AXIS2_PLACEMENT_3D('',#433,#349,#350);
#295=AXIS2_PLACEMENT_3D('',#435,#352,#353);
#296=AXIS2_PLACEMENT_3D('',#437,#355,#356);
#297=AXIS2_PLACEMENT_3D('',#439,#358,#359);
#298=AXIS2_PLACEMENT_3D('',#441,#361,#362);
#299=AXIS2_PLACEMENT_3D('',#443,#364,#365);
#300=AXIS2_PLACEMENT_3D('',#445,#367,#368);
#301=AXIS2_PLACEMENT_3D('',#447,#370,#371);
#302=AXIS2_PLACEMENT_3D('',#449,#373,#374);
#303=DIRECTION('axis',(0.,0.,1.));
#304=DIRECTION('refdir',(1.,0.,0.));
#305=DIRECTION('center_axis',(3.69778549322353E-32,-1.,8.62816615085488E-31));
#306=DIRECTION('ref_axis',(1.,3.69778549322353E-32,4.37905770101505E-47));
#307=DIRECTION('',(1.,3.69778549322353E-32,-2.12700717505023E-62));
#308=DIRECTION('',(-4.37905770101505E-47,8.62816615085488E-31,1.));
#309=DIRECTION('',(-1.,-3.69778549322353E-32,-4.37905770101505E-47));
#310=DIRECTION('',(4.37905770101505E-47,-8.62816615085488E-31,-1.));
#311=DIRECTION('',(1.,3.69778549322353E-32,-2.12700717505023E-62));
#312=DIRECTION('center_axis',(-3.69778549322353E-32,1.,-8.62816615085488E-31));
#313=DIRECTION('ref_axis',(4.37905770101505E-47,-8.62816615085487E-31,-1.));
#314=DIRECTION('',(1.,3.69778549322353E-32,-2.12700717505023E-62));
#315=DIRECTION('center_axis',(-3.69778549322353E-32,1.,-8.62816615085488E-31));
#316=DIRECTION('ref_axis',(4.37905770101505E-47,-8.62816615085487E-31,-1.));
#317=DIRECTION('',(1.,3.69778549322353E-32,-2.12700717505023E-62));
#318=DIRECTION('center_axis',(-3.69778549322353E-32,1.,-8.62816615085488E-31));
#319=DIRECTION('ref_axis',(4.37905770101505E-47,-8.62816615085487E-31,-1.));
#320=DIRECTION('center_axis',(-2.4651903288157E-32,1.,-8.62816615085487E-31));
#321=DIRECTION('ref_axis',(-1.06350358752512E-62,8.62816615085487E-31,1.));
#322=DIRECTION('',(4.24221214785833E-47,5.55111512312587E-17,1.));
#323=DIRECTION('',(1.,2.4651903288157E-32,4.37905770101505E-47));
#324=DIRECTION('',(4.37905770101505E-47,-8.62816615085487E-31,-1.));
#325=DIRECTION('',(-1.,-2.4651903288157E-32,1.06350358752512E-62));
#326=DIRECTION('center_axis',(-1.,-2.4651903288157E-32,-4.37905770101505E-47));
#327=DIRECTION('ref_axis',(-4.37905770101505E-47,8.62816615085488E-31,1.));
#328=DIRECTION('',(-2.4651903288157E-32,1.,-8.62816615085487E-31));
#329=DIRECTION('',(0.,-1.,0.));
#330=DIRECTION('center_axis',(1.06350358752512E-62,-8.62816615085487E-31,
-1.));
#331=DIRECTION('ref_axis',(1.,2.4651903288157E-32,-1.06350358752512E-62));
#332=DIRECTION('',(2.4651903288157E-32,-1.,8.62816615085487E-31));
#333=DIRECTION('',(1.,3.69778549322353E-32,-2.12700717505023E-62));
#334=DIRECTION('',(-2.4651903288157E-32,1.,-8.62816615085487E-31));
#335=DIRECTION('center_axis',(3.69778549322353E-32,-1.,8.62816615085488E-31));
#336=DIRECTION('ref_axis',(1.,3.69778549322353E-32,4.37905770101505E-47));
#337=DIRECTION('',(4.37905770101505E-47,8.62816615085488E-31,1.));
#338=DIRECTION('center_axis',(3.69778549322353E-32,-1.,8.62816615085488E-31));
#339=DIRECTION('ref_axis',(4.37905770101505E-47,-8.62816615085487E-31,-1.));
#340=DIRECTION('',(1.,3.69778549322353E-32,-2.12700717505023E-62));
#341=DIRECTION('center_axis',(3.69778549322353E-32,-1.,8.62816615085488E-31));
#342=DIRECTION('ref_axis',(4.37905770101505E-47,-8.62816615085487E-31,-1.));
#343=DIRECTION('',(1.,3.69778549322353E-32,-2.12700717505023E-62));
#344=DIRECTION('center_axis',(3.69778549322353E-32,-1.,8.62816615085488E-31));
#345=DIRECTION('ref_axis',(4.37905770101505E-47,-8.62816615085487E-31,-1.));
#346=DIRECTION('',(1.,3.69778549322353E-32,-2.12700717505023E-62));
#347=DIRECTION('',(4.37905770101505E-47,-8.62816615085488E-31,-1.));
#348=DIRECTION('',(-1.,-3.69778549322353E-32,-4.37905770101505E-47));
#349=DIRECTION('center_axis',(1.,2.46519032881571E-32,-4.37905770101505E-47));
#350=DIRECTION('ref_axis',(-4.24221214785833E-47,-5.55111512312587E-17,
-1.));
#351=DIRECTION('',(2.4651903288157E-32,-1.,8.62816615085487E-31));
#352=DIRECTION('center_axis',(2.4651903288157E-32,-1.,8.62816615085487E-31));
#353=DIRECTION('ref_axis',(-1.22464679914735E-16,8.62816615085487E-31,1.));
#354=DIRECTION('',(-2.4651903288157E-32,1.,-8.62816615085487E-31));
#355=DIRECTION('center_axis',(1.06350358752512E-62,-8.62816615085487E-31,
-1.));
#356=DIRECTION('ref_axis',(1.,2.4651903288157E-32,-1.06350358752512E-62));
#357=DIRECTION('',(2.4651903288157E-32,-1.,8.62816615085487E-31));
#358=DIRECTION('center_axis',(2.4651903288157E-32,-1.,8.62816615085487E-31));
#359=DIRECTION('ref_axis',(-1.22464679914735E-16,8.62816615085487E-31,1.));
#360=DIRECTION('',(-2.4651903288157E-32,1.,-8.62816615085487E-31));
#361=DIRECTION('center_axis',(1.06350358752512E-62,-8.62816615085487E-31,
-1.));
#362=DIRECTION('ref_axis',(1.,2.4651903288157E-32,-1.06350358752512E-62));
#363=DIRECTION('',(2.4651903288157E-32,-1.,8.62816615085487E-31));
#364=DIRECTION('center_axis',(2.4651903288157E-32,-1.,8.62816615085487E-31));
#365=DIRECTION('ref_axis',(-1.22464679914735E-16,8.62816615085487E-31,1.));
#366=DIRECTION('',(-2.4651903288157E-32,1.,-8.62816615085487E-31));
#367=DIRECTION('center_axis',(1.06350358752512E-62,-8.62816615085487E-31,
-1.));
#368=DIRECTION('ref_axis',(1.,2.4651903288157E-32,-1.06350358752512E-62));
#369=DIRECTION('',(-2.4651903288157E-32,1.,-8.62816615085487E-31));
#370=DIRECTION('center_axis',(1.,2.4651903288157E-32,4.37905770101505E-47));
#371=DIRECTION('ref_axis',(4.37905770101505E-47,-8.62816615085488E-31,-1.));
#372=DIRECTION('',(-2.4651903288157E-32,1.,-8.62816615085487E-31));
#373=DIRECTION('center_axis',(4.37905770101505E-47,-8.62816615085487E-31,
-1.));
#374=DIRECTION('ref_axis',(-1.,-3.69778549322353E-32,-4.37905770101505E-47));
#375=CARTESIAN_POINT('',(0.,0.,0.));
#376=CARTESIAN_POINT('Origin',(46.2684010363226,-253.35,-62.5723968322788));
#377=CARTESIAN_POINT('',(121.768401036323,-253.35,-22.5723968322788));
#378=CARTESIAN_POINT('',(126.268401036323,-253.35,-22.5723968322788));
#379=CARTESIAN_POINT('',(83.7684010363226,-253.35,-22.5723968322788));
#380=CARTESIAN_POINT('',(126.268401036323,-253.35,-6.5723968322788));
#381=CARTESIAN_POINT('',(126.268401036323,-253.35,-62.5723968322788));
#382=CARTESIAN_POINT('',(46.2684010363226,-253.35,-6.5723968322788));
#383=CARTESIAN_POINT('',(46.2684010363226,-253.35,-6.5723968322788));
#384=CARTESIAN_POINT('',(46.2684010363226,-253.35,-22.5723968322788));
#385=CARTESIAN_POINT('',(46.2684010363226,-253.35,-62.5723968322788));
#386=CARTESIAN_POINT('',(50.7684010363226,-253.35,-22.5723968322788));
#387=CARTESIAN_POINT('',(46.2684010363226,-253.35,-22.5723968322788));
#388=CARTESIAN_POINT('',(63.7684010363226,-253.35,-22.5723968322788));
#389=CARTESIAN_POINT('Origin',(57.2684010363226,-253.35,-22.5723968322788));
#390=CARTESIAN_POINT('',(76.7684010363226,-253.35,-22.5723968322788));
#391=CARTESIAN_POINT('',(54.7684010363226,-253.35,-22.5723968322788));
#392=CARTESIAN_POINT('',(95.7684010363226,-253.35,-22.5723968322788));
#393=CARTESIAN_POINT('Origin',(86.2684010363226,-253.35,-22.5723968322788));
#394=CARTESIAN_POINT('',(108.768401036323,-253.35,-22.5723968322788));
#395=CARTESIAN_POINT('',(69.5184010363226,-253.35,-22.5723968322788));
#396=CARTESIAN_POINT('Origin',(115.268401036323,-253.35,-22.5723968322788));
#397=CARTESIAN_POINT('Origin',(86.2684010363226,-225.05,-14.5723968322788));
#398=CARTESIAN_POINT('',(122.768401036323,-225.05,-22.5723968322788));
#399=CARTESIAN_POINT('',(122.768401036323,-225.05,-6.5723968322788));
#400=CARTESIAN_POINT('',(122.768401036323,-225.05,-14.5723968322788));
#401=CARTESIAN_POINT('',(126.268401036323,-225.05,-6.5723968322788));
#402=CARTESIAN_POINT('',(106.268401036323,-225.05,-6.5723968322788));
#403=CARTESIAN_POINT('',(126.268401036323,-225.05,-22.5723968322788));
#404=CARTESIAN_POINT('',(126.268401036323,-225.05,-38.5723968322788));
#405=CARTESIAN_POINT('',(103.768401036323,-225.05,-22.5723968322788));
#406=CARTESIAN_POINT('Origin',(126.268401036323,-235.35,-62.5723968322788));
#407=CARTESIAN_POINT('',(126.268401036323,-235.35,-6.5723968322788));
#408=CARTESIAN_POINT('',(126.268401036323,-235.35,-22.5723968322788));
#409=CARTESIAN_POINT('Origin',(121.268401036323,-206.35,-22.5723968322788));
#410=CARTESIAN_POINT('',(121.768401036323,-206.35,-22.5723968322788));
#411=CARTESIAN_POINT('',(121.768401036323,-235.35,-22.5723968322788));
#412=CARTESIAN_POINT('',(122.768401036323,-206.35,-22.5723968322788));
#413=CARTESIAN_POINT('',(83.7684010363226,-206.35,-22.5723968322788));
#414=CARTESIAN_POINT('',(122.768401036323,-210.7,-22.5723968322788));
#415=CARTESIAN_POINT('Origin',(46.2684010363226,-206.35,-62.5723968322788));
#416=CARTESIAN_POINT('',(122.768401036323,-206.35,-6.5723968322788));
#417=CARTESIAN_POINT('',(122.768401036323,-206.35,-38.5723968322788));
#418=CARTESIAN_POINT('',(108.768401036323,-206.35,-22.5723968322788));
#419=CARTESIAN_POINT('Origin',(115.268401036323,-206.35,-22.5723968322788));
#420=CARTESIAN_POINT('',(95.7684010363226,-206.35,-22.5723968322788));
#421=CARTESIAN_POINT('',(69.5184010363226,-206.35,-22.5723968322788));
#422=CARTESIAN_POINT('',(76.7684010363226,-206.35,-22.5723968322788));
#423=CARTESIAN_POINT('Origin',(86.2684010363226,-206.35,-22.5723968322788));
#424=CARTESIAN_POINT('',(63.7684010363226,-206.35,-22.5723968322788));
#425=CARTESIAN_POINT('',(54.7684010363226,-206.35,-22.5723968322788));
#426=CARTESIAN_POINT('',(50.7684010363226,-206.35,-22.5723968322788));
#427=CARTESIAN_POINT('Origin',(57.2684010363226,-206.35,-22.5723968322788));
#428=CARTESIAN_POINT('',(46.2684010363226,-206.35,-22.5723968322788));
#429=CARTESIAN_POINT('',(46.2684010363226,-206.35,-22.5723968322788));
#430=CARTESIAN_POINT('',(46.2684010363226,-206.35,-6.5723968322788));
#431=CARTESIAN_POINT('',(46.2684010363226,-206.35,-62.5723968322788));
#432=CARTESIAN_POINT('',(46.2684010363226,-206.35,-6.5723968322788));
#433=CARTESIAN_POINT('Origin',(122.768401036323,-215.05,-14.5723968322788));
#434=CARTESIAN_POINT('',(122.768401036323,-225.2,-6.5723968322788));
#435=CARTESIAN_POINT('Origin',(115.268401036323,-235.35,-22.5723968322788));
#436=CARTESIAN_POINT('',(108.768401036323,-235.35,-22.5723968322788));
#437=CARTESIAN_POINT('Origin',(92.7684010363226,-206.35,-22.5723968322788));
#438=CARTESIAN_POINT('',(95.7684010363226,-235.35,-22.5723968322788));
#439=CARTESIAN_POINT('Origin',(86.2684010363226,-235.35,-22.5723968322788));
#440=CARTESIAN_POINT('',(76.7684010363226,-235.35,-22.5723968322788));
#441=CARTESIAN_POINT('Origin',(63.2684010363226,-206.35,-22.5723968322788));
#442=CARTESIAN_POINT('',(63.7684010363226,-235.35,-22.5723968322788));
#443=CARTESIAN_POINT('Origin',(57.2684010363226,-235.35,-22.5723968322788));
#444=CARTESIAN_POINT('',(50.7684010363226,-235.35,-22.5723968322788));
#445=CARTESIAN_POINT('Origin',(46.2684010363226,-206.35,-22.5723968322788));
#446=CARTESIAN_POINT('',(46.2684010363226,-220.85,-22.5723968322788));
#447=CARTESIAN_POINT('Origin',(46.2684010363226,-235.35,-6.5723968322788));
#448=CARTESIAN_POINT('',(46.2684010363226,-235.35,-6.5723968322788));
#449=CARTESIAN_POINT('Origin',(126.268401036323,-235.35,-6.5723968322788));
#450=UNCERTAINTY_MEASURE_WITH_UNIT(LENGTH_MEASURE(0.01),#454,
'DISTANCE_ACCURACY_VALUE',
'Maximum model space distance between geometric entities at asserted c
onnectivities');
#451=UNCERTAINTY_MEASURE_WITH_UNIT(LENGTH_MEASURE(0.01),#454,
'DISTANCE_ACCURACY_VALUE',
'Maximum model space distance between geometric entities at asserted c
onnectivities');
#452=(
GEOMETRIC_REPRESENTATION_CONTEXT(3)
GLOBAL_UNCERTAINTY_ASSIGNED_CONTEXT((#450))
GLOBAL_UNIT_ASSIGNED_CONTEXT((#454,#456,#457))
REPRESENTATION_CONTEXT('','3D')
);
#453=(
GEOMETRIC_REPRESENTATION_CONTEXT(3)
GLOBAL_UNCERTAINTY_ASSIGNED_CONTEXT((#451))
GLOBAL_UNIT_ASSIGNED_CONTEXT((#454,#456,#457))
REPRESENTATION_CONTEXT('','3D')
);
#454=(
LENGTH_UNIT()
NAMED_UNIT(*)
SI_UNIT(.MILLI.,.METRE.)
);
#455=(
LENGTH_UNIT()
NAMED_UNIT(*)
SI_UNIT($,.METRE.)
);
#456=(
NAMED_UNIT(*)
PLANE_ANGLE_UNIT()
SI_UNIT($,.RADIAN.)
);
#457=(
NAMED_UNIT(*)
SI_UNIT($,.STERADIAN.)
SOLID_ANGLE_UNIT()
);
#458=SHAPE_DEFINITION_REPRESENTATION(#459,#460);
#459=PRODUCT_DEFINITION_SHAPE('',$,#462);
#460=SHAPE_REPRESENTATION('',(#282),#452);
#461=PRODUCT_DEFINITION_CONTEXT('part definition',#466,'design');
#462=PRODUCT_DEFINITION('2026-09-16-01-27-46-997','Top Limit Housing',#463,
#461);
#463=PRODUCT_DEFINITION_FORMATION('',$,#468);
#464=PRODUCT_RELATED_PRODUCT_CATEGORY('Top Limit Housing',
'Top Limit Housing',(#468));
#465=APPLICATION_PROTOCOL_DEFINITION('international standard',
'automotive_design',2009,#466);
#466=APPLICATION_CONTEXT(
'Core Data for Automotive Mechanical Design Process');
#467=PRODUCT_CONTEXT('part definition',#466,'mechanical');
#468=PRODUCT('2026-09-16-01-27-46-997','Top Limit Housing',$,(#467));
#469=PRESENTATION_STYLE_ASSIGNMENT((#471));
#470=PRESENTATION_STYLE_ASSIGNMENT((#472));
#471=SURFACE_STYLE_USAGE(.BOTH.,#473);
#472=SURFACE_STYLE_USAGE(.BOTH.,#474);
#473=SURFACE_SIDE_STYLE('',(#475));
#474=SURFACE_SIDE_STYLE('',(#476));
#475=SURFACE_STYLE_FILL_AREA(#477);
#476=SURFACE_STYLE_FILL_AREA(#478);
#477=FILL_AREA_STYLE('Steel - Satin',(#479));
#478=FILL_AREA_STYLE(
'PA 12 - PA 2200 - 120\X\B5m - Balance (with EOS 3D printers)',(#480));
#479=FILL_AREA_STYLE_COLOUR('Steel - Satin',#481);
#480=FILL_AREA_STYLE_COLOUR(
'PA 12 - PA 2200 - 120\X\B5m - Balance (with EOS 3D printers)',#482);
#481=COLOUR_RGB('Steel - Satin',0.627450980392157,0.627450980392157,0.627450980392157);
#482=COLOUR_RGB(
'PA 12 - PA 2200 - 120\X\B5m - Balance (with EOS 3D printers)',0.964705882352941,
0.964705882352941,0.952941176470588);
ENDSEC;
END-ISO-10303-21;
