ISO-10303-21;
HEADER;
/* Generated by software containing ST-Developer
 * from STEP Tools, Inc. (www.steptools.com) 
 */

FILE_DESCRIPTION(
/* description */ (''),
/* implementation_level */ '2;1');

FILE_NAME(
/* name */ 'Top Clamp.step',
/* time_stamp */ '2026-09-16T01:27:47-04:00',
/* author */ (''),
/* organization */ (''),
/* preprocessor_version */ 'ST-DEVELOPER v20.2',
/* originating_system */ 'Autodesk Translation Framework v15.15.0.0',
/* authorisation */ '');

FILE_SCHEMA (('AUTOMOTIVE_DESIGN { 1 0 10303 214 3 1 1 }'));
ENDSEC;

DATA;
#10=MECHANICAL_DESIGN_GEOMETRIC_PRESENTATION_REPRESENTATION('',(#13),#960);
#11=SHAPE_REPRESENTATION_RELATIONSHIP('SRR','None',#967,#12);
#12=ADVANCED_BREP_SHAPE_REPRESENTATION('',(#14),#959);
#13=STYLED_ITEM('',(#977),#14);
#14=MANIFOLD_SOLID_BREP('Top Clamp',#520);
#15=B_SPLINE_SURFACE_WITH_KNOTS('',3,1,((#912,#913),(#914,#915),(#916,#917),
(#918,#919),(#920,#921),(#922,#923),(#924,#925),(#926,#927),(#928,#929),
(#930,#931)),.UNSPECIFIED.,.F.,.F.,.F.,(4,3,3,4),(2,2),(1.,2.,3.,4.),(0.,
0.8812),.UNSPECIFIED.);
#16=B_SPLINE_SURFACE_WITH_KNOTS('',3,1,((#934,#935),(#936,#937),(#938,#939),
(#940,#941),(#942,#943),(#944,#945),(#946,#947)),.UNSPECIFIED.,.F.,.F.,
 .F.,(4,3,4),(2,2),(4.,5.,6.),(0.,0.8812),.UNSPECIFIED.);
#17=FACE_BOUND('',#83,.T.);
#18=FACE_BOUND('',#85,.T.);
#19=FACE_BOUND('',#102,.T.);
#20=B_SPLINE_CURVE_WITH_KNOTS('',3,(#817,#818,#819,#820,#821,#822,#823,
#824,#825,#826),.UNSPECIFIED.,.F.,.F.,(4,3,3,4),(1.,2.,3.,4.),
 .UNSPECIFIED.);
#21=B_SPLINE_CURVE_WITH_KNOTS('',3,(#827,#828,#829,#830,#831,#832,#833),
 .UNSPECIFIED.,.F.,.F.,(4,3,4),(4.,5.,6.),.UNSPECIFIED.);
#22=B_SPLINE_CURVE_WITH_KNOTS('',3,(#837,#838,#839,#840,#841,#842,#843),
 .UNSPECIFIED.,.F.,.F.,(4,3,4),(-2.67954237622482,-1.33977118811241,0.),
 .UNSPECIFIED.);
#23=B_SPLINE_CURVE_WITH_KNOTS('',3,(#845,#846,#847,#848,#849,#850,#851,
#852,#853,#854),.UNSPECIFIED.,.F.,.F.,(4,3,3,4),(-7.74362674029256,-5.16241782686171,
-2.58120891343085,0.),.UNSPECIFIED.);
#24=PLANE('',#560);
#25=PLANE('',#563);
#26=PLANE('',#564);
#27=PLANE('',#565);
#28=PLANE('',#572);
#29=PLANE('',#575);
#30=PLANE('',#578);
#31=PLANE('',#581);
#32=PLANE('',#582);
#33=PLANE('',#585);
#34=PLANE('',#588);
#35=PLANE('',#589);
#36=TOROIDAL_SURFACE('',#537,4.99999999999999,2.5);
#37=TOROIDAL_SURFACE('',#543,5.,2.5);
#38=TOROIDAL_SURFACE('',#549,4.99999999999998,2.5);
#39=TOROIDAL_SURFACE('',#555,5.,2.5);
#40=FACE_OUTER_BOUND('',#70,.T.);
#41=FACE_OUTER_BOUND('',#71,.T.);
#42=FACE_OUTER_BOUND('',#72,.T.);
#43=FACE_OUTER_BOUND('',#73,.T.);
#44=FACE_OUTER_BOUND('',#74,.T.);
#45=FACE_OUTER_BOUND('',#75,.T.);
#46=FACE_OUTER_BOUND('',#76,.T.);
#47=FACE_OUTER_BOUND('',#77,.T.);
#48=FACE_OUTER_BOUND('',#78,.T.);
#49=FACE_OUTER_BOUND('',#79,.T.);
#50=FACE_OUTER_BOUND('',#80,.T.);
#51=FACE_OUTER_BOUND('',#81,.T.);
#52=FACE_OUTER_BOUND('',#82,.T.);
#53=FACE_OUTER_BOUND('',#84,.T.);
#54=FACE_OUTER_BOUND('',#86,.T.);
#55=FACE_OUTER_BOUND('',#87,.T.);
#56=FACE_OUTER_BOUND('',#88,.T.);
#57=FACE_OUTER_BOUND('',#89,.T.);
#58=FACE_OUTER_BOUND('',#90,.T.);
#59=FACE_OUTER_BOUND('',#91,.T.);
#60=FACE_OUTER_BOUND('',#92,.T.);
#61=FACE_OUTER_BOUND('',#93,.T.);
#62=FACE_OUTER_BOUND('',#94,.T.);
#63=FACE_OUTER_BOUND('',#95,.T.);
#64=FACE_OUTER_BOUND('',#96,.T.);
#65=FACE_OUTER_BOUND('',#97,.T.);
#66=FACE_OUTER_BOUND('',#98,.T.);
#67=FACE_OUTER_BOUND('',#99,.T.);
#68=FACE_OUTER_BOUND('',#100,.T.);
#69=FACE_OUTER_BOUND('',#101,.T.);
#70=EDGE_LOOP('',(#332,#333,#334,#335));
#71=EDGE_LOOP('',(#336,#337,#338,#339));
#72=EDGE_LOOP('',(#340,#341,#342,#343));
#73=EDGE_LOOP('',(#344,#345,#346,#347));
#74=EDGE_LOOP('',(#348,#349,#350,#351));
#75=EDGE_LOOP('',(#352,#353,#354,#355));
#76=EDGE_LOOP('',(#356,#357,#358,#359));
#77=EDGE_LOOP('',(#360,#361,#362,#363));
#78=EDGE_LOOP('',(#364,#365,#366,#367));
#79=EDGE_LOOP('',(#368,#369,#370,#371));
#80=EDGE_LOOP('',(#372,#373,#374,#375));
#81=EDGE_LOOP('',(#376,#377,#378,#379));
#82=EDGE_LOOP('',(#380,#381,#382,#383,#384,#385,#386,#387));
#83=EDGE_LOOP('',(#388,#389,#390));
#84=EDGE_LOOP('',(#391,#392,#393));
#85=EDGE_LOOP('',(#394,#395,#396,#397,#398,#399,#400,#401));
#86=EDGE_LOOP('',(#402,#403,#404,#405));
#87=EDGE_LOOP('',(#406,#407,#408,#409));
#88=EDGE_LOOP('',(#410,#411,#412,#413));
#89=EDGE_LOOP('',(#414,#415,#416,#417));
#90=EDGE_LOOP('',(#418,#419,#420,#421));
#91=EDGE_LOOP('',(#422,#423,#424,#425));
#92=EDGE_LOOP('',(#426,#427,#428,#429));
#93=EDGE_LOOP('',(#430,#431,#432,#433));
#94=EDGE_LOOP('',(#434,#435,#436,#437));
#95=EDGE_LOOP('',(#438,#439,#440,#441));
#96=EDGE_LOOP('',(#442,#443,#444,#445));
#97=EDGE_LOOP('',(#446,#447,#448,#449));
#98=EDGE_LOOP('',(#450,#451,#452,#453));
#99=EDGE_LOOP('',(#454,#455,#456,#457));
#100=EDGE_LOOP('',(#458,#459,#460,#461));
#101=EDGE_LOOP('',(#462,#463,#464,#465,#466,#467,#468,#469));
#102=EDGE_LOOP('',(#470,#471,#472,#473,#474,#475,#476,#477));
#103=LINE('',#751,#144);
#104=LINE('',#754,#145);
#105=LINE('',#765,#146);
#106=LINE('',#766,#147);
#107=LINE('',#777,#148);
#108=LINE('',#778,#149);
#109=LINE('',#789,#150);
#110=LINE('',#790,#151);
#111=LINE('',#796,#152);
#112=LINE('',#799,#153);
#113=LINE('',#802,#154);
#114=LINE('',#803,#155);
#115=LINE('',#806,#156);
#116=LINE('',#810,#157);
#117=LINE('',#811,#158);
#118=LINE('',#815,#159);
#119=LINE('',#855,#160);
#120=LINE('',#860,#161);
#121=LINE('',#864,#162);
#122=LINE('',#868,#163);
#123=LINE('',#871,#164);
#124=LINE('',#874,#165);
#125=LINE('',#877,#166);
#126=LINE('',#880,#167);
#127=LINE('',#881,#168);
#128=LINE('',#884,#169);
#129=LINE('',#887,#170);
#130=LINE('',#889,#171);
#131=LINE('',#892,#172);
#132=LINE('',#895,#173);
#133=LINE('',#897,#174);
#134=LINE('',#900,#175);
#135=LINE('',#903,#176);
#136=LINE('',#906,#177);
#137=LINE('',#908,#178);
#138=LINE('',#909,#179);
#139=LINE('',#932,#180);
#140=LINE('',#933,#181);
#141=LINE('',#948,#182);
#142=LINE('',#952,#183);
#143=LINE('',#955,#184);
#144=VECTOR('',#596,10.);
#145=VECTOR('',#599,10.);
#146=VECTOR('',#612,10.);
#147=VECTOR('',#613,10.);
#148=VECTOR('',#626,10.);
#149=VECTOR('',#627,10.);
#150=VECTOR('',#640,10.);
#151=VECTOR('',#641,10.);
#152=VECTOR('',#650,10.);
#153=VECTOR('',#653,10.);
#154=VECTOR('',#656,10.);
#155=VECTOR('',#657,10.);
#156=VECTOR('',#660,10.);
#157=VECTOR('',#665,10.);
#158=VECTOR('',#666,10.);
#159=VECTOR('',#669,10.);
#160=VECTOR('',#672,10.);
#161=VECTOR('',#675,10.);
#162=VECTOR('',#678,10.);
#163=VECTOR('',#681,10.);
#164=VECTOR('',#684,10.);
#165=VECTOR('',#687,10.);
#166=VECTOR('',#690,10.);
#167=VECTOR('',#693,10.);
#168=VECTOR('',#694,10.);
#169=VECTOR('',#697,10.);
#170=VECTOR('',#700,10.);
#171=VECTOR('',#703,10.);
#172=VECTOR('',#706,10.);
#173=VECTOR('',#709,10.);
#174=VECTOR('',#712,10.);
#175=VECTOR('',#715,10.);
#176=VECTOR('',#720,10.);
#177=VECTOR('',#723,10.);
#178=VECTOR('',#724,10.);
#179=VECTOR('',#725,10.);
#180=VECTOR('',#730,10.);
#181=VECTOR('',#731,10.);
#182=VECTOR('',#732,10.);
#183=VECTOR('',#737,10.);
#184=VECTOR('',#742,10.);
#185=CIRCLE('',#535,2.5);
#186=CIRCLE('',#536,2.5);
#187=CIRCLE('',#538,2.5);
#188=CIRCLE('',#539,4.99999999999999);
#189=CIRCLE('',#540,7.49999999999999);
#190=CIRCLE('',#542,2.5);
#191=CIRCLE('',#544,2.5);
#192=CIRCLE('',#545,5.);
#193=CIRCLE('',#546,7.5);
#194=CIRCLE('',#548,2.5);
#195=CIRCLE('',#550,2.5);
#196=CIRCLE('',#551,4.99999999999998);
#197=CIRCLE('',#552,7.49999999999998);
#198=CIRCLE('',#554,2.5);
#199=CIRCLE('',#556,5.);
#200=CIRCLE('',#557,7.5);
#201=CIRCLE('',#559,7.5);
#202=CIRCLE('',#562,7.49999999999999);
#203=CIRCLE('',#566,2.5);
#204=CIRCLE('',#567,2.5);
#205=CIRCLE('',#568,2.5);
#206=CIRCLE('',#569,2.5);
#207=CIRCLE('',#571,2.5);
#208=CIRCLE('',#574,2.5);
#209=CIRCLE('',#577,2.5);
#210=CIRCLE('',#580,2.5);
#211=CIRCLE('',#584,7.5);
#212=CIRCLE('',#587,7.49999999999998);
#213=VERTEX_POINT('',#747);
#214=VERTEX_POINT('',#748);
#215=VERTEX_POINT('',#750);
#216=VERTEX_POINT('',#752);
#217=VERTEX_POINT('',#756);
#218=VERTEX_POINT('',#757);
#219=VERTEX_POINT('',#762);
#220=VERTEX_POINT('',#763);
#221=VERTEX_POINT('',#768);
#222=VERTEX_POINT('',#769);
#223=VERTEX_POINT('',#774);
#224=VERTEX_POINT('',#775);
#225=VERTEX_POINT('',#780);
#226=VERTEX_POINT('',#781);
#227=VERTEX_POINT('',#786);
#228=VERTEX_POINT('',#787);
#229=VERTEX_POINT('',#795);
#230=VERTEX_POINT('',#797);
#231=VERTEX_POINT('',#801);
#232=VERTEX_POINT('',#805);
#233=VERTEX_POINT('',#809);
#234=VERTEX_POINT('',#813);
#235=VERTEX_POINT('',#814);
#236=VERTEX_POINT('',#816);
#237=VERTEX_POINT('',#835);
#238=VERTEX_POINT('',#836);
#239=VERTEX_POINT('',#844);
#240=VERTEX_POINT('',#856);
#241=VERTEX_POINT('',#857);
#242=VERTEX_POINT('',#859);
#243=VERTEX_POINT('',#861);
#244=VERTEX_POINT('',#863);
#245=VERTEX_POINT('',#865);
#246=VERTEX_POINT('',#867);
#247=VERTEX_POINT('',#869);
#248=VERTEX_POINT('',#873);
#249=VERTEX_POINT('',#875);
#250=VERTEX_POINT('',#879);
#251=VERTEX_POINT('',#883);
#252=VERTEX_POINT('',#885);
#253=VERTEX_POINT('',#891);
#254=VERTEX_POINT('',#893);
#255=VERTEX_POINT('',#899);
#256=VERTEX_POINT('',#905);
#257=VERTEX_POINT('',#907);
#258=VERTEX_POINT('',#951);
#259=EDGE_CURVE('',#213,#214,#185,.T.);
#260=EDGE_CURVE('',#214,#215,#103,.T.);
#261=EDGE_CURVE('',#215,#216,#186,.T.);
#262=EDGE_CURVE('',#216,#213,#104,.T.);
#263=EDGE_CURVE('',#217,#218,#187,.T.);
#264=EDGE_CURVE('',#218,#216,#188,.T.);
#265=EDGE_CURVE('',#215,#217,#189,.T.);
#266=EDGE_CURVE('',#219,#220,#190,.T.);
#267=EDGE_CURVE('',#220,#218,#105,.T.);
#268=EDGE_CURVE('',#217,#219,#106,.T.);
#269=EDGE_CURVE('',#221,#222,#191,.T.);
#270=EDGE_CURVE('',#222,#220,#192,.T.);
#271=EDGE_CURVE('',#219,#221,#193,.T.);
#272=EDGE_CURVE('',#223,#224,#194,.T.);
#273=EDGE_CURVE('',#224,#222,#107,.T.);
#274=EDGE_CURVE('',#221,#223,#108,.T.);
#275=EDGE_CURVE('',#225,#226,#195,.T.);
#276=EDGE_CURVE('',#226,#224,#196,.T.);
#277=EDGE_CURVE('',#223,#225,#197,.T.);
#278=EDGE_CURVE('',#227,#228,#198,.T.);
#279=EDGE_CURVE('',#228,#226,#109,.T.);
#280=EDGE_CURVE('',#225,#227,#110,.T.);
#281=EDGE_CURVE('',#213,#228,#199,.T.);
#282=EDGE_CURVE('',#227,#214,#200,.T.);
#283=EDGE_CURVE('',#229,#219,#111,.T.);
#284=EDGE_CURVE('',#230,#229,#201,.T.);
#285=EDGE_CURVE('',#230,#221,#112,.T.);
#286=EDGE_CURVE('',#231,#217,#113,.T.);
#287=EDGE_CURVE('',#229,#231,#114,.T.);
#288=EDGE_CURVE('',#232,#215,#115,.T.);
#289=EDGE_CURVE('',#231,#232,#202,.T.);
#290=EDGE_CURVE('',#233,#214,#116,.T.);
#291=EDGE_CURVE('',#232,#233,#117,.T.);
#292=EDGE_CURVE('',#234,#235,#118,.T.);
#293=EDGE_CURVE('',#235,#236,#20,.T.);
#294=EDGE_CURVE('',#236,#234,#21,.T.);
#295=EDGE_CURVE('',#237,#238,#22,.T.);
#296=EDGE_CURVE('',#239,#237,#23,.T.);
#297=EDGE_CURVE('',#238,#239,#119,.T.);
#298=EDGE_CURVE('',#240,#241,#203,.T.);
#299=EDGE_CURVE('',#242,#240,#120,.T.);
#300=EDGE_CURVE('',#243,#242,#204,.T.);
#301=EDGE_CURVE('',#244,#243,#121,.T.);
#302=EDGE_CURVE('',#245,#244,#205,.T.);
#303=EDGE_CURVE('',#246,#245,#122,.T.);
#304=EDGE_CURVE('',#247,#246,#206,.T.);
#305=EDGE_CURVE('',#241,#247,#123,.T.);
#306=EDGE_CURVE('',#244,#248,#124,.T.);
#307=EDGE_CURVE('',#248,#249,#207,.T.);
#308=EDGE_CURVE('',#249,#245,#125,.T.);
#309=EDGE_CURVE('',#250,#243,#126,.T.);
#310=EDGE_CURVE('',#248,#250,#127,.T.);
#311=EDGE_CURVE('',#246,#251,#128,.T.);
#312=EDGE_CURVE('',#251,#252,#208,.T.);
#313=EDGE_CURVE('',#252,#247,#129,.T.);
#314=EDGE_CURVE('',#251,#249,#130,.T.);
#315=EDGE_CURVE('',#241,#253,#131,.T.);
#316=EDGE_CURVE('',#253,#254,#209,.T.);
#317=EDGE_CURVE('',#254,#240,#132,.T.);
#318=EDGE_CURVE('',#253,#252,#133,.T.);
#319=EDGE_CURVE('',#242,#255,#134,.T.);
#320=EDGE_CURVE('',#255,#250,#210,.T.);
#321=EDGE_CURVE('',#255,#254,#135,.T.);
#322=EDGE_CURVE('',#256,#225,#136,.T.);
#323=EDGE_CURVE('',#257,#256,#137,.T.);
#324=EDGE_CURVE('',#257,#227,#138,.T.);
#325=EDGE_CURVE('',#233,#257,#211,.T.);
#326=EDGE_CURVE('',#237,#236,#139,.T.);
#327=EDGE_CURVE('',#239,#235,#140,.T.);
#328=EDGE_CURVE('',#238,#234,#141,.T.);
#329=EDGE_CURVE('',#258,#223,#142,.T.);
#330=EDGE_CURVE('',#256,#258,#212,.T.);
#331=EDGE_CURVE('',#258,#230,#143,.T.);
#332=ORIENTED_EDGE('',*,*,#259,.T.);
#333=ORIENTED_EDGE('',*,*,#260,.T.);
#334=ORIENTED_EDGE('',*,*,#261,.T.);
#335=ORIENTED_EDGE('',*,*,#262,.T.);
#336=ORIENTED_EDGE('',*,*,#263,.T.);
#337=ORIENTED_EDGE('',*,*,#264,.T.);
#338=ORIENTED_EDGE('',*,*,#261,.F.);
#339=ORIENTED_EDGE('',*,*,#265,.T.);
#340=ORIENTED_EDGE('',*,*,#266,.T.);
#341=ORIENTED_EDGE('',*,*,#267,.T.);
#342=ORIENTED_EDGE('',*,*,#263,.F.);
#343=ORIENTED_EDGE('',*,*,#268,.T.);
#344=ORIENTED_EDGE('',*,*,#269,.T.);
#345=ORIENTED_EDGE('',*,*,#270,.T.);
#346=ORIENTED_EDGE('',*,*,#266,.F.);
#347=ORIENTED_EDGE('',*,*,#271,.T.);
#348=ORIENTED_EDGE('',*,*,#272,.T.);
#349=ORIENTED_EDGE('',*,*,#273,.T.);
#350=ORIENTED_EDGE('',*,*,#269,.F.);
#351=ORIENTED_EDGE('',*,*,#274,.T.);
#352=ORIENTED_EDGE('',*,*,#275,.T.);
#353=ORIENTED_EDGE('',*,*,#276,.T.);
#354=ORIENTED_EDGE('',*,*,#272,.F.);
#355=ORIENTED_EDGE('',*,*,#277,.T.);
#356=ORIENTED_EDGE('',*,*,#278,.T.);
#357=ORIENTED_EDGE('',*,*,#279,.T.);
#358=ORIENTED_EDGE('',*,*,#275,.F.);
#359=ORIENTED_EDGE('',*,*,#280,.T.);
#360=ORIENTED_EDGE('',*,*,#259,.F.);
#361=ORIENTED_EDGE('',*,*,#281,.T.);
#362=ORIENTED_EDGE('',*,*,#278,.F.);
#363=ORIENTED_EDGE('',*,*,#282,.T.);
#364=ORIENTED_EDGE('',*,*,#271,.F.);
#365=ORIENTED_EDGE('',*,*,#283,.F.);
#366=ORIENTED_EDGE('',*,*,#284,.F.);
#367=ORIENTED_EDGE('',*,*,#285,.T.);
#368=ORIENTED_EDGE('',*,*,#268,.F.);
#369=ORIENTED_EDGE('',*,*,#286,.F.);
#370=ORIENTED_EDGE('',*,*,#287,.F.);
#371=ORIENTED_EDGE('',*,*,#283,.T.);
#372=ORIENTED_EDGE('',*,*,#265,.F.);
#373=ORIENTED_EDGE('',*,*,#288,.F.);
#374=ORIENTED_EDGE('',*,*,#289,.F.);
#375=ORIENTED_EDGE('',*,*,#286,.T.);
#376=ORIENTED_EDGE('',*,*,#260,.F.);
#377=ORIENTED_EDGE('',*,*,#290,.F.);
#378=ORIENTED_EDGE('',*,*,#291,.F.);
#379=ORIENTED_EDGE('',*,*,#288,.T.);
#380=ORIENTED_EDGE('',*,*,#262,.F.);
#381=ORIENTED_EDGE('',*,*,#264,.F.);
#382=ORIENTED_EDGE('',*,*,#267,.F.);
#383=ORIENTED_EDGE('',*,*,#270,.F.);
#384=ORIENTED_EDGE('',*,*,#273,.F.);
#385=ORIENTED_EDGE('',*,*,#276,.F.);
#386=ORIENTED_EDGE('',*,*,#279,.F.);
#387=ORIENTED_EDGE('',*,*,#281,.F.);
#388=ORIENTED_EDGE('',*,*,#292,.T.);
#389=ORIENTED_EDGE('',*,*,#293,.T.);
#390=ORIENTED_EDGE('',*,*,#294,.T.);
#391=ORIENTED_EDGE('',*,*,#295,.F.);
#392=ORIENTED_EDGE('',*,*,#296,.F.);
#393=ORIENTED_EDGE('',*,*,#297,.F.);
#394=ORIENTED_EDGE('',*,*,#298,.F.);
#395=ORIENTED_EDGE('',*,*,#299,.F.);
#396=ORIENTED_EDGE('',*,*,#300,.F.);
#397=ORIENTED_EDGE('',*,*,#301,.F.);
#398=ORIENTED_EDGE('',*,*,#302,.F.);
#399=ORIENTED_EDGE('',*,*,#303,.F.);
#400=ORIENTED_EDGE('',*,*,#304,.F.);
#401=ORIENTED_EDGE('',*,*,#305,.F.);
#402=ORIENTED_EDGE('',*,*,#302,.T.);
#403=ORIENTED_EDGE('',*,*,#306,.T.);
#404=ORIENTED_EDGE('',*,*,#307,.T.);
#405=ORIENTED_EDGE('',*,*,#308,.T.);
#406=ORIENTED_EDGE('',*,*,#306,.F.);
#407=ORIENTED_EDGE('',*,*,#301,.T.);
#408=ORIENTED_EDGE('',*,*,#309,.F.);
#409=ORIENTED_EDGE('',*,*,#310,.F.);
#410=ORIENTED_EDGE('',*,*,#304,.T.);
#411=ORIENTED_EDGE('',*,*,#311,.T.);
#412=ORIENTED_EDGE('',*,*,#312,.T.);
#413=ORIENTED_EDGE('',*,*,#313,.T.);
#414=ORIENTED_EDGE('',*,*,#308,.F.);
#415=ORIENTED_EDGE('',*,*,#314,.F.);
#416=ORIENTED_EDGE('',*,*,#311,.F.);
#417=ORIENTED_EDGE('',*,*,#303,.T.);
#418=ORIENTED_EDGE('',*,*,#298,.T.);
#419=ORIENTED_EDGE('',*,*,#315,.T.);
#420=ORIENTED_EDGE('',*,*,#316,.T.);
#421=ORIENTED_EDGE('',*,*,#317,.T.);
#422=ORIENTED_EDGE('',*,*,#313,.F.);
#423=ORIENTED_EDGE('',*,*,#318,.F.);
#424=ORIENTED_EDGE('',*,*,#315,.F.);
#425=ORIENTED_EDGE('',*,*,#305,.T.);
#426=ORIENTED_EDGE('',*,*,#300,.T.);
#427=ORIENTED_EDGE('',*,*,#319,.T.);
#428=ORIENTED_EDGE('',*,*,#320,.T.);
#429=ORIENTED_EDGE('',*,*,#309,.T.);
#430=ORIENTED_EDGE('',*,*,#317,.F.);
#431=ORIENTED_EDGE('',*,*,#321,.F.);
#432=ORIENTED_EDGE('',*,*,#319,.F.);
#433=ORIENTED_EDGE('',*,*,#299,.T.);
#434=ORIENTED_EDGE('',*,*,#280,.F.);
#435=ORIENTED_EDGE('',*,*,#322,.F.);
#436=ORIENTED_EDGE('',*,*,#323,.F.);
#437=ORIENTED_EDGE('',*,*,#324,.T.);
#438=ORIENTED_EDGE('',*,*,#282,.F.);
#439=ORIENTED_EDGE('',*,*,#324,.F.);
#440=ORIENTED_EDGE('',*,*,#325,.F.);
#441=ORIENTED_EDGE('',*,*,#290,.T.);
#442=ORIENTED_EDGE('',*,*,#296,.T.);
#443=ORIENTED_EDGE('',*,*,#326,.T.);
#444=ORIENTED_EDGE('',*,*,#293,.F.);
#445=ORIENTED_EDGE('',*,*,#327,.F.);
#446=ORIENTED_EDGE('',*,*,#295,.T.);
#447=ORIENTED_EDGE('',*,*,#328,.T.);
#448=ORIENTED_EDGE('',*,*,#294,.F.);
#449=ORIENTED_EDGE('',*,*,#326,.F.);
#450=ORIENTED_EDGE('',*,*,#297,.T.);
#451=ORIENTED_EDGE('',*,*,#327,.T.);
#452=ORIENTED_EDGE('',*,*,#292,.F.);
#453=ORIENTED_EDGE('',*,*,#328,.F.);
#454=ORIENTED_EDGE('',*,*,#277,.F.);
#455=ORIENTED_EDGE('',*,*,#329,.F.);
#456=ORIENTED_EDGE('',*,*,#330,.F.);
#457=ORIENTED_EDGE('',*,*,#322,.T.);
#458=ORIENTED_EDGE('',*,*,#274,.F.);
#459=ORIENTED_EDGE('',*,*,#285,.F.);
#460=ORIENTED_EDGE('',*,*,#331,.F.);
#461=ORIENTED_EDGE('',*,*,#329,.T.);
#462=ORIENTED_EDGE('',*,*,#331,.T.);
#463=ORIENTED_EDGE('',*,*,#284,.T.);
#464=ORIENTED_EDGE('',*,*,#287,.T.);
#465=ORIENTED_EDGE('',*,*,#289,.T.);
#466=ORIENTED_EDGE('',*,*,#291,.T.);
#467=ORIENTED_EDGE('',*,*,#325,.T.);
#468=ORIENTED_EDGE('',*,*,#323,.T.);
#469=ORIENTED_EDGE('',*,*,#330,.T.);
#470=ORIENTED_EDGE('',*,*,#318,.T.);
#471=ORIENTED_EDGE('',*,*,#312,.F.);
#472=ORIENTED_EDGE('',*,*,#314,.T.);
#473=ORIENTED_EDGE('',*,*,#307,.F.);
#474=ORIENTED_EDGE('',*,*,#310,.T.);
#475=ORIENTED_EDGE('',*,*,#320,.F.);
#476=ORIENTED_EDGE('',*,*,#321,.T.);
#477=ORIENTED_EDGE('',*,*,#316,.F.);
#478=CYLINDRICAL_SURFACE('',#534,2.5);
#479=CYLINDRICAL_SURFACE('',#541,2.5);
#480=CYLINDRICAL_SURFACE('',#547,2.5);
#481=CYLINDRICAL_SURFACE('',#553,2.5);
#482=CYLINDRICAL_SURFACE('',#558,7.5);
#483=CYLINDRICAL_SURFACE('',#561,7.49999999999999);
#484=CYLINDRICAL_SURFACE('',#570,2.5);
#485=CYLINDRICAL_SURFACE('',#573,2.5);
#486=CYLINDRICAL_SURFACE('',#576,2.5);
#487=CYLINDRICAL_SURFACE('',#579,2.5);
#488=CYLINDRICAL_SURFACE('',#583,7.5);
#489=CYLINDRICAL_SURFACE('',#586,7.49999999999998);
#490=ADVANCED_FACE('',(#40),#478,.T.);
#491=ADVANCED_FACE('',(#41),#36,.T.);
#492=ADVANCED_FACE('',(#42),#479,.T.);
#493=ADVANCED_FACE('',(#43),#37,.T.);
#494=ADVANCED_FACE('',(#44),#480,.T.);
#495=ADVANCED_FACE('',(#45),#38,.T.);
#496=ADVANCED_FACE('',(#46),#481,.T.);
#497=ADVANCED_FACE('',(#47),#39,.T.);
#498=ADVANCED_FACE('',(#48),#482,.T.);
#499=ADVANCED_FACE('',(#49),#24,.T.);
#500=ADVANCED_FACE('',(#50),#483,.T.);
#501=ADVANCED_FACE('',(#51),#25,.T.);
#502=ADVANCED_FACE('',(#52,#17),#26,.F.);
#503=ADVANCED_FACE('',(#53,#18),#27,.F.);
#504=ADVANCED_FACE('',(#54),#484,.F.);
#505=ADVANCED_FACE('',(#55),#28,.T.);
#506=ADVANCED_FACE('',(#56),#485,.F.);
#507=ADVANCED_FACE('',(#57),#29,.T.);
#508=ADVANCED_FACE('',(#58),#486,.F.);
#509=ADVANCED_FACE('',(#59),#30,.T.);
#510=ADVANCED_FACE('',(#60),#487,.F.);
#511=ADVANCED_FACE('',(#61),#31,.T.);
#512=ADVANCED_FACE('',(#62),#32,.T.);
#513=ADVANCED_FACE('',(#63),#488,.T.);
#514=ADVANCED_FACE('',(#64),#15,.T.);
#515=ADVANCED_FACE('',(#65),#16,.T.);
#516=ADVANCED_FACE('',(#66),#33,.T.);
#517=ADVANCED_FACE('',(#67),#489,.T.);
#518=ADVANCED_FACE('',(#68),#34,.T.);
#519=ADVANCED_FACE('',(#69,#19),#35,.T.);
#520=CLOSED_SHELL('',(#490,#491,#492,#493,#494,#495,#496,#497,#498,#499,
#500,#501,#502,#503,#504,#505,#506,#507,#508,#509,#510,#511,#512,#513,#514,
#515,#516,#517,#518,#519));
#521=DERIVED_UNIT_ELEMENT(#523,1.);
#522=DERIVED_UNIT_ELEMENT(#962,-3.);
#523=(
MASS_UNIT()
NAMED_UNIT(*)
SI_UNIT(.KILO.,.GRAM.)
);
#524=DERIVED_UNIT((#521,#522));
#525=MEASURE_REPRESENTATION_ITEM('density measure',
POSITIVE_RATIO_MEASURE(7850.),#524);
#526=PROPERTY_DEFINITION_REPRESENTATION(#531,#528);
#527=PROPERTY_DEFINITION_REPRESENTATION(#532,#529);
#528=REPRESENTATION('material name',(#530),#959);
#529=REPRESENTATION('density',(#525),#959);
#530=DESCRIPTIVE_REPRESENTATION_ITEM('Steel','Steel');
#531=PROPERTY_DEFINITION('material property','material name',#969);
#532=PROPERTY_DEFINITION('material property','density of part',#969);
#533=AXIS2_PLACEMENT_3D('',#745,#590,#591);
#534=AXIS2_PLACEMENT_3D('',#746,#592,#593);
#535=AXIS2_PLACEMENT_3D('',#749,#594,#595);
#536=AXIS2_PLACEMENT_3D('',#753,#597,#598);
#537=AXIS2_PLACEMENT_3D('',#755,#600,#601);
#538=AXIS2_PLACEMENT_3D('',#758,#602,#603);
#539=AXIS2_PLACEMENT_3D('',#759,#604,#605);
#540=AXIS2_PLACEMENT_3D('',#760,#606,#607);
#541=AXIS2_PLACEMENT_3D('',#761,#608,#609);
#542=AXIS2_PLACEMENT_3D('',#764,#610,#611);
#543=AXIS2_PLACEMENT_3D('',#767,#614,#615);
#544=AXIS2_PLACEMENT_3D('',#770,#616,#617);
#545=AXIS2_PLACEMENT_3D('',#771,#618,#619);
#546=AXIS2_PLACEMENT_3D('',#772,#620,#621);
#547=AXIS2_PLACEMENT_3D('',#773,#622,#623);
#548=AXIS2_PLACEMENT_3D('',#776,#624,#625);
#549=AXIS2_PLACEMENT_3D('',#779,#628,#629);
#550=AXIS2_PLACEMENT_3D('',#782,#630,#631);
#551=AXIS2_PLACEMENT_3D('',#783,#632,#633);
#552=AXIS2_PLACEMENT_3D('',#784,#634,#635);
#553=AXIS2_PLACEMENT_3D('',#785,#636,#637);
#554=AXIS2_PLACEMENT_3D('',#788,#638,#639);
#555=AXIS2_PLACEMENT_3D('',#791,#642,#643);
#556=AXIS2_PLACEMENT_3D('',#792,#644,#645);
#557=AXIS2_PLACEMENT_3D('',#793,#646,#647);
#558=AXIS2_PLACEMENT_3D('',#794,#648,#649);
#559=AXIS2_PLACEMENT_3D('',#798,#651,#652);
#560=AXIS2_PLACEMENT_3D('',#800,#654,#655);
#561=AXIS2_PLACEMENT_3D('',#804,#658,#659);
#562=AXIS2_PLACEMENT_3D('',#807,#661,#662);
#563=AXIS2_PLACEMENT_3D('',#808,#663,#664);
#564=AXIS2_PLACEMENT_3D('',#812,#667,#668);
#565=AXIS2_PLACEMENT_3D('',#834,#670,#671);
#566=AXIS2_PLACEMENT_3D('',#858,#673,#674);
#567=AXIS2_PLACEMENT_3D('',#862,#676,#677);
#568=AXIS2_PLACEMENT_3D('',#866,#679,#680);
#569=AXIS2_PLACEMENT_3D('',#870,#682,#683);
#570=AXIS2_PLACEMENT_3D('',#872,#685,#686);
#571=AXIS2_PLACEMENT_3D('',#876,#688,#689);
#572=AXIS2_PLACEMENT_3D('',#878,#691,#692);
#573=AXIS2_PLACEMENT_3D('',#882,#695,#696);
#574=AXIS2_PLACEMENT_3D('',#886,#698,#699);
#575=AXIS2_PLACEMENT_3D('',#888,#701,#702);
#576=AXIS2_PLACEMENT_3D('',#890,#704,#705);
#577=AXIS2_PLACEMENT_3D('',#894,#707,#708);
#578=AXIS2_PLACEMENT_3D('',#896,#710,#711);
#579=AXIS2_PLACEMENT_3D('',#898,#713,#714);
#580=AXIS2_PLACEMENT_3D('',#901,#716,#717);
#581=AXIS2_PLACEMENT_3D('',#902,#718,#719);
#582=AXIS2_PLACEMENT_3D('',#904,#721,#722);
#583=AXIS2_PLACEMENT_3D('',#910,#726,#727);
#584=AXIS2_PLACEMENT_3D('',#911,#728,#729);
#585=AXIS2_PLACEMENT_3D('',#949,#733,#734);
#586=AXIS2_PLACEMENT_3D('',#950,#735,#736);
#587=AXIS2_PLACEMENT_3D('',#953,#738,#739);
#588=AXIS2_PLACEMENT_3D('',#954,#740,#741);
#589=AXIS2_PLACEMENT_3D('',#956,#743,#744);
#590=DIRECTION('axis',(0.,0.,1.));
#591=DIRECTION('refdir',(1.,0.,0.));
#592=DIRECTION('center_axis',(0.,2.46519032881566E-32,-1.));
#593=DIRECTION('ref_axis',(0.707106781186547,0.707106781186547,0.));
#594=DIRECTION('center_axis',(0.,0.,-1.));
#595=DIRECTION('ref_axis',(0.,1.,0.));
#596=DIRECTION('',(0.,2.46519032881566E-32,-1.));
#597=DIRECTION('center_axis',(1.77635683940025E-15,0.,1.));
#598=DIRECTION('ref_axis',(1.,0.,-1.77635683940025E-15));
#599=DIRECTION('',(0.,-2.46519032881566E-32,1.));
#600=DIRECTION('center_axis',(-1.23259516440783E-32,1.,2.46519032881566E-32));
#601=DIRECTION('ref_axis',(0.,0.,1.));
#602=DIRECTION('center_axis',(1.,0.,0.));
#603=DIRECTION('ref_axis',(0.,0.,-1.));
#604=DIRECTION('center_axis',(1.23259516440783E-32,-1.,-2.46519032881566E-32));
#605=DIRECTION('ref_axis',(0.707106781186549,2.61472919763157E-32,-0.707106781186546));
#606=DIRECTION('center_axis',(-1.23259516440783E-32,1.,2.46519032881566E-32));
#607=DIRECTION('ref_axis',(0.707106781186549,0.,-0.707106781186546));
#608=DIRECTION('center_axis',(-1.,-1.23259516440783E-32,-1.09519856054391E-15));
#609=DIRECTION('ref_axis',(0.,0.707106781186547,-0.707106781186547));
#610=DIRECTION('center_axis',(1.,0.,0.));
#611=DIRECTION('ref_axis',(0.,0.,-1.));
#612=DIRECTION('',(1.,1.23259516440783E-32,1.09519856054391E-15));
#613=DIRECTION('',(-1.,-1.23259516440783E-32,-1.09519856054391E-15));
#614=DIRECTION('center_axis',(-1.23259516440783E-32,1.,2.46519032881566E-32));
#615=DIRECTION('ref_axis',(0.,0.,1.));
#616=DIRECTION('center_axis',(-1.77635683940025E-15,0.,-1.));
#617=DIRECTION('ref_axis',(-1.,0.,1.77635683940025E-15));
#618=DIRECTION('center_axis',(1.23259516440783E-32,-1.,-2.46519032881566E-32));
#619=DIRECTION('ref_axis',(-0.707106781186548,8.71576399210525E-33,-0.707106781186547));
#620=DIRECTION('center_axis',(-1.23259516440783E-32,1.,2.46519032881566E-32));
#621=DIRECTION('ref_axis',(-0.707106781186548,0.,-0.707106781186547));
#622=DIRECTION('center_axis',(5.46571335200077E-16,-2.46519032881566E-32,
1.));
#623=DIRECTION('ref_axis',(-0.707106781186547,0.707106781186547,0.));
#624=DIRECTION('center_axis',(-1.77635683940025E-15,0.,-1.));
#625=DIRECTION('ref_axis',(-1.,0.,1.77635683940025E-15));
#626=DIRECTION('',(-5.46571335200077E-16,2.46519032881566E-32,-1.));
#627=DIRECTION('',(5.46571335200077E-16,-2.46519032881566E-32,1.));
#628=DIRECTION('center_axis',(-1.23259516440783E-32,1.,2.46519032881566E-32));
#629=DIRECTION('ref_axis',(0.,0.,1.));
#630=DIRECTION('center_axis',(-1.,0.,0.));
#631=DIRECTION('ref_axis',(0.,0.,1.));
#632=DIRECTION('center_axis',(1.23259516440783E-32,-1.,-2.46519032881566E-32));
#633=DIRECTION('ref_axis',(-0.70710678118655,-2.61472919763157E-32,0.707106781186545));
#634=DIRECTION('center_axis',(-1.23259516440783E-32,1.,2.46519032881566E-32));
#635=DIRECTION('ref_axis',(-0.70710678118655,0.,0.707106781186545));
#636=DIRECTION('center_axis',(1.,1.23259516440783E-32,1.46026474739188E-15));
#637=DIRECTION('ref_axis',(0.,0.707106781186547,0.707106781186547));
#638=DIRECTION('center_axis',(-1.,0.,0.));
#639=DIRECTION('ref_axis',(0.,0.,1.));
#640=DIRECTION('',(-1.,-1.23259516440783E-32,-1.46026474739188E-15));
#641=DIRECTION('',(1.,1.23259516440783E-32,1.46026474739188E-15));
#642=DIRECTION('center_axis',(-1.23259516440783E-32,1.,2.46519032881566E-32));
#643=DIRECTION('ref_axis',(0.,0.,1.));
#644=DIRECTION('center_axis',(1.23259516440783E-32,-1.,-2.46519032881566E-32));
#645=DIRECTION('ref_axis',(0.707106781186545,-8.71576399210535E-33,0.70710678118655));
#646=DIRECTION('center_axis',(-1.23259516440783E-32,1.,2.46519032881566E-32));
#647=DIRECTION('ref_axis',(0.707106781186545,0.,0.707106781186549));
#648=DIRECTION('center_axis',(0.,1.,0.));
#649=DIRECTION('ref_axis',(-1.,0.,1.77635683940025E-15));
#650=DIRECTION('',(0.,1.,0.));
#651=DIRECTION('center_axis',(1.23259516440783E-32,-1.,-2.46519032881566E-32));
#652=DIRECTION('ref_axis',(-1.,-1.23259516440783E-32,1.77635683940025E-15));
#653=DIRECTION('',(0.,1.,0.));
#654=DIRECTION('center_axis',(1.09519856054391E-15,0.,-1.));
#655=DIRECTION('ref_axis',(-1.,1.51989332306522E-32,-1.09519856054391E-15));
#656=DIRECTION('',(0.,1.,0.));
#657=DIRECTION('',(1.,-1.51989332306522E-32,1.09519856054391E-15));
#658=DIRECTION('center_axis',(0.,1.,0.));
#659=DIRECTION('ref_axis',(0.,0.,-1.));
#660=DIRECTION('',(0.,1.,0.));
#661=DIRECTION('center_axis',(1.23259516440783E-32,-1.,1.1151120758906E-46));
#662=DIRECTION('ref_axis',(0.,-1.1151120758906E-46,-1.));
#663=DIRECTION('center_axis',(1.,0.,0.));
#664=DIRECTION('ref_axis',(0.,1.65926272131823E-32,-1.));
#665=DIRECTION('',(0.,1.,0.));
#666=DIRECTION('',(0.,-1.65926272131823E-32,1.));
#667=DIRECTION('center_axis',(1.23259516440783E-32,-1.,-2.46519032881566E-32));
#668=DIRECTION('ref_axis',(1.,1.23259516440783E-32,0.));
#669=DIRECTION('',(3.41607084500048E-15,3.41607084500048E-16,-1.));
#670=DIRECTION('center_axis',(5.55111512312592E-17,-1.,-1.33907057366956E-16));
#671=DIRECTION('ref_axis',(1.,5.55111512312592E-17,1.22139361629038E-46));
#672=DIRECTION('',(3.41607084500048E-15,1.33907057366956E-16,-1.));
#673=DIRECTION('center_axis',(-5.55111512312592E-17,1.,1.33907057366956E-16));
#674=DIRECTION('ref_axis',(0.707106781186547,0.,0.707106781186547));
#675=DIRECTION('',(1.,5.55111512312592E-17,1.22139361629038E-46));
#676=DIRECTION('center_axis',(-5.55111512312592E-17,1.,1.33907057366956E-16));
#677=DIRECTION('ref_axis',(-0.707106781186547,0.,0.707106781186547));
#678=DIRECTION('',(7.43333491242988E-33,-1.33907057366956E-16,1.));
#679=DIRECTION('center_axis',(-5.55111512312592E-17,1.,1.33907057366956E-16));
#680=DIRECTION('ref_axis',(-0.707106781186547,0.,-0.707106781186547));
#681=DIRECTION('',(-1.,-5.55111512312592E-17,-1.22139361629038E-46));
#682=DIRECTION('center_axis',(-5.55111512312592E-17,1.,1.33907057366956E-16));
#683=DIRECTION('ref_axis',(0.707106781186547,0.,-0.707106781186547));
#684=DIRECTION('',(-7.43333491242988E-33,1.33907057366956E-16,-1.));
#685=DIRECTION('center_axis',(0.,-1.,0.));
#686=DIRECTION('ref_axis',(-0.707106781186547,0.,-0.707106781186547));
#687=DIRECTION('',(0.,-1.,0.));
#688=DIRECTION('center_axis',(5.55111512312592E-17,-1.,-1.33907057366956E-16));
#689=DIRECTION('ref_axis',(-0.707106781186547,0.,-0.707106781186547));
#690=DIRECTION('',(0.,1.,0.));
#691=DIRECTION('center_axis',(1.,0.,-7.43333491242988E-33));
#692=DIRECTION('ref_axis',(7.43333491242988E-33,-1.33907057366956E-16,1.));
#693=DIRECTION('',(0.,1.,0.));
#694=DIRECTION('',(7.43333491242988E-33,-1.33907057366956E-16,1.));
#695=DIRECTION('center_axis',(0.,-1.,0.));
#696=DIRECTION('ref_axis',(0.707106781186547,0.,-0.707106781186547));
#697=DIRECTION('',(0.,-1.,0.));
#698=DIRECTION('center_axis',(5.55111512312592E-17,-1.,-1.33907057366956E-16));
#699=DIRECTION('ref_axis',(0.707106781186547,0.,-0.707106781186547));
#700=DIRECTION('',(0.,1.,0.));
#701=DIRECTION('center_axis',(-1.22139361629038E-46,0.,1.));
#702=DIRECTION('ref_axis',(-1.,-5.55111512312592E-17,-1.22139361629038E-46));
#703=DIRECTION('',(-1.,-5.55111512312592E-17,-1.22139361629038E-46));
#704=DIRECTION('center_axis',(0.,-1.,0.));
#705=DIRECTION('ref_axis',(0.707106781186547,0.,0.707106781186547));
#706=DIRECTION('',(0.,-1.,0.));
#707=DIRECTION('center_axis',(5.55111512312592E-17,-1.,-1.33907057366956E-16));
#708=DIRECTION('ref_axis',(0.707106781186547,0.,0.707106781186547));
#709=DIRECTION('',(0.,1.,0.));
#710=DIRECTION('center_axis',(-1.,0.,7.43333491242988E-33));
#711=DIRECTION('ref_axis',(-7.43333491242988E-33,1.33907057366956E-16,-1.));
#712=DIRECTION('',(-7.43333491242988E-33,1.33907057366956E-16,-1.));
#713=DIRECTION('center_axis',(0.,-1.,0.));
#714=DIRECTION('ref_axis',(-0.707106781186547,0.,0.707106781186547));
#715=DIRECTION('',(0.,-1.,0.));
#716=DIRECTION('center_axis',(5.55111512312592E-17,-1.,-1.33907057366956E-16));
#717=DIRECTION('ref_axis',(-0.707106781186547,0.,0.707106781186547));
#718=DIRECTION('center_axis',(1.22139361629038E-46,0.,-1.));
#719=DIRECTION('ref_axis',(1.,5.55111512312592E-17,1.22139361629038E-46));
#720=DIRECTION('',(1.,5.55111512312592E-17,1.22139361629038E-46));
#721=DIRECTION('center_axis',(-1.46026474739188E-15,0.,1.));
#722=DIRECTION('ref_axis',(1.,0.,1.46026474739188E-15));
#723=DIRECTION('',(0.,1.,0.));
#724=DIRECTION('',(-1.,0.,-1.46026474739188E-15));
#725=DIRECTION('',(0.,1.,0.));
#726=DIRECTION('center_axis',(0.,1.,0.));
#727=DIRECTION('ref_axis',(1.,0.,-2.368475785867E-15));
#728=DIRECTION('center_axis',(2.368475785867E-15,-1.,-5.60967754823831E-30));
#729=DIRECTION('ref_axis',(1.,2.368475785867E-15,-2.368475785867E-15));
#730=DIRECTION('',(0.,1.,0.));
#731=DIRECTION('',(0.,1.,0.));
#732=DIRECTION('',(0.,1.,0.));
#733=DIRECTION('center_axis',(1.,0.,3.41607084500048E-15));
#734=DIRECTION('ref_axis',(3.41607084500048E-15,3.41607084500048E-16,-1.));
#735=DIRECTION('center_axis',(0.,1.,0.));
#736=DIRECTION('ref_axis',(0.,0.,1.));
#737=DIRECTION('',(0.,1.,0.));
#738=DIRECTION('center_axis',(0.,-1.,0.));
#739=DIRECTION('ref_axis',(0.,0.,1.));
#740=DIRECTION('center_axis',(-1.,0.,5.46571335200077E-16));
#741=DIRECTION('ref_axis',(5.46571335200077E-16,-2.73285667600039E-16,1.));
#742=DIRECTION('',(-5.46571335200077E-16,2.73285667600039E-16,-1.));
#743=DIRECTION('center_axis',(1.23259516440783E-32,-1.,-2.46519032881566E-32));
#744=DIRECTION('ref_axis',(1.,1.23259516440783E-32,0.));
#745=CARTESIAN_POINT('',(0.,0.,0.));
#746=CARTESIAN_POINT('Origin',(217.350711941153,-150.2874,21.1776031677215));
#747=CARTESIAN_POINT('',(217.350711941153,-147.7874,37.4276031677215));
#748=CARTESIAN_POINT('',(219.850711941153,-150.2874,37.4276031677215));
#749=CARTESIAN_POINT('Origin',(217.350711941153,-150.2874,37.4276031677215));
#750=CARTESIAN_POINT('',(219.850711941153,-150.2874,-27.5723968322785));
#751=CARTESIAN_POINT('',(219.850711941153,-150.2874,21.1776031677215));
#752=CARTESIAN_POINT('',(217.350711941153,-147.7874,-27.5723968322785));
#753=CARTESIAN_POINT('Origin',(217.350711941153,-150.2874,-27.5723968322785));
#754=CARTESIAN_POINT('',(217.350711941153,-147.7874,21.1776031677215));
#755=CARTESIAN_POINT('Origin',(212.350711941153,-150.2874,-27.5723968322785));
#756=CARTESIAN_POINT('',(212.350711941153,-150.2874,-35.0723968322785));
#757=CARTESIAN_POINT('',(212.350711941153,-147.7874,-32.5723968322785));
#758=CARTESIAN_POINT('Origin',(212.350711941153,-150.2874,-32.5723968322785));
#759=CARTESIAN_POINT('Origin',(212.350711941153,-147.7874,-27.5723968322785));
#760=CARTESIAN_POINT('Origin',(212.350711941153,-150.2874,-27.5723968322785));
#761=CARTESIAN_POINT('Origin',(209.309556488738,-150.2874,-32.5723968322785));
#762=CARTESIAN_POINT('',(200.186090131492,-150.2874,-35.0723968322785));
#763=CARTESIAN_POINT('',(200.186090131492,-147.7874,-32.5723968322785));
#764=CARTESIAN_POINT('Origin',(200.186090131492,-150.2874,-32.5723968322785));
#765=CARTESIAN_POINT('',(209.309556488738,-147.7874,-32.5723968322785));
#766=CARTESIAN_POINT('',(209.309556488738,-150.2874,-35.0723968322785));
#767=CARTESIAN_POINT('Origin',(200.186090131492,-150.2874,-27.5723968322785));
#768=CARTESIAN_POINT('',(192.686090131492,-150.2874,-27.5723968322785));
#769=CARTESIAN_POINT('',(195.186090131492,-147.7874,-27.5723968322785));
#770=CARTESIAN_POINT('Origin',(195.186090131492,-150.2874,-27.5723968322785));
#771=CARTESIAN_POINT('Origin',(200.186090131492,-147.7874,-27.5723968322785));
#772=CARTESIAN_POINT('Origin',(200.186090131492,-150.2874,-27.5723968322785));
#773=CARTESIAN_POINT('Origin',(195.186090131492,-150.2874,-11.3223968322785));
#774=CARTESIAN_POINT('',(192.686090131492,-150.2874,37.4276031677215));
#775=CARTESIAN_POINT('',(195.186090131492,-147.7874,37.4276031677215));
#776=CARTESIAN_POINT('Origin',(195.186090131492,-150.2874,37.4276031677215));
#777=CARTESIAN_POINT('',(195.186090131492,-147.7874,-11.3223968322785));
#778=CARTESIAN_POINT('',(192.686090131492,-150.2874,-11.3223968322785));
#779=CARTESIAN_POINT('Origin',(200.186090131492,-150.2874,37.4276031677216));
#780=CARTESIAN_POINT('',(200.186090131492,-150.2874,44.9276031677215));
#781=CARTESIAN_POINT('',(200.186090131492,-147.7874,42.4276031677215));
#782=CARTESIAN_POINT('Origin',(200.186090131492,-150.2874,42.4276031677215));
#783=CARTESIAN_POINT('Origin',(200.186090131492,-147.7874,37.4276031677216));
#784=CARTESIAN_POINT('Origin',(200.186090131492,-150.2874,37.4276031677216));
#785=CARTESIAN_POINT('Origin',(203.227245583907,-150.2874,42.4276031677215));
#786=CARTESIAN_POINT('',(212.350711941153,-150.2874,44.9276031677216));
#787=CARTESIAN_POINT('',(212.350711941153,-147.7874,42.4276031677216));
#788=CARTESIAN_POINT('Origin',(212.350711941153,-150.2874,42.4276031677216));
#789=CARTESIAN_POINT('',(203.227245583907,-147.7874,42.4276031677215));
#790=CARTESIAN_POINT('',(203.227245583907,-150.2874,44.9276031677215));
#791=CARTESIAN_POINT('Origin',(212.350711941153,-150.2874,37.4276031677216));
#792=CARTESIAN_POINT('Origin',(212.350711941153,-147.7874,37.4276031677216));
#793=CARTESIAN_POINT('Origin',(212.350711941153,-150.2874,37.4276031677216));
#794=CARTESIAN_POINT('Origin',(200.186090131492,-156.5994,-27.5723968322785));
#795=CARTESIAN_POINT('',(200.186090131492,-156.5994,-35.0723968322785));
#796=CARTESIAN_POINT('',(200.186090131492,-156.5994,-35.0723968322785));
#797=CARTESIAN_POINT('',(192.686090131492,-156.5994,-27.5723968322785));
#798=CARTESIAN_POINT('Origin',(200.186090131492,-156.5994,-27.5723968322785));
#799=CARTESIAN_POINT('',(192.686090131492,-156.5994,-27.5723968322785));
#800=CARTESIAN_POINT('Origin',(212.350711941153,-156.5994,-35.0723968322785));
#801=CARTESIAN_POINT('',(212.350711941153,-156.5994,-35.0723968322785));
#802=CARTESIAN_POINT('',(212.350711941153,-156.5994,-35.0723968322785));
#803=CARTESIAN_POINT('',(200.186090131492,-156.5994,-35.0723968322785));
#804=CARTESIAN_POINT('Origin',(212.350711941153,-156.5994,-27.5723968322785));
#805=CARTESIAN_POINT('',(219.850711941153,-156.5994,-27.5723968322785));
#806=CARTESIAN_POINT('',(219.850711941153,-156.5994,-27.5723968322785));
#807=CARTESIAN_POINT('Origin',(212.350711941153,-156.5994,-27.5723968322785));
#808=CARTESIAN_POINT('Origin',(219.850711941153,-156.5994,37.4276031677215));
#809=CARTESIAN_POINT('',(219.850711941153,-156.5994,37.4276031677215));
#810=CARTESIAN_POINT('',(219.850711941153,-156.5994,37.4276031677215));
#811=CARTESIAN_POINT('',(219.850711941153,-156.5994,-27.5723968322785));
#812=CARTESIAN_POINT('Origin',(206.268401036322,-147.7874,4.92760316772155));
#813=CARTESIAN_POINT('',(197.768401036322,-147.7874,30.9275831677218));
#814=CARTESIAN_POINT('',(197.768401036322,-147.7874,-21.0724168322782));
#815=CARTESIAN_POINT('',(197.768401036322,-147.7874,30.9275831677218));
#816=CARTESIAN_POINT('',(214.768401036322,-147.7874,30.9275831677219));
#817=CARTESIAN_POINT('Ctrl Pts',(197.768401036322,-147.7874,-21.0724168322782));
#818=CARTESIAN_POINT('Ctrl Pts',(197.768401036322,-147.7874,-25.7609079821853));
#819=CARTESIAN_POINT('Ctrl Pts',(201.579909886415,-147.7874,-29.5724168322782));
#820=CARTESIAN_POINT('Ctrl Pts',(206.268401036322,-147.7874,-29.5724168322782));
#821=CARTESIAN_POINT('Ctrl Pts',(210.956901574631,-147.7874,-29.5724168322781));
#822=CARTESIAN_POINT('Ctrl Pts',(214.768401036322,-147.7874,-25.7609072277421));
#823=CARTESIAN_POINT('Ctrl Pts',(214.768401036322,-147.7874,-21.0724168322781));
#824=CARTESIAN_POINT('Ctrl Pts',(214.768401036322,-147.7874,30.9274831677219));
#825=CARTESIAN_POINT('Ctrl Pts',(214.768401036322,-147.7874,30.9275331677219));
#826=CARTESIAN_POINT('Ctrl Pts',(214.768401036322,-147.7874,30.9275831677219));
#827=CARTESIAN_POINT('Ctrl Pts',(214.768401036322,-147.7874,30.9275831677219));
#828=CARTESIAN_POINT('Ctrl Pts',(214.768401036322,-147.7874,35.6160829515895));
#829=CARTESIAN_POINT('Ctrl Pts',(210.95690082019,-147.7874,39.4275831677219));
#830=CARTESIAN_POINT('Ctrl Pts',(206.268401036322,-147.7874,39.4275831677219));
#831=CARTESIAN_POINT('Ctrl Pts',(201.579910640858,-147.7874,39.4275831677218));
#832=CARTESIAN_POINT('Ctrl Pts',(197.768401036322,-147.7874,35.6160837060308));
#833=CARTESIAN_POINT('Ctrl Pts',(197.768401036322,-147.7874,30.9275831677218));
#834=CARTESIAN_POINT('Origin',(206.268401036322,-150.2494,4.92760316772152));
#835=CARTESIAN_POINT('',(214.768401036322,-150.2494,30.9275831677219));
#836=CARTESIAN_POINT('',(197.768401036322,-150.2494,30.9275831677218));
#837=CARTESIAN_POINT('Ctrl Pts',(214.768401036322,-150.2494,30.9275831677219));
#838=CARTESIAN_POINT('Ctrl Pts',(214.768401036322,-150.2494,35.6160829515895));
#839=CARTESIAN_POINT('Ctrl Pts',(210.95690082019,-150.2494,39.4275831677219));
#840=CARTESIAN_POINT('Ctrl Pts',(206.268401036322,-150.2494,39.4275831677219));
#841=CARTESIAN_POINT('Ctrl Pts',(201.579910640858,-150.2494,39.4275831677218));
#842=CARTESIAN_POINT('Ctrl Pts',(197.768401036322,-150.2494,35.6160837060308));
#843=CARTESIAN_POINT('Ctrl Pts',(197.768401036322,-150.2494,30.9275831677218));
#844=CARTESIAN_POINT('',(197.768401036322,-150.2494,-21.0724168322782));
#845=CARTESIAN_POINT('Ctrl Pts',(197.768401036322,-150.2494,-21.0724168322782));
#846=CARTESIAN_POINT('Ctrl Pts',(197.768401036322,-150.2494,-25.7609079821853));
#847=CARTESIAN_POINT('Ctrl Pts',(201.579909886415,-150.2494,-29.5724168322782));
#848=CARTESIAN_POINT('Ctrl Pts',(206.268401036322,-150.2494,-29.5724168322782));
#849=CARTESIAN_POINT('Ctrl Pts',(210.956901574631,-150.2494,-29.5724168322781));
#850=CARTESIAN_POINT('Ctrl Pts',(214.768401036322,-150.2494,-25.7609072277421));
#851=CARTESIAN_POINT('Ctrl Pts',(214.768401036322,-150.2494,-21.0724168322781));
#852=CARTESIAN_POINT('Ctrl Pts',(214.768401036322,-150.2494,30.9274831677219));
#853=CARTESIAN_POINT('Ctrl Pts',(214.768401036322,-150.2494,30.9275331677219));
#854=CARTESIAN_POINT('Ctrl Pts',(214.768401036322,-150.2494,30.9275831677219));
#855=CARTESIAN_POINT('',(197.768401036322,-150.2494,17.9275931677217));
#856=CARTESIAN_POINT('',(206.768401036322,-150.2494,37.4276031677215));
#857=CARTESIAN_POINT('',(209.268401036322,-150.2494,34.9276031677215));
#858=CARTESIAN_POINT('Origin',(206.768401036322,-150.2494,34.9276031677215));
#859=CARTESIAN_POINT('',(205.768401036322,-150.2494,37.4276031677215));
#860=CARTESIAN_POINT('',(209.268401036322,-150.2494,37.4276031677215));
#861=CARTESIAN_POINT('',(203.268401036322,-150.2494,34.9276031677215));
#862=CARTESIAN_POINT('Origin',(205.768401036322,-150.2494,34.9276031677215));
#863=CARTESIAN_POINT('',(203.268401036322,-150.2494,-25.0723968322785));
#864=CARTESIAN_POINT('',(203.268401036322,-150.2494,37.4276031677215));
#865=CARTESIAN_POINT('',(205.768401036322,-150.2494,-27.5723968322785));
#866=CARTESIAN_POINT('Origin',(205.768401036322,-150.2494,-25.0723968322785));
#867=CARTESIAN_POINT('',(206.768401036322,-150.2494,-27.5723968322785));
#868=CARTESIAN_POINT('',(203.268401036322,-150.2494,-27.5723968322785));
#869=CARTESIAN_POINT('',(209.268401036322,-150.2494,-25.0723968322785));
#870=CARTESIAN_POINT('Origin',(206.768401036322,-150.2494,-25.0723968322785));
#871=CARTESIAN_POINT('',(209.268401036322,-150.2494,-27.5723968322785));
#872=CARTESIAN_POINT('Origin',(205.768401036322,-150.2494,-25.0723968322785));
#873=CARTESIAN_POINT('',(203.268401036322,-156.5994,-25.0723968322785));
#874=CARTESIAN_POINT('',(203.268401036322,-150.2494,-25.0723968322785));
#875=CARTESIAN_POINT('',(205.768401036322,-156.5994,-27.5723968322785));
#876=CARTESIAN_POINT('Origin',(205.768401036322,-156.5994,-25.0723968322785));
#877=CARTESIAN_POINT('',(205.768401036322,-150.2494,-27.5723968322785));
#878=CARTESIAN_POINT('Origin',(203.268401036322,-150.2494,-27.5723968322785));
#879=CARTESIAN_POINT('',(203.268401036322,-156.5994,34.9276031677215));
#880=CARTESIAN_POINT('',(203.268401036322,-150.2494,34.9276031677215));
#881=CARTESIAN_POINT('',(203.268401036322,-156.5994,37.4276031677215));
#882=CARTESIAN_POINT('Origin',(206.768401036322,-150.2494,-25.0723968322785));
#883=CARTESIAN_POINT('',(206.768401036322,-156.5994,-27.5723968322785));
#884=CARTESIAN_POINT('',(206.768401036322,-150.2494,-27.5723968322785));
#885=CARTESIAN_POINT('',(209.268401036322,-156.5994,-25.0723968322785));
#886=CARTESIAN_POINT('Origin',(206.768401036322,-156.5994,-25.0723968322785));
#887=CARTESIAN_POINT('',(209.268401036322,-150.2494,-25.0723968322785));
#888=CARTESIAN_POINT('Origin',(209.268401036322,-150.2494,-27.5723968322785));
#889=CARTESIAN_POINT('',(203.268401036322,-156.5994,-27.5723968322785));
#890=CARTESIAN_POINT('Origin',(206.768401036322,-150.2494,34.9276031677215));
#891=CARTESIAN_POINT('',(209.268401036322,-156.5994,34.9276031677215));
#892=CARTESIAN_POINT('',(209.268401036322,-150.2494,34.9276031677215));
#893=CARTESIAN_POINT('',(206.768401036322,-156.5994,37.4276031677215));
#894=CARTESIAN_POINT('Origin',(206.768401036322,-156.5994,34.9276031677215));
#895=CARTESIAN_POINT('',(206.768401036322,-150.2494,37.4276031677215));
#896=CARTESIAN_POINT('Origin',(209.268401036322,-150.2494,37.4276031677215));
#897=CARTESIAN_POINT('',(209.268401036322,-156.5994,-27.5723968322785));
#898=CARTESIAN_POINT('Origin',(205.768401036322,-150.2494,34.9276031677215));
#899=CARTESIAN_POINT('',(205.768401036322,-156.5994,37.4276031677215));
#900=CARTESIAN_POINT('',(205.768401036322,-150.2494,37.4276031677215));
#901=CARTESIAN_POINT('Origin',(205.768401036322,-156.5994,34.9276031677215));
#902=CARTESIAN_POINT('Origin',(203.268401036322,-150.2494,37.4276031677215));
#903=CARTESIAN_POINT('',(209.268401036322,-156.5994,37.4276031677215));
#904=CARTESIAN_POINT('Origin',(200.186090131492,-156.5994,44.9276031677215));
#905=CARTESIAN_POINT('',(200.186090131492,-156.5994,44.9276031677215));
#906=CARTESIAN_POINT('',(200.186090131492,-156.5994,44.9276031677215));
#907=CARTESIAN_POINT('',(212.350711941153,-156.5994,44.9276031677216));
#908=CARTESIAN_POINT('',(212.350711941153,-156.5994,44.9276031677216));
#909=CARTESIAN_POINT('',(212.350711941153,-156.5994,44.9276031677216));
#910=CARTESIAN_POINT('Origin',(212.350711941153,-156.5994,37.4276031677216));
#911=CARTESIAN_POINT('Origin',(212.350711941153,-156.5994,37.4276031677216));
#912=CARTESIAN_POINT('Ctrl Pts',(197.768401036322,-156.5994,-21.0724168322782));
#913=CARTESIAN_POINT('Ctrl Pts',(197.768401036322,-147.7874,-21.0724168322782));
#914=CARTESIAN_POINT('Ctrl Pts',(197.768401036322,-156.5994,-25.7609079821853));
#915=CARTESIAN_POINT('Ctrl Pts',(197.768401036322,-147.7874,-25.7609079821853));
#916=CARTESIAN_POINT('Ctrl Pts',(201.579909886415,-156.5994,-29.5724168322782));
#917=CARTESIAN_POINT('Ctrl Pts',(201.579909886415,-147.7874,-29.5724168322782));
#918=CARTESIAN_POINT('Ctrl Pts',(206.268401036322,-156.5994,-29.5724168322782));
#919=CARTESIAN_POINT('Ctrl Pts',(206.268401036322,-147.7874,-29.5724168322782));
#920=CARTESIAN_POINT('Ctrl Pts',(210.956901574631,-156.5994,-29.5724168322781));
#921=CARTESIAN_POINT('Ctrl Pts',(210.956901574631,-147.7874,-29.5724168322781));
#922=CARTESIAN_POINT('Ctrl Pts',(214.768401036322,-156.5994,-25.7609072277421));
#923=CARTESIAN_POINT('Ctrl Pts',(214.768401036322,-147.7874,-25.7609072277421));
#924=CARTESIAN_POINT('Ctrl Pts',(214.768401036322,-156.5994,-21.0724168322781));
#925=CARTESIAN_POINT('Ctrl Pts',(214.768401036322,-147.7874,-21.0724168322781));
#926=CARTESIAN_POINT('Ctrl Pts',(214.768401036322,-156.5994,30.9274831677219));
#927=CARTESIAN_POINT('Ctrl Pts',(214.768401036322,-147.7874,30.9274831677219));
#928=CARTESIAN_POINT('Ctrl Pts',(214.768401036322,-156.5994,30.9275331677219));
#929=CARTESIAN_POINT('Ctrl Pts',(214.768401036322,-147.7874,30.9275331677219));
#930=CARTESIAN_POINT('Ctrl Pts',(214.768401036322,-156.5994,30.9275831677219));
#931=CARTESIAN_POINT('Ctrl Pts',(214.768401036322,-147.7874,30.9275831677219));
#932=CARTESIAN_POINT('',(214.768401036322,-156.5994,30.9275831677219));
#933=CARTESIAN_POINT('',(197.768401036322,-156.5994,-21.0724168322782));
#934=CARTESIAN_POINT('Ctrl Pts',(214.768401036322,-156.5994,30.9275831677219));
#935=CARTESIAN_POINT('Ctrl Pts',(214.768401036322,-147.7874,30.9275831677219));
#936=CARTESIAN_POINT('Ctrl Pts',(214.768401036322,-156.5994,35.6160829515895));
#937=CARTESIAN_POINT('Ctrl Pts',(214.768401036322,-147.7874,35.6160829515895));
#938=CARTESIAN_POINT('Ctrl Pts',(210.95690082019,-156.5994,39.4275831677219));
#939=CARTESIAN_POINT('Ctrl Pts',(210.95690082019,-147.7874,39.4275831677219));
#940=CARTESIAN_POINT('Ctrl Pts',(206.268401036322,-156.5994,39.4275831677219));
#941=CARTESIAN_POINT('Ctrl Pts',(206.268401036322,-147.7874,39.4275831677219));
#942=CARTESIAN_POINT('Ctrl Pts',(201.579910640858,-156.5994,39.4275831677218));
#943=CARTESIAN_POINT('Ctrl Pts',(201.579910640858,-147.7874,39.4275831677218));
#944=CARTESIAN_POINT('Ctrl Pts',(197.768401036322,-156.5994,35.6160837060308));
#945=CARTESIAN_POINT('Ctrl Pts',(197.768401036322,-147.7874,35.6160837060308));
#946=CARTESIAN_POINT('Ctrl Pts',(197.768401036322,-156.5994,30.9275831677218));
#947=CARTESIAN_POINT('Ctrl Pts',(197.768401036322,-147.7874,30.9275831677218));
#948=CARTESIAN_POINT('',(197.768401036322,-156.5994,30.9275831677218));
#949=CARTESIAN_POINT('Origin',(197.768401036322,-156.5994,30.9275831677218));
#950=CARTESIAN_POINT('Origin',(200.186090131492,-156.5994,37.4276031677216));
#951=CARTESIAN_POINT('',(192.686090131492,-156.5994,37.4276031677215));
#952=CARTESIAN_POINT('',(192.686090131492,-156.5994,37.4276031677215));
#953=CARTESIAN_POINT('Origin',(200.186090131492,-156.5994,37.4276031677216));
#954=CARTESIAN_POINT('Origin',(192.686090131492,-156.5994,-27.5723968322785));
#955=CARTESIAN_POINT('',(192.686090131492,-156.5994,37.4276031677215));
#956=CARTESIAN_POINT('Origin',(206.268401036322,-156.5994,4.92760316772155));
#957=UNCERTAINTY_MEASURE_WITH_UNIT(LENGTH_MEASURE(0.01),#961,
'DISTANCE_ACCURACY_VALUE',
'Maximum model space distance between geometric entities at asserted c
onnectivities');
#958=UNCERTAINTY_MEASURE_WITH_UNIT(LENGTH_MEASURE(0.01),#961,
'DISTANCE_ACCURACY_VALUE',
'Maximum model space distance between geometric entities at asserted c
onnectivities');
#959=(
GEOMETRIC_REPRESENTATION_CONTEXT(3)
GLOBAL_UNCERTAINTY_ASSIGNED_CONTEXT((#957))
GLOBAL_UNIT_ASSIGNED_CONTEXT((#961,#963,#964))
REPRESENTATION_CONTEXT('','3D')
);
#960=(
GEOMETRIC_REPRESENTATION_CONTEXT(3)
GLOBAL_UNCERTAINTY_ASSIGNED_CONTEXT((#958))
GLOBAL_UNIT_ASSIGNED_CONTEXT((#961,#963,#964))
REPRESENTATION_CONTEXT('','3D')
);
#961=(
LENGTH_UNIT()
NAMED_UNIT(*)
SI_UNIT(.MILLI.,.METRE.)
);
#962=(
LENGTH_UNIT()
NAMED_UNIT(*)
SI_UNIT($,.METRE.)
);
#963=(
NAMED_UNIT(*)
PLANE_ANGLE_UNIT()
SI_UNIT($,.RADIAN.)
);
#964=(
NAMED_UNIT(*)
SI_UNIT($,.STERADIAN.)
SOLID_ANGLE_UNIT()
);
#965=SHAPE_DEFINITION_REPRESENTATION(#966,#967);
#966=PRODUCT_DEFINITION_SHAPE('',$,#969);
#967=SHAPE_REPRESENTATION('',(#533),#959);
#968=PRODUCT_DEFINITION_CONTEXT('part definition',#973,'design');
#969=PRODUCT_DEFINITION('2026-09-16-01-27-47-064','Top Clamp',#970,#968);
#970=PRODUCT_DEFINITION_FORMATION('',$,#975);
#971=PRODUCT_RELATED_PRODUCT_CATEGORY('Top Clamp','Top Clamp',(#975));
#972=APPLICATION_PROTOCOL_DEFINITION('international standard',
'automotive_design',2009,#973);
#973=APPLICATION_CONTEXT(
'Core Data for Automotive Mechanical Design Process');
#974=PRODUCT_CONTEXT('part definition',#973,'mechanical');
#975=PRODUCT('2026-09-16-01-27-47-064','Top Clamp',$,(#974));
#976=PRESENTATION_STYLE_ASSIGNMENT((#978));
#977=PRESENTATION_STYLE_ASSIGNMENT((#979));
#978=SURFACE_STYLE_USAGE(.BOTH.,#980);
#979=SURFACE_STYLE_USAGE(.BOTH.,#981);
#980=SURFACE_SIDE_STYLE('',(#982));
#981=SURFACE_SIDE_STYLE('',(#983));
#982=SURFACE_STYLE_FILL_AREA(#984);
#983=SURFACE_STYLE_FILL_AREA(#985);
#984=FILL_AREA_STYLE('Steel - Satin',(#986));
#985=FILL_AREA_STYLE(
'PA 12 - PA 2200 - 120\X\B5m - Balance (with EOS 3D printers)',(#987));
#986=FILL_AREA_STYLE_COLOUR('Steel - Satin',#988);
#987=FILL_AREA_STYLE_COLOUR(
'PA 12 - PA 2200 - 120\X\B5m - Balance (with EOS 3D printers)',#989);
#988=COLOUR_RGB('Steel - Satin',0.627450980392157,0.627450980392157,0.627450980392157);
#989=COLOUR_RGB(
'PA 12 - PA 2200 - 120\X\B5m - Balance (with EOS 3D printers)',0.964705882352941,
0.964705882352941,0.952941176470588);
ENDSEC;
END-ISO-10303-21;
